<?xml version="1.0" standalone="no"?>
<!DOCTYPE svg PUBLIC "-//W3C//DTD SVG 20010904//EN"
 "http://www.w3.org/TR/2001/REC-SVG-20010904/DTD/svg10.dtd">
<svg version="1.0" xmlns="http://www.w3.org/2000/svg"
 width="720.000000pt" height="720.000000pt" viewBox="0 0 720.000000 720.000000"
 preserveAspectRatio="xMidYMid meet">
<metadata>
Created by potrace 1.11, written by Peter Selinger 2001-2013
</metadata>
<g transform="translate(0.000000,720.000000) scale(0.100000,-0.100000)"
fill="#000000" stroke="none">
<path d="M0 5580 l0 -720 3600 0 3600 0 0 720 0 720 -3600 0 -3600 0 0 -720z"/>
<path d="M202 4322 l-22 -3 2 -716 3 -717 28 -7 c15 -4 27 -4 27 1 0 5 12 5
27 1 16 -4 44 -4 65 -1 20 4 42 4 49 -1 7 -4 20 -4 29 1 9 5 22 5 30 0 7 -4
24 -4 36 0 14 6 26 5 29 0 3 -5 18 -5 33 -1 15 4 38 5 52 1 14 -3 39 -3 55 0
17 4 39 4 50 0 11 -4 32 -4 47 1 15 4 30 4 33 -1 3 -5 15 -6 29 0 12 4 29 4
36 0 8 -5 21 -5 31 0 9 5 19 7 22 4 8 -8 106 -9 113 -1 3 3 18 1 34 -3 16 -4
31 -6 34 -3 3 4 29 5 58 4 29 -1 60 -1 68 -1 8 0 24 0 35 0 11 -1 27 -1 35 0
8 0 24 0 35 0 11 -1 26 -1 33 -1 25 2 38 2 90 0 29 -1 55 0 58 4 3 3 18 1 34
-3 16 -4 31 -6 34 -2 7 7 105 6 113 -1 2 -3 18 -1 34 3 16 5 31 5 34 0 3 -5
15 -6 29 0 12 4 29 4 36 0 8 -5 21 -5 30 0 9 5 22 5 28 1 7 -4 35 -5 62 -1 27
4 55 3 62 -1 6 -4 19 -4 28 1 9 5 22 5 30 0 7 -4 24 -4 36 0 14 6 26 5 29 0 3
-5 18 -5 33 -1 15 4 38 5 52 1 14 -3 42 -3 62 0 20 4 42 4 49 -1 7 -4 20 -4
29 1 9 5 22 5 30 0 7 -4 24 -4 36 0 14 6 26 5 29 0 3 -5 18 -5 34 0 16 4 32 6
34 4 7 -7 106 -9 112 -2 4 3 19 2 35 -2 16 -4 31 -6 34 -3 3 4 29 5 58 4 29
-1 60 -1 68 -1 8 0 24 0 35 0 11 -1 27 -1 35 0 8 0 24 0 35 0 11 -1 26 -1 33
-1 25 2 38 2 90 0 29 -1 55 0 58 4 3 3 19 1 35 -3 16 -5 31 -5 34 -1 2 5 23 5
45 1 22 -4 43 -4 45 1 3 4 18 4 34 -1 16 -4 32 -5 35 -2 4 3 29 5 56 3 l50 -2
-2 718 -3 718 -22 -1 c-13 0 -23 3 -23 7 0 4 -13 4 -28 -1 -16 -4 -35 -4 -43
1 -8 4 -21 4 -29 -1 -7 -4 -24 -4 -36 0 -14 6 -26 5 -29 0 -3 -5 -18 -5 -35 0
-17 5 -30 5 -30 0 0 -5 -13 -5 -30 0 -17 5 -30 5 -30 0 0 -5 -13 -5 -30 0 -17
5 -30 5 -30 0 0 -5 -13 -5 -30 0 -19 5 -30 5 -30 -1 0 -6 -4 -7 -10 -4 -13 8
-108 11 -115 3 -4 -3 -20 -2 -36 2 -16 5 -31 5 -34 1 -2 -5 -23 -5 -45 -1 -22
4 -43 4 -45 -1 -3 -4 -18 -4 -34 1 -16 4 -32 5 -36 2 -7 -8 -102 -5 -115 3 -6
3 -10 2 -10 -3 0 -6 -14 -7 -32 -3 -18 4 -48 4 -65 0 -18 -3 -33 -3 -33 2 0 4
-13 4 -30 -1 -17 -5 -30 -5 -30 0 0 5 -13 5 -30 0 -17 -5 -30 -5 -30 0 0 5
-13 5 -29 0 -15 -4 -34 -4 -42 0 -7 5 -20 5 -29 0 -9 -5 -22 -5 -30 0 -8 5
-21 5 -30 0 -9 -5 -22 -5 -30 0 -8 5 -21 5 -30 0 -9 -5 -22 -5 -29 -1 -7 5
-29 5 -49 1 -21 -3 -49 -3 -65 1 -15 4 -27 4 -27 -1 0 -4 -15 -5 -32 -1 -18 4
-48 4 -65 0 -18 -3 -33 -3 -33 2 0 4 -13 4 -30 -1 -17 -5 -30 -5 -30 0 0 5
-13 5 -30 0 -17 -5 -30 -5 -30 0 0 5 -13 5 -29 0 -15 -4 -34 -4 -42 0 -7 5
-20 5 -29 0 -9 -5 -22 -5 -30 0 -8 5 -21 5 -30 0 -9 -5 -22 -5 -30 0 -8 5 -21
5 -30 0 -9 -5 -22 -5 -29 -1 -7 5 -29 5 -49 1 -21 -3 -49 -3 -65 1 -15 4 -27
4 -27 -1 0 -4 -15 -4 -32 -1 -18 4 -48 4 -65 0 -18 -4 -33 -3 -33 1 0 5 -13 5
-30 0 -17 -5 -30 -5 -30 0 0 5 -13 5 -30 0 -17 -5 -30 -5 -30 0 0 5 -13 5 -29
0 -15 -4 -34 -4 -42 0 -7 5 -20 5 -29 0 -9 -5 -22 -5 -30 0 -8 5 -21 5 -30 0
-9 -5 -22 -5 -30 0 -8 5 -21 5 -30 0 -9 -5 -22 -5 -29 -1 -7 5 -29 5 -49 1
-21 -3 -49 -3 -65 1 -15 4 -27 4 -27 -1 0 -4 -15 -5 -32 -1 -18 4 -48 4 -65 0
-18 -3 -33 -3 -33 2 0 4 -13 4 -30 -1 -17 -5 -30 -5 -30 0 0 5 -13 5 -30 0
-16 -5 -30 -5 -30 0 0 4 -15 4 -34 0 -19 -4 -38 -4 -43 -1 -4 4 -18 5 -31 3z"/>
<path d="M3808 4322 l-27 -3 -1 -719 0 -719 60 1 c33 1 63 -1 66 -5 4 -3 14
-2 23 3 10 5 23 5 31 0 7 -4 24 -4 36 0 14 6 26 5 29 0 3 -5 18 -5 33 -1 15 4
38 5 52 1 14 -3 42 -3 62 0 20 4 42 4 49 -1 7 -4 20 -4 29 1 9 5 22 5 30 0 7
-4 24 -4 36 0 14 6 26 5 29 0 3 -5 18 -5 33 -1 15 4 38 5 52 1 14 -3 39 -3 55
0 17 4 39 4 50 0 11 -4 32 -4 47 1 15 4 30 4 33 -1 3 -5 15 -6 29 0 12 4 29 4
36 0 8 -5 21 -5 31 0 9 5 19 7 22 4 8 -8 106 -9 113 -1 3 3 18 1 34 -3 16 -4
31 -6 34 -3 3 4 29 5 58 4 29 -1 60 -1 68 -1 8 0 24 0 35 0 11 -1 27 -1 35 0
8 0 24 0 35 0 11 -1 26 -1 33 -1 25 2 38 2 90 0 29 -1 55 0 58 4 3 3 18 1 34
-3 16 -4 31 -6 34 -2 7 7 105 6 113 -1 2 -3 18 -1 34 3 16 5 31 5 34 0 3 -5
15 -6 29 0 12 4 29 4 36 0 8 -5 21 -5 30 0 9 5 22 5 28 1 7 -4 35 -5 62 -1 27
4 55 3 62 -1 6 -4 19 -4 28 1 9 5 22 5 30 0 7 -4 24 -4 36 0 14 6 26 5 29 0 3
-5 18 -5 33 -1 15 4 38 5 52 1 14 -3 42 -3 62 0 20 4 42 4 49 -1 7 -4 20 -4
29 1 9 5 22 5 30 0 7 -4 24 -4 36 0 14 6 26 5 29 0 3 -5 18 -5 34 0 16 4 32 6
34 4 7 -7 106 -9 112 -2 4 3 19 2 35 -2 16 -4 31 -6 34 -3 3 4 29 5 58 4 29
-1 60 -1 68 -1 8 0 24 0 35 0 11 -1 27 -1 35 0 8 0 24 0 35 0 11 -1 26 -1 33
-1 16 1 31 1 92 1 28 0 56 1 63 1 6 1 17 0 22 -1 6 -1 22 -2 37 -1 l28 1 -3
718 -2 717 -22 -1 c-13 0 -23 3 -23 7 0 4 -13 4 -28 -1 -16 -4 -35 -4 -43 1
-8 4 -21 4 -29 -1 -7 -4 -24 -4 -36 0 -14 6 -26 5 -29 -1 -4 -5 -11 -7 -16 -4
-12 8 -107 10 -114 3 -4 -3 -20 -2 -36 2 -16 5 -31 5 -34 1 -2 -5 -23 -5 -45
-1 -22 4 -43 4 -45 -1 -3 -4 -18 -4 -34 1 -16 4 -32 6 -35 3 -7 -8 -105 -7
-113 1 -3 3 -13 1 -22 -4 -10 -5 -23 -5 -31 0 -8 5 -21 5 -30 0 -9 -5 -22 -5
-30 0 -8 5 -21 5 -30 0 -9 -5 -22 -5 -29 0 -8 4 -27 4 -42 0 -16 -5 -29 -5
-29 0 0 5 -13 5 -30 0 -17 -5 -30 -5 -30 0 0 5 -13 5 -30 0 -16 -5 -30 -6 -30
-2 0 4 -29 7 -65 7 -36 0 -65 -4 -65 -8 0 -5 -4 -5 -10 -2 -13 8 -108 11 -115
3 -4 -3 -20 -2 -36 2 -16 5 -31 5 -34 1 -2 -5 -23 -5 -45 -1 -22 4 -43 4 -45
-1 -3 -4 -18 -4 -34 1 -16 4 -32 5 -36 2 -7 -8 -102 -5 -115 3 -6 3 -10 2 -10
-4 0 -6 -11 -6 -30 -1 -17 5 -30 5 -30 0 0 -5 -13 -5 -30 0 -17 5 -30 5 -30 0
0 -5 -13 -5 -30 0 -17 5 -30 5 -30 0 0 -5 -13 -5 -30 0 -17 5 -30 5 -30 0 0
-5 -13 -5 -30 0 -17 5 -30 5 -30 0 0 -5 -13 -5 -30 0 -17 5 -30 5 -30 0 0 -5
-13 -5 -30 0 -17 5 -30 5 -30 0 0 -5 -13 -5 -30 0 -19 5 -30 5 -30 -1 0 -6 -4
-7 -10 -4 -13 8 -108 11 -115 3 -4 -3 -20 -2 -36 2 -16 5 -31 5 -34 1 -2 -5
-23 -5 -45 -1 -22 4 -43 4 -45 -1 -3 -4 -18 -4 -34 1 -16 4 -32 6 -35 3 -7 -8
-105 -7 -113 1 -3 3 -13 1 -22 -4 -10 -5 -23 -5 -31 0 -8 5 -21 5 -30 0 -9 -5
-22 -5 -30 0 -8 5 -21 5 -30 0 -9 -5 -22 -5 -29 0 -8 4 -27 4 -42 0 -16 -5
-29 -5 -29 0 0 5 -13 5 -30 0 -17 -5 -30 -5 -30 0 0 5 -13 5 -30 0 -16 -5 -30
-6 -30 -2 0 4 -29 7 -65 7 -36 0 -65 -3 -65 -7 0 -4 -6 -5 -12 -3 -19 7 -70
11 -100 7z"/>
<path d="M0 1620 l0 -720 3600 0 3600 0 0 720 0 720 -3600 0 -3600 0 0 -720z"/>
</g>
</svg>
