<svg xmlns="http://www.w3.org/2000/svg" viewBox="0 0 360 270"><defs><style>.cls-1{fill:#292b2c}.cls-2{fill:#fff}.cls-3{fill:#3e396b}.cls-4{fill:#d21f79}</style></defs><g id="Layer_2" data-name="Layer 2"><g id="Layer_1-2" data-name="Layer 1"><rect width="359" height="71" x=".5" y=".5" class="cls-1"/><path d="M359,1V71H1V1H359m1-1H0V72H360V0Z" class="cls-2"/><rect width="359" height="71" x=".5" y="198.5" class="cls-1"/><path d="M359,199v70H1V199H359m1-1H0v72H360V198Z" class="cls-2"/><rect width="161" height="71" x="9.5" y="99.5" class="cls-3"/><path d="M170,100v70H10V100H170m1-1H9v72H171V99Z" class="cls-2"/><rect width="161" height="71" x="189.5" y="99.5" class="cls-4"/><path d="M350,100v70H190V100H350m1-1H189v72H351V99Z" class="cls-2"/></g></g></svg>