<svg xmlns="http://www.w3.org/2000/svg" xmlns:xlink="http://www.w3.org/1999/xlink" version="1.1"><metadata>Created by FontForge 20170731 at Sat Nov 14 17:52:49 2020 By Aleksey,,, Copyright (c) 2016 by Formika Labs. All rights reserved.</metadata><defs><font id="Sentral-Medium" horiz-adv-x="0"><font-face x-height="989" ascent="1577" bbox="-1593 -1018 2550 2038" cap-height="1454" descent="-471" font-family="Sentral Medium" font-stretch="normal" font-weight="500" panose-1="0 0 6 0 0 0 0 0 0 0" underline-position="-307" underline-thickness="102" unicode-range="U+0020-FB02" units-per-em="2048"/><glyph d="M1053 989v-989h-222v827h-378v-827h-222v827h-180v162h180v64q0 199 109 310.5t307 111.5q120 0 217 -19v-166q-35 10 -93 16.5t-87 6.5q-113 0 -172 -60t-59 -200v-64h600z" glyph-name="fi" horiz-adv-x="1185" unicode="fi"/><glyph d="M1190 150q45 0 84 10v-170q-49 -10 -123 -10q-142 0 -210.5 76.5t-68.5 236.5v1001q-88 19 -188 19q-113 0 -172 -60t-59 -200v-64h241l-18 -162h-223v-827h-222v827h-180v162h180v64q0 199 109 310.5t307 111.5q142 0 242 -21h205v-1188q0 -116 96 -116z" glyph-name="fl" horiz-adv-x="1361" unicode="fl"/><glyph d="M1391 1313q-56 0 -96 -11.5t-71.5 -39.5t-47 -80t-15.5 -129v-64h355l-19 -162h-336v-827h-221v827h-487v-827h-222v827h-180v162h180v64q0 199 109 310.5t307 111.5q120 0 217 -19v-166q-35 10 -93 16.5t-87 6.5q-113 0 -172 -60t-59 -200v-64h487v64q0 209 106.5 315.5 t307.5 106.5q124 0 217 -19v-166q-33 10 -91.5 16.5t-88.5 6.5z" glyph-name="f_f" horiz-adv-x="1622" unicode="ff"/><glyph d="M1759 989v-989h-221v827h-379v-827h-219v827h-487v-827h-222v827h-180v162h180v64q0 199 109 310.5t307 111.5q120 0 217 -19v-166q-35 10 -93 16.5t-87 6.5q-113 0 -172 -60t-59 -200v-64h487v64q0 200 107.5 311t306.5 111q122 0 215 -19v-166q-32 10 -90 16.5t-88 6.5 q-112 0 -172 -60t-60 -200v-64h600z" glyph-name="f_f_i" horiz-adv-x="1892" unicode="ffi"/><glyph d="M1896 150q48 0 84 10v-170q-46 -10 -125 -10q-140 0 -208 76.5t-68 236.5v1001q-85 19 -188 19q-56 0 -96 -11.5t-71.5 -39.5t-47 -80t-15.5 -129v-64h316l-19 -162h-297v-827h-221v827h-487v-827h-222v827h-180v162h180v64q0 199 109 310.5t307 111.5q120 0 217 -19 v-166q-35 10 -93 16.5t-87 6.5q-113 0 -172 -60t-59 -200v-64h487v64q0 205 107 313.5t307 108.5q143 0 241 -21h207v-1188q0 -116 94 -116z" glyph-name="f_f_l" horiz-adv-x="2068" unicode="ffl"/><glyph d="M1280 1454v-1454h-1094v1454h1094zM410 174h647v1106h-647v-1106z" glyph-name=".notdef" horiz-adv-x="1466"/><glyph glyph-name=".null"/><glyph glyph-name="nonmarkingreturn" horiz-adv-x="682"/><glyph glyph-name="space" horiz-adv-x="471"/><glyph d="M246 434l-29 1082h240l-29 -1082h-182zM336 -10q-64 0 -107 44t-43 109q0 66 43 111t107 45t107.5 -45t43.5 -111q0 -65 -43.5 -109t-107.5 -44z" glyph-name="exclam" horiz-adv-x="671" unicode="!"/><glyph d="M92 958v99q66 1 110 33.5t50 78.5h-19q-62 0 -103.5 44.5t-41.5 109.5t44 108.5t108 43.5q67 0 110 -47t43 -121q0 -149 -83.5 -247.5t-217.5 -101.5zM514 958v99q64 1 109 34t51 78h-19q-62 0 -103.5 44.5t-41.5 109.5t43 108.5t109 43.5q67 0 110 -47t43 -121 q0 -149 -84 -247.5t-217 -101.5z" glyph-name="quotedbl" horiz-adv-x="903" unicode="&quot;"/><glyph d="M1200 825h-194l-54 -321h248v-164h-276l-56 -340h-194l55 340h-258l-57 -340h-195l57 340h-167v164h194l53 321h-247v162h274l57 340h195l-57 -340h260l55 340h194l-55 -340h168v-162zM758 504l53 321h-260l-53 -321h260z" glyph-name="numbersign" horiz-adv-x="1308" unicode="#"/><glyph d="M1130 401q0 -172 -119 -280.5t-304 -134.5v-183h-209v183q-182 20 -387 102l20 176q103 -41 231.5 -71.5t229.5 -30.5q137 0 221 59.5t84 165.5q0 47 -16 84.5t-39 61.5t-65 46t-76 34t-89 28l-48 15q-49 15 -74.5 23t-72 25t-72.5 29.5t-64.5 34.5t-61 42.5t-48.5 50.5 t-40 62.5t-23.5 73.5t-9.5 88q0 163 109.5 262.5t290.5 120.5v185h209v-185q170 -19 315 -79l-23 -177q-88 35 -198 57.5t-199 22.5q-131 0 -201.5 -49.5t-70.5 -136.5q0 -42 15 -76.5t39 -58.5t64.5 -45.5t79.5 -36t97 -31.5h1l1 -1h1h1h1l1 -1h2q186 -54 274 -101 q223 -121 223 -354z" glyph-name="dollar" horiz-adv-x="1239" unicode="$"/><glyph d="M461 762q-155 0 -249.5 98.5t-94.5 259.5t93.5 258t248.5 97t248.5 -97.5t93.5 -257.5t-93.5 -259t-246.5 -99zM354 0l924 1454h213l-924 -1454h-213zM461 895q75 0 119.5 59.5t44.5 165.5t-45.5 164.5t-120.5 58.5t-119.5 -57.5t-44.5 -163.5q0 -107 45 -167t121 -60z M1384 -20q-155 0 -248.5 98t-93.5 260t93 258t247 96q156 0 250 -96.5t94 -257.5q0 -160 -94.5 -259t-247.5 -99zM1384 113q74 0 119 60.5t45 166.5q0 105 -45.5 163t-120.5 58t-119 -57t-44 -164t44.5 -167t120.5 -60z" glyph-name="percent" horiz-adv-x="1824" unicode="%"/><glyph d="M637 -33q-99 0 -186.5 27t-156.5 79.5t-109 137.5t-40 192q0 50 11 95t26.5 79t42 67.5t48 54.5t55.5 45.5t53 36t51 30.5q12 7 17 10q-64 64 -105 147.5t-41 176.5q0 84 31 151t83.5 108t117 62t135.5 21q107 0 189.5 -49.5t123.5 -127.5t41 -169q0 -56 -16.5 -104 t-40.5 -81t-67 -66.5t-78.5 -55t-92.5 -50.5l293 -346q39 126 39 271l184 -45q0 -198 -80 -379l252 -285h-237l-119 135q-155 -168 -424 -168zM602 901q57 30 94.5 53.5t71.5 54t50 65.5t16 77q0 74 -44.5 125t-119.5 51q-70 0 -124 -43.5t-54 -136.5q0 -110 110 -246z M633 127q98 0 168 38t127 107l-363 420q-34 -22 -50.5 -33t-50.5 -40.5t-51.5 -56t-32.5 -69.5t-15 -90q0 -130 76.5 -203t191.5 -73z" glyph-name="ampersand" horiz-adv-x="1435" unicode="&amp;"/><glyph d="M92 958v99q64 1 109 34t51 78h-19q-62 0 -103.5 44.5t-41.5 109.5t43 108.5t109 43.5q67 0 110 -47t43 -121q0 -149 -83.5 -247.5t-217.5 -101.5z" glyph-name="quotesingle" horiz-adv-x="481" unicode="'"/><glyph d="M455 -254q-338 358 -338 897q0 563 338 873l129 -95q-127 -149 -194.5 -336.5t-67.5 -441.5q0 -240 67.5 -433.5t194.5 -369.5z" glyph-name="parenleft" horiz-adv-x="626" unicode="("/><glyph d="M172 -254l-129 94q127 178 194.5 371t67.5 432q0 253 -68 440.5t-194 337.5l129 95q338 -310 338 -873q0 -539 -338 -897z" glyph-name="parenright" horiz-adv-x="626" unicode=")"/><glyph d="M346 838v217l-186 -148l-80 142l213 110l-213 109l80 141l186 -147v217h156v-217l186 147l80 -141l-211 -109l211 -110l-80 -142l-186 148v-217h-156z" glyph-name="asterisk" horiz-adv-x="847" unicode="*"/><glyph d="M1010 676v-174h-344v-336h-205v336h-344v174h344v336h205v-336h344z" glyph-name="plus" horiz-adv-x="1126" unicode="+"/><glyph d="M150 -221v98q65 1 109 34t50 79h-18q-63 0 -104.5 43.5t-41.5 109.5q0 65 44 108.5t110 43.5q65 0 108.5 -47t43.5 -121q0 -149 -83.5 -247t-217.5 -101z" glyph-name="comma" horiz-adv-x="595" unicode=","/><glyph d="M98 500v178h611v-178h-611z" glyph-name="hyphen" horiz-adv-x="806" unicode="-"/><glyph d="M297 -10q-64 0 -108 44t-44 109q0 66 44 111t108 45t106.5 -45t42.5 -111q0 -65 -42.5 -109t-106.5 -44z" glyph-name="period" horiz-adv-x="593" unicode="."/><glyph d="M18 -102l474 1597h180l-473 -1597h-181z" glyph-name="slash" horiz-adv-x="688" unicode="/"/><glyph d="M727 -23q-176 0 -309 95t-203 265t-70 390q0 341 157 545.5t423 204.5q269 0 426.5 -204.5t157.5 -545.5q0 -220 -70 -390t-203 -265t-309 -95zM727 160q113 0 195 76.5t121.5 203t39.5 287.5q0 166 -39.5 292.5t-121.5 200.5t-197 74q-114 0 -195 -74t-120 -200.5 t-39 -292.5q0 -162 39 -288t121 -202.5t196 -76.5z" glyph-name="zero" horiz-adv-x="1454" unicode="0"/><glyph d="M315 0v1272l-245 -62v138l309 106h162v-1454h-226z" glyph-name="one" horiz-adv-x="745" unicode="1"/><glyph d="M92 0v160l291 336q57 66 130.5 149t107 120.5t76.5 89t59.5 76.5t34.5 58.5t23 58t5 54.5q0 86 -63 138t-181 52q-199 0 -434 -116l-20 182q128 61 234 89t223 28q225 0 350 -108t125 -273q0 -31 -6.5 -60.5t-14.5 -54.5t-31 -61t-40 -61.5t-57 -74.5t-67 -81 t-86.5 -101.5t-99.5 -116.5l-250 -301h680v-182h-989z" glyph-name="two" horiz-adv-x="1208" unicode="2"/><glyph d="M580 -20q-216 0 -453 114l20 182q108 -55 221.5 -84.5t206.5 -29.5q78 0 139.5 23.5t98 62.5t55.5 85.5t19 96.5q0 117 -78 180.5t-221 63.5h-123v182h121q110 0 176.5 62t66.5 169q0 100 -69.5 152.5t-198.5 52.5q-173 0 -393 -106l-18 180q120 57 212 83t197 26 q232 0 364 -110t132 -288q0 -105 -42.5 -189.5t-117.5 -119.5q103 -40 161 -131.5t58 -218.5q0 -192 -145 -315t-389 -123z" glyph-name="three" horiz-adv-x="1259" unicode="3"/><glyph d="M793 0v322h-723v141l731 991h217v-958h182l-20 -174h-162v-322h-225zM336 496h457v667z" glyph-name="four" horiz-adv-x="1308" unicode="4"/><glyph d="M582 -20q-236 0 -473 114l18 182q113 -57 233.5 -85.5t214.5 -28.5q160 0 240 87.5t80 221.5q0 144 -76 229.5t-201 85.5q-90 0 -167.5 -48t-128.5 -124l-170 9l51 831h852l-19 -182l-655 2l-27 -424q118 111 301 111q208 0 337.5 -134t129.5 -358q0 -220 -142 -354.5 t-398 -134.5z" glyph-name="five" horiz-adv-x="1249" unicode="5"/><glyph d="M676 -20q-115 0 -207.5 35t-156 98t-105.5 153t-61 196t-19 232q0 371 145 576t410 205q194 0 420 -109l-19 -180q-109 51 -194 78.5t-164 27.5q-173 0 -272 -127t-103 -377h8q119 189 351 189q211 0 348 -135.5t137 -372.5q0 -223 -140 -356t-378 -133zM674 162 q130 0 211.5 89.5t81.5 223.5q0 142 -81 231t-212 89q-132 0 -213.5 -89t-81.5 -231q0 -134 82.5 -223.5t212.5 -89.5z" glyph-name="six" horiz-adv-x="1323" unicode="6"/><glyph d="M264 0l488 1272h-664l18 182h889v-166l-497 -1288h-234z" glyph-name="seven" horiz-adv-x="1103" unicode="7"/><glyph d="M643 -20q-239 0 -386.5 120t-147.5 306q0 131 65.5 227t177.5 135q-86 48 -137 132t-51 194q0 167 132.5 274t346.5 107q212 0 343.5 -107.5t131.5 -273.5q0 -110 -50 -194t-138 -132q112 -39 179 -135.5t67 -226.5q0 -186 -148.5 -306t-384.5 -120zM641 852 q113 0 181.5 61.5t68.5 161.5q0 93 -69 153t-181 60q-111 0 -179.5 -60t-68.5 -153q0 -100 68 -161.5t180 -61.5zM643 166q135 0 219 73t84 183q0 118 -83 188t-220 70q-139 0 -223 -70t-84 -188q0 -110 85.5 -183t221.5 -73z" glyph-name="eight" horiz-adv-x="1284" unicode="8"/><glyph d="M623 -23q-206 0 -430 109l18 190q213 -108 399 -108q170 0 261 124t96 355h-9q-53 -80 -142.5 -121t-197.5 -41q-223 0 -357 136.5t-134 365.5q0 221 140 355.5t380 134.5q269 0 408 -187.5t139 -527.5q0 -370 -148 -577.5t-423 -207.5zM647 668q133 0 215 84t82 225 q0 140 -82.5 228.5t-214.5 88.5t-212.5 -88t-80.5 -229q0 -143 80 -226t213 -83z" glyph-name="nine" horiz-adv-x="1323" unicode="9"/><glyph d="M307 721q-64 0 -107.5 45t-43.5 111q0 65 43.5 109t107.5 44t107 -44t43 -109q0 -66 -43 -111t-107 -45zM307 -10q-64 0 -107.5 44t-43.5 109q0 66 43.5 111t107.5 45t107 -45t43 -111q0 -65 -43 -109t-107 -44z" glyph-name="colon" horiz-adv-x="614" unicode=":"/><glyph d="M307 721q-64 0 -107.5 45t-43.5 111q0 65 43.5 109t107.5 44t107 -44t43 -109q0 -66 -43 -111t-107 -45zM160 -303v123q68 17 110.5 61.5t48.5 108.5h-18q-63 0 -104 43.5t-41 109.5q0 65 43.5 108.5t109.5 43.5t109 -46.5t43 -121.5q0 -104 -37 -197.5t-107 -157 t-157 -75.5z" glyph-name="semicolon" horiz-adv-x="616" unicode=";"/><glyph d="M946 1090v-244l-592 -248l592 -248v-241l-866 409v160z" glyph-name="less" horiz-adv-x="1026" unicode="&lt;"/><glyph d="M137 713v174h850v-174h-850zM137 293v174h850v-174h-850z" glyph-name="equal" horiz-adv-x="1122" unicode="="/><glyph d="M80 1090l866 -412v-160l-866 -409v241l594 248l-594 248v244z" glyph-name="greater" horiz-adv-x="1026" unicode="&gt;"/><glyph d="M438 1536q218 0 345.5 -114t127.5 -285q0 -67 -21 -126t-55 -103t-75.5 -84.5t-83 -79t-76.5 -78t-58.5 -89t-25.5 -104.5v-39h-194v43q2 66 23.5 124t53 101.5t69.5 83.5t75 78t68 76.5t50 87t19 102.5q0 99 -62 157.5t-184 58.5q-143 0 -336 -84l-18 188q195 86 358 86 zM416 299q64 0 106.5 -45t42.5 -111q0 -65 -43 -109t-106 -44q-64 0 -108 44t-44 109q0 66 44 111t108 45z" glyph-name="question" horiz-adv-x="991" unicode="?"/><glyph d="M913 -391q-244 0 -429 111t-285.5 314t-100.5 470q0 202 60 371t168 287t262.5 183.5t339.5 65.5q236 0 415.5 -108.5t277 -306.5t97.5 -459q0 -235 -83 -374.5t-234 -139.5q-76 0 -144.5 37.5t-107.5 115.5q-126 -100 -289 -100q-165 0 -271 120t-106 318 q0 194 104.5 314t270.5 120q71 0 125 -28t115 -91h6l29 93h176v-598q0 -164 114 -164q79 0 110.5 95.5t31.5 281.5q0 214 -78.5 381t-224 261.5t-334.5 94.5q-200 0 -354.5 -98.5t-238 -273.5t-83.5 -398q0 -220 81.5 -392t232.5 -269t347 -97q136 0 270.5 40.5t217.5 107.5 l74 -109q-98 -82 -251.5 -129t-310.5 -47zM895 240q99 0 209 75v357q-114 114 -209 114q-92 0 -147.5 -74t-55.5 -198q0 -127 55 -200.5t148 -73.5z" glyph-name="at" horiz-adv-x="1798" unicode="@"/><glyph d="M1079 0l-131 369h-540l-129 -369h-228l533 1454h190l533 -1454h-228zM469 543h420l-156 438q-36 106 -51 190h-8q-8 -70 -51 -190z" glyph-name="A" horiz-adv-x="1357" unicode="A"/><glyph d="M1034 735q107 -44 166.5 -134.5t59.5 -205.5q0 -175 -129 -285t-340 -110h-605v1454h547q215 0 343 -106t128 -295q0 -113 -44 -194t-126 -116v-8zM733 1272h-323v-447h335q113 0 172.5 63t59.5 154q0 103 -63.5 166.5t-180.5 63.5zM786 182q119 0 182.5 64.5t63.5 167.5 q0 101 -68.5 168t-191.5 67h-362v-467h376z" glyph-name="B" horiz-adv-x="1357" unicode="B"/><glyph d="M764 -20q-302 0 -484 208t-182 543q0 220 81 388.5t232.5 262t352.5 93.5q254 0 508 -121l-21 -189q-110 58 -227 88.5t-215 30.5q-111 0 -202 -42.5t-150.5 -117t-92 -175t-32.5 -216.5q0 -156 56.5 -283.5t166.5 -203.5t254 -76q97 0 214 30.5t228 86.5l21 -187 q-249 -120 -508 -120z" glyph-name="C" horiz-adv-x="1380" unicode="C"/><glyph d="M655 1454q330 0 517.5 -191.5t187.5 -529.5q0 -345 -187 -539t-518 -194h-469v1454h469zM645 182q226 0 354.5 146t128.5 405q0 253 -128.5 396t-354.5 143h-235v-1090h235z" glyph-name="D" horiz-adv-x="1458" unicode="D"/><glyph d="M410 664v-482h712l-18 -182h-918v1454h936l-18 -182h-694v-434h653l-21 -174h-632z" glyph-name="E" horiz-adv-x="1249" unicode="E"/><glyph d="M1104 1272h-694v-459h661l-20 -174h-641v-639h-224v1454h936z" glyph-name="F" horiz-adv-x="1191" unicode="F"/><glyph d="M743 -20q-291 0 -468 207.5t-177 549.5q0 330 187 534t493 204q262 0 516 -121l-22 -189q-238 119 -475 119q-144 0 -250.5 -73t-159.5 -196t-53 -278q0 -165 51.5 -292.5t153.5 -201t239 -73.5q84 0 182 34t173 93v303h-408l-20 176h647v-776h-174l-39 115h-9 q-199 -135 -387 -135z" glyph-name="G" horiz-adv-x="1460" unicode="G"/><glyph d="M1057 1454h223v-1454h-223v659h-647v-659h-224v1454h224v-620h647v620z" glyph-name="H" horiz-adv-x="1466" unicode="H"/><glyph d="M186 0v1454h224v-1454h-224z" glyph-name="I" horiz-adv-x="595" unicode="I"/><glyph d="M346 -20q-124 0 -276 49v176q148 -43 260 -43q37 0 63.5 6.5t51.5 24.5t38 55t13 92l-2 1114h225l2 -1094q0 -169 -95 -274.5t-280 -105.5z" glyph-name="J" horiz-adv-x="886" unicode="J"/><glyph d="M186 0v1454h224v-612l518 612h268l-498 -592l533 -862h-246l-438 707l-137 -160v-547h-224z" glyph-name="K" horiz-adv-x="1271" unicode="K"/><glyph d="M410 182h608l-21 -182h-811v1454h224v-1272z" glyph-name="L" horiz-adv-x="1077" unicode="L"/><glyph d="M168 0l68 1454h215l387 -854q42 -92 51 -123h8q6 20 53 123l385 854h215l68 -1454h-227l-33 731q-8 264 -2 303h-8q-4 -17 -10.5 -33.5t-16.5 -38t-14 -30.5l-318 -727h-192l-318 727q-4 9 -14 30.5t-16.5 38t-10.5 33.5h-8q10 -59 -2 -303l-33 -731h-227z" glyph-name="M" horiz-adv-x="1785" unicode="M"/><glyph d="M186 0v1454h195l639 -936q45 -67 59 -110h8q-6 44 -6 110v936h226v-1454h-197l-639 936q-44 66 -59 111h-9q7 -51 7 -111v-936h-224z" glyph-name="N" horiz-adv-x="1490" unicode="N"/><glyph d="M784 -20q-146 0 -273.5 56t-218 154.5t-142.5 239t-52 303.5q0 217 88.5 387t244 262.5t351.5 92.5q197 0 353 -92.5t244.5 -262t88.5 -387.5t-88 -390t-244.5 -267.5t-351.5 -95.5zM784 170q138 0 241.5 75.5t156.5 202t53 285.5q0 158 -53.5 282.5t-157.5 196.5 t-242 72t-241.5 -72.5t-156 -196.5t-52.5 -282t53 -285t157 -202.5t242 -75.5z" glyph-name="O" horiz-adv-x="1566" unicode="O"/><glyph d="M688 1454q223 0 359.5 -128.5t136.5 -336.5q0 -206 -136 -331.5t-360 -125.5h-278v-532h-224v1454h502zM674 715q126 0 201 77.5t75 202.5q0 123 -75 200t-201 77h-264v-557h264z" glyph-name="P" horiz-adv-x="1259" unicode="P"/><glyph d="M1266 180q132 -138 231 -223l-125 -150q-128 110 -260 254q-147 -81 -328 -81q-146 0 -273.5 56t-218 154.5t-142.5 239t-52 303.5q0 217 88.5 387t244 262.5t351.5 92.5q197 0 353 -92.5t244.5 -262t88.5 -387.5q0 -338 -202 -553zM784 170q107 0 195 45 q-124 150 -203 272l148 115q81 -121 198 -260q113 153 113 391q0 158 -53.5 282.5t-157.5 196.5t-242 72t-241.5 -72.5t-156 -196.5t-52.5 -282t53 -285t157 -202.5t242 -75.5z" glyph-name="Q" horiz-adv-x="1566" unicode="Q"/><glyph d="M1112 287l102 -287h-237l-90 268q-56 155 -75 190q-35 66 -90 79q-19 4 -42 4h-270v-541h-224v1454h502q224 0 360 -126t136 -335q0 -140 -62.5 -243.5t-173.5 -153.5v-8q29 -22 51 -50t44 -75.5t33 -76t36 -99.5zM672 723q126 0 202 76t76 196q0 125 -75.5 201 t-202.5 76h-262v-549h262z" glyph-name="R" horiz-adv-x="1314" unicode="R"/><glyph d="M604 -20q-124 0 -242.5 29.5t-259.5 88.5l23 181q120 -53 247 -83t220 -30q138 0 221.5 57.5t83.5 163.5q0 90 -50 140t-142 81l-181 60q-39 13 -59 20t-58 21t-59.5 25t-55 28.5t-53.5 34.5t-45.5 40t-40 48.5t-29 56t-20.5 66.5t-6 77q0 123 65.5 212.5t176 133.5 t252.5 44q101 0 198 -23.5t232 -77.5l-23 -180q-129 49 -220 71.5t-177 22.5q-131 0 -201.5 -47.5t-70.5 -134.5q0 -86 53 -135t143 -78l176 -57q49 -16 83.5 -28.5t83 -34.5t82 -44.5t69.5 -56.5t58.5 -72t37 -89t14.5 -110q0 -100 -43 -181t-116 -132.5t-167 -79.5 t-200 -28z" glyph-name="S" horiz-adv-x="1239" unicode="S"/><glyph d="M1042 1454v-182h-391v-1272h-225v1272h-389v182h1005z" glyph-name="T" horiz-adv-x="1079" unicode="T"/><glyph d="M729 -20q-259 0 -411 163.5t-152 438.5v872h223v-905q0 -177 92 -282t248 -105t249 105t93 282v905h225v-872q0 -274 -154 -438t-413 -164z" glyph-name="U" horiz-adv-x="1460" unicode="U"/><glyph d="M35 1454h227l344 -977q43 -118 51 -190h9q16 94 51 190l346 977h227l-516 -1454h-223z" glyph-name="V" horiz-adv-x="1323" unicode="V"/><glyph d="M1612 1454h227l-397 -1454h-225l-252 946q-19 65 -21 103h-8q-2 -38 -21 -103l-253 -946h-224l-397 1454h227l260 -922q24 -99 29 -151h8q6 66 31 151l248 922h192l248 -922q21 -74 31 -151h8q5 52 29 151z" glyph-name="W" horiz-adv-x="1880" unicode="W"/><glyph d="M1264 0h-265l-346 606h-8l-346 -606h-264l448 752l-434 702h266l332 -563h8l334 563h264l-438 -702z" glyph-name="X" horiz-adv-x="1298" unicode="X"/><glyph d="M526 0v539l-491 915h233l297 -539q53 -101 72 -149h8q12 34 72 149l291 539h235l-491 -915v-539h-226z" glyph-name="Y" horiz-adv-x="1275" unicode="Y"/><glyph d="M98 0v180l643 942q6 8 32.5 45.5t47 64t35.5 40.5v8q-37 -8 -184 -8h-568l21 182h965v-180l-646 -942q-78 -118 -112 -150v-8q35 8 184 8h629l-21 -182h-1026z" glyph-name="Z" horiz-adv-x="1232" unicode="Z"/><glyph d="M662 1348h-273v-1379h273v-168h-476v1715h476v-168z" glyph-name="bracketleft" horiz-adv-x="704" unicode="["/><glyph d="M492 -102l-474 1597h179l475 -1597h-180z" glyph-name="backslash" horiz-adv-x="688" unicode="\"/><glyph d="M518 1516v-1715h-475v168h270v1379h-270v168h475z" glyph-name="bracketright" horiz-adv-x="704" unicode="]"/><glyph d="M938 795h-219l-219 462l-219 -462h-222l371 659h139z" glyph-name="asciicircum" horiz-adv-x="997" unicode="^"/><glyph d="M41 -238v177h1034v-177h-1034z" glyph-name="underscore" horiz-adv-x="1114" unicode="_"/><glyph d="M395 1124l-229 330h246l161 -330h-178z" glyph-name="grave" horiz-adv-x="739" unicode="`"/><glyph d="M418 -20q-126 0 -217.5 83.5t-91.5 217.5q0 143 100.5 212t294.5 85l219 18v47q-1 100 -56 148.5t-143 48.5q-116 0 -313 -56l-14 164q198 62 335 62q183 0 297.5 -93t114.5 -255v-437q0 -38 14.5 -63t42.5 -25t58 6l-12 -147q-38 -10 -99 -10q-178 0 -221 141h-8 q-68 -85 -140 -116t-161 -31zM481 141q137 0 242 133v183l-191 -19q-202 -19 -202 -155q0 -61 38.5 -101.5t112.5 -40.5z" glyph-name="a" horiz-adv-x="1128" unicode="a"/><glyph d="M686 -20q-151 0 -293 120h-8l-41 -100h-178v1413l219 41v-555h8q132 111 285 111q200 0 329.5 -140t129.5 -374q0 -230 -129.5 -373t-321.5 -143zM616 154q131 0 212 94.5t81 247.5q0 154 -82.5 247t-216.5 93q-57 0 -118.5 -25t-106.5 -70v-483q52 -49 115 -76.5 t116 -27.5z" glyph-name="b" horiz-adv-x="1224" unicode="b"/><glyph d="M588 -20q-226 0 -363 145.5t-137 378.5q0 226 137 366t363 140q154 0 323 -70l-14 -166q-163 64 -295 64q-135 0 -214 -97.5t-79 -238.5q0 -146 79.5 -248t213.5 -102q126 0 295 65l14 -168q-172 -69 -323 -69z" glyph-name="c" horiz-adv-x="980" unicode="c"/><glyph d="M539 -20q-192 0 -321.5 143t-129.5 373q0 233 130 373.5t331 140.5q150 0 282 -111h9v514l221 41v-1454h-180l-41 100h-9q-142 -120 -292 -120zM608 154q53 0 116.5 27.5t115.5 76.5v483q-45 45 -107 70t-119 25q-134 0 -216.5 -93t-82.5 -247q0 -153 81 -247.5 t212 -94.5z" glyph-name="d" horiz-adv-x="1224" unicode="d"/><glyph d="M596 -20q-236 0 -372 138.5t-136 375.5q0 230 128 373t335 143q206 0 332.5 -140.5t126.5 -363.5q0 -57 -6 -84h-699q12 -117 84.5 -194.5t206.5 -77.5q76 0 179 24t181 62l17 -166q-190 -90 -377 -90zM311 565h477q0 146 -65.5 217.5t-163.5 71.5q-104 0 -174.5 -77 t-73.5 -212z" glyph-name="e" horiz-adv-x="1097" unicode="e"/><glyph d="M694 989l-18 -162h-223v-827h-222v827h-180v162h180v176q0 158 70 234t215 76q43 0 156 -17v-164q-70 19 -123 19q-47 0 -71.5 -28t-24.5 -97v-199h241z" glyph-name="f" horiz-adv-x="745" unicode="f"/><glyph d="M561 -471q-192 0 -420 90l17 170l34 -13q35 -13 47.5 -17t48 -15.5t60.5 -17t60.5 -12.5t71 -10t71.5 -3q149 0 219 65.5t70 210.5v123h-9q-142 -120 -292 -120q-192 0 -321.5 143t-129.5 373q0 231 130.5 370.5t330.5 139.5q150 0 282 -111h9l45 94h176v-1001 q0 -116 -38.5 -205t-106.5 -144t-158 -82.5t-197 -27.5zM608 154q53 0 116.5 27.5t115.5 76.5v479q-45 45 -107 69.5t-119 24.5q-134 0 -216.5 -91.5t-82.5 -243.5q0 -153 81 -247.5t212 -94.5z" glyph-name="g" horiz-adv-x="1206" unicode="g"/><glyph d="M166 0v1413l219 41v-555h8q132 111 285 111q160 0 251 -99t91 -307v-604h-221v616q0 116 -45 168t-142 52q-130 0 -227 -95v-741h-219z" glyph-name="h" horiz-adv-x="1157" unicode="h"/><glyph d="M272 1149q-57 0 -98 42t-41 103q0 60 41 102t98 42q58 0 99 -42t41 -102q0 -61 -40.5 -103t-99.5 -42zM162 0v989h221v-989h-221z" glyph-name="i" horiz-adv-x="544" unicode="i"/><glyph d="M268 1149q-59 0 -99 42t-40 103q0 60 40.5 102t98.5 42q57 0 98.5 -42t41.5 -102q0 -61 -41 -103t-99 -42zM84 -471q-68 0 -117 10v162q36 -10 84 -10q107 0 107 137v1161h221v-1141q0 -156 -76.5 -237.5t-218.5 -81.5z" glyph-name="j" horiz-adv-x="540" unicode="j"/><glyph d="M803 0l-277 471l-141 -149v-322h-219v1413l219 41v-874l379 409h256l-354 -371l387 -618h-250z" glyph-name="k" horiz-adv-x="1085" unicode="k"/><glyph d="M440 -20q-140 0 -207 76t-67 237v1120l219 41v-1188q0 -116 94 -116q50 0 86 10v-170q-49 -10 -125 -10z" glyph-name="l" horiz-adv-x="653" unicode="l"/><glyph d="M1278 1010q156 0 247 -99t91 -307v-604h-223v616q0 116 -43.5 169t-137.5 53q-44 0 -103.5 -23t-119.5 -80q12 -59 12 -131v-604h-223v616q0 117 -43 169.5t-137 52.5q-116 0 -211 -95v-743h-221v989h182l39 -90h8q71 64 135 87.5t134 23.5q197 0 282 -150h8 q90 81 167.5 115.5t156.5 34.5z" glyph-name="m" horiz-adv-x="1753" unicode="m"/><glyph d="M166 0v989h178l41 -90h8q132 111 285 111q160 0 251 -99t91 -307v-604h-221v616q0 116 -45 168t-142 52q-130 0 -227 -95v-741h-219z" glyph-name="n" horiz-adv-x="1157" unicode="n"/><glyph d="M571 -20q-220 0 -351.5 144t-131.5 376q0 226 132 368t351 142q218 0 351 -142.5t133 -369.5q0 -230 -133 -374t-351 -144zM571 141q126 0 193 101.5t67 255.5q0 150 -67 250t-193 100t-194 -100t-68 -248q0 -155 68 -257t194 -102z" glyph-name="o" horiz-adv-x="1142" unicode="o"/><glyph d="M686 -20q-151 0 -293 120h-8v-460l-219 -41v1390h178l41 -90h8q132 111 285 111q200 0 329.5 -140t129.5 -374q0 -230 -129.5 -373t-321.5 -143zM616 154q131 0 212 94.5t81 247.5q0 155 -82.5 247.5t-218.5 92.5q-55 0 -116.5 -25t-106.5 -70v-483q52 -49 115 -76.5 t116 -27.5z" glyph-name="p" horiz-adv-x="1224" unicode="p"/><glyph d="M840 -401v501h-9q-142 -120 -292 -120q-192 0 -321.5 143t-129.5 373q0 233 130 373.5t331 140.5q150 0 282 -111h9l41 90h180v-1349zM608 154q53 0 116.5 27.5t115.5 76.5v483q-45 45 -107 70t-117 25q-136 0 -218.5 -92.5t-82.5 -247.5q0 -153 81 -247.5t212 -94.5z" glyph-name="q" horiz-adv-x="1206" unicode="q"/><glyph d="M166 0v989h182l37 -115h8q63 75 131 104.5t156 29.5h25v-183q-41 9 -68 9q-147 0 -252 -123v-711h-219z" glyph-name="r" horiz-adv-x="761" unicode="r"/><glyph d="M479 -20q-77 0 -184.5 19.5t-192.5 49.5l17 158q203 -70 342 -70q98 0 145 32.5t47 88.5q0 55 -30.5 82.5t-92.5 44.5l-127 35q-53 15 -89 28t-82 37.5t-73.5 53.5t-47 75t-19.5 103q0 130 105.5 211.5t273.5 81.5q78 0 169.5 -19t162.5 -51l-17 -154q-178 68 -301 68 q-94 0 -137 -33t-43 -82q0 -90 129 -129l131 -35q35 -10 58 -17.5t57.5 -22t57.5 -29.5t49.5 -38.5t42 -51t26 -65.5t10.5 -83q0 -125 -106.5 -206.5t-280.5 -81.5z" glyph-name="s" horiz-adv-x="958" unicode="s"/><glyph d="M584 150q61 0 110 16v-172q-77 -14 -151 -14q-149 0 -230.5 75t-81.5 224v548h-180l19 162h161l50 344h172v-344h239v-162h-239v-553q0 -124 131 -124z" glyph-name="t" horiz-adv-x="745" unicode="t"/><glyph d="M483 -20q-160 0 -251 98.5t-91 306.5v604h221v-614q0 -117 44.5 -169t142.5 -52q131 0 227 94v741h219v-989h-178l-41 92h-8q-133 -112 -285 -112z" glyph-name="u" horiz-adv-x="1144" unicode="u"/><glyph d="M422 0l-387 989h227l232 -622q23 -63 34 -121h9q13 56 34 121l234 622h227l-385 -989h-225z" glyph-name="v" horiz-adv-x="1067" unicode="v"/><glyph d="M1192 989h227l-276 -989h-238l-143 621q-3 15 -13 53t-12 55h-8q-1 -13 -22 -108l-148 -621h-235l-277 989h227l156 -663q8 -37 16 -103h9q4 31 20 103l152 663h211l153 -663q18 -81 21 -103h8q3 56 14 103z" glyph-name="w" horiz-adv-x="1466" unicode="w"/><glyph d="M35 0l342 498l-338 491h229l236 -356h8l231 356h230l-338 -491l342 -498h-229l-236 360h-8l-240 -360h-229z" glyph-name="x" horiz-adv-x="1011" unicode="x"/><glyph d="M805 989h227l-385 -989l-35 -88q-30 -78 -56.5 -129.5t-64 -96t-87 -65t-113.5 -20.5q-53 0 -111 10v166q33 -8 78 -8q46 0 74.5 35.5t54.5 107.5l35 88l-387 989h227l232 -622q23 -63 34 -121h9q13 56 34 121z" glyph-name="y" horiz-adv-x="1067" unicode="y"/><glyph d="M88 0v170l408 496q88 106 133 155v8q-76 -10 -191 -10h-332v170h744v-170l-406 -493q-104 -127 -133 -158v-8q74 10 191 10h368v-170h-782z" glyph-name="z" horiz-adv-x="958" unicode="z"/><glyph d="M662 -250q-168 0 -277 81.5t-109 213.5v336q0 79 -49.5 125.5t-128.5 46.5v158q79 0 128.5 46.5t49.5 125.5v340q0 129 109.5 211t276.5 82v-168q-76 0 -128.5 -43t-52.5 -111v-356q0 -133 -127 -205q127 -72 127 -207v-354q0 -68 52.5 -111t128.5 -43v-168z" glyph-name="braceleft" horiz-adv-x="704" unicode="{"/><glyph d="M186 -205v1721h203v-1721h-203z" glyph-name="bar" horiz-adv-x="575" unicode="|"/><glyph d="M43 -250v168q76 0 128 43t52 111v354q0 135 127 207q-127 72 -127 205v356q0 68 -52 111t-128 43v168q167 0 276 -82t109 -211v-340q0 -79 49.5 -125.5t128.5 -46.5v-158q-79 0 -128.5 -46.5t-49.5 -125.5v-336q0 -132 -108.5 -213.5t-276.5 -81.5z" glyph-name="braceright" horiz-adv-x="704" unicode="}"/><glyph d="M166 539l-86 116q68 69 137 98t127 23t114 -25.5t107 -42.5t98.5 -34.5t95.5 6t91 72.5l98 -105q-55 -66 -110 -104.5t-102.5 -49t-94.5 -6t-89.5 21t-83 35.5t-80 34t-76 20.5t-74 -8.5t-72.5 -51z" glyph-name="asciitilde" horiz-adv-x="1030" unicode="~"/><glyph d="M336 702q-64 0 -107 44t-43 110t43 110t107 44q65 0 108 -44t43 -110t-43 -110t-108 -44zM217 -516l29 1083h182l29 -1083h-240z" glyph-name="exclamdown" horiz-adv-x="671" unicode="¡"/><glyph d="M897 209l14 -170q-142 -53 -247 -64v-192h-207v197q-170 34 -269.5 173.5t-99.5 350.5q0 202 100 338t269 168v196h207v-192q105 -11 247 -64l-14 -170q-176 66 -326 66q-121 0 -191.5 -95t-70.5 -249t71 -256.5t191 -102.5q140 0 326 66z" glyph-name="cent" horiz-adv-x="980" unicode="¢"/><glyph d="M428 182h707v-182h-1084v182h154v447h-154v174h154v201q0 239 124.5 355t344.5 116q232 0 454 -121l-18 -180q-222 118 -424 118q-124 0 -191 -66.5t-67 -221.5v-201h526v-174h-526v-447z" glyph-name="sterling" horiz-adv-x="1245" unicode="£"/><glyph d="M209 37l-139 141l180 172q-51 91 -51 215q0 121 49 211l-178 172l139 142l162 -183q82 49 192 49q112 0 189 -45l157 179l148 -142l-174 -168q49 -93 49 -215q0 -128 -53 -217l178 -172l-137 -141l-170 182q-79 -43 -187 -43q-111 0 -188 47zM563 324q85 0 133.5 61 t48.5 180t-48.5 180.5t-133.5 61.5q-84 0 -132 -61.5t-48 -180.5t48 -180t132 -61z" glyph-name="currency" horiz-adv-x="1126" unicode="¤"/><glyph d="M1247 1454l-426 -768h309v-174h-378v-152h378v-176h-378v-184h-226v184h-372v176h372v152h-372v174h303l-422 768h254l348 -684h8l344 684h258z" glyph-name="yen" horiz-adv-x="1282" unicode="¥"/><glyph d="M186 809v707h203v-707h-203zM186 -205v707h203v-707h-203z" glyph-name="brokenbar" horiz-adv-x="575" unicode="¦"/><glyph d="M827 502q76 -73 76 -199q0 -141 -99.5 -227t-262.5 -86q-185 0 -348 69l16 146q194 -68 332 -68q64 0 102.5 31t38.5 82t-30.5 85.5t-79.5 53.5t-107.5 34.5t-117.5 37t-108 52t-79.5 87t-30.5 135.5q0 70 31.5 129t89.5 99q-74 74 -74 198q0 141 100 227.5t263 86.5 q176 0 348 -70l-19 -148q-181 68 -329 68q-65 0 -104.5 -30t-39.5 -81t30.5 -85.5t79.5 -53.5t107.5 -34.5t117.5 -37t108 -52t79.5 -87t30.5 -135.5q0 -145 -121 -227zM344 772q0 -29 13 -51.5t32 -37t52.5 -27.5t60.5 -20.5t72.5 -19.5t72.5 -20q88 32 88 94q0 29 -13 52 t-32 37.5t-52.5 28t-60.5 21t-72.5 19.5t-72.5 20q-42 -15 -65 -40t-23 -56z" glyph-name="section" horiz-adv-x="1124" unicode="§"/><glyph d="M281 1141q-49 0 -82 34.5t-33 84.5q0 51 33 85.5t82 34.5q48 0 81 -34.5t33 -85.5q0 -49 -33.5 -84t-80.5 -35zM627 1141q-47 0 -81 35t-34 84q0 51 33.5 85.5t81.5 34.5q49 0 81.5 -34.5t32.5 -85.5q0 -50 -32.5 -84.5t-81.5 -34.5z" glyph-name="dieresis" horiz-adv-x="907" unicode="¨"/><glyph d="M811 -33q-145 0 -277.5 60.5t-227.5 162.5t-151.5 243t-56.5 296q0 154 56.5 294.5t151.5 242t227.5 161.5t277.5 60t277 -60t227.5 -161.5t152 -242t56.5 -294.5q0 -155 -56.5 -296t-152 -243t-227.5 -162.5t-277 -60.5zM811 100q159 0 294 84t213.5 229t78.5 316 q0 170 -78.5 314t-213.5 227.5t-294 83.5q-160 0 -295 -83.5t-213 -227.5t-78 -314q0 -171 78 -316t213 -229t295 -84zM811 360q-155 0 -250.5 103t-95.5 270q0 163 95.5 262t250.5 99q118 0 252 -47l-12 -156q-120 47 -232 47q-84 0 -134 -56t-50 -149q0 -98 50 -157.5 t134 -59.5q109 0 232 45l12 -153q-137 -48 -252 -48z" glyph-name="copyright" horiz-adv-x="1622" unicode="©"/><glyph d="M461 627q-177 0 -289.5 112.5t-112.5 311.5q0 196 111.5 313t288.5 117q74 0 131.5 -25.5t118.5 -81.5h8l33 80h184v-801h-174l-37 60h-6q-72 -48 -130 -67t-126 -19zM498 799q107 0 219 67v351q-115 92 -221 92q-93 0 -152 -71t-59 -187q0 -114 58.5 -183t154.5 -69z" glyph-name="ordfeminine" horiz-adv-x="1060" unicode="ª"/><glyph d="M367 88l-308 406l306 405h231l-320 -405l320 -406h-229zM805 88l-307 406l305 405h231l-319 -405l319 -406h-229z" glyph-name="guillemotleft" horiz-adv-x="1239" unicode="«"/><glyph d="M950 692v-436h-202v262h-650v174h852z" glyph-name="logicalnot" horiz-adv-x="1087" unicode="¬"/><glyph d="M455 1475q147 0 250.5 -111t103.5 -268q0 -160 -103 -271.5t-251 -111.5q-146 0 -251.5 113t-105.5 270q0 156 105 267.5t252 111.5zM455 786q119 0 201.5 90t82.5 220q0 126 -83 215.5t-201 89.5q-121 0 -203 -89t-82 -216q0 -130 82 -220t203 -90zM614 1163 q0 -77 -67 -108l74 -148h-89l-65 131h-66v-131h-82v383h148q67 0 107 -35t40 -92zM401 1212v-98h82q23 0 37.5 14t14.5 37q0 22 -14.5 34.5t-37.5 12.5h-82z" glyph-name="registered" horiz-adv-x="909" unicode="®"/><glyph d="M168 1278l-2 174h596v-174h-594z" glyph-name="macron" horiz-adv-x="925" unicode="¯"/><glyph d="M344 885q-120 0 -202.5 83.5t-82.5 217.5t82.5 217.5t202.5 83.5q119 0 201 -84t82 -217t-82 -217t-201 -84zM344 1026q62 0 105 44t43 116t-43 116t-105 44q-64 0 -106.5 -44t-42.5 -116t42.5 -116t106.5 -44z" glyph-name="degree" horiz-adv-x="686" unicode="°"/><glyph d="M684 737h344v-174h-344v-241h-203v241h-344v174h344v238h203v-238zM137 0v174h891v-174h-891z" glyph-name="plusminus" horiz-adv-x="1165" unicode="±"/><glyph d="M70 573v134l184 208q44 49 98.5 108.5t82 90t61 68.5t49 59t30.5 46.5t20 45.5t5 41q0 66 -44 101.5t-130 35.5q-137 0 -317 -77l-17 147q184 78 334 78q181 0 277 -81t96 -206q0 -29 -5 -55t-22 -57.5t-29.5 -53t-48 -63.5t-55.5 -64.5t-73.5 -82t-82.5 -91.5l-157 -180 h493v-152h-749z" glyph-name="uni00B2" horiz-adv-x="907" unicode="²"/><glyph d="M426 551q-155 0 -336 76l12 147q181 -74 322 -74q103 0 157 53.5t54 137.5q0 79 -51.5 122.5t-149.5 43.5h-92v153h86q73 0 117.5 41.5t44.5 112.5q0 73 -46.5 110t-133.5 37q-119 0 -291 -71l-13 147q169 72 304 72q176 0 275 -81t99 -218q0 -78 -30.5 -139.5 t-83.5 -85.5q75 -29 118 -96.5t43 -159.5q0 -146 -110.5 -237t-294.5 -91z" glyph-name="uni00B3" horiz-adv-x="933" unicode="³"/><glyph d="M166 1124l160 330h247l-231 -330h-176z" glyph-name="acute" horiz-adv-x="739" unicode="´"/><glyph d="M805 989h221v-989h-176l-45 88h-6q-76 -65 -138 -92t-141 -27q-72 0 -143 23v-260h-221v1257h221v-610q0 -117 50.5 -176.5t145.5 -59.5q104 0 232 115v731z" glyph-name="uni00B5" horiz-adv-x="1183" unicode="µ"/><glyph d="M1403 1272l-19 -174h-208v-1303h-205v1303h-240v-1303h-205v703h-71q-169 0 -272 104.5t-103 276.5q0 177 103 285t272 108h948z" glyph-name="paragraph" horiz-adv-x="1462" unicode="¶"/><glyph d="M297 344q-64 0 -108 44.5t-44 109.5q0 66 43.5 110.5t108.5 44.5q64 0 106.5 -44.5t42.5 -110.5q0 -65 -42.5 -109.5t-106.5 -44.5z" glyph-name="periodcentered" horiz-adv-x="593" unicode="·"/><glyph d="M305 -428q-80 0 -139 35l6 110q59 -30 107 -30q34 0 54.5 18t20.5 51q0 34 -25.5 54t-66.5 20h-35l-14 12v183h164v-105h10q64 0 103.5 -46t39.5 -118q0 -83 -62 -133.5t-163 -50.5z" glyph-name="cedilla" horiz-adv-x="694" unicode="¸"/><glyph d="M231 573v914l-186 -47v116l240 80h139v-1063h-193z" glyph-name="uni00B9" horiz-adv-x="569" unicode="¹"/><glyph d="M494 627q-198 0 -316.5 118.5t-118.5 311.5q0 191 117 307.5t316 116.5q198 0 316 -117t118 -309t-117.5 -310t-314.5 -118zM494 795q97 0 155 68.5t58 191.5t-58.5 191.5t-156.5 68.5t-157 -68.5t-59 -189.5q0 -124 59 -193t159 -69z" glyph-name="ordmasculine" horiz-adv-x="983" unicode="º"/><glyph d="M59 88l320 406l-320 405h234l303 -405l-305 -406h-232zM498 88l321 406l-319 405h231l303 -405l-305 -406h-231z" glyph-name="guillemotright" horiz-adv-x="1239" unicode="»"/><glyph d="M174 682v643l-147 -33v101l188 61h131v-772h-172zM145 0l906 1454h184l-903 -1454h-187zM1272 0v150h-389v108l403 514h160v-493h108l-10 -129h-98v-150h-174zM1067 279h205v276z" glyph-name="onequarter" horiz-adv-x="1603" unicode="¼"/><glyph d="M174 682v643l-147 -33v101l188 61h131v-772h-172zM145 0l906 1454h184l-903 -1454h-187zM985 0v119l96 100q44 45 102.5 104t84 85.5t53.5 59.5t37.5 55t9.5 44q0 49 -30 70.5t-95 21.5q-97 0 -227 -47l-10 129q155 50 237 50q150 0 227.5 -63.5t77.5 -154.5 q0 -30 -9.5 -59.5t-22 -52.5t-40.5 -56t-48.5 -54.5t-64 -65.5t-69.5 -72l-82 -84h351v-129h-578z" glyph-name="onehalf" horiz-adv-x="1619" unicode="½"/><glyph d="M305 666q-108 0 -248 49l11 127q139 -47 235 -47q137 0 137 120q0 113 -125 113h-71v131h63q43 0 68.5 27.5t25.5 73.5q0 42 -27 61.5t-83 19.5q-88 0 -213 -41l-8 130q125 45 225 45q134 0 210.5 -60.5t76.5 -161.5q0 -57 -22 -102t-56 -59q54 -20 84 -69.5t30 -115.5 q0 -108 -86 -174.5t-227 -66.5zM383 0l905 1454h185l-904 -1454h-186zM1495 0v150h-389v108l403 514h160v-493h109l-11 -129h-98v-150h-174zM1290 279h205v276z" glyph-name="threequarters" horiz-adv-x="1824" unicode="¾"/><glyph d="M578 702q-66 0 -109 44t-43 110t43.5 110t108.5 44q63 0 106 -44t43 -110t-43 -110t-106 -44zM555 -537q-218 0 -346.5 114.5t-128.5 285.5q0 67 21.5 126t55.5 103t75.5 84.5t83 79t76.5 77.5t58 88.5t25 104.5l2 41h195l-2 -45q-2 -66 -23 -124t-52.5 -101t-69 -83 t-75 -77.5t-68.5 -76t-50 -87t-19 -102.5q0 -100 61.5 -158.5t184.5 -58.5q144 0 334 84l18 -187q-194 -88 -356 -88z" glyph-name="questiondown" horiz-adv-x="991" unicode="¿"/><glyph d="M772 1575h-178l-229 330h245zM1079 0l-131 369h-540l-129 -369h-228l533 1454h190l533 -1454h-228zM469 543h420l-156 438q-36 106 -51 190h-8q-8 -70 -51 -190z" glyph-name="Agrave" horiz-adv-x="1357" unicode="À"/><glyph d="M985 1913l-231 -330h-176l159 330h248zM1079 0l-131 369h-540l-129 -369h-228l533 1454h190l533 -1454h-228zM469 543h420l-156 438q-36 106 -51 190h-8q-8 -70 -51 -190z" glyph-name="Aacute" horiz-adv-x="1357" unicode="Á"/><glyph d="M676 1767l-146 -192h-206l288 330h127l291 -330h-211zM1079 0l-131 369h-540l-129 -369h-228l533 1454h190l533 -1454h-228zM469 543h420l-156 438q-36 106 -51 190h-8q-8 -70 -51 -190z" glyph-name="Acircumflex" horiz-adv-x="1357" unicode="Â"/><glyph d="M545 1663q-75 0 -156 -84l-18 180q32 35 76 57.5t81 22.5q59 0 160 -37t135 -37q75 0 156 84l20 -180q-34 -36 -77.5 -58t-81.5 -22q-58 0 -154.5 37t-140.5 37zM1079 0l-131 369h-540l-129 -369h-228l533 1454h190l533 -1454h-228zM469 543h420l-156 438 q-36 106 -51 190h-8q-8 -70 -51 -190z" glyph-name="Atilde" horiz-adv-x="1357" unicode="Ã"/><glyph d="M512 1591q-49 0 -82 34.5t-33 84.5q0 51 33 86t82 35q48 0 81.5 -35t33.5 -86q0 -49 -34 -84t-81 -35zM858 1591q-47 0 -81 35t-34 84q0 51 33.5 86t81.5 35q49 0 82 -35t33 -86q0 -50 -33 -84.5t-82 -34.5zM1079 0l-131 369h-540l-129 -369h-228l533 1454h190l533 -1454 h-228zM469 543h420l-156 438q-36 106 -51 190h-8q-8 -70 -51 -190z" glyph-name="Adieresis" horiz-adv-x="1357" unicode="Ä"/><glyph d="M676 1581q-107 0 -171.5 64t-64.5 167q0 102 64.5 164t171.5 62q106 0 170.5 -62.5t64.5 -163.5q0 -103 -65 -167t-170 -64zM676 1921q-41 0 -65.5 -29.5t-24.5 -79.5q0 -52 24.5 -83t65.5 -31q40 0 65 31t25 83q0 49 -25 79t-65 30zM1079 0l-131 369h-540l-129 -369 h-228l533 1454h190l533 -1454h-228zM469 543h420l-156 438q-36 106 -51 190h-8q-8 -70 -51 -190z" glyph-name="Aring" horiz-adv-x="1357" unicode="Å"/><glyph d="M1276 664v-482h713l-21 -182h-917v319h-623l-149 -319h-228l690 1454h1248l-21 -182h-692v-434h651l-18 -174h-633zM508 494h543v778h-181z" glyph-name="AE" horiz-adv-x="2115" unicode="Æ"/><glyph d="M1272 100q-206 -101 -436 -118v-62h10q64 0 103.5 -46t39.5 -118q0 -83 -62 -133.5t-163 -50.5q-80 0 -139 35l6 110q59 -30 106 -30q35 0 55.5 18t20.5 51q0 34 -25.5 54t-66.5 20h-35l-14 12v144q-263 32 -418.5 234.5t-155.5 510.5q0 220 81 388.5t232.5 262 t352.5 93.5q254 0 508 -121l-21 -189q-110 58 -227 88.5t-215 30.5q-111 0 -202 -42.5t-150.5 -117t-92 -175t-32.5 -216.5q0 -156 56.5 -283.5t166.5 -203.5t254 -76q97 0 214 30.5t228 86.5z" glyph-name="Ccedilla" horiz-adv-x="1380" unicode="Ç"/><glyph d="M768 1575h-178l-230 330h246zM410 664v-482h712l-18 -182h-918v1454h936l-18 -182h-694v-434h653l-21 -174h-632z" glyph-name="Egrave" horiz-adv-x="1249" unicode="È"/><glyph d="M981 1913l-231 -330h-177l160 330h248zM410 664v-482h712l-18 -182h-918v1454h936l-18 -182h-694v-434h653l-21 -174h-632z" glyph-name="Eacute" horiz-adv-x="1249" unicode="É"/><glyph d="M672 1767l-146 -192h-207l289 330h127l291 -330h-211zM410 664v-482h712l-18 -182h-918v1454h936l-18 -182h-694v-434h653l-21 -174h-632z" glyph-name="Ecircumflex" horiz-adv-x="1249" unicode="Ê"/><glyph d="M508 1591q-49 0 -82 34.5t-33 84.5q0 51 33 86t82 35q48 0 81.5 -35t33.5 -86q0 -49 -34 -84t-81 -35zM854 1591q-47 0 -81 35t-34 84q0 51 33.5 86t81.5 35q49 0 82 -35t33 -86q0 -50 -33 -84.5t-82 -34.5zM410 664v-482h712l-18 -182h-918v1454h936l-18 -182h-694v-434 h653l-21 -174h-632z" glyph-name="Edieresis" horiz-adv-x="1249" unicode="Ë"/><glyph d="M215 1575l-229 330h245l162 -330h-178zM186 0v1454h224v-1454h-224z" glyph-name="Igrave" horiz-adv-x="595" unicode="Ì"/><glyph d="M199 1583l159 330h248l-231 -330h-176zM186 0v1454h224v-1454h-224z" glyph-name="Iacute" horiz-adv-x="595" unicode="Í"/><glyph d="M651 1575h-211l-143 192l-145 -192h-207l288 330h127zM186 0v1454h224v-1454h-224z" glyph-name="Icircumflex" horiz-adv-x="595" unicode="Î"/><glyph d="M133 1591q-49 0 -82 34.5t-33 84.5q0 51 33 86t82 35q48 0 81.5 -35t33.5 -86q0 -49 -34 -84t-81 -35zM479 1591q-47 0 -80.5 35t-33.5 84q0 51 33.5 86t80.5 35q49 0 82 -35t33 -86q0 -50 -33 -84.5t-82 -34.5zM186 0v1454h224v-1454h-224z" glyph-name="Idieresis" horiz-adv-x="595" unicode="Ï"/><glyph d="M655 1454q330 0 517.5 -191.5t187.5 -529.5q0 -345 -187 -539t-518 -194h-469v641h-186v174h186v639h469zM645 182q226 0 354.5 146t128.5 405q0 253 -128.5 396t-354.5 143h-235v-457h370v-174h-370v-459h235z" glyph-name="Eth" horiz-adv-x="1523" unicode="Ð"/><glyph d="M463 1579l-19 180q32 35 76.5 57.5t81.5 22.5q59 0 160 -37t135 -37q75 0 156 84l20 -180q-34 -36 -78 -58t-82 -22q-58 0 -154.5 37t-140.5 37q-74 0 -155 -84zM186 0v1454h195l639 -936q45 -67 59 -110h8q-6 44 -6 110v936h226v-1454h-197l-639 936q-44 66 -59 111h-9 q7 -51 7 -111v-936h-224z" glyph-name="Ntilde" horiz-adv-x="1490" unicode="Ñ"/><glyph d="M702 1575l-229 330h246l162 -330h-179zM784 -20q-146 0 -273.5 56t-218 154.5t-142.5 239t-52 303.5q0 217 88.5 387t244 262.5t351.5 92.5q197 0 353 -92.5t244.5 -262t88.5 -387.5t-88 -390t-244.5 -267.5t-351.5 -95.5zM784 170q138 0 241.5 75.5t156.5 202t53 285.5 q0 158 -53.5 282.5t-157.5 196.5t-242 72t-241.5 -72.5t-156 -196.5t-52.5 -282t53 -285t157 -202.5t242 -75.5z" glyph-name="Ograve" horiz-adv-x="1566" unicode="Ò"/><glyph d="M686 1583l160 330h248l-232 -330h-176zM784 -20q-146 0 -273.5 56t-218 154.5t-142.5 239t-52 303.5q0 217 88.5 387t244 262.5t351.5 92.5q197 0 353 -92.5t244.5 -262t88.5 -387.5t-88 -390t-244.5 -267.5t-351.5 -95.5zM784 170q138 0 241.5 75.5t156.5 202t53 285.5 q0 158 -53.5 282.5t-157.5 196.5t-242 72t-241.5 -72.5t-156 -196.5t-52.5 -282t53 -285t157 -202.5t242 -75.5z" glyph-name="Oacute" horiz-adv-x="1566" unicode="Ó"/><glyph d="M1139 1575h-211l-144 192l-145 -192h-207l289 330h127zM784 -20q-146 0 -273.5 56t-218 154.5t-142.5 239t-52 303.5q0 217 88.5 387t244 262.5t351.5 92.5q197 0 353 -92.5t244.5 -262t88.5 -387.5t-88 -390t-244.5 -267.5t-351.5 -95.5zM784 170q138 0 241.5 75.5 t156.5 202t53 285.5q0 158 -53.5 282.5t-157.5 196.5t-242 72t-241.5 -72.5t-156 -196.5t-52.5 -282t53 -285t157 -202.5t242 -75.5z" glyph-name="Ocircumflex" horiz-adv-x="1566" unicode="Ô"/><glyph d="M498 1579l-19 180q32 35 76.5 57.5t81.5 22.5q59 0 160 -37t135 -37q74 0 155 84l21 -180q-34 -36 -78 -58t-82 -22q-58 0 -154.5 37t-140.5 37q-74 0 -155 -84zM784 -20q-146 0 -273.5 56t-218 154.5t-142.5 239t-52 303.5q0 217 88.5 387t244 262.5t351.5 92.5 q197 0 353 -92.5t244.5 -262t88.5 -387.5t-88 -390t-244.5 -267.5t-351.5 -95.5zM784 170q138 0 241.5 75.5t156.5 202t53 285.5q0 158 -53.5 282.5t-157.5 196.5t-242 72t-241.5 -72.5t-156 -196.5t-52.5 -282t53 -285t157 -202.5t242 -75.5z" glyph-name="Otilde" horiz-adv-x="1566" unicode="Õ"/><glyph d="M621 1591q-49 0 -82 34.5t-33 84.5q0 51 33 86t82 35q47 0 80.5 -35t33.5 -86q0 -49 -33.5 -84t-80.5 -35zM967 1591q-47 0 -81 35t-34 84q0 51 33.5 86t81.5 35q49 0 81.5 -35t32.5 -86q0 -50 -32.5 -84.5t-81.5 -34.5zM784 -20q-146 0 -273.5 56t-218 154.5t-142.5 239 t-52 303.5q0 217 88.5 387t244 262.5t351.5 92.5q197 0 353 -92.5t244.5 -262t88.5 -387.5t-88 -390t-244.5 -267.5t-351.5 -95.5zM784 170q138 0 241.5 75.5t156.5 202t53 285.5q0 158 -53.5 282.5t-157.5 196.5t-242 72t-241.5 -72.5t-156 -196.5t-52.5 -282t53 -285 t157 -202.5t242 -75.5z" glyph-name="Odieresis" horiz-adv-x="1566" unicode="Ö"/><glyph d="M862 850l-241 -260l241 -262l-143 -148l-244 260l-244 -260l-143 148l244 262l-244 260l143 147l244 -260l244 260z" glyph-name="multiply" horiz-adv-x="950" unicode="×"/><glyph d="M1509 1356l-168 -170q127 -192 127 -453q0 -218 -88 -390t-244.5 -267.5t-351.5 -95.5q-278 0 -465 184l-149 -150l-119 117l164 164q-117 191 -117 438q0 217 88.5 387t244 262.5t351.5 92.5q264 0 449 -164l162 162zM332 733q0 -153 49 -272l702 702q-121 121 -301 121 q-138 0 -241.5 -72.5t-156 -196.5t-52.5 -282zM1235 733q0 162 -57 291l-709 -711q121 -143 315 -143q138 0 241.5 75.5t156.5 202t53 285.5z" glyph-name="Oslash" horiz-adv-x="1566" unicode="Ø"/><glyph d="M647 1575l-229 330h246l161 -330h-178zM729 -20q-259 0 -411 163.5t-152 438.5v872h223v-905q0 -177 92 -282t248 -105t249 105t93 282v905h225v-872q0 -274 -154 -438t-413 -164z" glyph-name="Ugrave" horiz-adv-x="1460" unicode="Ù"/><glyph d="M631 1583l160 330h247l-231 -330h-176zM729 -20q-259 0 -411 163.5t-152 438.5v872h223v-905q0 -177 92 -282t248 -105t249 105t93 282v905h225v-872q0 -274 -154 -438t-413 -164z" glyph-name="Uacute" horiz-adv-x="1460" unicode="Ú"/><glyph d="M1083 1575h-211l-143 192l-145 -192h-207l289 330h127zM729 -20q-259 0 -411 163.5t-152 438.5v872h223v-905q0 -177 92 -282t248 -105t249 105t93 282v905h225v-872q0 -274 -154 -438t-413 -164z" glyph-name="Ucircumflex" horiz-adv-x="1460" unicode="Û"/><glyph d="M565 1591q-49 0 -81.5 34.5t-32.5 84.5q0 51 32.5 86t81.5 35q48 0 81.5 -35t33.5 -86q0 -49 -34 -84t-81 -35zM911 1591q-47 0 -80.5 35t-33.5 84q0 51 33.5 86t80.5 35q49 0 82 -35t33 -86q0 -50 -33 -84.5t-82 -34.5zM729 -20q-259 0 -411 163.5t-152 438.5v872h223 v-905q0 -177 92 -282t248 -105t249 105t93 282v905h225v-872q0 -274 -154 -438t-413 -164z" glyph-name="Udieresis" horiz-adv-x="1460" unicode="Ü"/><glyph d="M543 1583l159 330h248l-231 -330h-176zM526 0v539l-491 915h233l297 -539q53 -101 72 -149h8q12 34 72 149l291 539h235l-491 -915v-539h-226z" glyph-name="Yacute" horiz-adv-x="1275" unicode="Ý"/><glyph d="M721 1188q232 0 373 -127t141 -336q0 -210 -140.5 -333.5t-373.5 -123.5h-315v-268h-226v1454h226v-266h315zM702 469q134 0 214.5 69.5t80.5 190.5t-80.5 190.5t-214.5 69.5h-296v-520h296z" glyph-name="Thorn" horiz-adv-x="1296" unicode="Þ"/><glyph d="M186 -158v1063q0 137 48 249t130.5 184t190 110.5t229.5 38.5q226 0 363 -88v-172l-293 -404v-10q159 -42 252.5 -157.5t93.5 -258.5q0 -190 -144.5 -303.5t-414.5 -113.5l21 165q93 0 156.5 21.5t95.5 62.5t44.5 87.5t12.5 109.5q0 120 -79.5 181t-232.5 61v186l304 432 q-78 37 -179 37q-74 0 -141 -27.5t-119 -79t-83 -132t-31 -179.5v-1038z" glyph-name="germandbls" horiz-adv-x="1298" unicode="ß"/><glyph d="M463 1110l-230 330h246l162 -330h-178zM418 -20q-126 0 -217.5 83.5t-91.5 217.5q0 143 100.5 212t294.5 85l219 18v47q-1 100 -56 148.5t-143 48.5q-116 0 -313 -56l-14 164q198 62 335 62q183 0 297.5 -93t114.5 -255v-437q0 -38 14.5 -63t42.5 -25t58 6l-12 -147 q-38 -10 -99 -10q-178 0 -221 141h-8q-68 -85 -140 -116t-161 -31zM481 141q137 0 242 133v183l-191 -19q-202 -19 -202 -155q0 -61 38.5 -101.5t112.5 -40.5z" glyph-name="agrave" horiz-adv-x="1128" unicode="à"/><glyph d="M446 1118l160 330h248l-231 -330h-177zM418 -20q-126 0 -217.5 83.5t-91.5 217.5q0 143 100.5 212t294.5 85l219 18v47q-1 100 -56 148.5t-143 48.5q-116 0 -313 -56l-14 164q198 62 335 62q183 0 297.5 -93t114.5 -255v-437q0 -38 14.5 -63t42.5 -25t58 6l-12 -147 q-38 -10 -99 -10q-178 0 -221 141h-8q-68 -85 -140 -116t-161 -31zM481 141q137 0 242 133v183l-191 -19q-202 -19 -202 -155q0 -61 38.5 -101.5t112.5 -40.5z" glyph-name="aacute" horiz-adv-x="1128" unicode="á"/><glyph d="M899 1110h-211l-143 193l-146 -193h-206l288 330h127zM418 -20q-126 0 -217.5 83.5t-91.5 217.5q0 143 100.5 212t294.5 85l219 18v47q-1 100 -56 148.5t-143 48.5q-116 0 -313 -56l-14 164q198 62 335 62q183 0 297.5 -93t114.5 -255v-437q0 -38 14.5 -63t42.5 -25t58 6 l-12 -147q-38 -10 -99 -10q-178 0 -221 141h-8q-68 -85 -140 -116t-161 -31zM481 141q137 0 242 133v183l-191 -19q-202 -19 -202 -155q0 -61 38.5 -101.5t112.5 -40.5z" glyph-name="acircumflex" horiz-adv-x="1128" unicode="â"/><glyph d="M258 1114l-18 180q32 35 76 57.5t81 22.5q59 0 160 -37t135 -37q75 0 156 84l20 -180q-34 -36 -77.5 -58t-81.5 -22q-58 0 -154.5 37t-140.5 37q-75 0 -156 -84zM418 -20q-126 0 -217.5 83.5t-91.5 217.5q0 143 100.5 212t294.5 85l219 18v47q-1 100 -56 148.5t-143 48.5 q-116 0 -313 -56l-14 164q198 62 335 62q183 0 297.5 -93t114.5 -255v-437q0 -38 14.5 -63t42.5 -25t58 6l-12 -147q-38 -10 -99 -10q-178 0 -221 141h-8q-68 -85 -140 -116t-161 -31zM481 141q137 0 242 133v183l-191 -19q-202 -19 -202 -155q0 -61 38.5 -101.5 t112.5 -40.5z" glyph-name="atilde" horiz-adv-x="1128" unicode="ã"/><glyph d="M381 1126q-49 0 -82 34.5t-33 84.5q0 51 33 86t82 35q48 0 81.5 -35t33.5 -86q0 -49 -34 -84t-81 -35zM727 1126q-47 0 -81 35t-34 84q0 51 33.5 86t81.5 35q49 0 82 -35t33 -86q0 -50 -33 -84.5t-82 -34.5zM418 -20q-126 0 -217.5 83.5t-91.5 217.5q0 143 100.5 212 t294.5 85l219 18v47q-1 100 -56 148.5t-143 48.5q-116 0 -313 -56l-14 164q198 62 335 62q183 0 297.5 -93t114.5 -255v-437q0 -38 14.5 -63t42.5 -25t58 6l-12 -147q-38 -10 -99 -10q-178 0 -221 141h-8q-68 -85 -140 -116t-161 -31zM481 141q137 0 242 133v183l-191 -19 q-202 -19 -202 -155q0 -61 38.5 -101.5t112.5 -40.5z" glyph-name="adieresis" horiz-adv-x="1128" unicode="ä"/><glyph d="M545 1116q-107 0 -171.5 64.5t-64.5 167.5q0 101 64.5 163t171.5 62q106 0 170.5 -62t64.5 -163q0 -103 -65 -167.5t-170 -64.5zM545 1233q40 0 65 31.5t25 83.5q0 49 -25 78.5t-65 29.5q-41 0 -65.5 -29t-24.5 -79q0 -53 24.5 -84t65.5 -31zM418 -20q-126 0 -217.5 83.5 t-91.5 217.5q0 143 100.5 212t294.5 85l219 18v47q-1 100 -56 148.5t-143 48.5q-116 0 -313 -56l-14 164q198 62 335 62q183 0 297.5 -93t114.5 -255v-437q0 -38 14.5 -63t42.5 -25t58 6l-12 -147q-38 -10 -99 -10q-178 0 -221 141h-8q-68 -85 -140 -116t-161 -31zM481 141 q137 0 242 133v183l-191 -19q-202 -19 -202 -155q0 -61 38.5 -101.5t112.5 -40.5z" glyph-name="aring" horiz-adv-x="1128" unicode="å"/><glyph d="M1651 506q0 -57 -6 -84h-699q12 -117 84.5 -194.5t206.5 -77.5q76 0 179 24t181 62l17 -166q-190 -90 -377 -90q-134 0 -237.5 49t-168.5 141h-8q-82 -103 -170.5 -146.5t-218.5 -43.5q-86 0 -159.5 36t-119.5 106t-46 159q0 143 101 214t294 87l219 18v43 q-1 100 -56 148.5t-143 48.5q-116 0 -313 -56l-14 164q198 62 335 62q220 0 332 -142h8q123 142 318 142q208 0 334.5 -140.5t126.5 -363.5zM952 565h478q0 146 -66 217.5t-164 71.5q-104 0 -174.5 -77t-73.5 -212zM723 303v154l-191 -19q-202 -18 -202 -153q0 -62 36 -103 t101 -41q162 0 256 162z" glyph-name="ae" horiz-adv-x="1738" unicode="æ"/><glyph d="M911 49q-138 -57 -272 -67v-62h10q64 0 104 -46t40 -118q0 -83 -62.5 -133.5t-163.5 -50.5q-80 0 -139 35l6 110q58 -30 107 -30q34 0 54.5 18t20.5 51q0 34 -25.5 54t-66.5 20h-35l-14 12v148q-178 35 -282.5 174t-104.5 340q0 226 137 366t363 140q154 0 323 -70 l-14 -166q-163 64 -295 64q-135 0 -214 -97.5t-79 -238.5q0 -146 79.5 -248t213.5 -102q126 0 295 65z" glyph-name="ccedilla" horiz-adv-x="980" unicode="ç"/><glyph d="M469 1110l-229 330h245l162 -330h-178zM596 -20q-236 0 -372 138.5t-136 375.5q0 230 128 373t335 143q206 0 332.5 -140.5t126.5 -363.5q0 -57 -6 -84h-699q12 -117 84.5 -194.5t206.5 -77.5q76 0 179 24t181 62l17 -166q-190 -90 -377 -90zM311 565h477 q0 146 -65.5 217.5t-163.5 71.5q-104 0 -174.5 -77t-73.5 -212z" glyph-name="egrave" horiz-adv-x="1097" unicode="è"/><glyph d="M453 1118l159 330h248l-231 -330h-176zM596 -20q-236 0 -372 138.5t-136 375.5q0 230 128 373t335 143q206 0 332.5 -140.5t126.5 -363.5q0 -57 -6 -84h-699q12 -117 84.5 -194.5t206.5 -77.5q76 0 179 24t181 62l17 -166q-190 -90 -377 -90zM311 565h477 q0 146 -65.5 217.5t-163.5 71.5q-104 0 -174.5 -77t-73.5 -212z" glyph-name="eacute" horiz-adv-x="1097" unicode="é"/><glyph d="M905 1110h-211l-143 193l-145 -193h-207l288 330h127zM596 -20q-236 0 -372 138.5t-136 375.5q0 230 128 373t335 143q206 0 332.5 -140.5t126.5 -363.5q0 -57 -6 -84h-699q12 -117 84.5 -194.5t206.5 -77.5q76 0 179 24t181 62l17 -166q-190 -90 -377 -90zM311 565h477 q0 146 -65.5 217.5t-163.5 71.5q-104 0 -174.5 -77t-73.5 -212z" glyph-name="ecircumflex" horiz-adv-x="1097" unicode="ê"/><glyph d="M387 1126q-49 0 -82 34.5t-33 84.5q0 51 33 86t82 35q48 0 81.5 -35t33.5 -86q0 -49 -34 -84t-81 -35zM733 1126q-47 0 -81 35t-34 84q0 51 33.5 86t81.5 35q49 0 82 -35t33 -86q0 -50 -33 -84.5t-82 -34.5zM596 -20q-236 0 -372 138.5t-136 375.5q0 230 128 373t335 143 q206 0 332.5 -140.5t126.5 -363.5q0 -57 -6 -84h-699q12 -117 84.5 -194.5t206.5 -77.5q76 0 179 24t181 62l17 -166q-190 -90 -377 -90zM311 565h477q0 146 -65.5 217.5t-163.5 71.5q-104 0 -174.5 -77t-73.5 -212z" glyph-name="edieresis" horiz-adv-x="1097" unicode="ë"/><glyph d="M162 1110l-230 330h246l162 -330h-178zM133 0v989h221v-989h-221z" glyph-name="igrave" horiz-adv-x="487" unicode="ì"/><glyph d="M145 1118l160 330h248l-231 -330h-177zM133 0v989h221v-989h-221z" glyph-name="iacute" horiz-adv-x="487" unicode="í"/><glyph d="M598 1110h-211l-143 193l-146 -193h-207l289 330h127zM133 0v989h221v-989h-221z" glyph-name="icircumflex" horiz-adv-x="487" unicode="î"/><glyph d="M80 1126q-49 0 -82 34.5t-33 84.5q0 51 33 86t82 35q48 0 81.5 -35t33.5 -86q0 -49 -34 -84t-81 -35zM426 1126q-47 0 -81 35t-34 84q0 51 33.5 86t81.5 35q49 0 82 -35t33 -86q0 -50 -33 -84.5t-82 -34.5zM133 0v989h221v-989h-221z" glyph-name="idieresis" horiz-adv-x="487" unicode="ï"/><glyph d="M588 -20q-222 0 -366 145.5t-144 376.5q0 222 141.5 365t358.5 143q121 0 227 -74h8q-58 128 -158 221l-123 -72l-71 111l86 49q-81 71 -152 119l168 109q95 -58 168 -121l131 75l70 -108l-101 -62q125 -134 196 -328.5t71 -398.5q0 -250 -142.5 -400t-367.5 -150z M588 141q130 0 208 101.5t78 259.5q0 150 -78.5 248t-209.5 98q-130 0 -208.5 -98.5t-78.5 -247.5q0 -158 79 -259.5t210 -101.5z" glyph-name="eth" horiz-adv-x="1175" unicode="ð"/><glyph d="M295 1114l-19 180q32 35 76.5 57.5t81.5 22.5q59 0 160 -37t135 -37q75 0 156 84l20 -180q-34 -36 -78 -58t-82 -22q-58 0 -154 37t-140 37q-75 0 -156 -84zM166 0v989h178l41 -90h8q132 111 285 111q160 0 251 -99t91 -307v-604h-221v616q0 116 -45 168t-142 52 q-130 0 -227 -95v-741h-219z" glyph-name="ntilde" horiz-adv-x="1157" unicode="ñ"/><glyph d="M489 1110l-229 330h246l162 -330h-179zM571 -20q-220 0 -351.5 144t-131.5 376q0 226 132 368t351 142q218 0 351 -142.5t133 -369.5q0 -230 -133 -374t-351 -144zM571 141q126 0 193 101.5t67 255.5q0 150 -67 250t-193 100t-194 -100t-68 -248q0 -155 68 -257t194 -102 z" glyph-name="ograve" horiz-adv-x="1142" unicode="ò"/><glyph d="M473 1118l160 330h248l-232 -330h-176zM571 -20q-220 0 -351.5 144t-131.5 376q0 226 132 368t351 142q218 0 351 -142.5t133 -369.5q0 -230 -133 -374t-351 -144zM571 141q126 0 193 101.5t67 255.5q0 150 -67 250t-193 100t-194 -100t-68 -248q0 -155 68 -257t194 -102 z" glyph-name="oacute" horiz-adv-x="1142" unicode="ó"/><glyph d="M926 1110h-211l-144 193l-145 -193h-207l289 330h127zM571 -20q-220 0 -351.5 144t-131.5 376q0 226 132 368t351 142q218 0 351 -142.5t133 -369.5q0 -230 -133 -374t-351 -144zM571 141q126 0 193 101.5t67 255.5q0 150 -67 250t-193 100t-194 -100t-68 -248 q0 -155 68 -257t194 -102z" glyph-name="ocircumflex" horiz-adv-x="1142" unicode="ô"/><glyph d="M285 1114l-19 180q32 35 76.5 57.5t81.5 22.5q59 0 160 -37t135 -37q74 0 155 84l21 -180q-34 -36 -78 -58t-82 -22q-58 0 -154.5 37t-140.5 37q-74 0 -155 -84zM571 -20q-220 0 -351.5 144t-131.5 376q0 226 132 368t351 142q218 0 351 -142.5t133 -369.5 q0 -230 -133 -374t-351 -144zM571 141q126 0 193 101.5t67 255.5q0 150 -67 250t-193 100t-194 -100t-68 -248q0 -155 68 -257t194 -102z" glyph-name="otilde" horiz-adv-x="1142" unicode="õ"/><glyph d="M408 1126q-49 0 -82 34.5t-33 84.5q0 51 33 86t82 35q47 0 80.5 -35t33.5 -86q0 -49 -33.5 -84t-80.5 -35zM754 1126q-47 0 -81 35t-34 84q0 51 33.5 86t81.5 35q49 0 81.5 -35t32.5 -86q0 -50 -32.5 -84.5t-81.5 -34.5zM571 -20q-220 0 -351.5 144t-131.5 376 q0 226 132 368t351 142q218 0 351 -142.5t133 -369.5q0 -230 -133 -374t-351 -144zM571 141q126 0 193 101.5t67 255.5q0 150 -67 250t-193 100t-194 -100t-68 -248q0 -155 68 -257t194 -102z" glyph-name="odieresis" horiz-adv-x="1142" unicode="ö"/><glyph d="M563 862q-51 0 -86 36t-35 89q0 54 35 89.5t86 35.5q54 0 88.5 -35.5t34.5 -89.5q0 -53 -35 -89t-88 -36zM117 502v174h893v-174h-893zM563 66q-51 0 -86 35t-35 89q0 53 35 89t86 36q53 0 88 -36t35 -89q0 -54 -34.5 -89t-88.5 -35z" glyph-name="divide" horiz-adv-x="1126" unicode="÷"/><glyph d="M1143 932l-162 -162q63 -120 63 -272q0 -230 -132.5 -374t-350.5 -144q-163 0 -285 83l-122 -122l-117 116l127 127q-86 131 -86 316q0 226 132 368t351 142q192 0 318 -111l147 150zM299 500q0 -81 23 -158l419 422q-68 84 -180 84q-126 0 -194 -100t-68 -248zM821 498 q0 58 -8 102l-403 -403q62 -56 151 -56q126 0 193 101.5t67 255.5z" glyph-name="oslash" horiz-adv-x="1179" unicode="ø"/><glyph d="M485 1110l-229 330h246l162 -330h-179zM483 -20q-160 0 -251 98.5t-91 306.5v604h221v-614q0 -117 44.5 -169t142.5 -52q131 0 227 94v741h219v-989h-178l-41 92h-8q-133 -112 -285 -112z" glyph-name="ugrave" horiz-adv-x="1144" unicode="ù"/><glyph d="M469 1118l160 330h248l-232 -330h-176zM483 -20q-160 0 -251 98.5t-91 306.5v604h221v-614q0 -117 44.5 -169t142.5 -52q131 0 227 94v741h219v-989h-178l-41 92h-8q-133 -112 -285 -112z" glyph-name="uacute" horiz-adv-x="1144" unicode="ú"/><glyph d="M922 1110h-211l-144 193l-145 -193h-207l289 330h127zM483 -20q-160 0 -251 98.5t-91 306.5v604h221v-614q0 -117 44.5 -169t142.5 -52q131 0 227 94v741h219v-989h-178l-41 92h-8q-133 -112 -285 -112z" glyph-name="ucircumflex" horiz-adv-x="1144" unicode="û"/><glyph d="M403 1126q-49 0 -81.5 34.5t-32.5 84.5q0 51 32.5 86t81.5 35q48 0 81.5 -35t33.5 -86q0 -49 -34 -84t-81 -35zM750 1126q-47 0 -81 35t-34 84q0 51 33.5 86t81.5 35q49 0 81.5 -35t32.5 -86q0 -50 -32.5 -84.5t-81.5 -34.5zM483 -20q-160 0 -251 98.5t-91 306.5v604h221 v-614q0 -117 44.5 -169t142.5 -52q131 0 227 94v741h219v-989h-178l-41 92h-8q-133 -112 -285 -112z" glyph-name="udieresis" horiz-adv-x="1144" unicode="ü"/><glyph d="M434 1118l160 330h248l-232 -330h-176zM805 989h227l-385 -989l-35 -88q-30 -78 -56.5 -129.5t-64 -96t-87 -65t-113.5 -20.5q-53 0 -111 10v166q33 -8 78 -8q46 0 74.5 35.5t54.5 107.5l35 88l-387 989h227l232 -622q23 -63 34 -121h9q13 56 34 121z" glyph-name="yacute" horiz-adv-x="1067" unicode="ý"/><glyph d="M166 -401v1845l219 -21v-528h8q132 111 285 111q200 0 329.5 -139.5t129.5 -370.5q0 -230 -129.5 -373t-321.5 -143q-151 0 -293 120h-8v-460zM629 154q121 0 200.5 97.5t79.5 244.5t-79.5 241t-206.5 94q-135 0 -238 -94v-479q114 -104 244 -104z" glyph-name="thorn" horiz-adv-x="1224" unicode="þ"/><glyph d="M369 1126q-49 0 -82 34.5t-33 84.5q0 51 33 86t82 35q47 0 80.5 -35t33.5 -86q0 -49 -33.5 -84t-80.5 -35zM715 1126q-47 0 -81 35t-34 84q0 51 33.5 86t81.5 35q49 0 81.5 -35t32.5 -86q0 -50 -32.5 -84.5t-81.5 -34.5zM805 989h227l-385 -989l-35 -88 q-30 -78 -56.5 -129.5t-64 -96t-87 -65t-113.5 -20.5q-53 0 -111 10v166q33 -8 78 -8q46 0 74.5 35.5t54.5 107.5l35 88l-387 989h227l232 -622q23 -63 34 -121h9q13 56 34 121z" glyph-name="ydieresis" horiz-adv-x="1067" unicode="ÿ"/><glyph d="M977 1667h-594l-2 174h596v-174zM1079 0l-131 369h-540l-129 -369h-228l533 1454h190l533 -1454h-228zM469 543h420l-156 438q-36 106 -51 190h-8q-8 -70 -51 -190z" glyph-name="Amacron" horiz-adv-x="1357" unicode="Ā"/><glyph d="M252 1202l-2 174h596v-174h-594zM418 -20q-126 0 -217.5 83.5t-91.5 217.5q0 143 100.5 212t294.5 85l219 18v47q-1 100 -56 148.5t-143 48.5q-116 0 -313 -56l-14 164q198 62 335 62q183 0 297.5 -93t114.5 -255v-437q0 -38 14.5 -63t42.5 -25t58 6l-12 -147 q-38 -10 -99 -10q-178 0 -221 141h-8q-68 -85 -140 -116t-161 -31zM481 141q137 0 242 133v183l-191 -19q-202 -19 -202 -155q0 -61 38.5 -101.5t112.5 -40.5z" glyph-name="amacron" horiz-adv-x="1128" unicode="ā"/><glyph d="M676 1569q-145 0 -233.5 91.5t-90.5 240.5h174q0 -91 41 -144t109 -53q67 0 107.5 52.5t41.5 144.5h176q0 -149 -89.5 -240.5t-235.5 -91.5zM1079 0l-131 369h-540l-129 -369h-228l533 1454h190l533 -1454h-228zM469 543h420l-156 438q-36 106 -51 190h-8 q-8 -70 -51 -190z" glyph-name="Abreve" horiz-adv-x="1357" unicode="Ă"/><glyph d="M545 1104q-145 0 -233.5 91.5t-90.5 240.5h174q0 -91 41 -144t109 -53q67 0 107.5 52.5t41.5 144.5h176q0 -149 -89.5 -240.5t-235.5 -91.5zM418 -20q-126 0 -217.5 83.5t-91.5 217.5q0 143 100.5 212t294.5 85l219 18v47q-1 100 -56 148.5t-143 48.5q-116 0 -313 -56 l-14 164q198 62 335 62q183 0 297.5 -93t114.5 -255v-437q0 -38 14.5 -63t42.5 -25t58 6l-12 -147q-38 -10 -99 -10q-178 0 -221 141h-8q-68 -85 -140 -116t-161 -31zM481 141q137 0 242 133v183l-191 -19q-202 -19 -202 -155q0 -61 38.5 -101.5t112.5 -40.5z" glyph-name="abreve" horiz-adv-x="1128" unicode="ă"/><glyph d="M1120 -109q0 -41 29 -67.5t80 -26.5q41 0 47 2l-8 -155q-30 -9 -68 -9q-95 0 -161 56.5t-66 154.5q0 112 98 177l-123 346h-540l-129 -369h-228l533 1454h190l533 -1454h-117q-70 -30 -70 -109zM469 543h420l-156 438q-36 106 -51 190h-8q-8 -70 -51 -190z" glyph-name="Aogonek" horiz-adv-x="1357" unicode="Ą"/><glyph d="M1020 -203q41 0 47 2l-8 -155q-30 -9 -68 -9q-95 0 -161 56.5t-66 154.5q0 96 72 158q-82 31 -109 123h-8q-68 -85 -140 -116t-161 -31q-126 0 -217.5 83.5t-91.5 217.5q0 143 100.5 212t294.5 85l219 18v47q-1 100 -56 148.5t-143 48.5q-116 0 -313 -56l-14 164 q198 62 335 62q183 0 297.5 -93t114.5 -255v-437q0 -38 14.5 -63t42.5 -25t58 6l-12 -147q-33 -10 -93 -10q-43 -34 -43 -95q0 -41 29 -67.5t80 -26.5zM723 274v183l-191 -19q-202 -19 -202 -155q0 -61 38.5 -101.5t112.5 -40.5q137 0 242 133z" glyph-name="aogonek" horiz-adv-x="1128" unicode="ą"/><glyph d="M655 1583l160 330h248l-232 -330h-176zM764 -20q-302 0 -484 208t-182 543q0 220 81 388.5t232.5 262t352.5 93.5q254 0 508 -121l-21 -189q-110 58 -227 88.5t-215 30.5q-111 0 -202 -42.5t-150.5 -117t-92 -175t-32.5 -216.5q0 -156 56.5 -283.5t166.5 -203.5t254 -76 q97 0 214 30.5t228 86.5l21 -187q-249 -120 -508 -120z" glyph-name="Cacute" horiz-adv-x="1380" unicode="Ć"/><glyph d="M459 1118l159 330h248l-231 -330h-176zM588 -20q-226 0 -363 145.5t-137 378.5q0 226 137 366t363 140q154 0 323 -70l-14 -166q-163 64 -295 64q-135 0 -214 -97.5t-79 -238.5q0 -146 79.5 -248t213.5 -102q126 0 295 65l14 -168q-172 -69 -323 -69z" glyph-name="cacute" horiz-adv-x="980" unicode="ć"/><glyph d="M754 1587q-58 0 -97 40t-39 99q0 60 39 100t97 40q57 0 96 -40t39 -100q0 -59 -39 -99t-96 -40zM764 -20q-302 0 -484 208t-182 543q0 220 81 388.5t232.5 262t352.5 93.5q254 0 508 -121l-21 -189q-110 58 -227 88.5t-215 30.5q-111 0 -202 -42.5t-150.5 -117t-92 -175 t-32.5 -216.5q0 -156 56.5 -283.5t166.5 -203.5t254 -76q97 0 214 30.5t228 86.5l21 -187q-249 -120 -508 -120z" glyph-name="Cdotaccent" horiz-adv-x="1380" unicode="Ċ"/><glyph d="M557 1122q-58 0 -96.5 40.5t-38.5 99.5q0 60 38.5 99.5t96.5 39.5q57 0 96 -39.5t39 -99.5q0 -59 -39 -99.5t-96 -40.5zM588 -20q-226 0 -363 145.5t-137 378.5q0 226 137 366t363 140q154 0 323 -70l-14 -166q-163 64 -295 64q-135 0 -214 -97.5t-79 -238.5 q0 -146 79.5 -248t213.5 -102q126 0 295 65l14 -168q-172 -69 -323 -69z" glyph-name="cdotaccent" horiz-adv-x="980" unicode="ċ"/><glyph d="M1106 1913l-291 -330h-127l-289 330h207l146 -195l143 195h211zM764 -20q-302 0 -484 208t-182 543q0 220 81 388.5t232.5 262t352.5 93.5q254 0 508 -121l-21 -189q-110 58 -227 88.5t-215 30.5q-111 0 -202 -42.5t-150.5 -117t-92 -175t-32.5 -216.5 q0 -156 56.5 -283.5t166.5 -203.5t254 -76q97 0 214 30.5t228 86.5l21 -187q-249 -120 -508 -120z" glyph-name="Ccaron" horiz-adv-x="1380" unicode="Č"/><glyph d="M909 1448l-291 -330h-126l-289 330h207l145 -195l143 195h211zM588 -20q-226 0 -363 145.5t-137 378.5q0 226 137 366t363 140q154 0 323 -70l-14 -166q-163 64 -295 64q-135 0 -214 -97.5t-79 -238.5q0 -146 79.5 -248t213.5 -102q126 0 295 65l14 -168 q-172 -69 -323 -69z" glyph-name="ccaron" horiz-adv-x="980" unicode="č"/><glyph d="M717 1583h-127l-289 330h207l145 -195l144 195h211zM655 1454q330 0 517.5 -191.5t187.5 -529.5q0 -345 -187 -539t-518 -194h-469v1454h469zM645 182q226 0 354.5 146t128.5 405q0 253 -128.5 396t-354.5 143h-235v-1090h235z" glyph-name="Dcaron" horiz-adv-x="1458" unicode="Ď"/><glyph d="M539 -20q-192 0 -321.5 143t-129.5 373q0 233 130 373.5t331 140.5q150 0 282 -111h9v514l221 41v-1454h-180l-41 100h-9q-142 -120 -292 -120zM1245 858l107 596h237l-172 -596h-172zM608 154q125 0 232 104v483q-95 95 -226 95t-215 -95.5t-84 -244.5q0 -146 83.5 -244 t209.5 -98z" glyph-name="dcaron" horiz-adv-x="1589" unicode="ď"/><glyph d="M655 1454q330 0 517.5 -191.5t187.5 -529.5q0 -345 -187 -539t-518 -194h-469v641h-186v174h186v639h469zM645 182q226 0 354.5 146t128.5 405q0 253 -128.5 396t-354.5 143h-235v-457h370v-174h-370v-459h235z" glyph-name="Dcroat" horiz-adv-x="1523" unicode="Đ"/><glyph d="M1219 1292v-157h-158v-1135h-180l-41 100h-9q-142 -120 -292 -120q-192 0 -321.5 143t-129.5 373q0 233 130 373.5t331 140.5q150 0 282 -111h9v236h-314v157h314v121l221 41v-162h158zM840 258v483q-95 95 -226 95t-215 -95.5t-84 -244.5q0 -146 83.5 -244t209.5 -98 q125 0 232 104z" glyph-name="dcroat" horiz-adv-x="1218" unicode="đ"/><glyph d="M973 1667h-594l-2 174h596v-174zM410 664v-482h712l-18 -182h-918v1454h936l-18 -182h-694v-434h653l-21 -174h-632z" glyph-name="Emacron" horiz-adv-x="1249" unicode="Ē"/><glyph d="M258 1202l-2 174h596v-174h-594zM596 -20q-236 0 -372 138.5t-136 375.5q0 230 128 373t335 143q206 0 332.5 -140.5t126.5 -363.5q0 -57 -6 -84h-699q12 -117 84.5 -194.5t206.5 -77.5q76 0 179 24t181 62l17 -166q-190 -90 -377 -90zM311 565h477q0 146 -65.5 217.5 t-163.5 71.5q-104 0 -174.5 -77t-73.5 -212z" glyph-name="emacron" horiz-adv-x="1097" unicode="ē"/><glyph d="M672 1587q-58 0 -96.5 40t-38.5 99q0 60 38.5 100t96.5 40q57 0 96 -40t39 -100q0 -59 -39 -99t-96 -40zM410 664v-482h712l-18 -182h-918v1454h936l-18 -182h-694v-434h653l-21 -174h-632z" glyph-name="Edotaccent" horiz-adv-x="1249" unicode="Ė"/><glyph d="M551 1122q-58 0 -96.5 40.5t-38.5 99.5q0 60 38.5 99.5t96.5 39.5q57 0 96 -39.5t39 -99.5q0 -59 -39 -99.5t-96 -40.5zM596 -20q-236 0 -372 138.5t-136 375.5q0 230 128 373t335 143q206 0 332.5 -140.5t126.5 -363.5q0 -57 -6 -84h-699q12 -117 84.5 -194.5 t206.5 -77.5q76 0 179 24t181 62l17 -166q-190 -90 -377 -90zM311 565h477q0 146 -65.5 217.5t-163.5 71.5q-104 0 -174.5 -77t-73.5 -212z" glyph-name="edotaccent" horiz-adv-x="1097" unicode="ė"/><glyph d="M410 664v-482h712l-18 -182h-352q-70 -30 -70 -109q0 -41 29 -67.5t80 -26.5q41 0 47 2l-9 -155q-30 -9 -67 -9q-95 0 -161 56.5t-66 154.5q0 94 67 154h-416v1454h936l-18 -182h-694v-434h653l-21 -174h-632z" glyph-name="Eogonek" horiz-adv-x="1249" unicode="Ę"/><glyph d="M1010 506q0 -57 -6 -84h-699q12 -117 84.5 -194.5t206.5 -77.5q76 0 179 24t181 62l17 -166q-177 -84 -355 -90q-36 -29 -36 -89q0 -41 28.5 -67.5t79.5 -26.5q41 0 47 2l-8 -155q-30 -9 -67 -9q-95 0 -161.5 56.5t-66.5 154.5q0 87 55 142q-189 31 -295 164t-106 342 q0 230 128 373t335 143q206 0 332.5 -140.5t126.5 -363.5zM311 565h477q0 146 -65.5 217.5t-163.5 71.5q-104 0 -174.5 -77t-73.5 -212z" glyph-name="eogonek" horiz-adv-x="1097" unicode="ę"/><glyph d="M733 1583h-127l-289 330h207l146 -195l143 195h211zM410 664v-482h712l-18 -182h-918v1454h936l-18 -182h-694v-434h653l-21 -174h-632z" glyph-name="Ecaron" horiz-adv-x="1249" unicode="Ě"/><glyph d="M903 1448l-291 -330h-127l-288 330h206l146 -195l143 195h211zM596 -20q-236 0 -372 138.5t-136 375.5q0 230 128 373t335 143q206 0 332.5 -140.5t126.5 -363.5q0 -57 -6 -84h-699q12 -117 84.5 -194.5t206.5 -77.5q76 0 179 24t181 62l17 -166q-190 -90 -377 -90z M311 565h477q0 146 -65.5 217.5t-163.5 71.5q-104 0 -174.5 -77t-73.5 -212z" glyph-name="ecaron" horiz-adv-x="1097" unicode="ě"/><glyph d="M754 1569q-145 0 -233.5 91.5t-90.5 240.5h174q0 -91 41 -144t109 -53q67 0 107.5 52.5t41.5 144.5h176q0 -149 -89.5 -240.5t-235.5 -91.5zM743 -20q-291 0 -468 207.5t-177 549.5q0 330 187 534t493 204q262 0 516 -121l-22 -189q-238 119 -475 119q-144 0 -250.5 -73 t-159.5 -196t-53 -278q0 -165 51.5 -292.5t153.5 -201t239 -73.5q84 0 182 34t173 93v303h-408l-20 176h647v-776h-174l-39 115h-9q-199 -135 -387 -135z" glyph-name="Gbreve" horiz-adv-x="1460" unicode="Ğ"/><glyph d="M565 1104q-145 0 -233 91t-90 241h174q0 -92 40.5 -144.5t108.5 -52.5q67 0 108 53t42 144h176q0 -149 -90 -240.5t-236 -91.5zM561 -471q-192 0 -420 90l17 170l34 -13q35 -13 47.5 -17t48 -15.5t60.5 -17t60.5 -12.5t71 -10t71.5 -3q149 0 219 65.5t70 210.5v123h-9 q-142 -120 -292 -120q-192 0 -321.5 143t-129.5 373q0 231 130.5 370.5t330.5 139.5q150 0 282 -111h9l45 94h176v-1001q0 -116 -38.5 -205t-106.5 -144t-158 -82.5t-197 -27.5zM608 154q53 0 116.5 27.5t115.5 76.5v479q-45 45 -107 69.5t-119 24.5q-134 0 -216.5 -91.5 t-82.5 -243.5q0 -153 81 -247.5t212 -94.5z" glyph-name="gbreve" horiz-adv-x="1206" unicode="ğ"/><glyph d="M754 1587q-58 0 -97 40t-39 99q0 60 39 100t97 40q57 0 96 -40t39 -100q0 -59 -39 -99t-96 -40zM743 -20q-291 0 -468 207.5t-177 549.5q0 330 187 534t493 204q262 0 516 -121l-22 -189q-238 119 -475 119q-144 0 -250.5 -73t-159.5 -196t-53 -278q0 -165 51.5 -292.5 t153.5 -201t239 -73.5q84 0 182 34t173 93v303h-408l-20 176h647v-776h-174l-39 115h-9q-199 -135 -387 -135z" glyph-name="Gdotaccent" horiz-adv-x="1460" unicode="Ġ"/><glyph d="M565 1122q-58 0 -96.5 40.5t-38.5 99.5q0 60 38.5 99.5t96.5 39.5q57 0 96 -39.5t39 -99.5q0 -59 -39 -99.5t-96 -40.5zM561 -471q-192 0 -420 90l17 170l34 -13q35 -13 47.5 -17t48 -15.5t60.5 -17t60.5 -12.5t71 -10t71.5 -3q149 0 219 65.5t70 210.5v123h-9 q-142 -120 -292 -120q-192 0 -321.5 143t-129.5 373q0 231 130.5 370.5t330.5 139.5q150 0 282 -111h9l45 94h176v-1001q0 -116 -38.5 -205t-106.5 -144t-158 -82.5t-197 -27.5zM608 154q53 0 116.5 27.5t115.5 76.5v479q-45 45 -107 69.5t-119 24.5q-134 0 -216.5 -91.5 t-82.5 -243.5q0 -153 81 -247.5t212 -94.5z" glyph-name="gdotaccent" horiz-adv-x="1206" unicode="ġ"/><glyph d="M743 -20q-291 0 -468 207.5t-177 549.5q0 330 187 534t493 204q262 0 516 -121l-22 -189q-238 119 -475 119q-144 0 -250.5 -73t-159.5 -196t-53 -278q0 -165 51.5 -292.5t153.5 -201t239 -73.5q84 0 182 34t173 93v303h-408l-20 176h647v-776h-174l-39 115h-9 q-199 -135 -387 -135zM563 -582l88 439h236l-170 -439h-154z" glyph-name="Gcommaaccent" horiz-adv-x="1460" unicode="Ģ"/><glyph d="M561 -471q-192 0 -420 90l17 170l34 -13q35 -13 47.5 -17t48 -15.5t60.5 -17t60.5 -12.5t71 -10t71.5 -3q149 0 219 65.5t70 210.5v123h-9q-142 -120 -292 -120q-192 0 -321.5 143t-129.5 373q0 231 130.5 370.5t330.5 139.5q150 0 282 -111h9l45 94h176v-1001 q0 -116 -38.5 -205t-106.5 -144t-158 -82.5t-197 -27.5zM608 154q53 0 116.5 27.5t115.5 76.5v479q-45 45 -107 69.5t-119 24.5q-134 0 -216.5 -91.5t-82.5 -243.5q0 -153 81 -247.5t212 -94.5zM377 -1018l88 438h235l-170 -438h-153z" glyph-name="gcommaaccent" horiz-adv-x="1206" unicode="ģ"/><glyph d="M1456 1255v-174h-158v-1081h-223v659h-647v-659h-223v1081h-160v174h160v199h223v-199h647v199h223v-199h158zM1075 834v247h-647v-247h647z" glyph-name="Hbar" horiz-adv-x="1501" unicode="Ħ"/><glyph d="M678 1010q160 0 251 -99t91 -307v-604h-221v616q0 116 -45 168t-142 52q-130 0 -227 -95v-741h-219v1135h-166v157h166v121l219 41v-162h309v-157h-309v-236h8q132 111 285 111z" glyph-name="hbar" horiz-adv-x="1157" unicode="ħ"/><glyph d="M4 1667l-2 174h596v-174h-594zM186 0v1454h224v-1454h-224z" glyph-name="Imacron" horiz-adv-x="595" unicode="Ī"/><glyph d="M-49 1202l-2 174h596v-174h-594zM133 0v989h221v-989h-221z" glyph-name="imacron" horiz-adv-x="487" unicode="ī"/><glyph d="M377 -203q41 0 47 2l-8 -155q-30 -9 -68 -9q-95 0 -161 56.5t-66 154.5q0 94 67 154h-2v1454h224v-1454h-72q-70 -30 -70 -109q0 -41 29 -67.5t80 -26.5z" glyph-name="Iogonek" horiz-adv-x="595" unicode="Į"/><glyph d="M244 1122q-58 0 -96.5 40.5t-38.5 99.5q0 60 38.5 99.5t96.5 39.5q57 0 96 -39.5t39 -99.5q0 -59 -39 -99.5t-96 -40.5zM203 -109q0 -41 28.5 -67.5t79.5 -26.5q41 0 47 2l-8 -155q-30 -9 -67 -9q-95 0 -161.5 56.5t-66.5 154.5q0 101 78 162v981h221v-989h-82 q-69 -29 -69 -109z" glyph-name="iogonek" horiz-adv-x="487" unicode="į"/><glyph d="M297 1587q-58 0 -96.5 40t-38.5 99q0 60 38.5 100t96.5 40q57 0 96 -40t39 -100q0 -59 -39 -99t-96 -40zM186 0v1454h224v-1454h-224z" glyph-name="Idotaccent" horiz-adv-x="595" unicode="İ"/><glyph d="M133 0v989h221v-989h-221z" glyph-name="dotlessi" horiz-adv-x="487" unicode="ı"/><glyph d="M186 0v1454h224v-612l518 612h268l-498 -592l533 -862h-246l-438 707l-137 -160v-547h-224zM459 -582l88 439h235l-170 -439h-153z" glyph-name="Kcommaaccent" horiz-adv-x="1271" unicode="Ķ"/><glyph d="M803 0l-277 471l-141 -149v-322h-219v1413l219 41v-874l379 409h256l-354 -371l387 -618h-250zM358 -582l88 439h236l-170 -439h-154z" glyph-name="kcommaaccent" horiz-adv-x="1085" unicode="ķ"/><glyph d="M606 1913l-231 -330h-176l159 330h248zM410 182h608l-21 -182h-811v1454h224v-1272z" glyph-name="Lacute" horiz-adv-x="1077" unicode="Ĺ"/><glyph d="M184 1583l160 330h248l-232 -330h-176zM440 -20q-140 0 -207 76t-67 237v1120l219 41v-1188q0 -116 94 -116q50 0 86 10v-170q-49 -10 -125 -10z" glyph-name="lacute" horiz-adv-x="653" unicode="ĺ"/><glyph d="M410 182h608l-21 -182h-811v1454h224v-1272zM436 -582l88 439h236l-170 -439h-154z" glyph-name="Lcommaaccent" horiz-adv-x="1077" unicode="Ļ"/><glyph d="M440 -20q-140 0 -207 76t-67 237v1120l219 41v-1188q0 -116 94 -116q50 0 86 10v-170q-49 -10 -125 -10zM203 -582l88 439h235l-170 -439h-153z" glyph-name="lcommaaccent" horiz-adv-x="653" unicode="ļ"/><glyph d="M410 1454v-1272h608l-21 -182h-811v1454h224zM1081 1454l-168 -596h-161l96 596h233z" glyph-name="Lcaron" horiz-adv-x="1077" unicode="Ľ"/><glyph d="M440 -20q-140 0 -207 76t-67 237v1120l219 41v-1188q0 -116 94 -116q50 0 86 10v-170q-49 -10 -125 -10zM535 858l106 596h238l-152 -596h-192z" glyph-name="lcaron" horiz-adv-x="878" unicode="ľ"/><glyph d="M410 182h608l-21 -182h-811v623l-186 -60v170l186 60v661h224v-592l243 76v-170l-243 -76v-510z" glyph-name="Lslash" horiz-adv-x="1105" unicode="Ł"/><glyph d="M479 150q50 0 86 10v-170q-49 -10 -125 -10q-140 0 -207 76t-67 237v366l-166 -63v170l166 63v584l219 41v-543l154 60v-170l-154 -60v-475q0 -116 94 -116z" glyph-name="lslash" horiz-adv-x="653" unicode="ł"/><glyph d="M651 1583l160 330h248l-232 -330h-176zM186 0v1454h195l639 -936q45 -67 59 -110h8q-6 44 -6 110v936h226v-1454h-197l-639 936q-44 66 -59 111h-9q7 -51 7 -111v-936h-224z" glyph-name="Nacute" horiz-adv-x="1490" unicode="Ń"/><glyph d="M483 1118l160 330h248l-232 -330h-176zM166 0v989h178l41 -90h8q132 111 285 111q160 0 251 -99t91 -307v-604h-221v616q0 116 -45 168t-142 52q-130 0 -227 -95v-741h-219z" glyph-name="nacute" horiz-adv-x="1157" unicode="ń"/><glyph d="M186 0v1454h195l639 -936q45 -67 59 -110h8q-6 44 -6 110v936h226v-1454h-197l-639 936q-44 66 -59 111h-9q7 -51 7 -111v-936h-224zM526 -582l88 439h236l-170 -439h-154z" glyph-name="Ncommaaccent" horiz-adv-x="1490" unicode="Ņ"/><glyph d="M166 0v989h178l41 -90h8q132 111 285 111q160 0 251 -99t91 -307v-604h-221v616q0 116 -45 168t-142 52q-130 0 -227 -95v-741h-219zM393 -582l88 439h236l-170 -439h-154z" glyph-name="ncommaaccent" horiz-adv-x="1157" unicode="ņ"/><glyph d="M1102 1913l-291 -330h-127l-289 330h207l146 -195l143 195h211zM186 0v1454h195l639 -936q45 -67 59 -110h8q-6 44 -6 110v936h226v-1454h-197l-639 936q-44 66 -59 111h-9q7 -51 7 -111v-936h-224z" glyph-name="Ncaron" horiz-adv-x="1490" unicode="Ň"/><glyph d="M934 1448l-291 -330h-127l-289 330h207l146 -195l143 195h211zM166 0v989h178l41 -90h8q132 111 285 111q160 0 251 -99t91 -307v-604h-221v616q0 116 -45 168t-142 52q-130 0 -227 -95v-741h-219z" glyph-name="ncaron" horiz-adv-x="1157" unicode="ň"/><glyph d="M1055 -401q-73 0 -119 10v147q39 -10 84 -10t67.5 27t22.5 92v135l-639 936q-44 66 -59 111h-9q7 -51 7 -111v-936h-224v1454h195l639 -936q45 -67 59 -110h8q-6 44 -6 110v936h226v-1552q0 -162 -54.5 -232.5t-197.5 -70.5z" glyph-name="Eng" horiz-adv-x="1490" unicode="Ŋ"/><glyph d="M678 1010q160 0 251 -99t91 -307v-624q0 -157 -70 -233.5t-217 -76.5q-59 0 -119 13v161q39 -10 88 -10q47 0 72 27.5t25 93.5v661q0 116 -45 168t-142 52q-130 0 -227 -95v-741h-219v989h178l41 -90h8q132 111 285 111z" glyph-name="eng" horiz-adv-x="1157" unicode="ŋ"/><glyph d="M492 1667l-3 174h596v-174h-593zM784 -20q-146 0 -273.5 56t-218 154.5t-142.5 239t-52 303.5q0 217 88.5 387t244 262.5t351.5 92.5q197 0 353 -92.5t244.5 -262t88.5 -387.5t-88 -390t-244.5 -267.5t-351.5 -95.5zM784 170q138 0 241.5 75.5t156.5 202t53 285.5 q0 158 -53.5 282.5t-157.5 196.5t-242 72t-241.5 -72.5t-156 -196.5t-52.5 -282t53 -285t157 -202.5t242 -75.5z" glyph-name="Omacron" horiz-adv-x="1566" unicode="Ō"/><glyph d="M279 1202l-3 174h596v-174h-593zM571 -20q-220 0 -351.5 144t-131.5 376q0 226 132 368t351 142q218 0 351 -142.5t133 -369.5q0 -230 -133 -374t-351 -144zM571 141q126 0 193 101.5t67 255.5q0 150 -67 250t-193 100t-194 -100t-68 -248q0 -155 68 -257t194 -102z" glyph-name="omacron" horiz-adv-x="1142" unicode="ō"/><glyph d="M600 1575l162 330h409l-231 -330h-340zM782 1475q197 0 353 -92.5t244.5 -262t88.5 -387.5t-88 -390t-244.5 -267.5t-351.5 -95.5q-146 0 -273.5 56t-218 154.5t-142.5 239t-52 303.5q0 217 88.5 387t244 262.5t351.5 92.5zM784 170q138 0 241.5 75.5t156.5 202t53 285.5 q0 158 -53.5 282.5t-157.5 196.5t-242 72t-241.5 -72.5t-156 -196.5t-52.5 -282t53 -285t157 -202.5t242 -75.5z" glyph-name="Ohungarumlaut" horiz-adv-x="1566" unicode="Ő"/><glyph d="M387 1110l162 330h409l-231 -330h-340zM571 1010q218 0 351 -142.5t133 -369.5q0 -230 -133 -374t-351 -144q-220 0 -351.5 144t-131.5 376q0 226 132 368t351 142zM571 141q126 0 193 101.5t67 255.5q0 150 -67 250t-193 100t-194 -100t-68 -248q0 -155 68 -257 t194 -102z" glyph-name="ohungarumlaut" horiz-adv-x="1142" unicode="ő"/><glyph d="M784 -20q-146 0 -273.5 56t-218 154.5t-142.5 239t-52 303.5q0 217 88.5 387t244 262.5t351.5 92.5q290 0 455 -201h8v180h938l-18 -182h-695v-434h654l-21 -174h-633v-482h713l-18 -182h-920v186h-8q-164 -206 -453 -206zM784 170q138 0 241.5 75.5t156.5 202t53 285.5 q0 158 -53.5 282.5t-157.5 196.5t-242 72t-241.5 -72.5t-156 -196.5t-52.5 -282t53 -285t157 -202.5t242 -75.5z" glyph-name="OE" horiz-adv-x="2310" unicode="Œ"/><glyph d="M571 -20q-220 0 -351.5 144t-131.5 376q0 226 132 368t351 142q244 0 367 -195h8q60 95 150 145t200 50q208 0 334.5 -140.5t126.5 -363.5q0 -48 -8 -84h-696q10 -117 82.5 -194.5t205.5 -77.5q76 0 179.5 24t181.5 62l16 -166q-187 -90 -377 -90q-267 0 -395 196h-8 q-128 -196 -367 -196zM1057 565h479q0 146 -66 217.5t-165 71.5q-104 0 -174 -77t-74 -212zM571 141q126 0 193 101.5t67 255.5q0 150 -67 250t-193 100t-194 -100t-68 -248q0 -155 68 -257t194 -102z" glyph-name="oe" horiz-adv-x="1845" unicode="œ"/><glyph d="M918 1913l-232 -330h-176l160 330h248zM1112 287l102 -287h-237l-90 268q-56 155 -75 190q-35 66 -90 79q-19 4 -42 4h-270v-541h-224v1454h502q224 0 360 -126t136 -335q0 -140 -62.5 -243.5t-173.5 -153.5v-8q29 -22 51 -50t44 -75.5t33 -76t36 -99.5zM672 723 q126 0 202 76t76 196q0 125 -75.5 201t-202.5 76h-262v-549h262z" glyph-name="Racute" horiz-adv-x="1314" unicode="Ŕ"/><glyph d="M270 1118l160 330h248l-232 -330h-176zM166 0v989h182l37 -115h8q63 75 131 104.5t156 29.5h25v-183q-41 9 -68 9q-147 0 -252 -123v-711h-219z" glyph-name="racute" horiz-adv-x="761" unicode="ŕ"/><glyph d="M1112 287l102 -287h-237l-90 268q-56 155 -75 190q-35 66 -90 79q-19 4 -42 4h-270v-541h-224v1454h502q224 0 360 -126t136 -335q0 -140 -62.5 -243.5t-173.5 -153.5v-8q29 -22 51 -50t44 -75.5t33 -76t36 -99.5zM672 723q126 0 202 76t76 196q0 125 -75.5 201 t-202.5 76h-262v-549h262zM467 -582l88 439h236l-170 -439h-154z" glyph-name="Rcommaaccent" horiz-adv-x="1314" unicode="Ŗ"/><glyph d="M166 0v989h182l37 -115h8q63 75 131 104.5t156 29.5h25v-183q-41 9 -68 9q-147 0 -252 -123v-711h-219zM72 -582l88 439h235l-170 -439h-153z" glyph-name="rcommaaccent" horiz-adv-x="761" unicode="ŗ"/><glyph d="M670 1583h-127l-289 330h207l145 -195l144 195h211zM1112 287l102 -287h-237l-90 268q-56 155 -75 190q-35 66 -90 79q-19 4 -42 4h-270v-541h-224v1454h502q224 0 360 -126t136 -335q0 -140 -62.5 -243.5t-173.5 -153.5v-8q29 -22 51 -50t44 -75.5t33 -76t36 -99.5z M672 723q126 0 202 76t76 196q0 125 -75.5 201t-202.5 76h-262v-549h262z" glyph-name="Rcaron" horiz-adv-x="1314" unicode="Ř"/><glyph d="M721 1448l-291 -330h-127l-289 330h207l146 -195l143 195h211zM166 0v989h182l37 -115h8q63 75 131 104.5t156 29.5h25v-183q-41 9 -68 9q-147 0 -252 -123v-711h-219z" glyph-name="rcaron" horiz-adv-x="761" unicode="ř"/><glyph d="M506 1583l160 330h247l-231 -330h-176zM604 -20q-124 0 -242.5 29.5t-259.5 88.5l23 181q120 -53 247 -83t220 -30q138 0 221.5 57.5t83.5 163.5q0 90 -50 140t-142 81l-181 60q-39 13 -59 20t-58 21t-59.5 25t-55 28.5t-53.5 34.5t-45.5 40t-40 48.5t-29 56t-20.5 66.5 t-6 77q0 123 65.5 212.5t176 133.5t252.5 44q101 0 198 -23.5t232 -77.5l-23 -180q-129 49 -220 71.5t-177 22.5q-131 0 -201.5 -47.5t-70.5 -134.5q0 -86 53 -135t143 -78l176 -57q49 -16 83.5 -28.5t83 -34.5t82 -44.5t69.5 -56.5t58.5 -72t37 -89t14.5 -110 q0 -100 -43 -181t-116 -132.5t-167 -79.5t-200 -28z" glyph-name="Sacute" horiz-adv-x="1239" unicode="Ś"/><glyph d="M367 1118l159 330h248l-231 -330h-176zM479 -20q-77 0 -184.5 19.5t-192.5 49.5l17 158q203 -70 342 -70q98 0 145 32.5t47 88.5q0 55 -30.5 82.5t-92.5 44.5l-127 35q-53 15 -89 28t-82 37.5t-73.5 53.5t-47 75t-19.5 103q0 130 105.5 211.5t273.5 81.5q78 0 169.5 -19 t162.5 -51l-17 -154q-178 68 -301 68q-94 0 -137 -33t-43 -82q0 -90 129 -129l131 -35q35 -10 58 -17.5t57.5 -22t57.5 -29.5t49.5 -38.5t42 -51t26 -65.5t10.5 -83q0 -125 -106.5 -206.5t-280.5 -81.5z" glyph-name="sacute" horiz-adv-x="958" unicode="ś"/><glyph d="M1130 401q0 -95 -38.5 -173t-105 -129.5t-152.5 -81.5t-185 -35l-12 -62h10q64 0 104 -46t40 -118q0 -83 -62.5 -133.5t-163.5 -50.5q-80 0 -139 35l6 110q58 -30 107 -30q33 0 54 18t21 51q0 34 -23.5 54t-64.5 20h-18l-14 12l30 142q-172 12 -422 114l23 181 q120 -53 247 -83t220 -30q138 0 221.5 57.5t83.5 163.5q0 90 -50 140t-142 81l-181 60q-39 13 -59 20t-58 21t-59.5 25t-55 28.5t-53.5 34.5t-45.5 40t-40 48.5t-29 56t-20.5 66.5t-6 77q0 123 65.5 212.5t176 133.5t252.5 44q101 0 198 -23.5t232 -77.5l-23 -180 q-129 49 -220 71.5t-177 22.5q-131 0 -201.5 -47.5t-70.5 -134.5q0 -86 53 -135t143 -78l176 -57q49 -16 83.5 -28.5t83 -34.5t82 -44.5t69.5 -56.5t58.5 -72t37 -89t14.5 -110z" glyph-name="Scedilla" horiz-adv-x="1239" unicode="Ş"/><glyph d="M866 268q0 -119 -95.5 -199t-254.5 -89l-12 -60h10q64 0 103.5 -46t39.5 -118q0 -83 -62 -133.5t-163 -50.5q-80 0 -139 35l6 110q59 -30 107 -30q33 0 54 18t21 51q0 34 -23.5 54t-64.5 20h-18l-15 12l33 144q-165 18 -291 63l17 158q203 -70 342 -70q98 0 145 32.5 t47 88.5q0 55 -30.5 82.5t-92.5 44.5l-127 35q-53 15 -89 28t-82 37.5t-73.5 53.5t-47 75t-19.5 103q0 130 105.5 211.5t273.5 81.5q78 0 169.5 -19t162.5 -51l-17 -154q-178 68 -301 68q-94 0 -137 -33t-43 -82q0 -90 129 -129l131 -35q35 -10 58 -17.5t57.5 -22 t57.5 -29.5t49.5 -38.5t42 -51t26 -65.5t10.5 -83z" glyph-name="scedilla" horiz-adv-x="958" unicode="ş"/><glyph d="M956 1913l-290 -330h-127l-289 330h207l145 -195l143 195h211zM604 -20q-124 0 -242.5 29.5t-259.5 88.5l23 181q120 -53 247 -83t220 -30q138 0 221.5 57.5t83.5 163.5q0 90 -50 140t-142 81l-181 60q-39 13 -59 20t-58 21t-59.5 25t-55 28.5t-53.5 34.5t-45.5 40 t-40 48.5t-29 56t-20.5 66.5t-6 77q0 123 65.5 212.5t176 133.5t252.5 44q101 0 198 -23.5t232 -77.5l-23 -180q-129 49 -220 71.5t-177 22.5q-131 0 -201.5 -47.5t-70.5 -134.5q0 -86 53 -135t143 -78l176 -57q49 -16 83.5 -28.5t83 -34.5t82 -44.5t69.5 -56.5t58.5 -72 t37 -89t14.5 -110q0 -100 -43 -181t-116 -132.5t-167 -79.5t-200 -28z" glyph-name="Scaron" horiz-adv-x="1239" unicode="Š"/><glyph d="M817 1448l-291 -330h-127l-288 330h206l146 -195l143 195h211zM479 -20q-77 0 -184.5 19.5t-192.5 49.5l17 158q203 -70 342 -70q98 0 145 32.5t47 88.5q0 55 -30.5 82.5t-92.5 44.5l-127 35q-53 15 -89 28t-82 37.5t-73.5 53.5t-47 75t-19.5 103q0 130 105.5 211.5 t273.5 81.5q78 0 169.5 -19t162.5 -51l-17 -154q-178 68 -301 68q-94 0 -137 -33t-43 -82q0 -90 129 -129l131 -35q35 -10 58 -17.5t57.5 -22t57.5 -29.5t49.5 -38.5t42 -51t26 -65.5t10.5 -83q0 -125 -106.5 -206.5t-280.5 -81.5z" glyph-name="scaron" horiz-adv-x="958" unicode="š"/><glyph d="M651 0h-51l-16 -80h10q64 0 103.5 -46t39.5 -118q0 -83 -62 -133.5t-163 -50.5q-80 0 -139 35l6 110q59 -30 106 -30q33 0 54.5 18t21.5 51q0 34 -23.5 54t-64.5 20h-18l-15 12l35 158h-49v1272h-389v182h1005v-182h-391v-1272z" glyph-name="uni0162" horiz-adv-x="1079" unicode="Ţ"/><glyph d="M543 -20h-13l-12 -60h10q64 0 104 -46t40 -118q0 -83 -62.5 -133.5t-163.5 -50.5q-80 0 -139 35l6 110q59 -30 107 -30q33 0 54.5 18t21.5 51q0 34 -23.5 54t-64.5 20h-19l-14 12l35 156q-179 59 -179 281v548h-180l19 162h161l50 344h172v-344h239v-162h-239v-553 q0 -124 131 -124q61 0 110 16v-172q-77 -14 -151 -14z" glyph-name="uni0163" horiz-adv-x="745" unicode="ţ"/><glyph d="M598 1583h-127l-289 330h207l146 -195l143 195h211zM1042 1454v-182h-391v-1272h-225v1272h-389v182h1005z" glyph-name="Tcaron" horiz-adv-x="1079" unicode="Ť"/><glyph d="M653 1454h240l-154 -377h-190zM453 274q0 -124 131 -124q61 0 110 16v-172q-77 -14 -151 -14q-149 0 -230.5 75t-81.5 224v548h-180l19 162h161l50 344h172v-344h239v-162h-239v-553z" glyph-name="tcaron" horiz-adv-x="786" unicode="ť"/><glyph d="M1042 1272h-389v-516h336v-174h-336v-582h-225v582h-338v174h338v516h-391v182h1005v-182z" glyph-name="Tbar" horiz-adv-x="1079" unicode="Ŧ"/><glyph d="M694 489h-241v-215q0 -124 131 -124q61 0 110 16v-172q-77 -14 -151 -14q-149 0 -230.5 75t-81.5 224v210h-180v187h180v151h-180l19 162h161l50 344h172v-344h239v-162h-239v-151h241v-187z" glyph-name="tbar" horiz-adv-x="745" unicode="ŧ"/><glyph d="M436 1667l-2 174h596v-174h-594zM729 -20q-259 0 -411 163.5t-152 438.5v872h223v-905q0 -177 92 -282t248 -105t249 105t93 282v905h225v-872q0 -274 -154 -438t-413 -164z" glyph-name="Umacron" horiz-adv-x="1460" unicode="Ū"/><glyph d="M274 1202l-2 174h596v-174h-594zM483 -20q-160 0 -251 98.5t-91 306.5v604h221v-614q0 -117 44.5 -169t142.5 -52q131 0 227 94v741h219v-989h-178l-41 92h-8q-133 -112 -285 -112z" glyph-name="umacron" horiz-adv-x="1144" unicode="ū"/><glyph d="M729 1581q-107 0 -171 64t-64 167q0 102 64 164t171 62q106 0 171 -62.5t65 -163.5q0 -103 -65 -167t-171 -64zM729 1698q40 0 65 31t25 83q0 49 -25 79t-65 30q-41 0 -65.5 -29.5t-24.5 -79.5q0 -52 24.5 -83t65.5 -31zM729 -20q-259 0 -411 163.5t-152 438.5v872h223 v-905q0 -177 92 -282t248 -105t249 105t93 282v905h225v-872q0 -274 -154 -438t-413 -164z" glyph-name="Uring" horiz-adv-x="1460" unicode="Ů"/><glyph d="M567 1116q-107 0 -171 64t-64 168q0 102 64 163.5t171 61.5q106 0 171 -62t65 -163q0 -103 -65.5 -167.5t-170.5 -64.5zM567 1233q40 0 65 31.5t25 83.5q0 49 -25 78.5t-65 29.5q-41 0 -65.5 -29t-24.5 -79q0 -53 24.5 -84t65.5 -31zM483 -20q-160 0 -251 98.5t-91 306.5 v604h221v-614q0 -117 44.5 -169t142.5 -52q131 0 227 94v741h219v-989h-178l-41 92h-8q-133 -112 -285 -112z" glyph-name="uring" horiz-adv-x="1144" unicode="ů"/><glyph d="M545 1575l162 330h409l-231 -330h-340zM1071 1454h225v-872q0 -274 -154 -438t-413 -164t-411 163.5t-152 438.5v872h223v-905q0 -177 92 -282t248 -105t249 105t93 282v905z" glyph-name="Uhungarumlaut" horiz-adv-x="1460" unicode="Ű"/><glyph d="M383 1110l162 330h409l-231 -330h-340zM776 989h219v-989h-178l-41 92h-8q-133 -112 -285 -112q-160 0 -251 98.5t-91 306.5v604h221v-614q0 -117 44.5 -169t142.5 -52q131 0 227 94v741z" glyph-name="uhungarumlaut" horiz-adv-x="1144" unicode="ű"/><glyph d="M1071 1454h225v-872q0 -259 -139.5 -421t-376.5 -179q-39 -33 -39 -91q0 -41 29 -67.5t80 -26.5q41 0 47 2l-8 -155q-30 -9 -68 -9q-95 0 -161 56.5t-66 154.5q0 80 51 138q-223 28 -351 188t-128 410v872h223v-905q0 -177 92 -282t248 -105t249 105t93 282v905z" glyph-name="Uogonek" horiz-adv-x="1460" unicode="Ų"/><glyph d="M983 -203q41 0 47 2l-8 -155q-30 -9 -68 -9q-95 0 -161 56.5t-66 154.5q0 105 84 166l-35 80h-8q-133 -112 -285 -112q-160 0 -251 98.5t-91 306.5v604h221v-614q0 -117 44.5 -169t142.5 -52q131 0 227 94v741h219v-989h-51q-70 -30 -70 -109q0 -41 29 -67.5t80 -26.5z" glyph-name="uogonek" horiz-adv-x="1144" unicode="ų"/><glyph d="M1292 1575h-211l-143 192l-145 -192h-207l288 330h127zM1612 1454h227l-397 -1454h-225l-252 946q-19 65 -21 103h-8q-2 -38 -21 -103l-253 -946h-224l-397 1454h227l260 -922q24 -99 29 -151h8q6 66 31 151l248 922h192l248 -922q21 -74 31 -151h8q5 52 29 151z" glyph-name="Wcircumflex" horiz-adv-x="1880" unicode="Ŵ"/><glyph d="M1100 1110h-211l-144 193l-145 -193h-207l289 330h127zM1192 989h227l-276 -989h-238l-143 621q-3 15 -13 53t-12 55h-8q-1 -13 -22 -108l-148 -621h-235l-277 989h227l156 -663q8 -37 16 -103h9q4 31 20 103l152 663h211l153 -663q18 -81 21 -103h8q3 56 14 103z" glyph-name="wcircumflex" horiz-adv-x="1466" unicode="ŵ"/><glyph d="M995 1575h-211l-143 192l-145 -192h-207l289 330h127zM526 0v539l-491 915h233l297 -539q53 -101 72 -149h8q12 34 72 149l291 539h235l-491 -915v-539h-226z" glyph-name="Ycircumflex" horiz-adv-x="1275" unicode="Ŷ"/><glyph d="M887 1110h-211l-144 193l-145 -193h-207l289 330h127zM805 989h227l-385 -989l-35 -88q-30 -78 -56.5 -129.5t-64 -96t-87 -65t-113.5 -20.5q-53 0 -111 10v166q33 -8 78 -8q46 0 74.5 35.5t54.5 107.5l35 88l-387 989h227l232 -622q23 -63 34 -121h9q13 56 34 121z" glyph-name="ycircumflex" horiz-adv-x="1067" unicode="ŷ"/><glyph d="M477 1591q-49 0 -82 34.5t-33 84.5q0 51 33 86t82 35q48 0 81.5 -35t33.5 -86q0 -49 -34 -84t-81 -35zM823 1591q-47 0 -80.5 35t-33.5 84q0 51 33.5 86t80.5 35q49 0 82 -35t33 -86q0 -50 -33 -84.5t-82 -34.5zM526 0v539l-491 915h233l297 -539q53 -101 72 -149h8 q12 34 72 149l291 539h235l-491 -915v-539h-226z" glyph-name="Ydieresis" horiz-adv-x="1275" unicode="Ÿ"/><glyph d="M489 1583l160 330h248l-231 -330h-177zM98 0v180l643 942q6 8 32.5 45.5t47 64t35.5 40.5v8q-37 -8 -184 -8h-568l21 182h965v-180l-646 -942q-78 -118 -112 -150v-8q35 8 184 8h629l-21 -182h-1026z" glyph-name="Zacute" horiz-adv-x="1232" unicode="Ź"/><glyph d="M371 1118l159 330h248l-231 -330h-176zM88 0v170l408 496q88 106 133 155v8q-76 -10 -191 -10h-332v170h744v-170l-406 -493q-104 -127 -133 -158v-8q74 10 191 10h368v-170h-782z" glyph-name="zacute" horiz-adv-x="958" unicode="ź"/><glyph d="M588 1587q-58 0 -96.5 40t-38.5 99q0 60 38.5 100t96.5 40q57 0 96 -40t39 -100q0 -59 -39 -99t-96 -40zM98 0v180l643 942q6 8 32.5 45.5t47 64t35.5 40.5v8q-37 -8 -184 -8h-568l21 182h965v-180l-646 -942q-78 -118 -112 -150v-8q35 8 184 8h629l-21 -182h-1026z" glyph-name="Zdotaccent" horiz-adv-x="1232" unicode="Ż"/><glyph d="M469 1122q-58 0 -96.5 40.5t-38.5 99.5q0 60 38.5 99.5t96.5 39.5q57 0 96 -39.5t39 -99.5q0 -59 -39 -99.5t-96 -40.5zM88 0v170l408 496q88 106 133 155v8q-76 -10 -191 -10h-332v170h744v-170l-406 -493q-104 -127 -133 -158v-8q74 10 191 10h368v-170h-782z" glyph-name="zdotaccent" horiz-adv-x="958" unicode="ż"/><glyph d="M940 1913l-291 -330h-127l-289 330h207l146 -195l143 195h211zM98 0v180l643 942q6 8 32.5 45.5t47 64t35.5 40.5v8q-37 -8 -184 -8h-568l21 182h965v-180l-646 -942q-78 -118 -112 -150v-8q35 8 184 8h629l-21 -182h-1026z" glyph-name="Zcaron" horiz-adv-x="1232" unicode="Ž"/><glyph d="M821 1448l-291 -330h-127l-288 330h207l145 -195l143 195h211zM88 0v170l408 496q88 106 133 155v8q-76 -10 -191 -10h-332v170h744v-170l-406 -493q-104 -127 -133 -158v-8q74 10 191 10h368v-170h-782z" glyph-name="zcaron" horiz-adv-x="958" unicode="ž"/><glyph d="M719 989l-21 -162h-221v-551q0 -160 -67.5 -234.5t-206.5 -74.5q-57 0 -150 15v190q58 -16 115 -16q44 0 67 26t23 94h-2v551h-180v162h180v176q0 158 70 234t215 76q45 0 153 -17v-164q-67 19 -121 19q-47 0 -71.5 -28t-24.5 -97v-199h242z" glyph-name="florin" horiz-adv-x="770" unicode="ƒ"/><glyph d="M604 -20q-124 0 -242.5 29.5t-259.5 88.5l23 181q120 -53 247 -83t220 -30q138 0 221.5 57.5t83.5 163.5q0 90 -50 140t-142 81l-181 60q-39 13 -59 20t-58 21t-59.5 25t-55 28.5t-53.5 34.5t-45.5 40t-40 48.5t-29 56t-20.5 66.5t-6 77q0 123 65.5 212.5t176 133.5 t252.5 44q101 0 198 -23.5t232 -77.5l-23 -180q-129 49 -220 71.5t-177 22.5q-131 0 -201.5 -47.5t-70.5 -134.5q0 -86 53 -135t143 -78l176 -57q49 -16 83.5 -28.5t83 -34.5t82 -44.5t69.5 -56.5t58.5 -72t37 -89t14.5 -110q0 -100 -43 -181t-116 -132.5t-167 -79.5 t-200 -28zM399 -582l88 439h236l-170 -439h-154z" glyph-name="Scommaaccent" horiz-adv-x="1239" unicode="Ș"/><glyph d="M479 -20q-77 0 -184.5 19.5t-192.5 49.5l17 158q203 -70 342 -70q98 0 145 32.5t47 88.5q0 55 -30.5 82.5t-92.5 44.5l-127 35q-53 15 -89 28t-82 37.5t-73.5 53.5t-47 75t-19.5 103q0 130 105.5 211.5t273.5 81.5q78 0 169.5 -19t162.5 -51l-17 -154q-178 68 -301 68 q-94 0 -137 -33t-43 -82q0 -90 129 -129l131 -35q35 -10 58 -17.5t57.5 -22t57.5 -29.5t49.5 -38.5t42 -51t26 -65.5t10.5 -83q0 -125 -106.5 -206.5t-280.5 -81.5zM266 -582l88 439h236l-170 -439h-154z" glyph-name="scommaaccent" horiz-adv-x="958" unicode="ș"/><glyph d="M1042 1454v-182h-391v-1272h-225v1272h-389v182h1005zM346 -582l88 439h236l-170 -439h-154z" glyph-name="uni021A" horiz-adv-x="1079" unicode="Ț"/><glyph d="M584 150q61 0 110 16v-172q-77 -14 -151 -14q-149 0 -230.5 75t-81.5 224v548h-180l19 162h161l50 344h172v-344h239v-162h-239v-553q0 -124 131 -124zM281 -582l88 439h235l-170 -439h-153z" glyph-name="uni021B" horiz-adv-x="745" unicode="ț"/><glyph d="M872 1124h-210l-144 193l-145 -193h-207l289 330h127z" glyph-name="circumflex" horiz-adv-x="1038" unicode="ˆ"/><glyph d="M872 1454l-290 -330h-127l-289 330h207l145 -194l144 194h210z" glyph-name="caron" horiz-adv-x="1038" unicode="ˇ"/><glyph d="M489 1110q-145 0 -233 91t-90 241h174q0 -92 40.5 -144.5t108.5 -52.5q67 0 108 53t42 144h176q0 -149 -90 -240.5t-236 -91.5z" glyph-name="breve" horiz-adv-x="978" unicode="˘"/><glyph d="M301 1196q-58 0 -96.5 40t-38.5 99q0 60 38.5 100t96.5 40q57 0 96 -40t39 -100q0 -59 -39 -99t-96 -40z" glyph-name="dotaccent" horiz-adv-x="600" unicode="˙"/><glyph d="M401 1130q-107 0 -171 64t-64 168q0 102 64 163.5t171 61.5q106 0 171 -62t65 -163q0 -103 -65.5 -167.5t-170.5 -64.5zM401 1247q40 0 65.5 31.5t25.5 83.5q0 49 -25.5 78.5t-65.5 29.5q-41 0 -65.5 -29t-24.5 -79q0 -53 24.5 -84t65.5 -31z" glyph-name="ring" horiz-adv-x="802" unicode="˚"/><glyph d="M393 -367q-95 0 -161 56.5t-66 154.5q0 156 194 222l39 -62q-42 -12 -64 -42.5t-22 -72.5q0 -41 29 -67.5t80 -26.5q41 0 47 2l-8 -155q-30 -9 -68 -9z" glyph-name="ogonek" horiz-adv-x="632" unicode="˛"/><glyph d="M184 1114l-18 180q32 35 76.5 57.5t81.5 22.5q59 0 159.5 -37t134.5 -37q75 0 156 84l21 -180q-34 -36 -78 -58t-82 -22q-58 0 -154.5 37t-140.5 37q-75 0 -156 -84z" glyph-name="tilde" horiz-adv-x="960" unicode="˜"/><glyph d="M854 1454l-231 -330h-340l161 330h410z" glyph-name="hungarumlaut" horiz-adv-x="1136" unicode="˝"/><glyph d="M-344 1124l-229 330h245l162 -330h-178z" glyph-name="gravecomb" unicode="̀"/><glyph d="M-573 1124l159 330h248l-231 -330h-176z" glyph-name="acutecomb" unicode="́"/><glyph d="M-166 1124h-211l-143 193l-146 -193h-206l288 330h127z" glyph-name="uni0302" unicode="̂"/><glyph d="M-776 1114l-19 180q32 35 76.5 57.5t81.5 22.5q59 0 160 -37t135 -37q75 0 156 84l20 -180q-34 -36 -78 -58t-82 -22q-58 0 -154.5 37t-140.5 37q-74 0 -155 -84z" glyph-name="tildecomb" unicode="̃"/><glyph d="M-758 1278l-2 174h596v-174h-594z" glyph-name="uni0304" unicode="̄"/><glyph d="M-489 1110q-145 0 -233.5 91.5t-90.5 240.5h174q0 -91 41 -144t109 -53q67 0 107.5 52.5t41.5 144.5h176q0 -149 -89.5 -240.5t-235.5 -91.5z" glyph-name="uni0306" unicode="̆"/><glyph d="M-299 1196q-58 0 -96.5 40t-38.5 99q0 60 38.5 100t96.5 40q57 0 96 -40t39 -100q0 -59 -39 -99t-96 -40z" glyph-name="uni0307" unicode="̇"/><glyph d="M-627 1141q-49 0 -81.5 34.5t-32.5 84.5q0 51 32.5 85.5t81.5 34.5q48 0 81.5 -34.5t33.5 -85.5q0 -49 -34 -84t-81 -35zM-281 1141q-47 0 -80.5 35t-33.5 84q0 51 33 85.5t81 34.5q49 0 82 -34.5t33 -85.5q0 -50 -33 -84.5t-82 -34.5z" glyph-name="uni0308" unicode="̈"/><glyph d="M-401 1130q-107 0 -171.5 64.5t-64.5 167.5q0 101 64.5 163t171.5 62q106 0 170.5 -62t64.5 -163q0 -103 -65 -167.5t-170 -64.5zM-401 1247q40 0 65 31.5t25 83.5q0 49 -25 78.5t-65 29.5q-41 0 -66 -29.5t-25 -78.5q0 -52 25 -83.5t66 -31.5z" glyph-name="uni030A" unicode="̊"/><glyph d="M-283 1454l-231 -330h-340l162 330h409z" glyph-name="uni030B" unicode="̋"/><glyph d="M-496 858l97 596h233l-168 -596h-162z" glyph-name="uni030C" unicode="̌"/><glyph d="M-489 -582l88 439h235l-170 -439h-153z" glyph-name="uni0326" unicode="̦"/><glyph d="M-389 -428q-80 0 -139 35l6 110q59 -30 106 -30q33 0 54.5 18t21.5 51q0 34 -23.5 54t-64.5 20h-18l-15 12l41 183h123l-20 -105h10q64 0 103.5 -46t39.5 -118q0 -83 -62 -133.5t-163 -50.5z" glyph-name="uni0327" unicode="̧"/><glyph d="M-240 -367q-95 0 -161 56.5t-66 154.5q0 156 195 222l39 -62q-42 -12 -64 -42.5t-22 -72.5q0 -41 28.5 -67.5t79.5 -26.5q41 0 47 2l-8 -155q-30 -9 -68 -9z" glyph-name="uni0328" unicode="̨"/><glyph d="M-1016 582v174h852v-174h-852z" glyph-name="uni0335" unicode="̵"/><glyph d="M-1593 582v174h1427v-174h-1427z" glyph-name="uni0336" unicode="̶"/><glyph d="M166 0v84l440 1370h244l442 -1370v-84h-1126zM432 225h590l-299 985z" glyph-name="uni0394" horiz-adv-x="1458" unicode="Δ"/><glyph d="M1241 203h264v-203h-581v203q66 26 124 71t106.5 110.5t77 160t28.5 205.5q0 239 -124.5 379.5t-328.5 140.5q-203 0 -328 -140.5t-125 -386.5q0 -110 27.5 -203.5t74.5 -158t101 -108.5t115 -70v-203h-582v203h275q-110 106 -174 251t-64 314q0 146 49 277t136.5 229 t216 155.5t278.5 57.5q149 0 277.5 -58t216 -156t137 -228.5t49.5 -274.5q0 -170 -66 -315.5t-180 -251.5z" glyph-name="uni03A9" horiz-adv-x="1599" unicode="Ω"/><glyph d="M797 989h221v-989h-176l-45 88v8q-73 -66 -137 -91t-146 -25q-80 0 -145 24v-272h-219v1257h219v-569q0 -117 50.5 -175.5t145.5 -58.5q120 0 232 101v702z" glyph-name="uni03BC" horiz-adv-x="1165" unicode="μ"/><glyph d="M1198 776h-209v-487q0 -68 23 -94.5t67 -26.5q48 0 84 10v-188q-46 -10 -119 -10q-140 0 -208 74.5t-68 230.5v491h-274v-776h-222v776h-190v213h1116v-213z" glyph-name="pi" horiz-adv-x="1282" unicode="π"/><glyph d="M508 1591q-49 0 -82 34.5t-33 84.5q0 51 33 86t82 35q48 0 81.5 -35t33.5 -86q0 -49 -34 -84t-81 -35zM854 1591q-47 0 -81 35t-34 84q0 51 33.5 86t81.5 35q49 0 82 -35t33 -86q0 -50 -33 -84.5t-82 -34.5zM410 664v-482h712l-18 -182h-918v1454h936l-18 -182h-694v-434 h653l-21 -174h-632z" glyph-name="uni0401" horiz-adv-x="1249" unicode="Ё"/><glyph d="M1079 0l-131 369h-540l-129 -369h-228l533 1454h190l533 -1454h-228zM469 543h420l-156 438q-36 106 -51 190h-8q-8 -70 -51 -190z" glyph-name="uni0410" horiz-adv-x="1357" unicode="А"/><glyph d="M700 911q220 0 352 -119.5t132 -326.5q0 -210 -132.5 -337.5t-351.5 -127.5h-514v1454h879v-182h-655v-361h290zM672 182q122 0 200 75t78 202q0 128 -77 199t-201 71h-262v-547h262z" glyph-name="uni0411" horiz-adv-x="1282" unicode="Б"/><glyph d="M1034 735q107 -44 166.5 -134.5t59.5 -205.5q0 -175 -129 -285t-340 -110h-605v1454h547q215 0 343 -106t128 -295q0 -113 -44 -194t-126 -116v-8zM733 1272h-323v-447h335q113 0 172.5 63t59.5 154q0 103 -63.5 166.5t-180.5 63.5zM786 182q119 0 182.5 64.5t63.5 167.5 q0 101 -68.5 168t-191.5 67h-362v-467h376z" glyph-name="uni0412" horiz-adv-x="1357" unicode="В"/><glyph d="M1016 1454v-182h-606v-1272h-224v1454h830z" glyph-name="uni0413" horiz-adv-x="1052" unicode="Г"/><glyph d="M82 -203v385h88q81 0 124.5 75t43.5 251l-2 946h971v-1272h186v-385h-199v203h-1011v-203h-201zM496 182h587v1090h-522l2 -764q0 -206 -67 -326z" glyph-name="uni0414" horiz-adv-x="1576" unicode="Д"/><glyph d="M410 664v-482h712l-18 -182h-918v1454h936l-18 -182h-694v-434h653l-21 -174h-632z" glyph-name="uni0415" horiz-adv-x="1249" unicode="Е"/><glyph d="M1423 801l500 -801h-258l-416 692h-155v-692h-226v692h-155l-414 -692h-258l500 801l-465 653h258l397 -580h137v580h226v-580h137l397 580h260z" glyph-name="uni0416" horiz-adv-x="1961" unicode="Ж"/><glyph d="M580 -20q-216 0 -453 114l20 182q108 -55 221.5 -84.5t206.5 -29.5q78 0 139.5 23.5t98 62.5t55.5 85.5t19 96.5q0 117 -78 180.5t-221 63.5h-123v182h121q110 0 176.5 62t66.5 169q0 100 -69.5 152.5t-198.5 52.5q-173 0 -393 -106l-18 180q120 57 212 83t197 26 q232 0 364 -110t132 -288q0 -105 -42.5 -189.5t-117.5 -119.5q103 -40 161 -131.5t58 -218.5q0 -192 -145 -315t-389 -123z" glyph-name="uni0417" horiz-adv-x="1259" unicode="З"/><glyph d="M1307 0h-226v936q0 68 6 111h-8q-15 -45 -59 -111l-639 -936h-195v1454h224v-936q0 -59 -7 -110h9q14 43 59 110l639 936h197v-1454z" glyph-name="uni0418" horiz-adv-x="1490" unicode="И"/><glyph d="M768 1569q-151 0 -245 91.5t-95 240.5h180q0 -78 44 -125t116 -47q71 0 116 47t46 125h178q0 -149 -93 -240.5t-247 -91.5zM186 0v1454h224v-936q0 -59 -7 -110h9q14 43 59 110l639 936h197v-1454h-226v936q0 68 6 111h-8q-15 -45 -59 -111l-639 -936h-195z" glyph-name="uni0419" horiz-adv-x="1490" unicode="Й"/><glyph d="M186 0v1454h224v-612l518 612h268l-498 -592l533 -862h-246l-438 707l-137 -160v-547h-224z" glyph-name="uni041A" horiz-adv-x="1271" unicode="К"/><glyph d="M1272 1454v-1454h-223v1262h-467l-60 -764q-18 -234 -118 -376t-267 -142q-39 0 -59 4l-8 192q18 -4 55 -4q71 0 115.5 85.5t56.5 240.5l74 956h901z" glyph-name="uni041B" horiz-adv-x="1458" unicode="Л"/><glyph d="M168 0l68 1454h215l387 -854q42 -92 51 -123h8q6 20 53 123l385 854h215l68 -1454h-227l-33 731q-8 264 -2 303h-8q-4 -17 -10.5 -33.5t-16.5 -38t-14 -30.5l-318 -727h-192l-318 727q-4 9 -14 30.5t-16.5 38t-10.5 33.5h-8q10 -59 -2 -303l-33 -731h-227z" glyph-name="uni041C" horiz-adv-x="1785" unicode="М"/><glyph d="M1057 1454h223v-1454h-223v659h-647v-659h-224v1454h224v-620h647v620z" glyph-name="uni041D" horiz-adv-x="1466" unicode="Н"/><glyph d="M784 -20q-146 0 -273.5 56t-218 154.5t-142.5 239t-52 303.5q0 217 88.5 387t244 262.5t351.5 92.5q197 0 353 -92.5t244.5 -262t88.5 -387.5t-88 -390t-244.5 -267.5t-351.5 -95.5zM784 170q138 0 241.5 75.5t156.5 202t53 285.5q0 158 -53.5 282.5t-157.5 196.5 t-242 72t-241.5 -72.5t-156 -196.5t-52.5 -282t53 -285t157 -202.5t242 -75.5z" glyph-name="uni041E" horiz-adv-x="1566" unicode="О"/><glyph d="M1280 1454v-1454h-223v1260h-647v-1260h-224v1454h1094z" glyph-name="uni041F" horiz-adv-x="1466" unicode="П"/><glyph d="M688 1454q223 0 359.5 -128.5t136.5 -336.5q0 -206 -136 -331.5t-360 -125.5h-278v-532h-224v1454h502zM674 715q126 0 201 77.5t75 202.5q0 123 -75 200t-201 77h-264v-557h264z" glyph-name="uni0420" horiz-adv-x="1259" unicode="Р"/><glyph d="M764 -20q-302 0 -484 208t-182 543q0 220 81 388.5t232.5 262t352.5 93.5q254 0 508 -121l-21 -189q-110 58 -227 88.5t-215 30.5q-111 0 -202 -42.5t-150.5 -117t-92 -175t-32.5 -216.5q0 -156 56.5 -283.5t166.5 -203.5t254 -76q97 0 214 30.5t228 86.5l21 -187 q-249 -120 -508 -120z" glyph-name="uni0421" horiz-adv-x="1380" unicode="С"/><glyph d="M1042 1454v-182h-391v-1272h-225v1272h-389v182h1005z" glyph-name="uni0422" horiz-adv-x="1079" unicode="Т"/><glyph d="M362 -20q-85 0 -157 20v199q71 -21 141 -21q41 0 61.5 25t45.5 88l36 92l-448 1071h254l309 -809h8l308 809h251l-479 -1167q-21 -48 -33 -75t-32 -65t-36.5 -58t-41 -44.5t-50.5 -36.5t-61 -20t-76 -8z" glyph-name="uni0423" horiz-adv-x="1212" unicode="У"/><glyph d="M1673 733q0 -127 -43.5 -234.5t-128.5 -190.5t-218.5 -135t-305.5 -64v-416h-180v416q-341 24 -520 193.5t-179 430.5q0 126 44 231.5t129 187t219.5 132t306.5 62.5v415h180v-415q340 -24 518 -189.5t178 -423.5zM330 733q0 -82 29.5 -156.5t86 -135t147 -100.5 t204.5 -50v872q-96 -8 -175 -36.5t-132.5 -70t-90 -94.5t-53 -110.5t-16.5 -118.5zM977 291q114 10 204 50t145.5 100.5t84.5 134.5t29 155q0 77 -26.5 147.5t-80.5 131.5t-145.5 102t-210.5 51v-872z" glyph-name="uni0424" horiz-adv-x="1771" unicode="Ф"/><glyph d="M1264 0h-265l-346 606h-8l-346 -606h-264l448 752l-434 702h266l332 -563h8l334 563h264l-438 -702z" glyph-name="uni0425" horiz-adv-x="1298" unicode="Х"/><glyph d="M1257 193h187v-396h-193v203h-1065v1454h224v-1261h624v1261h223v-1261z" glyph-name="uni0426" horiz-adv-x="1570" unicode="Ц"/><glyph d="M936 1454h221v-1454h-221v549q-73 -54 -164.5 -84.5t-179.5 -30.5q-219 0 -342 126t-123 364v530h225v-539q0 -145 62.5 -222t203.5 -77q78 0 163.5 29.5t154.5 77.5v731z" glyph-name="uni0427" horiz-adv-x="1343" unicode="Ч"/><glyph d="M1597 1454h226v-1454h-1637v1454h224v-1261h483v1261h223v-1261h481v1261z" glyph-name="uni0428" horiz-adv-x="2009" unicode="Ш"/><glyph d="M1823 193h186v-396h-192v203h-1631v1454h224v-1261h483v1261h223v-1261h481v1261h226v-1261z" glyph-name="uni0429" horiz-adv-x="2136" unicode="Щ"/><glyph d="M772 922q220 0 355 -124.5t135 -332.5q0 -210 -135.5 -337.5t-354.5 -127.5h-510v1280h-205v174h430v-532h285zM743 182q127 0 205 72.5t78 204.5q0 133 -78.5 206.5t-204.5 73.5h-256v-557h256z" glyph-name="uni042A" horiz-adv-x="1345" unicode="Ъ"/><glyph d="M694 922q220 0 355 -124.5t135 -332.5q0 -210 -135.5 -337.5t-354.5 -127.5h-508v1454h224v-532h284zM1376 1454h223v-1454h-223v1454zM666 182q127 0 204.5 72.5t77.5 204.5q0 133 -78.5 206.5t-203.5 73.5h-256v-557h256z" glyph-name="uni042B" horiz-adv-x="1785" unicode="Ы"/><glyph d="M694 922q220 0 355 -124.5t135 -332.5q0 -210 -135.5 -337.5t-354.5 -127.5h-508v1454h224v-532h284zM666 182q127 0 204.5 72.5t77.5 204.5q0 133 -78.5 206.5t-203.5 73.5h-256v-557h256z" glyph-name="uni042C" horiz-adv-x="1269" unicode="Ь"/><glyph d="M625 1475q141 0 266.5 -54.5t217.5 -150.5t146 -235.5t54 -301.5t-53.5 -303.5t-145.5 -239.5t-218 -154t-267 -56q-264 0 -516 120v187q271 -121 509 -121q182 0 306 134.5t149 340.5h-688v174h690q-24 206 -149 339.5t-308 133.5q-245 0 -509 -121v187q254 121 516 121 z" glyph-name="uni042D" horiz-adv-x="1406" unicode="Э"/><glyph d="M1278 1475q196 0 351.5 -92.5t244 -262.5t88.5 -387q0 -218 -88 -390t-244.5 -267.5t-351.5 -95.5q-275 0 -463.5 183t-216.5 478h-188v-641h-224v1454h224v-639h188q25 297 213 478.5t467 181.5zM1278 170q138 0 241.5 75.5t156.5 202t53 285.5q0 158 -53 282 t-156.5 196.5t-241.5 72.5q-209 0 -330 -154.5t-121 -396.5q0 -159 53 -285.5t156.5 -202t241.5 -75.5z" glyph-name="uni042E" horiz-adv-x="2060" unicode="Ю"/><glyph d="M1120 1454v-1454h-225v532h-250l-317 -532h-248l346 561q-142 46 -223.5 159t-81.5 269q0 208 136.5 336.5t360.5 128.5h502zM625 725h270v537h-270q-124 0 -195.5 -74.5t-71.5 -192.5q0 -120 71.5 -195t195.5 -75z" glyph-name="uni042F" horiz-adv-x="1304" unicode="Я"/><glyph d="M418 -20q-126 0 -217.5 83.5t-91.5 217.5q0 143 100.5 212t294.5 85l219 18v47q-1 100 -56 148.5t-143 48.5q-116 0 -313 -56l-14 164q198 62 335 62q183 0 297.5 -93t114.5 -255v-437q0 -38 14.5 -63t42.5 -25t58 6l-12 -147q-38 -10 -99 -10q-178 0 -221 141h-8 q-68 -85 -140 -116t-161 -31zM481 141q137 0 242 133v183l-191 -19q-202 -19 -202 -155q0 -61 38.5 -101.5t112.5 -40.5z" glyph-name="uni0430" horiz-adv-x="1128" unicode="а"/><glyph d="M561 -20q-107 0 -192 32.5t-148.5 99t-98 175t-34.5 252.5q0 127 25 237.5t68.5 192.5t104 146.5t129.5 106t148 64.5q19 6 87 23t113.5 31t110.5 45.5t115 72.5v-170q-27 -31 -61 -56t-79 -45t-74 -31t-86 -29.5t-75 -24.5q-99 -33 -164.5 -102t-99.5 -185h6 q107 113 242 113q192 0 324.5 -133t132.5 -346q0 -205 -135.5 -337t-358.5 -132zM571 152q117 0 188.5 82.5t71.5 216.5q0 139 -71.5 223t-188.5 84q-119 0 -190.5 -83.5t-71.5 -221.5q0 -135 72 -218t190 -83z" glyph-name="uni0431" horiz-adv-x="1142" unicode="б"/><glyph d="M874 498q77 -24 126 -88.5t49 -151.5q0 -116 -93 -187t-262 -71h-528v989h485q174 0 266.5 -70.5t92.5 -193.5q0 -82 -37.5 -143t-98.5 -80v-4zM657 819h-270v-237h270q127 0 127 123q0 61 -31 87.5t-96 26.5zM682 170q67 0 104 34t37 93t-37 94t-104 35h-295v-256h295z" glyph-name="uni0432" horiz-adv-x="1136" unicode="в"/><glyph d="M885 989v-174h-479v-815h-220v989h699z" glyph-name="uni0433" horiz-adv-x="935" unicode="г"/><glyph d="M1087 184h109v-387h-184v203h-738v-203h-186v387h18q173 0 173 324l-3 481h811v-805zM428 184h440v623h-368l2 -299q0 -192 -74 -324z" glyph-name="uni0434" horiz-adv-x="1284" unicode="д"/><glyph d="M596 -20q-236 0 -372 138.5t-136 375.5q0 230 128 373t335 143q206 0 332.5 -140.5t126.5 -363.5q0 -57 -6 -84h-699q12 -117 84.5 -194.5t206.5 -77.5q76 0 179 24t181 62l17 -166q-190 -90 -377 -90zM311 565h477q0 146 -65.5 217.5t-163.5 71.5q-104 0 -174.5 -77 t-73.5 -212z" glyph-name="uni0435" horiz-adv-x="1097" unicode="е"/><glyph d="M1231 537l362 -537h-247l-285 432h-133v-432h-221v432h-134l-282 -432h-250l362 537l-329 452h258l260 -385h115v385h221v-385h116l261 385h256z" glyph-name="uni0436" horiz-adv-x="1634" unicode="ж"/><glyph d="M473 -20q-169 0 -364 63l14 168q192 -59 354 -59q102 0 159.5 41t57.5 108q0 70 -51 109t-151 39h-177v157h156q176 0 176 123q0 109 -186 109q-131 0 -320 -58l-16 168q195 62 334 62q184 0 292.5 -77.5t108.5 -203.5q0 -73 -34 -127t-91 -76q80 -24 128 -85.5 t48 -151.5q0 -138 -120 -223.5t-318 -85.5z" glyph-name="uni0437" horiz-adv-x="980" unicode="з"/><glyph d="M1120 0h-221v594q0 64 4 82h-8q-13 -33 -51 -80l-469 -596h-209v989h221v-565q0 -52 -4 -80h8q10 29 51 80l469 565h209v-989z" glyph-name="uni0438" horiz-adv-x="1286" unicode="и"/><glyph d="M643 1104q-145 0 -233.5 91.5t-90.5 240.5h175q0 -92 40.5 -144.5t108.5 -52.5q67 0 108 53t42 144h176q0 -149 -90 -240.5t-236 -91.5zM1120 0h-221v594q0 64 4 82h-8q-13 -33 -51 -80l-469 -596h-209v989h221v-565q0 -52 -4 -80h8q10 29 51 80l469 565h209v-989z" glyph-name="uni0439" horiz-adv-x="1286" unicode="й"/><glyph d="M803 0l-275 471l-143 -152v-319h-219v989h219v-411l379 411h256l-354 -373l387 -616h-250z" glyph-name="uni043A" horiz-adv-x="1085" unicode="к"/><glyph d="M1118 989v-989h-221v807h-369l-24 -332q-16 -223 -109 -359t-258 -136q-39 0 -59 4l-8 184q18 -4 55 -4q69 0 109 89.5t51 244.5l34 491h799z" glyph-name="uni043B" horiz-adv-x="1284" unicode="л"/><glyph d="M145 0l52 989h213l264 -545q46 -101 47 -106h8q4 15 45 106l262 545h215l52 -989h-213l-25 500q-3 68 0 108h-6q-12 -39 -43 -94l-205 -385h-174l-207 385q-32 67 -41 94h-6q3 -40 0 -108l-25 -500h-213z" glyph-name="uni043C" horiz-adv-x="1447" unicode="м"/><glyph d="M846 989h221v-989h-221v401h-461v-401h-219v989h219v-397h461v397z" glyph-name="uni043D" horiz-adv-x="1232" unicode="н"/><glyph d="M571 -20q-220 0 -351.5 144t-131.5 376q0 226 132 368t351 142q218 0 351 -142.5t133 -369.5q0 -230 -133 -374t-351 -144zM571 141q126 0 193 101.5t67 255.5q0 150 -67 250t-193 100t-194 -100t-68 -248q0 -155 68 -257t194 -102z" glyph-name="uni043E" horiz-adv-x="1142" unicode="о"/><glyph d="M1004 989h55v-989h-221v799h-453v-799h-219v989l838 2v-2z" glyph-name="uni043F" horiz-adv-x="1222" unicode="п"/><glyph d="M686 -20q-151 0 -293 120h-8v-460l-219 -41v1390h178l41 -90h8q132 111 285 111q200 0 329.5 -140t129.5 -374q0 -230 -129.5 -373t-321.5 -143zM616 154q131 0 212 94.5t81 247.5q0 155 -82.5 247.5t-218.5 92.5q-55 0 -116.5 -25t-106.5 -70v-483q52 -49 115 -76.5 t116 -27.5z" glyph-name="uni0440" horiz-adv-x="1224" unicode="р"/><glyph d="M588 -20q-226 0 -363 145.5t-137 378.5q0 226 137 366t363 140q154 0 323 -70l-14 -166q-163 64 -295 64q-135 0 -214 -97.5t-79 -238.5q0 -146 79.5 -248t213.5 -102q126 0 295 65l14 -168q-172 -69 -323 -69z" glyph-name="uni0441" horiz-adv-x="980" unicode="с"/><glyph d="M926 989v-190h-310v-799h-221v799h-307v190h838z" glyph-name="uni0442" horiz-adv-x="1015" unicode="т"/><glyph d="M805 989h227l-385 -989l-35 -88q-30 -78 -56.5 -129.5t-64 -96t-87 -65t-113.5 -20.5q-53 0 -111 10v166q33 -8 78 -8q46 0 74.5 35.5t54.5 107.5l35 88l-387 989h227l232 -622q23 -63 34 -121h9q13 56 34 121z" glyph-name="uni0443" horiz-adv-x="1067" unicode="у"/><glyph d="M1169 498q0 -215 -123 -353t-329 -165v-304h-172v304q-209 27 -333 165.5t-124 354.5q0 212 124.5 348.5t332.5 161.5v303h172v-303q206 -27 329 -163.5t123 -348.5zM309 500q0 -137 64 -233t172 -122v703q-107 -25 -171.5 -119t-64.5 -229zM717 145q106 26 168.5 121.5 t62.5 231.5t-62.5 229.5t-168.5 118.5v-701z" glyph-name="uni0444" horiz-adv-x="1257" unicode="ф"/><glyph d="M35 0l342 498l-338 491h229l236 -356h8l231 356h230l-338 -491l342 -498h-229l-236 360h-8l-240 -360h-229z" glyph-name="uni0445" horiz-adv-x="1011" unicode="х"/><glyph d="M1065 174h106v-377h-172v203h-833v989h219v-815h459v815h221v-815z" glyph-name="uni0446" horiz-adv-x="1259" unicode="ц"/><glyph d="M754 989h219v-989h-219v299q-116 -74 -289 -74q-72 0 -132 21.5t-106.5 65t-73 116.5t-26.5 168v393h221v-393q0 -29 4 -54t16 -51.5t31 -45t51 -30.5t74 -12q54 0 117 18t113 50v518z" glyph-name="uni0447" horiz-adv-x="1120" unicode="ч"/><glyph d="M1325 989h221v-989h-1380v989h219v-815h360v815h222v-815h358v815z" glyph-name="uni0448" horiz-adv-x="1710" unicode="ш"/><glyph d="M1546 174h109v-377h-174v203h-1315v989h219v-815h360v815h222v-815h358v815h221v-815z" glyph-name="uni0449" horiz-adv-x="1796" unicode="щ"/><glyph d="M692 682q174 0 281.5 -92.5t107.5 -247.5q0 -157 -107.5 -249.5t-281.5 -92.5h-471v819h-184v170h407v-307h248zM686 170q80 0 127 42.5t47 127.5t-47 128.5t-127 43.5h-242v-342h242z" glyph-name="uni044A" horiz-adv-x="1169" unicode="ъ"/><glyph d="M635 682q175 0 282 -92.5t107 -247.5q0 -157 -107 -249.5t-282 -92.5h-469v989h221v-307h248zM1159 989h221v-989h-221v989zM631 170q79 0 125.5 42.5t46.5 127.5t-47 128.5t-125 43.5h-244v-342h244z" glyph-name="uni044B" horiz-adv-x="1544" unicode="ы"/><glyph d="M635 682q175 0 282 -92.5t107 -247.5q0 -157 -107 -249.5t-282 -92.5h-469v989h221v-307h248zM631 170q79 0 125.5 42.5t46.5 127.5t-47 128.5t-125 43.5h-244v-342h244z" glyph-name="uni044C" horiz-adv-x="1112" unicode="ь"/><glyph d="M397 1010q237 0 376.5 -139.5t139.5 -366.5q0 -236 -139.5 -380t-376.5 -144q-165 0 -327 49v170q178 -45 329 -45q115 0 189.5 71.5t95.5 188.5h-481v166h483q-21 114 -95.5 185t-191.5 71q-151 0 -329 -45v170q162 49 327 49z" glyph-name="uni044D" horiz-adv-x="1001" unicode="э"/><glyph d="M1001 1010q219 0 351.5 -142t132.5 -370q0 -231 -131.5 -374.5t-349.5 -143.5q-196 0 -324.5 118t-153.5 312h-141v-410h-219v989h219v-405h141q24 193 151.5 309.5t323.5 116.5zM1004 141q125 0 192.5 102t67.5 255q0 150 -68.5 250t-194.5 100q-84 0 -144 -49t-88 -126 t-28 -173q0 -155 68.5 -257t194.5 -102z" glyph-name="uni044E" horiz-adv-x="1572" unicode="ю"/><glyph d="M971 989v-989h-219v307h-199l-223 -307h-242l262 334q-107 37 -168 120t-61 197q0 159 108 248.5t291 89.5h451zM555 469h197v358h-197q-95 0 -152 -47t-57 -131q0 -83 57.5 -131.5t151.5 -48.5z" glyph-name="uni044F" horiz-adv-x="1136" unicode="я"/><glyph d="M387 1126q-49 0 -82 34.5t-33 84.5q0 51 33 86t82 35q48 0 81.5 -35t33.5 -86q0 -49 -34 -84t-81 -35zM733 1126q-47 0 -81 35t-34 84q0 51 33.5 86t81.5 35q49 0 82 -35t33 -86q0 -50 -33 -84.5t-82 -34.5zM596 -20q-236 0 -372 138.5t-136 375.5q0 230 128 373t335 143 q206 0 332.5 -140.5t126.5 -363.5q0 -57 -6 -84h-699q12 -117 84.5 -194.5t206.5 -77.5q76 0 179 24t181 62l17 -166q-190 -90 -377 -90zM311 565h477q0 146 -65.5 217.5t-163.5 71.5q-104 0 -174.5 -77t-73.5 -212z" glyph-name="uni0451" horiz-adv-x="1097" unicode="ё"/><glyph d="M856 1575l-229 330h245l162 -330h-178zM1612 1454h227l-397 -1454h-225l-252 946q-19 65 -21 103h-8q-2 -38 -21 -103l-253 -946h-224l-397 1454h227l260 -922q24 -99 29 -151h8q6 66 31 151l248 922h192l248 -922q21 -74 31 -151h8q5 52 29 151z" glyph-name="Wgrave" horiz-adv-x="1880" unicode="Ẁ"/><glyph d="M664 1110l-230 330h246l162 -330h-178zM1192 989h227l-276 -989h-238l-143 621q-3 15 -13 53t-12 55h-8q-1 -13 -22 -108l-148 -621h-235l-277 989h227l156 -663q8 -37 16 -103h9q4 31 20 103l152 663h211l153 -663q18 -81 21 -103h8q3 56 14 103z" glyph-name="wgrave" horiz-adv-x="1466" unicode="ẁ"/><glyph d="M840 1583l159 330h248l-231 -330h-176zM1612 1454h227l-397 -1454h-225l-252 946q-19 65 -21 103h-8q-2 -38 -21 -103l-253 -946h-224l-397 1454h227l260 -922q24 -99 29 -151h8q6 66 31 151l248 922h192l248 -922q21 -74 31 -151h8q5 52 29 151z" glyph-name="Wacute" horiz-adv-x="1880" unicode="Ẃ"/><glyph d="M647 1118l160 330h248l-232 -330h-176zM1192 989h227l-276 -989h-238l-143 621q-3 15 -13 53t-12 55h-8q-1 -13 -22 -108l-148 -621h-235l-277 989h227l156 -663q8 -37 16 -103h9q4 31 20 103l152 663h211l153 -663q18 -81 21 -103h8q3 56 14 103z" glyph-name="wacute" horiz-adv-x="1466" unicode="ẃ"/><glyph d="M774 1591q-49 0 -82 34.5t-33 84.5q0 51 33 86t82 35q48 0 81.5 -35t33.5 -86q0 -49 -34 -84t-81 -35zM1120 1591q-47 0 -80.5 35t-33.5 84q0 51 33.5 86t80.5 35q49 0 82 -35t33 -86q0 -50 -33 -84.5t-82 -34.5zM1612 1454h227l-397 -1454h-225l-252 946q-19 65 -21 103 h-8q-2 -38 -21 -103l-253 -946h-224l-397 1454h227l260 -922q24 -99 29 -151h8q6 66 31 151l248 922h192l248 -922q21 -74 31 -151h8q5 52 29 151z" glyph-name="Wdieresis" horiz-adv-x="1880" unicode="Ẅ"/><glyph d="M582 1126q-49 0 -82 34.5t-33 84.5q0 51 33 86t82 35q47 0 80.5 -35t33.5 -86q0 -49 -33.5 -84t-80.5 -35zM928 1126q-47 0 -81 35t-34 84q0 51 33.5 86t81.5 35q49 0 81.5 -35t32.5 -86q0 -50 -32.5 -84.5t-81.5 -34.5zM1192 989h227l-276 -989h-238l-143 621 q-3 15 -13 53t-12 55h-8q-1 -13 -22 -108l-148 -621h-235l-277 989h227l156 -663q8 -37 16 -103h9q4 31 20 103l152 663h211l153 -663q18 -81 21 -103h8q3 56 14 103z" glyph-name="wdieresis" horiz-adv-x="1466" unicode="ẅ"/><glyph d="M559 1575l-229 330h245l162 -330h-178zM526 0v539l-491 915h233l297 -539q53 -101 72 -149h8q12 34 72 149l291 539h235l-491 -915v-539h-226z" glyph-name="Ygrave" horiz-adv-x="1275" unicode="Ỳ"/><glyph d="M451 1110l-230 330h246l162 -330h-178zM805 989h227l-385 -989l-35 -88q-30 -78 -56.5 -129.5t-64 -96t-87 -65t-113.5 -20.5q-53 0 -111 10v166q33 -8 78 -8q46 0 74.5 35.5t54.5 107.5l35 88l-387 989h227l232 -622q23 -63 34 -121h9q13 56 34 121z" glyph-name="ygrave" horiz-adv-x="1067" unicode="ỳ"/><glyph d="M137 500v178h1186v-178h-1186z" glyph-name="endash" horiz-adv-x="1460" unicode="–"/><glyph d="M156 500v178h1765v-178h-1765z" glyph-name="emdash" horiz-adv-x="2076" unicode="—"/><glyph d="M387 1475v-99q-64 -1 -108 -33.5t-50 -78.5h17q64 0 105.5 -44.5t41.5 -109.5t-43.5 -108.5t-109.5 -43.5t-109 46.5t-43 121.5q0 149 82.5 247.5t216.5 101.5z" glyph-name="quoteleft" horiz-adv-x="481" unicode="‘"/><glyph d="M92 958v99q64 1 109 34t51 78h-19q-62 0 -103.5 44.5t-41.5 109.5t43 108.5t109 43.5q67 0 110 -47t43 -121q0 -149 -83.5 -247.5t-217.5 -101.5z" glyph-name="quoteright" horiz-adv-x="481" unicode="’"/><glyph d="M111 -221v96q64 1 107.5 34.5t51.5 80.5h-18q-63 0 -104.5 43t-41.5 108q0 66 43 110t109 44t109 -46.5t43 -121.5q0 -149 -82.5 -247t-216.5 -101z" glyph-name="quotesinglbase" horiz-adv-x="466" unicode="‚"/><glyph d="M389 1475v-99q-64 -1 -109 -34t-51 -78h19q62 0 103.5 -44.5t41.5 -109.5t-43 -108.5t-110 -43.5q-65 0 -108.5 47t-43.5 121q0 149 83.5 247.5t217.5 101.5zM811 1475v-99q-66 -1 -110 -33.5t-50 -78.5h17q64 0 105.5 -44.5t41.5 -109.5t-43.5 -108.5t-109.5 -43.5 t-109 46.5t-43 121.5q0 149 83.5 247.5t217.5 101.5z" glyph-name="quotedblleft" horiz-adv-x="903" unicode="“"/><glyph d="M92 958v99q66 1 110 33.5t50 78.5h-19q-62 0 -103.5 44.5t-41.5 109.5t44 108.5t108 43.5q67 0 110 -47t43 -121q0 -149 -83.5 -247.5t-217.5 -101.5zM514 958v99q64 1 109 34t51 78h-19q-62 0 -103.5 44.5t-41.5 109.5t43 108.5t109 43.5q67 0 110 -47t43 -121 q0 -149 -84 -247.5t-217 -101.5z" glyph-name="quotedblright" horiz-adv-x="903" unicode="”"/><glyph d="M92 -221v98q65 1 109.5 34t50.5 79h-19q-63 0 -104 43.5t-41 109.5q0 65 44 108.5t108 43.5q67 0 110 -47t43 -121q0 -149 -83.5 -247t-217.5 -101zM514 -221v98q64 1 109 34t51 79h-19q-63 0 -104 43.5t-41 109.5q0 65 43 108.5t109 43.5q67 0 110 -47t43 -121 q0 -149 -84 -247t-217 -101z" glyph-name="quotedblbase" horiz-adv-x="903" unicode="„"/><glyph d="M735 1339v-159h-229v-488h-178v488h-230v159h230v177h178v-177h229z" glyph-name="dagger" horiz-adv-x="833" unicode="†"/><glyph d="M735 1180h-229v-150h229v-162h-229v-176h-178v176h-230v162h230v150h-230v159h230v177h178v-177h229v-159z" glyph-name="daggerdbl" horiz-adv-x="833" unicode="‡"/><glyph d="M438 229q-124 0 -208.5 86.5t-84.5 214.5q0 127 84 213t209 86t209 -86t84 -213q0 -128 -84.5 -214.5t-208.5 -86.5z" glyph-name="bullet" horiz-adv-x="878" unicode="•"/><glyph d="M348 299q64 0 107 -45t43 -111q0 -65 -43 -109t-107 -44h-8h-6q-64 0 -108 44t-44 109q0 66 44 111t108 45h6h8z" glyph-name="ellipsis" horiz-adv-x="667" unicode="…"/><glyph d="M461 762q-155 0 -249.5 98.5t-94.5 259.5t93.5 258t248.5 97t248.5 -97.5t93.5 -257.5t-93.5 -259t-246.5 -99zM354 0l924 1454h213l-924 -1454h-213zM461 895q75 0 119.5 59.5t44.5 165.5t-45.5 164.5t-120.5 58.5t-119.5 -57.5t-44.5 -163.5q0 -107 45 -167t121 -60z M1384 -20q-155 0 -248.5 98t-93.5 260t93 258t247 96q156 0 250 -96.5t94 -257.5q0 -160 -94.5 -259t-247.5 -99zM2169 -20q-155 0 -249.5 98.5t-94.5 259.5q0 162 93.5 258t248.5 96t248.5 -96.5t93.5 -257.5q0 -160 -93.5 -259t-246.5 -99zM1384 113q74 0 119 60.5 t45 166.5q0 105 -45.5 163t-120.5 58t-119 -57t-44 -164t44.5 -167t120.5 -60zM2169 113q74 0 119 60.5t45 166.5q0 105 -45.5 163t-120.5 58t-119.5 -57.5t-44.5 -163.5q0 -107 45 -167t121 -60z" glyph-name="perthousand" horiz-adv-x="2607" unicode="‰"/><glyph d="M377 88l-307 406l305 405h231l-319 -405l319 -406h-229z" glyph-name="guilsinglleft" horiz-adv-x="657" unicode="‹"/><glyph d="M51 88l320 406l-320 405h234l303 -405l-305 -406h-232z" glyph-name="guilsinglright" horiz-adv-x="657" unicode="›"/><glyph d="M-301 0l905 1454h184l-903 -1454h-186z" glyph-name="fraction" horiz-adv-x="487" unicode="⁄"/><glyph d="M539 551q-196 0 -316.5 155t-120.5 400q0 247 119.5 400t315.5 153q200 0 319 -152.5t119 -400.5q0 -246 -119.5 -400.5t-316.5 -154.5zM539 700q119 0 182 116.5t63 289.5q0 113 -25.5 202.5t-82.5 146t-139 56.5q-80 0 -136.5 -56.5t-82 -146t-25.5 -202.5 q0 -111 25.5 -201t82.5 -147.5t138 -57.5z" glyph-name="uni2070" horiz-adv-x="1077" unicode="⁰"/><glyph d="M578 573v224h-533v121l543 718h180v-694h141l-16 -145h-125v-224h-190zM262 942h316v449z" glyph-name="uni2074" horiz-adv-x="983" unicode="⁴"/><glyph d="M426 551q-166 0 -352 76l12 147q86 -35 178.5 -54.5t155.5 -19.5q108 0 161.5 59.5t53.5 160.5q0 100 -51.5 156.5t-137.5 56.5q-111 0 -200 -107l-144 8l39 602h635l-14 -149h-471l-19 -287q88 78 209 78q155 0 252.5 -98.5t97.5 -261.5q0 -167 -108 -267t-297 -100z" glyph-name="uni2075" horiz-adv-x="921" unicode="⁵"/><glyph d="M506 551q-205 0 -310.5 141.5t-105.5 386.5q0 268 111 424t315 156q129 0 303 -72l-12 -147q-87 37 -144 54t-112 17q-252 0 -270 -352h6q95 127 254 127q154 0 255 -99.5t101 -268.5q0 -167 -107 -267t-284 -100zM502 700q89 0 143.5 62.5t54.5 161.5q0 95 -54.5 154 t-143.5 59q-91 0 -146 -59t-55 -154q0 -99 55.5 -161.5t145.5 -62.5z" glyph-name="uni2076" horiz-adv-x="987" unicode="⁶"/><glyph d="M188 573l347 914h-476l13 149h669v-131l-354 -932h-199z" glyph-name="uni2077" horiz-adv-x="815" unicode="⁷"/><glyph d="M479 551q-182 0 -293.5 87.5t-111.5 229.5q0 94 46.5 164.5t129.5 102.5q-133 78 -133 233q0 132 99.5 211.5t262.5 79.5q162 0 259.5 -79t97.5 -212q0 -158 -134 -233q83 -32 130 -102.5t47 -164.5q0 -141 -111 -229t-289 -88zM475 1198q75 0 120.5 43.5t45.5 112.5 t-45.5 111t-120.5 42q-72 0 -117 -42t-45 -111t45 -112.5t117 -43.5zM479 702q91 0 148 50.5t57 132.5t-56.5 131t-148.5 49q-97 0 -154 -48.5t-57 -131.5q0 -82 57.5 -132.5t153.5 -50.5z" glyph-name="uni2078" horiz-adv-x="952" unicode="⁸"/><glyph d="M459 549q-150 0 -322 78l15 151q155 -73 292 -73q244 0 256 335h-6q-38 -57 -102 -85.5t-139 -28.5q-165 0 -264 99t-99 265q0 168 106.5 268.5t286.5 100.5q197 0 305.5 -139t108.5 -385q0 -273 -114.5 -429.5t-323.5 -156.5zM483 1073q91 0 146 57.5t55 155.5 q0 102 -55 163.5t-146 61.5q-90 0 -144 -60.5t-54 -164.5q0 -98 54 -155.5t144 -57.5z" glyph-name="uni2079" horiz-adv-x="987" unicode="⁹"/><glyph d="M539 -227q-197 0 -317 154.5t-120 400.5q0 247 119.5 400t315.5 153q200 0 319 -152.5t119 -400.5q0 -247 -119 -401t-317 -154zM539 -80q81 0 137.5 58t82 148t25.5 202q0 113 -25.5 202.5t-82.5 146t-139 56.5q-80 0 -136.5 -56.5t-82 -146t-25.5 -202.5 q0 -173 63.5 -290.5t182.5 -117.5z" glyph-name="uni2080" horiz-adv-x="1077" unicode="₀"/><glyph d="M231 -205v914l-186 -47v116l240 78h139v-1061h-193z" glyph-name="uni2081" horiz-adv-x="569" unicode="₁"/><glyph d="M70 -205v133l184 209q44 49 98.5 108.5t82 90t61 68.5t49 59t30.5 46.5t20 45.5t5 41q0 65 -44 101t-130 36q-135 0 -317 -78l-17 148q184 78 334 78q181 0 277 -81t96 -206q0 -29 -5 -55t-22 -57.5t-29.5 -53t-48 -63.5t-55.5 -64.5t-73.5 -82t-82.5 -91.5l-157 -182 h493v-150h-749z" glyph-name="uni2082" horiz-adv-x="907" unicode="₂"/><glyph d="M426 -227q-157 0 -336 75l12 148q186 -76 322 -76q103 0 157 53.5t54 139.5q0 78 -51.5 122t-149.5 44h-92v153h86q73 0 117.5 41.5t44.5 112.5q0 73 -46.5 110t-133.5 37q-119 0 -291 -71l-13 147q169 72 304 72q176 0 275 -81t99 -218q0 -78 -30.5 -140t-83.5 -86 q75 -29 118 -96.5t43 -159.5q0 -146 -110.5 -236.5t-294.5 -90.5z" glyph-name="uni2083" horiz-adv-x="933" unicode="₃"/><glyph d="M578 -205v223h-533v121l543 717h180v-692h141l-16 -146h-125v-223h-190zM262 164h316v448z" glyph-name="uni2084" horiz-adv-x="983" unicode="₄"/><glyph d="M426 -227q-168 0 -352 75l12 148q87 -35 179.5 -55.5t154.5 -20.5q108 0 161.5 59.5t53.5 161.5q0 100 -51.5 155.5t-137.5 55.5q-114 0 -200 -104l-144 6l39 602h635l-14 -147h-471l-19 -287q88 78 209 78q155 0 252.5 -99t97.5 -262q0 -167 -107.5 -266.5t-297.5 -99.5 z" glyph-name="uni2085" horiz-adv-x="921" unicode="₅"/><glyph d="M506 -227q-205 0 -310.5 141.5t-105.5 386.5q0 268 111 424t315 156q129 0 303 -72l-12 -147q-87 37 -144 54t-112 17q-252 0 -270 -352h6q95 127 254 127q154 0 255 -100t101 -269q0 -168 -106.5 -267t-284.5 -99zM502 -80q89 0 143.5 63t54.5 162q0 94 -54.5 153.5 t-143.5 59.5q-90 0 -145.5 -59.5t-55.5 -153.5q0 -99 55.5 -162t145.5 -63z" glyph-name="uni2086" horiz-adv-x="987" unicode="₆"/><glyph d="M190 -205l347 914h-476l13 147h669v-129l-354 -932h-199z" glyph-name="uni2087" horiz-adv-x="815" unicode="₇"/><glyph d="M479 -227q-182 0 -293.5 87.5t-111.5 229.5q0 94 46.5 164t129.5 102q-133 75 -133 232q0 133 99.5 213t262.5 80q162 0 259.5 -80t97.5 -213q0 -157 -134 -232q83 -32 130 -102t47 -164q0 -141 -111 -229t-289 -88zM475 420q75 0 120.5 42.5t45.5 112.5 q0 69 -45.5 111.5t-120.5 42.5q-72 0 -117 -42.5t-45 -111.5q0 -70 45 -112.5t117 -42.5zM479 -76q91 0 148 50.5t57 131.5q0 83 -56.5 132t-148.5 49q-97 0 -154 -49t-57 -132q0 -82 57.5 -132t153.5 -50z" glyph-name="uni2088" horiz-adv-x="952" unicode="₈"/><glyph d="M459 -229q-153 0 -322 77l15 152q157 -74 292 -74q244 0 256 336h-6q-39 -57 -103 -87t-138 -30q-164 0 -263.5 100.5t-99.5 266.5q0 168 106.5 268.5t286.5 100.5q197 0 305.5 -140t108.5 -387q0 -271 -114.5 -427t-323.5 -156zM483 295q91 0 146 57.5t55 155.5 q0 102 -55 163.5t-146 61.5q-90 0 -144 -61.5t-54 -163.5q0 -98 54 -155.5t144 -57.5z" glyph-name="uni2089" horiz-adv-x="987" unicode="₉"/><glyph d="M922 170q97 0 214.5 30.5t225.5 86.5l20 -187q-123 -60 -256 -90t-249 -30q-236 0 -402.5 130.5t-228.5 356.5h-187v174h156q-4 58 -4 90t4 94h-156v174h189q64 222 228 349t398 127q118 0 252 -31t256 -90l-20 -189q-111 58 -227 88.5t-215 30.5q-152 0 -261 -76 t-165 -209h636v-174h-681q-5 -73 -5 -90q0 -40 7 -94h679v-174h-636q57 -138 167.5 -217.5t260.5 -79.5z" glyph-name="Euro" horiz-adv-x="1490" unicode="€"/><glyph d="M700 1454v-135h-225v-737h-180v737h-225v135h630zM1726 1454l37 -872h-180l-27 516l-217 -412h-108l-219 412l-23 -516h-184l35 872h151l293 -571l295 571h147z" glyph-name="trademark" horiz-adv-x="1890" unicode="™"/><glyph d="M174 682v643l-147 -33v101l188 61h131v-772h-172zM145 0l906 1454h184l-903 -1454h-187zM1292 -16q-140 0 -225.5 64t-85.5 169q0 64 31.5 115t93.5 76q-92 59 -92 163q0 102 75.5 161t202.5 59q123 0 197 -59t74 -161q0 -107 -93 -163q63 -25 94 -75.5t31 -115.5 q0 -105 -84.5 -169t-218.5 -64zM1288 459q44 0 70 27t26 73q0 47 -25.5 73.5t-70.5 26.5q-42 0 -69 -27t-27 -73q0 -45 27 -72.5t69 -27.5zM1292 113q56 0 90.5 32t34.5 86t-34.5 86.5t-90.5 32.5q-61 0 -96 -32.5t-35 -86.5t35 -86t96 -32z" glyph-name="oneeighth" horiz-adv-x="1642" unicode="⅛"/><glyph d="M305 666q-108 0 -248 49l11 127q139 -47 235 -47q137 0 137 120q0 113 -125 113h-71v131h63q43 0 68.5 27.5t25.5 73.5q0 42 -27 61.5t-83 19.5q-88 0 -213 -41l-8 130q125 45 225 45q134 0 210.5 -60.5t76.5 -161.5q0 -57 -22 -102t-56 -59q54 -20 84 -69.5t30 -115.5 q0 -108 -86 -174.5t-227 -66.5zM383 0l905 1454h185l-904 -1454h-186zM1559 -16q-140 0 -226 64t-86 169q0 64 31.5 115t93.5 76q-92 59 -92 163q0 102 76 161t203 59q123 0 196.5 -59t73.5 -161q0 -108 -92 -163q63 -25 94 -75.5t31 -115.5q0 -105 -84.5 -169t-218.5 -64z M1554 459q44 0 70.5 27t26.5 73q0 47 -26 73.5t-71 26.5q-42 0 -69 -27t-27 -73q0 -45 27 -72.5t69 -27.5zM1559 113q56 0 90 32t34 86t-34 86.5t-90 32.5q-61 0 -96.5 -32.5t-35.5 -86.5t35.5 -86t96.5 -32z" glyph-name="threeeighths" horiz-adv-x="1910" unicode="⅜"/><glyph d="M309 666q-122 0 -262 49l10 127q62 -22 134 -34.5t116 -12.5q125 0 125 141q0 67 -31 101t-84 34q-61 0 -127 -57l-124 6l28 434h475l-12 -129l-328 -2l-12 -176q29 27 59 40t78 13q114 0 187 -73.5t73 -192.5q0 -122 -83 -195t-222 -73zM371 0l905 1454h184l-903 -1454 h-186zM1518 -16q-140 0 -226 64t-86 169q0 64 31.5 115t93.5 76q-92 59 -92 163q0 102 76 161t203 59q123 0 196.5 -59t73.5 -161q0 -108 -92 -163q63 -25 94 -75.5t31 -115.5q0 -105 -84.5 -169t-218.5 -64zM1513 459q44 0 70.5 27t26.5 73q0 47 -26 73.5t-71 26.5 q-42 0 -69 -27t-27 -73q0 -45 27 -72.5t69 -27.5zM1518 113q56 0 90 32t34 86t-34 86.5t-90 32.5q-61 0 -96.5 -32.5t-35.5 -86.5t35.5 -86t96.5 -32z" glyph-name="fiveeighths" horiz-adv-x="1867" unicode="⅝"/><glyph d="M129 682l240 643h-332l10 129h506v-102l-244 -670h-180zM315 0l906 1454h184l-903 -1454h-187zM1456 -16q-140 0 -225.5 64t-85.5 169q0 64 31.5 115t93.5 76q-92 59 -92 163q0 102 75.5 161t202.5 59q123 0 196.5 -59t73.5 -161q0 -108 -92 -163q63 -25 94 -75.5 t31 -115.5q0 -105 -84.5 -169t-218.5 -64zM1452 459q44 0 70 27t26 73q0 47 -25.5 73.5t-70.5 26.5q-42 0 -69 -27t-27 -73q0 -45 27 -72.5t69 -27.5zM1456 113q56 0 90.5 32t34.5 86t-34.5 86.5t-90.5 32.5q-61 0 -96 -32.5t-35 -86.5t35 -86t96 -32z" glyph-name="seveneighths" horiz-adv-x="1808" unicode="⅞"/><glyph d="M1208 674v-209h-751l284 -309h-272l-381 413l381 414h272l-284 -309h751z" glyph-name="arrowleft" horiz-adv-x="1296" unicode="←"/><glyph d="M866 770v-278l-286 307v-799h-205v799l-287 -307v278l389 418z" glyph-name="arrowup" horiz-adv-x="954" unicode="↑"/><glyph d="M825 983l383 -414l-383 -413h-272l287 309h-752v209h752l-287 309h272z" glyph-name="arrowright" horiz-adv-x="1296" unicode="→"/><glyph d="M580 389l286 307v-278l-389 -418l-389 418v278l287 -307v799h205v-799z" glyph-name="arrowdown" horiz-adv-x="954" unicode="↓"/><glyph d="M557 -20q-205 0 -331 133t-126 350q0 213 124 343t323 130q63 0 132.5 -24.5t102.5 -80.5q-17 208 -135.5 346t-257.5 138q-40 0 -67 -12l2 151q36 8 69 8q194 0 334.5 -121t212.5 -339t72 -510q0 -230 -125.5 -371t-329.5 -141zM557 156q103 0 164 81t61 226 q0 143 -61 221t-166 78q-103 0 -165 -78.5t-62 -220.5q0 -145 62 -226t167 -81z" glyph-name="partialdiff" horiz-adv-x="1114" unicode="∂"/><glyph d="M1423 1516v-183h-241v-1538h-205v1538h-344v-1538h-203v1538h-244v183h1237z" glyph-name="product" horiz-adv-x="1609" unicode="∏"/><glyph d="M147 -68l-47 205l406 592l-406 559l47 205h748l-27 -182h-489l416 -582l-416 -614h489l27 -183h-748z" glyph-name="summation" horiz-adv-x="989" unicode="∑"/><glyph d="M117 502v174h854v-174h-854z" glyph-name="minus" horiz-adv-x="1087" unicode="−"/><glyph d="M346 0l-266 692h209l176 -471l440 1233l361 -2v-158h-238l-442 -1294h-240z" glyph-name="radical" horiz-adv-x="1220" unicode="√"/><glyph d="M1126 944q151 0 247.5 -99t96.5 -255q0 -149 -96 -243.5t-248 -94.5q-99 0 -178 54.5t-162 160.5q-85 -106 -164.5 -160.5t-177.5 -54.5q-154 0 -250 93.5t-96 244.5q0 155 97 253.5t249 98.5q98 0 177 -56.5t163 -166.5q85 111 163.5 168t178.5 57zM1126 422 q77 0 123.5 46t46.5 122q0 78 -47 126t-123 48q-114 0 -245 -174q126 -168 245 -168zM444 420q122 0 246 170q-129 172 -246 172q-77 0 -123.5 -47t-46.5 -125q0 -77 46 -123.5t124 -46.5z" glyph-name="infinity" horiz-adv-x="1568" unicode="∞"/><glyph d="M569 1475q111 0 209 -56l-49 -147q-61 33 -106 33q-47 0 -76 -33t-29 -88v-1112q0 -145 -75 -229.5t-205 -84.5q-105 0 -209 56l49 147q67 -31 108 -31q48 0 76.5 32.5t28.5 88.5v1110q0 146 74.5 230t203.5 84z" glyph-name="integral" horiz-adv-x="806" unicode="∫"/><glyph d="M166 743l-86 117q68 69 137 98t127 23t114 -26t107 -43t98.5 -34.5t95.5 6t91 72.5l98 -104q-70 -84 -139.5 -123.5t-128.5 -38.5t-115.5 19.5t-108.5 43.5t-100 41t-97 5.5t-93 -56.5zM166 334l-86 117q68 69 137 98t127 23t114 -26t107 -43t98.5 -34.5t95.5 6t91 72.5 l98 -105q-55 -66 -110 -104.5t-102.5 -49t-94.5 -6t-89.5 21t-83 35.5t-80 34t-76 20.5t-74 -8.5t-72.5 -51z" glyph-name="approxequal" horiz-adv-x="1030" unicode="≈"/><glyph d="M987 713h-317l-74 -246h391v-174h-442l-60 -199h-198l59 199h-209v174h262l74 246h-336v174h387l62 205h196l-61 -205h266v-174z" glyph-name="notequal" horiz-adv-x="1122" unicode="≠"/><glyph d="M180 723l858 338v-234l-532 -159l532 -160v-234l-858 340v109zM1077 180v-180h-938v180h938z" glyph-name="lessequal" horiz-adv-x="1216" unicode="≤"/><glyph d="M1036 723v-109l-858 -340v234l533 160l-533 159v234zM139 180h938v-180h-938v180z" glyph-name="greaterequal" horiz-adv-x="1216" unicode="≥"/><glyph d="M711 1454l422 -725l-422 -729h-211l-420 729l420 725h211zM606 178l320 543l-320 551l-319 -551z" glyph-name="lozenge" horiz-adv-x="1212" unicode="◊"/><glyph d="M979 0l-317 532h-252v-532h-224v1454h502q223 0 359.5 -128.5t136.5 -336.5q0 -156 -80.5 -269t-222.5 -159l344 -561h-246zM410 1262v-537h270q125 0 197.5 75t72.5 195q0 118 -72.5 192.5t-197.5 74.5h-270z" glyph-name="R.ss04" horiz-adv-x="1304"/><glyph d="M918 1913l-232 -330h-176l160 330h248zM979 0l-317 532h-252v-532h-224v1454h502q223 0 359.5 -128.5t136.5 -336.5q0 -156 -80.5 -269t-222.5 -159l344 -561h-246zM410 1262v-537h270q125 0 197.5 75t72.5 195q0 118 -72.5 192.5t-197.5 74.5h-270z" glyph-name="Racute.ss04" horiz-adv-x="1304"/><glyph d="M670 1583h-127l-289 330h207l145 -195l144 195h211zM979 0l-317 532h-252v-532h-224v1454h502q223 0 359.5 -128.5t136.5 -336.5q0 -156 -80.5 -269t-222.5 -159l344 -561h-246zM410 1262v-537h270q125 0 197.5 75t72.5 195q0 118 -72.5 192.5t-197.5 74.5h-270z" glyph-name="Rcaron.ss04" horiz-adv-x="1304"/><glyph d="M881 561l344 -561h-246l-317 532h-252v-532h-224v1454h502q223 0 359.5 -128.5t136.5 -336.5q0 -156 -80.5 -269t-222.5 -159zM410 1262v-537h270q125 0 197.5 75t72.5 195q0 118 -72.5 192.5t-197.5 74.5h-270zM467 -582l88 439h236l-170 -439h-154z" glyph-name="Rcommaaccent.ss04" horiz-adv-x="1304"/><glyph d="M1468 733q0 -210 -83 -378t-228 -265l293 -63l-41 -193l-625 146q-146 0 -273.5 56t-218 154.5t-142.5 239t-52 303.5q0 217 88.5 387t244 262.5t351.5 92.5q197 0 353 -92.5t244.5 -262t88.5 -387.5zM332 733q0 -158 53 -285t157 -202.5t242 -75.5t241.5 75.5t156.5 202 t53 285.5q0 158 -53.5 282.5t-157.5 196.5t-242 72t-241.5 -72.5t-156 -196.5t-52.5 -282z" glyph-name="Q.ss05" horiz-adv-x="1566"/><glyph d="M1298 784v-684q-240 -120 -512 -120q-218 0 -374.5 96t-235 265t-78.5 392q0 218 82 386.5t232 262t344 93.5q259 0 516 -121l-21 -189q-229 119 -450 119q-142 0 -250 -73.5t-163.5 -197.5t-55.5 -278q0 -119 31.5 -220.5t92.5 -179t158 -121.5t220 -44q120 0 247 43 v389h-344l-20 182h581z" glyph-name="G.ss06" horiz-adv-x="1406"/><glyph d="M754 1569q-145 0 -233.5 91.5t-90.5 240.5h174q0 -91 41 -144t109 -53q67 0 107.5 52.5t41.5 144.5h176q0 -149 -89.5 -240.5t-235.5 -91.5zM1298 784v-684q-240 -120 -512 -120q-218 0 -374.5 96t-235 265t-78.5 392q0 218 82 386.5t232 262t344 93.5q259 0 516 -121 l-21 -189q-229 119 -450 119q-142 0 -250 -73.5t-163.5 -197.5t-55.5 -278q0 -119 31.5 -220.5t92.5 -179t158 -121.5t220 -44q120 0 247 43v389h-344l-20 182h581z" glyph-name="Gbreve.ss06" horiz-adv-x="1406"/><glyph d="M1298 784v-684q-240 -120 -512 -120q-218 0 -374.5 96t-235 265t-78.5 392q0 218 82 386.5t232 262t344 93.5q259 0 516 -121l-21 -189q-229 119 -450 119q-142 0 -250 -73.5t-163.5 -197.5t-55.5 -278q0 -119 31.5 -220.5t92.5 -179t158 -121.5t220 -44q120 0 247 43 v389h-344l-20 182h581zM598 -582l88 439h236l-170 -439h-154z" glyph-name="Gcommaaccent.ss06" horiz-adv-x="1406"/><glyph d="M754 1587q-58 0 -97 40t-39 99q0 60 39 100t97 40q57 0 96 -40t39 -100q0 -59 -39 -99t-96 -40zM1298 784v-684q-240 -120 -512 -120q-218 0 -374.5 96t-235 265t-78.5 392q0 218 82 386.5t232 262t344 93.5q259 0 516 -121l-21 -189q-229 119 -450 119 q-142 0 -250 -73.5t-163.5 -197.5t-55.5 -278q0 -119 31.5 -220.5t92.5 -179t158 -121.5t220 -44q120 0 247 43v389h-344l-20 182h581z" glyph-name="Gdotaccent.ss06" horiz-adv-x="1406"/><glyph d="M1290 0h-276l-611 674v-674h-223v1454h223v-651l572 651h276l-624 -721z" glyph-name="K.ss08" horiz-adv-x="1314"/><glyph d="M627 733l663 -733h-276l-611 674v-674h-223v1454h223v-651l572 651h276zM473 -582l88 439h236l-170 -439h-154z" glyph-name="Kcommaaccent.ss08" horiz-adv-x="1314"/><glyph d="M244 1122q-58 0 -96.5 40.5t-38.5 99.5q0 60 38.5 99.5t96.5 39.5q57 0 96 -39.5t39 -99.5q0 -59 -39 -99.5t-96 -40.5zM133 0v989h221v-989h-221z" glyph-name="i.loclTRK" horiz-adv-x="487"/><glyph d="M522 -20q-192 0 -321 143t-129 373q0 234 130 374t330 140q155 0 283 -111h8l41 90h180v-989h-180l-41 100h-8q-138 -120 -293 -120zM580 154q56 0 122.5 27.5t120.5 76.5v483q-49 45 -113.5 70t-121.5 25q-131 0 -210 -92.5t-79 -247.5q0 -153 78 -247.5t203 -94.5z" glyph-name="a.ss01" horiz-adv-x="1208"/><glyph d="M430 1118l160 330h248l-232 -330h-176zM522 -20q-192 0 -321 143t-129 373q0 234 130 374t330 140q155 0 283 -111h8l41 90h180v-989h-180l-41 100h-8q-138 -120 -293 -120zM580 154q56 0 122.5 27.5t120.5 76.5v483q-49 45 -113.5 70t-121.5 25q-131 0 -210 -92.5 t-79 -247.5q0 -153 78 -247.5t203 -94.5z" glyph-name="aacute.ss01" horiz-adv-x="1208"/><glyph d="M528 1104q-145 0 -233 91t-90 241h174q0 -92 40.5 -144.5t108.5 -52.5q67 0 108 53t42 144h176q0 -149 -90 -240.5t-236 -91.5zM522 -20q-192 0 -321 143t-129 373q0 234 130 374t330 140q155 0 283 -111h8l41 90h180v-989h-180l-41 100h-8q-138 -120 -293 -120zM580 154 q56 0 122.5 27.5t120.5 76.5v483q-49 45 -113.5 70t-121.5 25q-131 0 -210 -92.5t-79 -247.5q0 -153 78 -247.5t203 -94.5z" glyph-name="abreve.ss01" horiz-adv-x="1208"/><glyph d="M883 1110h-211l-144 193l-145 -193h-207l289 330h127zM522 -20q-192 0 -321 143t-129 373q0 234 130 374t330 140q155 0 283 -111h8l41 90h180v-989h-180l-41 100h-8q-138 -120 -293 -120zM580 154q56 0 122.5 27.5t120.5 76.5v483q-49 45 -113.5 70t-121.5 25 q-131 0 -210 -92.5t-79 -247.5q0 -153 78 -247.5t203 -94.5z" glyph-name="acircumflex.ss01" horiz-adv-x="1208"/><glyph d="M365 1126q-49 0 -82 34.5t-33 84.5q0 51 33 86t82 35q47 0 80.5 -35t33.5 -86q0 -49 -33.5 -84t-80.5 -35zM711 1126q-47 0 -81 35t-34 84q0 51 33.5 86t81.5 35q49 0 81.5 -35t32.5 -86q0 -50 -32.5 -84.5t-81.5 -34.5zM522 -20q-192 0 -321 143t-129 373q0 234 130 374 t330 140q155 0 283 -111h8l41 90h180v-989h-180l-41 100h-8q-138 -120 -293 -120zM580 154q56 0 122.5 27.5t120.5 76.5v483q-49 45 -113.5 70t-121.5 25q-131 0 -210 -92.5t-79 -247.5q0 -153 78 -247.5t203 -94.5z" glyph-name="adieresis.ss01" horiz-adv-x="1208"/><glyph d="M446 1110l-229 330h246l162 -330h-179zM522 -20q-192 0 -321 143t-129 373q0 234 130 374t330 140q155 0 283 -111h8l41 90h180v-989h-180l-41 100h-8q-138 -120 -293 -120zM580 154q56 0 122.5 27.5t120.5 76.5v483q-49 45 -113.5 70t-121.5 25q-131 0 -210 -92.5 t-79 -247.5q0 -153 78 -247.5t203 -94.5z" glyph-name="agrave.ss01" horiz-adv-x="1208"/><glyph d="M236 1202l-3 174h596v-174h-593zM522 -20q-192 0 -321 143t-129 373q0 234 130 374t330 140q155 0 283 -111h8l41 90h180v-989h-180l-41 100h-8q-138 -120 -293 -120zM580 154q56 0 122.5 27.5t120.5 76.5v483q-49 45 -113.5 70t-121.5 25q-131 0 -210 -92.5t-79 -247.5 q0 -153 78 -247.5t203 -94.5z" glyph-name="amacron.ss01" horiz-adv-x="1208"/><glyph d="M1026 -203q41 0 47 2l-8 -155q-30 -9 -68 -9q-95 0 -161 56.5t-66 154.5q0 105 88 170l-35 84h-8q-138 -120 -293 -120q-192 0 -321 143t-129 373q0 234 130 374t330 140q155 0 283 -111h8l41 90h180v-989h-57q-69 -29 -69 -109q0 -41 28.5 -67.5t79.5 -26.5zM823 258 v483q-49 45 -113.5 70t-121.5 25q-131 0 -210 -92.5t-79 -247.5q0 -153 78 -247.5t203 -94.5q56 0 122.5 27.5t120.5 76.5z" glyph-name="aogonek.ss01" horiz-adv-x="1208"/><glyph d="M528 1116q-106 0 -170.5 64t-64.5 168q0 102 64 163.5t171 61.5q106 0 171 -62t65 -163q0 -103 -65.5 -167.5t-170.5 -64.5zM528 1233q40 0 65 31.5t25 83.5q0 49 -25 78.5t-65 29.5q-41 0 -65.5 -29t-24.5 -79q0 -53 24.5 -84t65.5 -31zM522 -20q-192 0 -321 143 t-129 373q0 234 130 374t330 140q155 0 283 -111h8l41 90h180v-989h-180l-41 100h-8q-138 -120 -293 -120zM580 154q56 0 122.5 27.5t120.5 76.5v483q-49 45 -113.5 70t-121.5 25q-131 0 -210 -92.5t-79 -247.5q0 -153 78 -247.5t203 -94.5z" glyph-name="aring.ss01" horiz-adv-x="1208"/><glyph d="M242 1114l-19 180q32 35 76.5 57.5t81.5 22.5q59 0 160 -37t135 -37q74 0 155 84l21 -180q-34 -36 -78 -58t-82 -22q-58 0 -154.5 37t-140.5 37q-74 0 -155 -84zM522 -20q-192 0 -321 143t-129 373q0 234 130 374t330 140q155 0 283 -111h8l41 90h180v-989h-180l-41 100 h-8q-138 -120 -293 -120zM580 154q56 0 122.5 27.5t120.5 76.5v483q-49 45 -113.5 70t-121.5 25q-131 0 -210 -92.5t-79 -247.5q0 -153 78 -247.5t203 -94.5z" glyph-name="atilde.ss01" horiz-adv-x="1208"/><glyph d="M276 -373l146 373l-387 989h227l232 -622q23 -63 34 -121h9q13 56 34 121l234 622h227l-532 -1362h-224z" glyph-name="y.ss02" horiz-adv-x="1067"/><glyph d="M434 1118l160 330h248l-232 -330h-176zM276 -373l146 373l-387 989h227l232 -622q23 -63 34 -121h9q13 56 34 121l234 622h227l-532 -1362h-224z" glyph-name="yacute.ss02" horiz-adv-x="1067"/><glyph d="M887 1110h-211l-144 193l-145 -193h-207l289 330h127zM276 -373l146 373l-387 989h227l232 -622q23 -63 34 -121h9q13 56 34 121l234 622h227l-532 -1362h-224z" glyph-name="ycircumflex.ss02" horiz-adv-x="1067"/><glyph d="M369 1126q-49 0 -82 34.5t-33 84.5q0 51 33 86t82 35q47 0 80.5 -35t33.5 -86q0 -49 -33.5 -84t-80.5 -35zM715 1126q-47 0 -81 35t-34 84q0 51 33.5 86t81.5 35q49 0 81.5 -35t32.5 -86q0 -50 -32.5 -84.5t-81.5 -34.5zM276 -373l146 373l-387 989h227l232 -622 q23 -63 34 -121h9q13 56 34 121l234 622h227l-532 -1362h-224z" glyph-name="ydieresis.ss02" horiz-adv-x="1067"/><glyph d="M451 1110l-230 330h246l162 -330h-178zM276 -373l146 373l-387 989h227l232 -622q23 -63 34 -121h9q13 56 34 121l234 622h227l-532 -1362h-224z" glyph-name="ygrave.ss02" horiz-adv-x="1067"/><glyph d="M186 0v1413l220 41v-1454h-220z" glyph-name="l.ss03" horiz-adv-x="591"/><glyph d="M205 1583l160 330h247l-231 -330h-176zM186 0v1413l220 41v-1454h-220z" glyph-name="lacute.ss03" horiz-adv-x="591"/><glyph d="M535 858l106 596h238l-152 -596h-192zM160 0v1423l221 27v-1450h-221z" glyph-name="lcaron.ss03" horiz-adv-x="878"/><glyph d="M186 0v1413l220 41v-1454h-220zM102 -582l88 439h236l-170 -439h-154z" glyph-name="lcommaaccent.ss03" horiz-adv-x="591"/><glyph d="M539 971v-170l-158 -60v-741h-221v657l-160 -61v170l160 61v586l221 41v-543z" glyph-name="lslash.ss03" horiz-adv-x="538"/><glyph d="M1053 0h-256l-412 489v-489h-219v1413l219 41v-862l371 397h264l-416 -446z" glyph-name="k.ss07" horiz-adv-x="1085"/><glyph d="M604 543l449 -543h-256l-412 489v-489h-219v1413l219 41v-862l371 397h264zM358 -582l88 439h236l-170 -439h-154z" glyph-name="kcommaaccent.ss07" horiz-adv-x="1085"/><glyph d="M1382 1010q201 0 331 -140.5t130 -373.5q0 -230 -129 -373t-321 -143q-155 0 -293 120h-8l-41 -100h-181v1294q-88 19 -186 19q-112 0 -171.5 -60t-59.5 -200v-64h317l-18 -162h-299v-827h-220v827h-182v162h182v64q0 199 108 310.5t306 111.5q144 0 242 -21h203v-555h8 q128 111 282 111zM1323 154q125 0 209 98t84 244q0 149 -84.5 244.5t-216.5 95.5q-128 0 -223 -95v-483q107 -104 231 -104z" glyph-name="f_b" horiz-adv-x="1931"/><glyph d="M2089 1010q201 0 331 -140.5t130 -373.5q0 -153 -61 -271.5t-163.5 -181.5t-226.5 -63q-155 0 -293 120h-8l-41 -100h-180v1294q-88 19 -186 19q-56 0 -96 -11.5t-71.5 -39.5t-47 -80t-15.5 -129v-64h316l-19 -162h-297v-827h-221v827h-487v-827h-222v827h-180v162h180 v64q0 199 109 310.5t307 111.5q120 0 217 -19v-166q-35 10 -93 16.5t-87 6.5q-113 0 -172 -60t-59 -200v-64h487v64q0 209 106.5 315.5t307.5 106.5q143 0 241 -21h203v-555h8q128 111 283 111zM2030 154q125 0 208.5 98t83.5 244q0 149 -84.5 244.5t-216.5 95.5 q-128 0 -223 -95v-483q107 -104 232 -104z" glyph-name="f_f_b" horiz-adv-x="2637"/><glyph d="M2091 1010q160 0 252 -99t92 -307v-604h-221v616q0 116 -44.5 168t-141.5 52q-131 0 -228 -95v-741h-221v1294q-85 19 -188 19q-112 0 -171 -60t-59 -200v-64h240l-21 -162h-219v-827h-221v827h-487v-827h-222v827h-180v162h180v64q0 199 109 310.5t307 111.5 q120 0 217 -19v-166q-35 10 -93 16.5t-87 6.5q-113 0 -172 -60t-59 -200v-64h487v64q0 199 108 310.5t306 111.5q143 0 241 -21h205v-555h8q132 111 283 111z" glyph-name="f_f_h" horiz-adv-x="2572"/><glyph d="M2081 618l385 -618h-250l-274 471l-142 -149v-322h-221v1294q-85 19 -188 19q-112 0 -172 -60t-60 -200v-64h318l-19 -162h-299v-827h-219v827h-487v-827h-222v827h-180v162h180v64q0 199 109 310.5t307 111.5q120 0 217 -19v-166q-35 10 -93 16.5t-87 6.5 q-113 0 -172 -60t-59 -200v-64h487v64q0 200 107.5 311t306.5 111q141 0 241 -21h205v-874l377 409h256z" glyph-name="f_f_k" horiz-adv-x="2500"/><glyph d="M1995 827h-242v-553q0 -124 133 -124q60 0 109 16v-172q-77 -14 -150 -14q-150 0 -231.5 75t-81.5 224v548h-371v-827h-221v827h-487v-827h-222v827h-180v162h180v64q0 199 109 310.5t307 111.5q120 0 217 -19v-166q-35 10 -93 16.5t-87 6.5q-113 0 -172 -60t-59 -200 v-64h487v64q0 199 108 310.5t306 111.5q105 0 198 -19v-166q-70 23 -161 23q-112 0 -171 -60t-59 -200v-64h373l49 262h170v-262h242v-162z" glyph-name="f_f_t" horiz-adv-x="2048"/><glyph d="M1386 1010q159 0 251 -99t92 -307v-604h-222v616q0 116 -44.5 168t-141.5 52q-130 0 -227 -95v-741h-222v1294q-88 19 -188 19q-116 0 -173.5 -53t-57.5 -191v-80h241l-18 -162h-223v-827h-222v827h-180v162h180v64q0 199 109 310.5t307 111.5q142 0 242 -21h205v-555h8 q132 111 284 111z" glyph-name="f_h" horiz-adv-x="1865"/><glyph d="M1374 618l385 -618h-248l-276 471l-141 -149v-322h-222v1294q-88 19 -188 19q-113 0 -172 -60t-59 -200v-64h241l-18 -162h-223v-827h-222v827h-180v162h180v64q0 199 109 310.5t307 111.5q142 0 242 -21h205v-874l379 409h253z" glyph-name="f_k" horiz-adv-x="1794"/><glyph d="M1288 827h-241v-553q0 -124 133 -124q59 0 108 16v-172q-77 -14 -149 -14q-150 0 -232 75t-82 224v548h-372v-827h-222v827h-180v162h180v64q0 199 109 310.5t307 111.5q98 0 191 -19v-164q-74 21 -154 21q-113 0 -172 -60t-59 -200v-64h374l50 262h170v-262h241v-162z" glyph-name="f_t" horiz-adv-x="1341"/><glyph d="M647 -20q-163 0 -286.5 97t-189 266t-65.5 384q0 219 65.5 388.5t188.5 264.5t285 95q164 0 288.5 -95t190.5 -264.5t66 -388.5q0 -215 -66 -384t-190 -266t-287 -97zM647 162q102 0 175.5 78.5t108 204.5t34.5 282q0 161 -35 286.5t-108.5 202t-176.5 76.5 q-102 0 -174 -76.5t-105.5 -202t-33.5 -286.5q0 -157 33.5 -282t106 -204t175.5 -79z" glyph-name="zero.tf" horiz-adv-x="1294"/><glyph d="M762 182h395v-182h-1020v182h398v1092l-316 -62v138l391 106h152v-1274z" glyph-name="one.tf" horiz-adv-x="1294"/><glyph d="M113 0v160l315 338q270 287 319 345q102 119 123 191q9 33 9 70q0 84 -66.5 136t-189.5 52q-215 0 -459 -116l-23 182q132 61 244.5 89t237.5 28q231 0 360 -107.5t129 -271.5q0 -38 -7 -71.5t-28 -74t-44 -74.5t-70 -90.5t-90 -104.5t-119 -132q-12 -13 -19 -21 t-18.5 -20.5t-20.5 -22.5l-272 -303h719v-182h-1030z" glyph-name="two.tf" horiz-adv-x="1294"/><glyph d="M596 -20q-218 0 -461 114l21 182q234 -114 436 -114q81 0 144.5 23.5t101 62.5t56.5 85.5t19 96.5q0 117 -80.5 180.5t-226.5 63.5h-127v184h125q114 0 182 62t68 170q0 99 -72 150.5t-204 51.5q-177 0 -400 -106l-20 180q124 58 216.5 83.5t200.5 25.5 q237 0 370.5 -109.5t133.5 -286.5q0 -106 -43 -190.5t-121 -118.5q107 -42 166.5 -133.5t59.5 -218.5q0 -191 -148 -314.5t-397 -123.5z" glyph-name="three.tf" horiz-adv-x="1294"/><glyph d="M784 0v322h-718v141l727 993h217v-960h180l-21 -174h-159v-322h-226zM332 496h452v669z" glyph-name="four.tf" horiz-adv-x="1294"/><glyph d="M604 -20q-246 0 -483 114l18 182q116 -57 239 -85.5t220 -28.5q167 0 248.5 87t81.5 222q0 144 -78.5 230.5t-206.5 86.5q-95 0 -176 -48.5t-131 -125.5l-174 9l55 833h870l-18 -182l-674 2l-26 -424q121 111 311 111q213 0 344 -134.5t131 -359.5q0 -220 -144.5 -354.5 t-406.5 -134.5z" glyph-name="five.tf" horiz-adv-x="1294"/><glyph d="M662 -20q-141 0 -247 53.5t-169.5 150.5t-95 224.5t-31.5 285.5q0 371 144 576t407 205q188 0 411 -109l-18 -180q-108 52 -190 79t-160 27q-171 0 -268 -127t-101 -377h8q115 191 344 191q207 0 343.5 -136t136.5 -374q0 -223 -139 -356t-375 -133zM659 162 q127 0 207 89.5t80 223.5q0 142 -79.5 232t-207.5 90t-208 -90t-80 -232q0 -134 80.5 -223.5t207.5 -89.5z" glyph-name="six.tf" horiz-adv-x="1294"/><glyph d="M332 0l559 1274h-756l21 182h983v-166l-574 -1290h-233z" glyph-name="seven.tf" horiz-adv-x="1294"/><glyph d="M647 -20q-239 0 -387.5 120t-148.5 306q0 130 66.5 227.5t178.5 136.5q-87 48 -138.5 132t-51.5 194q0 166 133 272.5t348 106.5q214 0 346.5 -107t132.5 -272q0 -110 -50 -194t-138 -132q112 -39 179 -136.5t67 -227.5q0 -186 -149 -306t-388 -120zM647 854 q114 0 183 61.5t69 161.5q0 92 -69.5 151.5t-182.5 59.5t-182.5 -59.5t-69.5 -151.5q0 -100 69 -161.5t183 -61.5zM647 166q136 0 221.5 73t85.5 183q0 118 -84 188t-223 70q-140 0 -223.5 -70t-83.5 -188q0 -111 85 -183.5t222 -72.5z" glyph-name="eight.tf" horiz-adv-x="1294"/><glyph d="M610 -20q-209 0 -426 110l19 191q211 -111 393 -111q167 0 255 123.5t93 353.5h-4q-53 -80 -141.5 -121t-194.5 -41q-220 0 -352.5 137t-132.5 367q0 218 139.5 352t374.5 134q266 0 404.5 -187.5t138.5 -525.5q0 -367 -147.5 -574.5t-418.5 -207.5zM633 668 q132 0 211.5 84t79.5 227q0 136 -81 224.5t-210 88.5q-127 0 -206 -88t-79 -225q0 -145 78 -228t207 -83z" glyph-name="nine.tf" horiz-adv-x="1294"/><glyph d="M395 -16q-148 0 -238.5 111.5t-90.5 291.5q0 181 90 292.5t239 111.5t240.5 -112t91.5 -292t-91 -291.5t-241 -111.5zM395 113q56 0 94 42t53 101t15 131q0 73 -15 132t-52.5 99.5t-94.5 40.5q-80 0 -117.5 -77.5t-37.5 -192.5q0 -73 14 -132.5t50.5 -101.5t90.5 -42z" glyph-name="zero.dnom" horiz-adv-x="792"/><glyph d="M174 0v643l-147 -31v99l188 61h131v-772h-172z" glyph-name="one.dnom" horiz-adv-x="446"/><glyph d="M51 0v119l96 100q44 45 102.5 104t84 85.5t53.5 59.5t37.5 55t9.5 44q0 49 -30 70.5t-95 21.5q-97 0 -227 -47l-10 129q155 50 237 50q150 0 227.5 -63.5t77.5 -154.5q0 -30 -9.5 -59.5t-22 -52.5t-40.5 -56t-48.5 -54.5t-64 -65.5t-69.5 -72l-81 -84h350v-129h-578z" glyph-name="two.dnom" horiz-adv-x="686"/><glyph d="M305 -16q-114 0 -248 47l11 127q133 -45 235 -45q137 0 137 120q0 111 -125 111h-71v131h63q43 0 68.5 27t25.5 73q0 84 -110 84q-91 0 -213 -43l-8 129q128 46 225 46q133 0 210 -60t77 -160q0 -57 -22 -102.5t-56 -60.5q54 -20 84 -69.5t30 -115.5q0 -107 -86 -173 t-227 -66z" glyph-name="three.dnom" horiz-adv-x="684"/><glyph d="M416 0v150h-389v108l403 514h160v-493h108l-10 -129h-98v-150h-174zM211 279h205v276z" glyph-name="four.dnom" horiz-adv-x="747"/><glyph d="M309 -16q-119 0 -262 47l10 127q62 -20 134.5 -32.5t115.5 -12.5q125 0 125 141q0 67 -31 100t-84 33q-61 0 -127 -57l-124 10l28 432h475l-12 -129h-328l-12 -178q30 27 60 40t77 13q114 0 187 -73t73 -191q0 -124 -82.5 -197t-222.5 -73z" glyph-name="five.dnom" horiz-adv-x="671"/><glyph d="M379 -16q-147 0 -234.5 102t-87.5 281q0 184 86.5 304t245.5 120q81 0 221 -46l-12 -129q-121 43 -178 43q-88 0 -129.5 -54t-52.5 -167h4q35 43 76.5 61.5t101.5 18.5q110 0 183 -73.5t73 -190.5q0 -122 -83.5 -196t-213.5 -74zM375 113q53 0 87 39t34 102q0 61 -34 99 t-87 38q-58 0 -93.5 -37.5t-35.5 -99.5q0 -63 35.5 -102t93.5 -39z" glyph-name="six.dnom" horiz-adv-x="733"/><glyph d="M129 0l240 643h-332l10 129h506v-102l-244 -670h-180z" glyph-name="seven.dnom" horiz-adv-x="600"/><glyph d="M358 -16q-140 0 -225.5 64t-85.5 169q0 64 31.5 115t93.5 76q-92 59 -92 163q0 102 75.5 161t202.5 59q123 0 197 -59t74 -161q0 -108 -92 -163q63 -25 94 -75.5t31 -115.5q0 -105 -84.5 -169t-219.5 -64zM354 459q44 0 70.5 27t26.5 73q0 47 -26 73.5t-71 26.5 q-42 0 -69 -27t-27 -73q0 -45 27 -72.5t69 -27.5zM358 113q56 0 90.5 32t34.5 86t-34.5 86.5t-90.5 32.5q-61 0 -96 -32.5t-35 -86.5t35 -86t96 -32z" glyph-name="eight.dnom" horiz-adv-x="708"/><glyph d="M334 -16q-106 0 -244 53l14 125q112 -51 209 -51q88 0 131 52.5t52 166.5h-4q-28 -37 -74 -57.5t-94 -20.5q-120 0 -193.5 73.5t-73.5 192.5q0 123 83 198t220 75q142 0 229 -103.5t87 -275.5q0 -196 -91.5 -312t-250.5 -116zM360 381q55 0 89 37.5t34 99.5 q0 66 -34 103.5t-89 37.5q-57 0 -92 -37t-35 -104q0 -62 35.5 -99.5t91.5 -37.5z" glyph-name="nine.dnom" horiz-adv-x="733"/><glyph d="M395 668q-148 0 -238.5 111.5t-90.5 291.5q0 181 90 292.5t239 111.5t240.5 -112t91.5 -292t-91 -291.5t-241 -111.5zM395 795q56 0 94 42.5t53 102t15 131.5q0 73 -15 132t-52.5 99.5t-94.5 40.5q-55 0 -91 -40.5t-50 -98.5t-14 -131t14 -133t50.5 -102.5t90.5 -42.5z" glyph-name="zero.numr" horiz-adv-x="792"/><glyph d="M174 682v643l-147 -33v101l188 61h131v-772h-172z" glyph-name="one.numr" horiz-adv-x="446"/><glyph d="M51 682v121l96 102q43 45 102 103.5t84.5 84.5t53.5 58.5t37.5 54t9.5 43.5q0 50 -29.5 71t-95.5 21q-94 0 -227 -45l-10 129q155 50 237 50q150 0 227.5 -63.5t77.5 -156.5q0 -36 -10 -67t-38 -68t-49.5 -60.5t-74.5 -76.5t-82 -84l-84 -88h353v-129h-578z" glyph-name="two.numr" horiz-adv-x="686"/><glyph d="M305 666q-108 0 -248 49l11 127q139 -47 235 -47q137 0 137 120q0 113 -125 113h-71v131h63q43 0 68.5 27.5t25.5 73.5q0 42 -27 61.5t-83 19.5q-88 0 -213 -41l-8 130q125 45 225 45q134 0 210.5 -60.5t76.5 -161.5q0 -57 -22 -102t-56 -59q54 -20 84 -69.5t30 -115.5 q0 -108 -86 -174.5t-227 -66.5z" glyph-name="three.numr" horiz-adv-x="684"/><glyph d="M418 682v147h-391v111l403 514h160v-496h110l-12 -129h-98v-147h-172zM213 958h205v277z" glyph-name="four.numr" horiz-adv-x="747"/><glyph d="M309 666q-122 0 -262 49l10 127q62 -22 134 -34.5t116 -12.5q125 0 125 141q0 67 -31 101t-84 34q-61 0 -127 -57l-124 6l28 434h475l-12 -129l-328 -2l-12 -176q29 27 59 40t78 13q114 0 187 -73.5t73 -192.5q0 -122 -83 -195t-222 -73z" glyph-name="five.numr" horiz-adv-x="671"/><glyph d="M379 666q-146 0 -234 102.5t-88 280.5q0 186 86.5 306t245.5 120q84 0 221 -45l-12 -130q-115 41 -178 41q-88 0 -129.5 -53.5t-52.5 -165.5h4q66 80 178 80q110 0 183 -73.5t73 -190.5q0 -123 -83.5 -197.5t-213.5 -74.5zM375 795q53 0 87 39.5t34 103.5q0 61 -34 98 t-87 37q-59 0 -94 -37t-35 -98q0 -65 35.5 -104t93.5 -39z" glyph-name="six.numr" horiz-adv-x="733"/><glyph d="M129 682l240 643h-332l10 129h506v-102l-244 -670h-180z" glyph-name="seven.numr" horiz-adv-x="600"/><glyph d="M358 666q-140 0 -225.5 64.5t-85.5 170.5q0 63 31.5 114.5t93.5 76.5q-92 59 -92 163q0 102 75.5 161t202.5 59q123 0 197 -59t74 -161q0 -108 -92 -163q63 -25 94 -76t31 -115q0 -105 -85 -170t-219 -65zM354 1143q44 0 70.5 27t26.5 73q0 45 -26.5 71.5t-70.5 26.5 q-42 0 -69 -26.5t-27 -71.5t27 -72.5t69 -27.5zM358 797q56 0 90.5 31.5t34.5 86.5q0 54 -34.5 85.5t-90.5 31.5q-61 0 -96 -31.5t-35 -85.5q0 -55 34.5 -86.5t96.5 -31.5z" glyph-name="eight.numr" horiz-adv-x="708"/><glyph d="M334 666q-106 0 -244 53l14 125q119 -51 209 -51q88 0 131 53.5t52 167.5h-4q-28 -37 -74 -57.5t-94 -20.5q-120 0 -193.5 72.5t-73.5 191.5q0 124 83 199.5t220 75.5q142 0 229 -104t87 -275q0 -196 -91.5 -313t-250.5 -117zM360 1065q54 0 88.5 37t34.5 98 q0 67 -33.5 104t-89.5 37q-58 0 -92.5 -36.5t-34.5 -104.5q0 -61 35.5 -98t91.5 -37z" glyph-name="nine.numr" horiz-adv-x="733"/><glyph d="M297 549q-64 0 -108 44t-44 109q0 66 44 111t108 45t106.5 -45t42.5 -111q0 -65 -42.5 -109t-106.5 -44z" glyph-name="periodcentered.case" horiz-adv-x="593"/><glyph d="M438 434q-124 0 -208.5 86.5t-84.5 214.5q0 127 84 213t209 86t209 -86t84 -213q0 -128 -84.5 -214.5t-208.5 -86.5z" glyph-name="bullet.case" horiz-adv-x="878"/><glyph d="M336 1165q-64 0 -107 45t-43 111q0 65 43 109.5t107 44.5t107.5 -44.5t43.5 -109.5q0 -66 -43.5 -111t-107.5 -45zM217 -51l29 1081h182l29 -1081h-240z" glyph-name="exclamdown.case" horiz-adv-x="671"/><glyph d="M578 1165q-66 0 -109 45t-43 111q0 65 44 109.5t108 44.5q63 0 106 -44.5t43 -109.5q0 -66 -43 -111t-106 -45zM555 -72q-218 0 -346.5 114.5t-128.5 285.5q0 67 21.5 126t55.5 103t75.5 84.5t83 79t76.5 77.5t58 88.5t25 104.5l2 39h195l-2 -43q-2 -66 -23 -124 t-52.5 -101.5t-69 -83.5t-75 -78t-68.5 -76.5t-50 -87t-19 -102.5q0 -99 61.5 -157t184.5 -58q144 0 334 84l18 -189q-195 -86 -356 -86z" glyph-name="questiondown.case" horiz-adv-x="991"/><glyph d="M662 -164q-168 0 -277 81.5t-109 213.5v338q0 77 -49.5 123.5t-128.5 46.5v158q79 0 128.5 46.5t49.5 125.5v340q0 129 109.5 211t276.5 82v-168q-76 0 -128.5 -43t-52.5 -111v-354q0 -135 -127 -207q127 -69 127 -207v-354q0 -68 52.5 -111t128.5 -43v-168z" glyph-name="braceleft.case" horiz-adv-x="704"/><glyph d="M43 -164v168q76 0 128 43t52 111v354q0 138 127 207q-127 72 -127 207v354q0 68 -52 111t-128 43v168q167 0 276 -82t109 -211v-340q0 -79 49.5 -125.5t128.5 -46.5v-158q-79 0 -128.5 -46.5t-49.5 -123.5v-338q0 -132 -108.5 -213.5t-276.5 -81.5z" glyph-name="braceright.case" horiz-adv-x="704"/><glyph d="M662 1450h-273v-1378h273v-168h-476v1714h476v-168z" glyph-name="bracketleft.case" horiz-adv-x="704"/><glyph d="M518 1618v-1714h-475v168h270v1378h-270v168h475z" glyph-name="bracketright.case" horiz-adv-x="704"/><glyph d="M455 -152q-338 358 -338 897q0 563 338 873l129 -94q-127 -149 -194.5 -337t-67.5 -442q0 -240 67.5 -432.5t194.5 -369.5z" glyph-name="parenleft.case" horiz-adv-x="626"/><glyph d="M172 -152l-129 95q127 178 194.5 370.5t67.5 431.5q0 253 -68 441t-194 338l129 94q338 -310 338 -873q0 -539 -338 -897z" glyph-name="parenright.case" horiz-adv-x="626"/><glyph d="M137 705v178h1764v-178h-1764z" glyph-name="emdash.case" horiz-adv-x="2037"/><glyph d="M117 705v178h1188v-178h-1188z" glyph-name="endash.case" horiz-adv-x="1423"/><glyph d="M98 705v178h611v-178h-611z" glyph-name="hyphen.case" horiz-adv-x="806"/><glyph d="M-489 1110q-145 0 -233.5 91.5t-90.5 240.5h174q0 -91 41 -144t109 -53q67 0 107.5 52.5t41.5 144.5h176q0 -149 -89.5 -240.5t-235.5 -91.5z" glyph-name="brevecombcy"/></font>
</defs>
</svg>
