<svg xmlns="http://www.w3.org/2000/svg" xmlns:xlink="http://www.w3.org/1999/xlink" version="1.1"><metadata>Created by FontForge 20170731 at Sat Nov 14 17:52:48 2020 By Aleksey,,, Copyright (c) 2016 by Formika Labs. All rights reserved.</metadata><defs><font id="Sentral-BoldItalic" horiz-adv-x="0"><font-face x-height="999" ascent="1577" bbox="-1581 -1028 2630 2046" cap-height="1454" descent="-471" font-family="Sentral Bold" font-stretch="normal" font-style="italic" font-weight="700" panose-1="0 0 8 0 0 0 0 0 0 0" slope="-8" underline-position="-307" underline-thickness="102" unicode-range="U+0020-FB02" units-per-em="2048"/><glyph d="M1155 999l-141 -999h-254l114 811h-358l-143 -1016h-256l143 1016h-174l27 188h174l6 43q29 204 161 318.5t332 114.5q126 0 234 -21l-27 -192q-35 11 -96.5 17.5t-93.5 6.5q-218 0 -254 -244l-6 -43h612z" glyph-name="fi" horiz-adv-x="1216" unicode="fi"/><glyph d="M1100 291q-8 -66 16.5 -92.5t63.5 -26.5q46 0 86 12l-27 -190q-63 -14 -149 -14q-143 0 -204 86.5t-36 257.5l133 944q-78 18 -178 18q-220 0 -256 -244l-6 -43h241l-45 -188h-223l-143 -1016h-256l143 1016h-174l27 188h174l6 43q29 204 161.5 318.5t333.5 114.5 q136 0 244 -21h234z" glyph-name="fl" horiz-adv-x="1390" unicode="fl"/><glyph d="M1542 1286q-105 0 -173.5 -54t-88.5 -190l-6 -43h360l-45 -188h-342l-141 -1016h-256l143 1016h-473l-143 -1016h-258l143 1016h-176l27 188h176l6 43q29 204 163.5 318.5t338.5 114.5q127 0 235 -21l-26 -192q-36 11 -97.5 17.5t-95.5 6.5q-224 0 -260 -244l-6 -43h473 l6 43q29 210 161.5 321.5t340.5 111.5q125 0 233 -21l-28 -192q-33 11 -95 17.5t-96 6.5z" glyph-name="f_f" horiz-adv-x="1669" unicode="ff"/><glyph d="M1901 999l-142 -999h-256l115 811h-369l-143 -1016h-256l143 1016h-473l-143 -1016h-258l143 1016h-176l27 188h176l6 43q29 204 163.5 318.5t338.5 114.5q126 0 237 -21l-26 -192q-37 11 -99 17.5t-96 6.5q-224 0 -260 -244l-6 -43h473l6 43q29 204 163 318.5t339 114.5 q128 0 233 -21l-26 -192q-33 11 -95 17.5t-98 6.5q-224 0 -260 -244l-6 -43h625z" glyph-name="f_f_i" horiz-adv-x="1961" unicode="ffi"/><glyph d="M1927 172q45 0 88 12l-26 -190q-63 -14 -154 -14q-291 0 -244 344l133 944q-81 18 -178 18q-106 0 -174 -54t-88 -190l-6 -43h283l-45 -188h-265l-143 -1016h-256l143 1016h-473l-143 -1016h-260l143 1016h-176l27 188h176l6 43q29 204 164 318.5t338 114.5 q129 0 237 -21l-26 -192q-36 11 -97.5 17.5t-95.5 6.5q-224 0 -260 -244l-6 -43h473l6 43q29 203 163 318t339 115q138 0 248 -21h233l-164 -1163q-9 -66 15.5 -92.5t64.5 -26.5z" glyph-name="f_f_l" horiz-adv-x="2140" unicode="ffl"/><glyph d="M1417 1454l-205 -1454h-1106l205 1454h1106zM401 205h576l147 1044h-575z" glyph-name=".notdef" horiz-adv-x="1460"/><glyph glyph-name=".null"/><glyph glyph-name="nonmarkingreturn" horiz-adv-x="682"/><glyph glyph-name="space" horiz-adv-x="471"/><glyph d="M227 459l115 1057h274l-180 -1057h-209zM264 -10q-60 0 -97.5 42t-37.5 107q0 81 56 139t130 58q59 0 96.5 -42.5t37.5 -107.5q0 -81 -55 -138.5t-130 -57.5z" glyph-name="exclam" horiz-adv-x="673" unicode="!"/><glyph d="M141 901l17 105q69 4 123 45t67 88h-24q-61 0 -96 40.5t-35 102.5q0 84 55 138.5t137 54.5q65 0 103 -43.5t38 -114.5q0 -163 -111 -286.5t-274 -129.5zM582 901l14 105q67 4 122 45t68 88h-26q-59 0 -94 40.5t-35 102.5q0 84 54.5 138.5t137.5 54.5q64 0 103 -43.5 t39 -114.5q0 -162 -111.5 -286t-271.5 -130z" glyph-name="quotedbl" horiz-adv-x="933" unicode="&quot;"/><glyph d="M1214 817h-186l-92 -305h235l-24 -176h-264l-103 -336h-205l103 336h-240l-100 -336h-205l103 336h-158l24 176h187l92 305h-236l25 176h264l101 334h202l-100 -334h240l100 334h205l-101 -334h158zM731 512l92 305h-239l-92 -305h239z" glyph-name="numbersign" horiz-adv-x="1271" unicode="#"/><glyph d="M674 862q175 -56 248 -97q175 -96 192 -268q2 -19 2 -40q0 -101 -37 -185t-102 -141t-147 -93t-177 -50l-26 -193h-230l27 191q-162 22 -375 102l49 201q108 -42 231 -71.5t218 -29.5q139 0 220 61.5t81 164.5q0 35 -12 63t-29.5 47t-49.5 36.5t-59 28t-71 25.5 q-16 5 -60.5 19.5t-64.5 21t-61 22.5t-62 27t-55 31t-52.5 38.5t-41.5 45t-34 55t-19.5 65t-8.5 77.5q0 100 36.5 182t101 136.5t147 88t180.5 45.5l26 193h230l-27 -195q138 -17 293 -80l-49 -200q-220 80 -391 80q-136 0 -206.5 -53t-70.5 -144q0 -42 16.5 -74.5t52 -56.5 t72.5 -40.5t95 -35.5z" glyph-name="dollar" horiz-adv-x="1228" unicode="$"/><glyph d="M492 770q-137 0 -217 81.5t-80 217.5q0 181 110.5 293.5t282.5 112.5q137 0 216 -81t79 -216q0 -179 -110.5 -293.5t-280.5 -114.5zM262 0l1114 1454h240l-1116 -1454h-238zM512 918q75 0 124.5 69t49.5 180q0 76 -32 118t-87 42q-77 0 -125.5 -66.5t-48.5 -179.5 q0 -76 31.5 -119.5t87.5 -43.5zM1290 -20q-136 0 -215.5 82.5t-79.5 218.5q0 180 111 291.5t283 111.5q136 0 215 -80.5t79 -214.5q0 -179 -111.5 -294t-281.5 -115zM1311 129q75 0 124.5 68.5t49.5 179.5q0 76 -32 119t-87 43q-74 0 -123 -67.5t-49 -178.5q0 -77 31 -120.5 t86 -43.5z" glyph-name="percent" horiz-adv-x="1794" unicode="%"/><glyph d="M569 -33q-193 0 -319.5 102.5t-126.5 284.5q0 77 21.5 143.5t53.5 112t81.5 87t92 66.5t99.5 52q-47 54 -78 128t-31 149q0 126 58 217.5t149.5 134.5t202.5 43q163 0 252.5 -94t89.5 -226q0 -65 -18.5 -119.5t-46 -93.5t-74 -75.5t-88 -60t-101.5 -52.5l203 -297 q43 102 62 227l200 -51q-26 -188 -125 -352l220 -293h-273l-92 125q-168 -158 -412 -158zM659 909q59 30 95 52t72 52.5t52.5 67t16.5 80.5q0 62 -36 103t-99 41q-30 0 -59 -10.5t-55.5 -32t-43 -61t-16.5 -91.5q0 -92 73 -201zM596 150q144 0 256 131l-277 381 q-33 -21 -53.5 -35.5t-51 -42t-48 -55t-30.5 -68t-13 -86.5q0 -101 59.5 -163t157.5 -62z" glyph-name="ampersand" horiz-adv-x="1431" unicode="&amp;"/><glyph d="M139 901l17 105q63 4 115 45t65 88h-27q-54 0 -86.5 40t-32.5 101q0 84 53 139.5t132 55.5q61 0 96 -42t35 -112q0 -164 -107 -289t-260 -131z" glyph-name="quotesingle" horiz-adv-x="473" unicode="'"/><glyph d="M324 -270q-250 328 -199 817q47 614 448 969l127 -105q-153 -175 -242 -381t-110 -481q-22 -204 13 -376t116 -337z" glyph-name="parenleft" horiz-adv-x="610" unicode="("/><glyph d="M70 -270l-125 106q103 137 172 260.5t119.5 286.5t64.5 346q38 392 -137 682l158 105q251 -281 202 -783q-26 -322 -143 -565.5t-311 -437.5z" glyph-name="parenright" horiz-adv-x="610" unicode=")"/><glyph d="M381 838l29 198l-199 -137l-61 156l202 104l-174 103l107 155l159 -137l27 199h170l-29 -199l197 137l63 -155l-206 -103l178 -104l-107 -156l-159 137l-27 -198h-170z" glyph-name="asterisk" horiz-adv-x="835" unicode="*"/><glyph d="M1008 692l-31 -205h-320l-47 -329h-227l47 329h-324l31 205h322l47 328h225l-45 -328h322z" glyph-name="plus" horiz-adv-x="1089" unicode="+"/><glyph d="M37 -248l16 107q63 3 115 44t65 87h-26q-54 0 -86.5 40t-32.5 101q0 84 53 139.5t131 55.5q61 0 96 -42t35 -112q0 -164 -106 -289t-260 -131z" glyph-name="comma" horiz-adv-x="591" unicode=","/><glyph d="M88 483l31 211h592l-31 -211h-592z" glyph-name="hyphen" horiz-adv-x="774" unicode="-"/><glyph d="M215 -10q-56 0 -90.5 41t-34.5 106q0 82 53.5 140.5t124.5 58.5q56 0 90.5 -42t34.5 -106q0 -83 -52.5 -140.5t-125.5 -57.5z" glyph-name="period" horiz-adv-x="577" unicode="."/><glyph d="M-70 -104l680 1601h205l-680 -1601h-205z" glyph-name="slash" horiz-adv-x="690" unicode="/"/><glyph d="M649 -27q-151 0 -261.5 79t-167 218t-56.5 322q0 255 89.5 458t248.5 317t358 114q228 0 359 -167t131 -448q0 -252 -90 -456t-250.5 -320.5t-360.5 -116.5zM680 182q95 0 174 59t128 156t76 216.5t27 246.5q0 118 -26 209t-84.5 147t-143.5 56q-98 0 -177 -58.5 t-127 -156t-73.5 -216t-25.5 -245.5q0 -117 25 -207.5t83 -148.5t144 -58z" glyph-name="zero" horiz-adv-x="1449" unicode="0"/><glyph d="M227 0l174 1245l-243 -61l22 159l318 111h188l-205 -1454h-254z" glyph-name="one" horiz-adv-x="749" unicode="1"/><glyph d="M25 0l28 186l269 277q85 85 179 175t144.5 137.5t102 100t74.5 85.5t37.5 70t14.5 77q0 76 -52 117t-156 41q-177 0 -428 -103l12 205q135 56 239.5 81.5t210.5 25.5q220 0 334.5 -99t114.5 -250q0 -47 -8.5 -86.5t-32 -81.5t-47.5 -75.5t-74 -86t-91.5 -93t-119 -116.5 t-139.5 -138l-234 -240h646l-29 -209h-995z" glyph-name="two" horiz-adv-x="1210" unicode="2"/><glyph d="M492 -20q-206 0 -431 104l48 205q105 -47 215 -74t192 -27q145 0 228 81t83 202q0 90 -57.5 141.5t-171.5 51.5h-125l31 208h114q104 0 170 66t66 172q0 156 -205 156q-160 0 -397 -95l14 205q128 52 221.5 75.5t190.5 23.5q212 0 329 -96.5t117 -254.5 q0 -116 -55.5 -217t-140.5 -139q81 -33 124.5 -111t43.5 -182q0 -140 -76.5 -253t-215 -177.5t-312.5 -64.5z" glyph-name="three" horiz-adv-x="1241" unicode="3"/><glyph d="M694 0l43 303h-702l22 170l856 981h248l-133 -948h186l-49 -203h-168l-41 -303h-262zM360 506h406l84 606z" glyph-name="four" horiz-adv-x="1314" unicode="4"/><glyph d="M494 -20q-231 0 -453 104l49 207q102 -49 221.5 -76t204.5 -27q156 0 238 95t82 243q0 113 -55.5 174.5t-153.5 61.5q-142 0 -279 -144l-192 11l168 825h841l-49 -209l-618 2l-78 -387q65 51 132.5 78t156.5 27q181 0 289 -113.5t108 -306.5q0 -248 -167.5 -406.5 t-444.5 -158.5z" glyph-name="five" horiz-adv-x="1226" unicode="5"/><glyph d="M608 -20q-152 0 -259 71t-158.5 196t-51.5 294q0 196 47.5 366t134 296.5t218 199t290.5 72.5q172 0 385 -99l-45 -205q-110 49 -180.5 72t-140.5 23q-326 0 -412 -461h8q139 172 353 172q178 0 289.5 -115t111.5 -313q0 -166 -76.5 -296.5t-210.5 -201.5t-303 -71z M631 188q125 0 212 96.5t87 237.5q0 110 -59.5 178t-161.5 68q-129 0 -215 -95t-86 -239q0 -107 60.5 -176.5t162.5 -69.5z" glyph-name="six" horiz-adv-x="1318" unicode="6"/><glyph d="M176 0l627 1245h-619l49 209h879l-25 -178l-638 -1276h-273z" glyph-name="seven" horiz-adv-x="1077" unicode="7"/><glyph d="M565 -20q-220 0 -350.5 105t-130.5 273q0 138 77 248.5t210 161.5q-135 91 -135 268q0 194 152 316.5t388 122.5q194 0 309 -94.5t115 -247.5q0 -245 -221 -365q88 -38 136 -119.5t48 -187.5q0 -138 -77.5 -248.5t-214 -171.5t-306.5 -61zM688 856q104 0 171 66.5 t67 169.5q0 76 -49.5 124t-133.5 48q-103 0 -170 -64t-67 -164q0 -82 49 -131t133 -49zM596 190q129 0 214 77.5t85 193.5q0 95 -63 152t-170 57q-132 0 -217 -75.5t-85 -193.5q0 -93 64 -152t172 -59z" glyph-name="eight" horiz-adv-x="1273" unicode="8"/><glyph d="M539 -27q-193 0 -412 105l49 211q191 -103 369 -103q317 0 397 451h-4q-63 -76 -153 -116t-187 -40q-191 0 -303.5 115t-112.5 309q0 255 167 415.5t433 160.5q221 0 341 -150.5t120 -415.5q0 -272 -84 -484.5t-245 -335t-375 -122.5zM672 690q133 0 218 91.5t85 242.5 q0 113 -59 180.5t-160 67.5q-132 0 -216.5 -95t-84.5 -249q0 -110 58 -174t159 -64z" glyph-name="nine" horiz-adv-x="1320" unicode="9"/><glyph d="M338 737q-59 0 -96 42t-37 106q0 82 55.5 140t128.5 58q59 0 95 -41.5t36 -105.5q0 -83 -54 -141t-128 -58zM231 -10q-58 0 -94.5 41t-36.5 106q0 82 55 140.5t128 58.5q59 0 96 -42.5t37 -107.5q0 -81 -55 -138.5t-130 -57.5z" glyph-name="colon" horiz-adv-x="610" unicode=":"/><glyph d="M340 737q-59 0 -96 42.5t-37 107.5q0 81 55 138.5t129 57.5q60 0 97.5 -42t37.5 -107q0 -81 -55 -139t-131 -58zM37 -330l20 137q73 19 124.5 67.5t68.5 115.5h-25q-57 0 -91 40t-34 103q0 83 54 138t133 55q64 0 100.5 -42.5t36.5 -113.5q0 -174 -113 -325.5 t-274 -174.5z" glyph-name="semicolon" horiz-adv-x="622" unicode=";"/><glyph d="M1028 1112l-41 -278l-594 -230l531 -227l-39 -279l-811 410l28 194z" glyph-name="less" horiz-adv-x="1011" unicode="&lt;"/><glyph d="M158 709l30 202h850l-28 -202h-852zM96 268l29 203h852l-29 -203h-852z" glyph-name="equal" horiz-adv-x="1110" unicode="="/><glyph d="M158 1112l811 -410l-27 -194l-928 -410l41 279l594 227l-530 230z" glyph-name="greater" horiz-adv-x="1011" unicode="&gt;"/><glyph d="M561 1536q195 0 304.5 -100.5t109.5 -255.5q0 -75 -23 -139.5t-61 -111t-84.5 -87.5t-94.5 -79t-89.5 -76t-72.5 -87t-40 -104l-6 -37h-217l6 39q10 63 38.5 119.5t65.5 99t80 83t84 79t74 78.5t53.5 90.5t20.5 107.5q0 75 -47.5 119.5t-141.5 44.5q-137 0 -327 -74 l12 213q196 78 356 78zM371 336q62 0 100.5 -43t38.5 -107q0 -82 -56 -139t-132 -57q-63 0 -102.5 42t-39.5 107q0 82 57 139.5t134 57.5z" glyph-name="question" horiz-adv-x="956" unicode="?"/><glyph d="M780 -399q-323 0 -510.5 206t-187.5 553q0 229 73.5 426.5t202 336.5t308.5 217.5t387 78.5q206 0 359.5 -92t235 -259.5t81.5 -389.5q0 -190 -52 -341.5t-146.5 -237t-213.5 -85.5q-74 0 -137.5 38.5t-94.5 113.5q-131 -94 -297 -94q-144 0 -231.5 95.5t-87.5 264.5 q0 229 127.5 373.5t314.5 144.5q69 0 118.5 -26.5t96.5 -83.5h7l41 84h182l-84 -596q-12 -90 15 -125t73 -35q86 0 142.5 121.5t56.5 363.5q0 274 -142.5 443.5t-386.5 169.5q-165 0 -309.5 -68t-247 -185t-162 -280t-59.5 -348q0 -186 65 -328t190.5 -222.5t295.5 -80.5 q137 0 276 39t226 103l57 -121q-108 -79 -268.5 -126.5t-313.5 -47.5zM862 248q87 0 197 63l51 367q-89 96 -174 96q-104 0 -172 -88t-68 -231q0 -99 44.5 -153t121.5 -54z" glyph-name="at" horiz-adv-x="1785" unicode="@"/><glyph d="M967 0l-66 336h-504l-157 -336h-269l711 1454h252l301 -1454h-268zM492 535h370l-74 370q-24 129 -24 213h-8q-20 -65 -88 -211z" glyph-name="A" horiz-adv-x="1347" unicode="A"/><glyph d="M1061 731q80 -36 126 -115t46 -174q0 -193 -151 -317.5t-386 -124.5h-590l205 1454h539q197 0 312.5 -93.5t115.5 -254.5q0 -126 -59.5 -225.5t-157.5 -141.5v-8zM770 838q107 0 171.5 67.5t64.5 163.5q0 79 -49 127.5t-136 48.5h-274l-58 -407h281zM721 209 q110 0 178 68.5t68 171.5q0 81 -51 132.5t-142 51.5h-313l-62 -424h322z" glyph-name="B" horiz-adv-x="1333" unicode="B"/><glyph d="M682 -20q-262 0 -413.5 172.5t-151.5 457.5q0 186 58 346.5t160 274.5t246 179t310 65q248 0 487 -109l-49 -213q-213 104 -414 104q-122 0 -222 -50t-165 -134.5t-100 -194t-35 -231.5q0 -197 98.5 -323.5t276.5 -126.5q89 0 206.5 27.5t233.5 74.5l-8 -211 q-266 -108 -518 -108z" glyph-name="C" horiz-adv-x="1357" unicode="C"/><glyph d="M799 1454q286 0 445 -160.5t159 -441.5q0 -391 -219.5 -621.5t-589.5 -230.5h-488l205 1454h488zM602 209q241 0 387 164.5t146 453.5q0 199 -102.5 308.5t-284.5 109.5h-201l-148 -1036h203z" glyph-name="D" horiz-adv-x="1454" unicode="D"/><glyph d="M1212 1245h-663l-57 -397h624l-47 -205h-606l-62 -434h684l-49 -209h-930l205 1454h951z" glyph-name="E" horiz-adv-x="1247" unicode="E"/><glyph d="M1212 1245h-665l-62 -430h633l-51 -203h-610l-86 -612h-265l205 1454h951z" glyph-name="F" horiz-adv-x="1187" unicode="F"/><glyph d="M653 -20q-249 0 -393.5 170.5t-144.5 455.5q0 189 59.5 350.5t163.5 275.5t252 178.5t319 64.5q253 0 492 -109l-51 -213q-103 50 -220 77t-217 27q-104 0 -190.5 -33t-147 -91t-102.5 -137.5t-62 -172t-20 -194.5q0 -196 87.5 -314t256.5 -118q75 0 162.5 30.5 t155.5 87.5l39 273h-371l10 205h639l-110 -793h-201l-29 111h-8q-98 -63 -185.5 -97t-183.5 -34z" glyph-name="G" horiz-adv-x="1429" unicode="G"/><glyph d="M1153 1454h264l-205 -1454h-264l92 647h-575l-92 -647h-267l205 1454h267l-86 -604h575z" glyph-name="H" horiz-adv-x="1460" unicode="H"/><glyph d="M106 0l205 1454h254l-205 -1454h-254z" glyph-name="I" horiz-adv-x="610" unicode="I"/><glyph d="M266 -20q-133 0 -272 49l31 202q134 -43 241 -43q75 0 124 37t63 142l149 1087h260l-145 -1057q-27 -203 -145 -310t-306 -107z" glyph-name="J" horiz-adv-x="888" unicode="J"/><glyph d="M106 0l205 1454h264l-83 -596l538 596h297l-547 -598l373 -856h-283l-290 668l-138 -154l-71 -514h-265z" glyph-name="K" horiz-adv-x="1255" unicode="K"/><glyph d="M397 209h570l-49 -209h-812l205 1454h262z" glyph-name="L" horiz-adv-x="1060" unicode="L"/><glyph d="M94 0l266 1454h244l240 -790q37 -117 43 -154h8q7 16 88 154l459 790h248l-144 -1454h-270l63 635q33 271 41 297h-8q-6 -16 -57 -103l-357 -641h-227l-178 641q-2 12 -13.5 47.5t-13.5 55.5h-8q0 -68 -43 -297l-113 -635h-268z" glyph-name="M" horiz-adv-x="1781" unicode="M"/><glyph d="M106 0l205 1454h254l426 -858q42 -74 53 -121h9q0 36 10 121l121 858h262l-205 -1454h-250l-430 858q-43 88 -51 121h-8q0 -19 -13 -121l-118 -858h-265z" glyph-name="N" horiz-adv-x="1490" unicode="N"/><glyph d="M705 -20q-268 0 -428 176t-160 462q0 183 62 343.5t168.5 272.5t253.5 176.5t312 64.5q268 0 428 -173.5t160 -457.5q0 -184 -61.5 -345t-167 -274.5t-253 -179t-314.5 -65.5zM735 197q140 0 253.5 84.5t176 227.5t62.5 314q0 195 -91 314.5t-253 119.5q-142 0 -255 -82 t-175 -223t-62 -313q0 -197 91.5 -319.5t252.5 -122.5z" glyph-name="O" horiz-adv-x="1552" unicode="O"/><glyph d="M811 1454q201 0 318.5 -112.5t117.5 -297.5q0 -156 -73 -278.5t-203 -190t-293 -67.5h-236l-71 -508h-265l205 1454h500zM674 717q139 0 220 84.5t81 224.5q0 101 -60.5 160t-169.5 59h-198l-76 -528h203z" glyph-name="P" horiz-adv-x="1251" unicode="P"/><glyph d="M1501 844q0 -199 -70.5 -370t-197.5 -290q88 -107 180 -202l-174 -170q-95 95 -203 239q-158 -71 -331 -71q-268 0 -428 176t-160 462q0 183 62 343.5t168.5 272.5t253.5 176.5t312 64.5q268 0 428 -173.5t160 -457.5zM735 197q91 0 174 39q-93 147 -153 264l176 125 q57 -112 153 -248q142 186 142 446q0 195 -91 314.5t-253 119.5q-142 0 -255 -82t-175 -223t-62 -313q0 -197 91.5 -319.5t252.5 -122.5z" glyph-name="Q" horiz-adv-x="1548" unicode="Q"/><glyph d="M979 586q26 -21 43.5 -46t29.5 -65t17.5 -66t15.5 -85l48 -324h-283l-33 287q-22 141 -46 188t-89 47h-238l-73 -522h-265l205 1454h500q202 0 319 -110t117 -297q0 -155 -73.5 -275.5t-192.5 -177.5zM674 731q134 0 217.5 82.5t83.5 212.5q0 105 -61 162t-171 57h-196 l-74 -514h201z" glyph-name="R" horiz-adv-x="1294" unicode="R"/><glyph d="M535 -20q-218 0 -490 114l49 203q117 -48 239 -77.5t214 -29.5q139 0 220 60.5t81 163.5q0 35 -12 63t-29.5 47t-49.5 36.5t-59 28t-71 25.5q-161 51 -203 69q-176 72 -229 194q-27 61 -27 139q0 91 30.5 167.5t84 129.5t126 90t155.5 54.5t173 17.5q101 0 193.5 -23 t222.5 -74l-49 -202q-125 45 -214.5 66.5t-174.5 21.5q-137 0 -207 -52t-70 -143q0 -42 16.5 -74.5t52 -56.5t72.5 -40.5t95 -35.5q175 -56 248 -97q175 -96 192 -268q2 -19 2 -40q0 -117 -49 -210t-131.5 -150t-185 -87t-215.5 -30z" glyph-name="S" horiz-adv-x="1228" unicode="S"/><glyph d="M1169 1454l-28 -209h-369l-176 -1245h-262l176 1245h-371l29 209h1001z" glyph-name="T" horiz-adv-x="1071" unicode="T"/><glyph d="M651 -20q-262 0 -391.5 162.5t-91.5 439.5l123 872h264l-129 -907q-23 -166 45.5 -262.5t210.5 -96.5q144 0 239.5 96t118.5 263l129 907h263l-123 -872q-40 -278 -216 -440t-442 -162z" glyph-name="U" horiz-adv-x="1454" unicode="U"/><glyph d="M162 1454h268l176 -897q29 -132 29 -211h8q26 87 86 213l426 895h270l-704 -1454h-264z" glyph-name="V" horiz-adv-x="1318" unicode="V"/><glyph d="M1720 1454h271l-586 -1454h-277l-104 909q-7 69 -4 103h-8q-8 -35 -35 -103l-361 -909h-276l-174 1454h268l101 -819q16 -146 14 -195h8q11 42 72 195l323 819h252l94 -819q17 -152 15 -195h8q10 35 72 195z" glyph-name="W" horiz-adv-x="1886" unicode="W"/><glyph d="M1214 0h-303l-241 580h-8l-402 -580h-303l547 752l-322 702h301l232 -536h8l385 536h301l-530 -702z" glyph-name="X" horiz-adv-x="1312" unicode="X"/><glyph d="M446 0l72 502l-356 952h272l189 -498q51 -133 63 -186h6q18 35 113 186l319 498h273l-617 -952l-69 -502h-265z" glyph-name="Y" horiz-adv-x="1290" unicode="Y"/><glyph d="M20 0l29 203l719 889q5 6 33 38t40.5 45.5t33.5 35t38 34.5v8q-52 -8 -163 -8h-547l49 209h967l-29 -203l-721 -889q-97 -117 -143 -153l-2 -8q44 8 165 8h609l-49 -209h-1029z" glyph-name="Z" horiz-adv-x="1218" unicode="Z"/><glyph d="M780 1329h-260l-188 -1341h264l-29 -187h-487l242 1715h487z" glyph-name="bracketleft" horiz-adv-x="704" unicode="["/><glyph d="M377 -104l-205 1601h205l205 -1601h-205z" glyph-name="backslash" horiz-adv-x="696" unicode="\"/><glyph d="M668 1516l-242 -1715h-485l26 187h262l189 1341h-264l28 187h486z" glyph-name="bracketright" horiz-adv-x="704" unicode="]"/><glyph d="M963 793h-244l-129 440l-256 -440h-242l445 661h165z" glyph-name="asciicircum" horiz-adv-x="972" unicode="^"/><glyph d="M-76 -268l29 205h1057l-31 -205h-1055z" glyph-name="underscore" horiz-adv-x="1120" unicode="_"/><glyph d="M463 1120l-170 334h250l94 -334h-174z" glyph-name="grave" horiz-adv-x="708" unicode="`"/><glyph d="M403 -20q-160 0 -250 110.5t-90 300.5q0 150 45 272.5t120 199t167 117t191 40.5q166 0 258 -125h6l59 104h215l-141 -999h-217l-4 199h-6q-92 -127 -176.5 -173t-176.5 -46zM502 184q81 0 158 72t137 221l32 252q-84 88 -192 88q-124 0 -210.5 -103t-86.5 -286 q0 -113 40.5 -178.5t121.5 -65.5z" glyph-name="a" horiz-adv-x="1210" unicode="a"/><glyph d="M623 -20q-139 0 -282.5 35.5t-238.5 93.5l183 1304l260 41l-99 -653h9q90 126 175.5 172.5t176.5 46.5q157 0 245.5 -109.5t88.5 -308.5q0 -280 -142.5 -451t-375.5 -171zM582 184q126 0 207 105.5t81 283.5q0 114 -40 179t-121 65q-82 0 -158 -72.5t-137 -220.5 l-33 -252q76 -88 201 -88z" glyph-name="b" horiz-adv-x="1214" unicode="b"/><glyph d="M500 -20q-198 0 -311 122t-113 322q0 261 158.5 428.5t410.5 167.5q153 0 332 -70l-45 -192q-157 63 -285 63q-97 0 -170 -55t-108 -137t-35 -176q0 -118 56.5 -196.5t168.5 -78.5q118 0 301 64l-10 -193q-204 -69 -350 -69z" glyph-name="c" horiz-adv-x="974" unicode="c"/><glyph d="M414 -20q-160 0 -250 110.5t-90 300.5q0 121 29.5 224.5t80.5 177t118 125.5t141.5 77t152.5 25q168 0 260 -125h6l76 518l260 41l-205 -1454h-213l-8 199h-6q-91 -127 -174.5 -173t-177.5 -46zM512 184q82 0 158.5 72t138.5 221l33 252q-84 88 -195 88 q-125 0 -211 -102.5t-86 -286.5q0 -113 40.5 -178.5t121.5 -65.5z" glyph-name="d" horiz-adv-x="1222" unicode="d"/><glyph d="M547 172q75 0 175.5 23t186.5 63l-10 -188q-193 -90 -379 -90q-215 0 -330.5 116.5t-115.5 317.5q0 132 44.5 246t121 192.5t181 123t220.5 44.5q173 0 281 -74.5t108 -208.5q0 -65 -22.5 -118.5t-60 -90.5t-93 -65t-114.5 -45t-132.5 -27.5t-138.5 -14.5t-141 -5 q4 -104 57 -151.5t162 -47.5zM633 844q-114 0 -192.5 -86t-98.5 -232q437 4 457 179q5 63 -37.5 101t-128.5 38z" glyph-name="e" horiz-adv-x="1079" unicode="e"/><glyph d="M674 1286q-99 0 -117 -123l-22 -164h235l-45 -188h-217l-143 -1016h-252l141 1016h-168l27 188h168l20 142q25 173 110 253.5t240 80.5q51 0 162 -19l-27 -192q-52 22 -112 22z" glyph-name="f" horiz-adv-x="741" unicode="f"/><glyph d="M424 -471q-110 0 -222 26t-196 64l45 199q220 -90 383 -90q133 0 205.5 62t95.5 194l35 215h-8q-90 -125 -173 -172t-175 -47q-160 0 -250 111t-90 302q0 120 29.5 223.5t80.5 176.5t118 125t141.5 77t152.5 25q166 0 258 -125h8l58 104h215l-140 -993 q-33 -231 -187.5 -354t-383.5 -123zM512 184q82 0 158 72t137 221l35 252q-84 88 -195 88q-125 0 -211 -102.5t-86 -286.5q0 -113 40.5 -178.5t121.5 -65.5z" glyph-name="g" horiz-adv-x="1202" unicode="g"/><glyph d="M86 0l199 1413l262 41l-98 -653h8q91 128 175.5 173.5t172.5 45.5q152 0 211.5 -80.5t32.5 -273.5l-95 -666h-254l93 664q4 39 3 73t-23 57t-66 23q-85 0 -160 -71.5t-131 -221.5l-74 -524h-256z" glyph-name="h" horiz-adv-x="1144" unicode="h"/><glyph d="M360 1145q-51 0 -83.5 38.5t-32.5 96.5q0 72 49.5 125t114.5 53q52 0 85 -38t33 -97q0 -71 -50.5 -124.5t-115.5 -53.5zM78 0l141 999h246l-139 -999h-248z" glyph-name="i" horiz-adv-x="544" unicode="i"/><glyph d="M352 1145q-55 0 -90 39t-35 96q0 72 51 125t117 53q55 0 91 -39t36 -96q0 -72 -52 -125t-118 -53zM-39 -471q-74 0 -131 14l27 187q41 -13 77 -13q94 0 109 121l162 1161h254l-160 -1138q-23 -162 -110 -247t-228 -85z" glyph-name="j" horiz-adv-x="540" unicode="j"/><glyph d="M717 0l-168 444l-170 -168l-37 -276h-256l199 1413l262 41l-123 -868l397 413h293l-383 -378l266 -621h-280z" glyph-name="k" horiz-adv-x="1095" unicode="k"/><glyph d="M346 -20q-260 0 -213 344l152 1089l250 41l-164 -1163q-9 -65 13.5 -92t55.5 -27q42 0 80 12l-26 -190q-57 -14 -148 -14z" glyph-name="l" horiz-adv-x="645" unicode="l"/><glyph d="M1415 1020q146 0 198.5 -93t22.5 -306l-86 -621h-260l90 649q4 44 5 81t-21 62t-70 25q-144 0 -260 -196l-86 -621h-258l90 649q1 6 3.5 27t3 28.5t2 25t-0.5 24.5t-4.5 20t-8.5 18.5t-14.5 12.5t-21.5 9.5t-30 2.5q-78 0 -153.5 -70.5t-135.5 -220.5l-74 -526h-258 l141 999h220l4 -198h8q90 126 176 172.5t176 46.5q120 0 172.5 -48.5t58.5 -154.5h9q87 110 182 156.5t180 46.5z" glyph-name="m" horiz-adv-x="1740" unicode="m"/><glyph d="M88 0l141 999h215l7 -198h8q47 68 94.5 113.5t92.5 67t82 30t79 8.5q151 0 210 -80.5t32 -273.5l-95 -666h-254l93 664q5 39 5 73t-22.5 57t-68.5 23q-83 0 -158 -72t-131 -221l-76 -524h-254z" glyph-name="n" horiz-adv-x="1144" unicode="n"/><glyph d="M492 -20q-196 0 -306 121t-110 319q0 170 69 306.5t197 215t293 78.5q197 0 307.5 -120t110.5 -318q0 -171 -70 -308t-198.5 -215.5t-292.5 -78.5zM518 168q88 0 152.5 59.5t94.5 148.5t30 193q0 117 -46.5 189.5t-138.5 72.5q-87 0 -152.5 -58t-96.5 -147t-31 -192 q0 -118 47 -192t141 -74z" glyph-name="o" horiz-adv-x="1128" unicode="o"/><glyph d="M31 -399l198 1398h213l9 -198h6q90 127 175 173t177 46q159 0 247.5 -109.5t88.5 -308.5q0 -143 -43.5 -263t-116 -197t-166 -119.5t-194.5 -42.5q-151 0 -277 73l-57 -411zM584 184q125 0 206.5 106t81.5 283q0 114 -40 179t-121 65t-158 -72.5t-139 -220.5l-33 -252 q88 -88 203 -88z" glyph-name="p" horiz-adv-x="1220" unicode="p"/><glyph d="M680 -399l90 598h-6q-91 -127 -174.5 -173t-177.5 -46q-160 0 -249 110t-89 301q0 150 45 272.5t119.5 199t166 117t189.5 40.5q168 0 260 -125h6l58 104h215l-193 -1357zM510 184q82 0 158 72t137 221l35 252q-84 88 -193 88q-125 0 -212 -103t-87 -286 q0 -112 41.5 -178t120.5 -66z" glyph-name="q" horiz-adv-x="1198" unicode="q"/><glyph d="M88 0l141 999h215l-2 -211h7q50 74 90.5 120.5t77.5 70t67 31.5t70 8q22 0 32 -2l-30 -215q-36 14 -64 14q-76 0 -150 -73.5t-132 -229.5l-70 -512h-252z" glyph-name="r" horiz-adv-x="765" unicode="r"/><glyph d="M383 -20q-76 0 -181 19t-175 50l43 178q190 -71 329 -71q98 0 146.5 34t48.5 93q0 49 -36.5 72.5t-111.5 41.5q-130 30 -177 48q-163 71 -165 227q0 154 122 251t311 97q75 0 168.5 -19.5t158.5 -50.5l-43 -170q-171 64 -293 64q-86 0 -130 -33t-44 -84q0 -47 34 -73 t101 -42q127 -29 166 -43q155 -57 177 -190q4 -24 4 -51q0 -154 -126.5 -251t-326.5 -97z" glyph-name="s" horiz-adv-x="942" unicode="s"/><glyph d="M508 811l-72 -514q-17 -123 109 -123q58 0 108 19l-28 -197q-98 -16 -164 -16q-158 0 -228.5 82.5t-48.5 242.5l72 506h-170l45 188h154l100 357h201l-51 -357h227l-27 -188h-227z" glyph-name="t" horiz-adv-x="759" unicode="t"/><glyph d="M1067 999l-141 -999h-215l-6 199h-9q-47 -68 -94.5 -113.5t-92.5 -67t-82 -30t-79 -8.5q-148 0 -205.5 99t-27.5 312l84 608h256l-88 -628q-27 -187 82 -187q172 0 290 293l72 522h256z" glyph-name="u" horiz-adv-x="1134" unicode="u"/><glyph d="M328 0l-230 999h267l110 -532q21 -124 23 -178h6q37 92 78 178l256 532h266l-510 -999h-266z" glyph-name="v" horiz-adv-x="1060" unicode="v"/><glyph d="M1235 999h266l-405 -999h-265l-55 549q-10 85 -10 121h-8q-4 -14 -10 -32t-16 -44t-17 -45l-209 -549h-266l-125 999h270l39 -622q0 -78 -4 -113h8q6 26 39 115l225 620h236l51 -620q4 -43 4 -115h8q15 67 31 113z" glyph-name="w" horiz-adv-x="1476" unicode="w"/><glyph d="M-43 0l412 508l-260 491h270l158 -344h8l252 344h268l-397 -491l266 -508h-268l-166 352h-6l-267 -352h-270z" glyph-name="x" horiz-adv-x="1032" unicode="x"/><glyph d="M838 999h266l-510 -999l-37 -72q-40 -83 -74 -138t-81.5 -104.5t-107.5 -73.5t-136 -24q-59 0 -127 11l28 200q35 -12 88 -12q24 0 45.5 12t40.5 36t31.5 44.5t28.5 52.5l35 68l-230 999h267l110 -532q15 -75 23 -178h8q18 52 74 178z" glyph-name="y" horiz-adv-x="1060" unicode="y"/><glyph d="M8 0l29 193l457 471l141 145l2 8q-66 -10 -166 -10h-332l31 192h756l-29 -192l-451 -469q-34 -31 -87.5 -86.5t-59.5 -61.5l-2 -8q73 11 166 11h368l-26 -193h-797z" glyph-name="z" horiz-adv-x="954" unicode="z"/><glyph d="M530 -264q-171 0 -267.5 83.5t-76.5 217.5l45 317q12 88 -25 136.5t-110 48.5l23 174q75 0 125.5 48t62.5 134l45 319q20 135 139 218.5t289 83.5l-24 -187q-71 0 -123.5 -42.5t-61.5 -110.5l-49 -349q-16 -130 -141 -200q57 -39 75.5 -89t10.5 -116l-49 -346 q-9 -68 30 -111t109 -43z" glyph-name="braceleft" horiz-adv-x="675" unicode="{"/><glyph d="M78 -205l241 1721h220l-242 -1721h-219z" glyph-name="bar" horiz-adv-x="575" unicode="|"/><glyph d="M-70 -264l27 186q71 0 122 42.5t60 111.5l49 346q16 130 142 205q-56 38 -75 87t-11 113l49 349q9 69 -29.5 111t-109.5 42l26 187q172 0 268 -83.5t76 -218.5l-45 -319q-12 -86 25 -134t110 -48l-22 -174q-75 0 -126 -48.5t-63 -136.5l-45 -317q-19 -134 -138 -217.5 t-290 -83.5z" glyph-name="braceright" horiz-adv-x="675" unicode="}"/><glyph d="M164 541l-68 131q78 69 150.5 98t127.5 24t106 -25t96.5 -42.5t88.5 -34t91.5 5.5t97.5 70l82 -119q-83 -85 -158 -125.5t-131.5 -40t-108 18.5t-97 44t-88 42.5t-91.5 7.5t-98 -55z" glyph-name="asciitilde" horiz-adv-x="985" unicode="~"/><glyph d="M358 676q-58 0 -95.5 42t-37.5 105q0 81 56.5 139t130.5 58q59 0 96 -42t37 -106q0 -81 -55.5 -138.5t-131.5 -57.5zM59 -506l181 1057h211l-115 -1057h-277z" glyph-name="exclamdown" horiz-adv-x="673" unicode="¡"/><glyph d="M625 827q-137 0 -215 -106.5t-78 -276.5q0 -118 53 -194t150 -76q134 0 323 64l-10 -199q-149 -49 -250 -62l-27 -196h-229l29 201q-138 34 -216.5 150t-78.5 288q0 234 121.5 397t318.5 203l29 199h229l-29 -197q100 -14 232 -61l-45 -199q-167 65 -307 65z" glyph-name="cent" horiz-adv-x="972" unicode="¢"/><glyph d="M811 1266q-230 0 -268 -273l-25 -176h498l-27 -205h-500l-57 -403h680l-29 -209h-1110l29 209h168l57 403h-168l27 205h170l25 176q34 244 175.5 363t358.5 119q239 0 455 -109l-45 -205q-215 105 -414 105z" glyph-name="sterling" horiz-adv-x="1253" unicode="£"/><glyph d="M834 35l-146 186q-77 -39 -178 -39q-105 0 -172 43l-191 -190l-129 160l205 172q-22 56 -22 149q0 146 78 268l-154 174l174 156l135 -186q88 45 189 45q97 0 165 -41l185 182l139 -156l-197 -170q21 -62 21 -149q0 -150 -82 -274l152 -172zM535 348q90 0 146 73t56 206 q0 88 -36.5 133t-102.5 45q-90 0 -145.5 -72.5t-55.5 -204.5q0 -88 37 -134t101 -46z" glyph-name="currency" horiz-adv-x="1110" unicode="¤"/><glyph d="M1411 1454l-504 -735h248l-29 -205h-344l-18 -135h344l-31 -205h-340l-24 -174h-264l24 174h-336l29 205h334l18 135h-334l31 205h238l-291 735h291l235 -674h6l422 674h295z" glyph-name="yen" horiz-adv-x="1304" unicode="¥"/><glyph d="M219 799l100 717h220l-103 -717h-217zM78 -205l102 717h219l-102 -717h-219z" glyph-name="brokenbar" horiz-adv-x="575" unicode="¦"/><glyph d="M518 1190q0 -40 26 -69t67.5 -46.5t92 -33t100.5 -36t91.5 -47.5t67.5 -75t26 -113q0 -173 -149 -270q51 -57 51 -152q0 -162 -120.5 -264t-307.5 -102q-80 0 -173 17.5t-163 51.5l43 172q178 -69 317 -69q62 0 101 30.5t39 81.5q0 40 -26 69t-67.5 46.5t-92 33 t-100.5 36t-91.5 47.5t-67.5 75t-26 113q0 173 149 270q-51 57 -51 152q0 162 120 264.5t306 102.5q79 0 172.5 -18t165.5 -52l-43 -172q-181 70 -320 70q-60 0 -98.5 -31t-38.5 -82zM399 768q0 -27 12 -48.5t29.5 -35.5t48.5 -27t56 -20.5t65.5 -20t65.5 -20.5q69 32 69 92 q0 27 -12 48.5t-29.5 35.5t-48 27t-55.5 20.5t-65.5 20t-65.5 20.5q-70 -31 -70 -92z" glyph-name="section" horiz-adv-x="1122" unicode="§"/><glyph d="M365 1128q-44 0 -73.5 32.5t-29.5 80.5q0 61 42.5 104.5t98.5 43.5q44 0 71.5 -32.5t27.5 -80.5q0 -61 -41 -104.5t-96 -43.5zM692 1128q-45 0 -73.5 32.5t-28.5 80.5q0 61 42 104.5t97 43.5q45 0 72.5 -32.5t27.5 -80.5q0 -61 -41 -104.5t-96 -43.5z" glyph-name="dieresis" horiz-adv-x="880" unicode="¨"/><glyph d="M721 -33q-173 0 -311.5 89t-215.5 241.5t-77 337.5q0 169 68.5 326.5t180.5 272t262 183t306 68.5q172 0 310.5 -88.5t215 -240t76.5 -335.5q0 -169 -68.5 -328t-180.5 -273.5t-261 -183.5t-305 -69zM739 111q126 0 247 56.5t211.5 149.5t146 222t55.5 266 q0 228 -138 383t-348 155q-127 0 -247.5 -56t-210.5 -149t-144.5 -222t-54.5 -267q0 -230 136 -384t347 -154zM772 344q-140 0 -223.5 90t-83.5 238q0 194 117.5 316t298.5 122q120 0 260 -51l-39 -178q-123 47 -228 47q-97 0 -154.5 -64.5t-57.5 -167.5q0 -79 40 -125.5 t115 -46.5q108 0 244 47l-12 -176q-159 -51 -277 -51z" glyph-name="copyright" horiz-adv-x="1589" unicode="©"/><glyph d="M451 616q-147 0 -237.5 91t-90.5 262q0 154 62 271.5t162.5 178t221.5 60.5q71 0 121.5 -23t95.5 -74h7l43 72h219l-115 -811h-203l-32 59h-7q-71 -47 -128 -66.5t-119 -19.5zM543 819q82 0 180 68l43 313q-78 78 -162 78q-91 0 -151 -77.5t-60 -201.5q0 -84 40.5 -132 t109.5 -48z" glyph-name="ordfeminine" horiz-adv-x="1040" unicode="ª"/><glyph d="M289 92l-238 406l350 403h258l-372 -403l260 -406h-258zM754 92l-240 406l352 403h256l-370 -403l258 -406h-256z" glyph-name="guillemotleft" horiz-adv-x="1265" unicode="«"/><glyph d="M952 707l-65 -455h-225l34 250h-606l29 205h833z" glyph-name="logicalnot" horiz-adv-x="1052" unicode="¬"/><glyph d="M567 1475q126 0 209.5 -95.5t83.5 -236.5q0 -113 -56.5 -212.5t-148.5 -157.5t-194 -58q-126 0 -208.5 96.5t-82.5 237.5q0 170 121 298t276 128zM471 793q125 0 220 101.5t95 240.5q0 112 -64.5 187t-164.5 75q-125 0 -220 -101.5t-95 -238.5q0 -113 65 -188.5 t164 -75.5zM557 1292q59 0 93 -31t34 -83q0 -84 -80 -125l49 -144h-94l-43 127h-53l-19 -127h-88l54 383h147zM485 1208l-12 -90h76q20 0 35.5 14.5t15.5 34.5q0 19 -11 30t-28 11h-76z" glyph-name="registered" horiz-adv-x="862" unicode="®"/><glyph d="M266 1262l25 192h581l-26 -192h-580z" glyph-name="macron" horiz-adv-x="897" unicode="¯"/><glyph d="M377 881q-100 0 -166 71.5t-66 188.5q0 150 95.5 250t220.5 100q101 0 166 -71.5t65 -188.5q0 -150 -95 -250t-220 -100zM397 1036q62 0 107 48t45 124q0 58 -30.5 92.5t-78.5 34.5q-61 0 -106 -48.5t-45 -123.5q0 -57 30.5 -92t77.5 -35z" glyph-name="degree" horiz-adv-x="645" unicode="°"/><glyph d="M717 770h323l-28 -205h-324l-31 -223h-225l31 223h-326l29 205h323l31 219h228zM57 0l31 205h875l-31 -205h-875z" glyph-name="plusminus" horiz-adv-x="1132" unicode="±"/><glyph d="M80 535l22 153l177 178q76 76 165 161t129 123.5t80 83.5t53 75t13 65q0 117 -154 117q-125 0 -319 -74l6 168q201 74 340 74q176 0 264 -75.5t88 -192.5q0 -38 -7.5 -71.5t-28 -69t-39.5 -63t-61 -70t-72.5 -72t-92.5 -88t-104 -99.5l-152 -151h483l-26 -172h-764z" glyph-name="uni00B2" horiz-adv-x="929" unicode="²"/><glyph d="M424 510q-150 0 -324 74l37 166q176 -68 312 -68q105 0 163 56.5t58 154.5q0 64 -39 100.5t-121 36.5h-94l24 174h86q71 0 117.5 47t46.5 125q0 56 -36.5 85.5t-106.5 29.5q-105 0 -299 -68l10 168q187 68 315 68q160 0 250 -73.5t90 -196.5q0 -90 -41.5 -168.5 t-103.5 -106.5q60 -25 93.5 -83.5t33.5 -135.5q0 -169 -131 -277t-340 -108z" glyph-name="uni00B3" horiz-adv-x="944" unicode="³"/><glyph d="M246 1120l190 334h256l-272 -334h-174z" glyph-name="acute" horiz-adv-x="714" unicode="´"/><glyph d="M844 999h256l-139 -999h-207l-39 92h-4q-80 -66 -141 -93.5t-136 -27.5q-52 0 -102 13l-37 -258h-256l180 1273h256l-53 -376l-31 -226q-16 -111 15.5 -167t119.5 -56q97 0 215 109z" glyph-name="uni00B5" horiz-adv-x="1179" unicode="µ"/><glyph d="M1507 1272l-47 -205h-188l-178 -1272h-230l178 1272h-213l-176 -1272h-229l98 699h-78q-149 0 -236 88.5t-87 232.5q0 199 122.5 328t309.5 129h954z" glyph-name="paragraph" horiz-adv-x="1449" unicode="¶"/><glyph d="M264 334q-58 0 -92.5 41.5t-34.5 105.5q0 82 53.5 140.5t124.5 58.5q57 0 92 -42t35 -106q0 -83 -52.5 -140.5t-125.5 -57.5z" glyph-name="periodcentered" horiz-adv-x="577" unicode="·"/><glyph d="M168 -436q-81 0 -137 35l22 120q64 -28 103 -28q31 0 51 20.5t20 55.5q0 28 -19.5 44.5t-51.5 16.5h-31l-10 12l26 189h168l-16 -107h10q51 0 81 -37.5t30 -97.5q0 -99 -69.5 -161t-176.5 -62z" glyph-name="cedilla" horiz-adv-x="673" unicode="¸"/><glyph d="M225 535l135 931l-188 -49l18 133l246 84h156l-158 -1099h-209z" glyph-name="uni00B9" horiz-adv-x="575" unicode="¹"/><glyph d="M496 616q-175 0 -273 101t-98 270q0 215 134 353.5t355 138.5q177 0 274 -99.5t97 -265.5q0 -218 -134.5 -358t-354.5 -140zM524 813q93 0 151 76.5t58 210.5q0 90 -38.5 139t-106.5 49q-93 0 -151 -77t-58 -210q0 -91 38.5 -139.5t106.5 -48.5z" glyph-name="ordmasculine" horiz-adv-x="956" unicode="º"/><glyph d="M-6 92l373 406l-258 403h258l237 -403l-352 -406h-258zM457 92l374 406l-260 403h260l236 -403l-352 -406h-258z" glyph-name="guillemotright" horiz-adv-x="1265" unicode="»"/><glyph d="M55 0l1090 1454h211l-1090 -1454h-211zM182 641l97 668l-146 -35l17 115l190 65h141l-119 -813h-180zM1153 0l21 147h-379l18 127l473 537h176l-71 -514h112l-35 -150h-100l-20 -147h-195zM1018 297h178l35 262z" glyph-name="onequarter" horiz-adv-x="1576" unicode="¼"/><glyph d="M55 0l1090 1454h211l-1090 -1454h-211zM182 641l97 668l-146 -35l17 115l190 65h141l-119 -813h-180zM885 0l20 135l76 80q67 68 147 141t117.5 107t64.5 71.5t27 69.5q0 42 -26 60t-82 18q-86 0 -223 -45l12 145q162 47 233 47q146 0 216.5 -59t70.5 -147 q0 -45 -15.5 -85t-49.5 -79.5t-67.5 -71t-90.5 -83.5t-98 -95l-60 -64h330l-21 -145h-581z" glyph-name="onehalf" horiz-adv-x="1591" unicode="½"/><glyph d="M315 625q-109 0 -237 47l31 143q137 -45 225 -45q137 0 137 143q0 86 -90 86h-72l21 150h61q37 0 62.5 32t25.5 79q0 63 -82 63q-83 0 -211 -39l13 148q133 43 227 43q121 0 188.5 -54.5t67.5 -148.5q0 -67 -30 -126t-68 -73q41 -20 62.5 -63t21.5 -99q0 -127 -99 -206.5 t-254 -79.5zM285 0l1089 1454h211l-1089 -1454h-211zM1440 0l20 147h-379l19 127l473 537h176l-72 -514h113l-35 -150h-100l-21 -147h-194zM1305 297h178l35 262z" glyph-name="threequarters" horiz-adv-x="1861" unicode="¾"/><glyph d="M586 676q-62 0 -101 41.5t-39 105.5q0 82 57 139.5t134 57.5q61 0 100 -42.5t39 -107.5q0 -81 -56 -137.5t-134 -56.5zM395 -526q-195 0 -304 100.5t-109 257.5q0 75 23.5 139t61.5 110t84 87.5t94.5 79t89.5 75.5t71.5 87t39.5 104l7 37h215l-6 -39q-9 -63 -37.5 -119.5 t-65.5 -99t-79.5 -83t-83.5 -79t-74 -78.5t-53.5 -90.5t-20.5 -107.5q0 -75 48 -119.5t140 -44.5q144 0 328 73l-12 -210q-194 -80 -357 -80z" glyph-name="questiondown" horiz-adv-x="956" unicode="¿"/><glyph d="M913 1565h-174l-170 333h250zM967 0l-66 336h-504l-157 -336h-269l711 1454h252l301 -1454h-268zM492 535h370l-74 370q-24 129 -24 213h-8q-20 -65 -88 -211z" glyph-name="Agrave" horiz-adv-x="1347" unicode="À"/><glyph d="M1159 1901l-272 -334h-174l190 334h256zM967 0l-66 336h-504l-157 -336h-269l711 1454h252l301 -1454h-268zM492 535h370l-74 370q-24 129 -24 213h-8q-20 -65 -88 -211z" glyph-name="Aacute" horiz-adv-x="1347" unicode="Á"/><glyph d="M844 1745l-154 -180h-225l334 333h129l246 -333h-228zM967 0l-66 336h-504l-157 -336h-269l711 1454h252l301 -1454h-268zM492 535h370l-74 370q-24 129 -24 213h-8q-20 -65 -88 -211z" glyph-name="Acircumflex" horiz-adv-x="1347" unicode="Â"/><glyph d="M979 1591q-54 0 -134.5 37t-121.5 37q-73 0 -160 -84l8 193q35 35 81 57t83 22q55 0 138 -36.5t116 -36.5q73 0 160 84l-8 -193q-35 -35 -80 -57.5t-82 -22.5zM967 0l-66 336h-504l-157 -336h-269l711 1454h252l301 -1454h-268zM492 535h370l-74 370q-24 129 -24 213h-8 q-20 -65 -88 -211z" glyph-name="Atilde" horiz-adv-x="1347" unicode="Ã"/><glyph d="M659 1573q-44 0 -73 32.5t-29 80.5q0 61 42.5 104t98.5 43q44 0 71.5 -32.5t27.5 -80.5q0 -61 -41.5 -104t-96.5 -43zM987 1573q-45 0 -73.5 32.5t-28.5 80.5q0 61 42 104t97 43q45 0 72.5 -32.5t27.5 -80.5q0 -61 -41 -104t-96 -43zM967 0l-66 336h-504l-157 -336h-269 l711 1454h252l301 -1454h-268zM492 535h370l-74 370q-24 129 -24 213h-8q-20 -65 -88 -211z" glyph-name="Adieresis" horiz-adv-x="1347" unicode="Ä"/><glyph d="M817 1571q-92 0 -145.5 55t-53.5 148q0 119 75.5 195.5t191.5 76.5q90 0 143 -55t53 -146q0 -120 -75 -197t-189 -77zM866 1923q-42 0 -69 -38t-27 -99q0 -41 17.5 -66.5t46.5 -25.5q43 0 70.5 39t27.5 100q0 41 -17.5 65.5t-48.5 24.5zM967 0l-66 336h-504l-157 -336 h-269l711 1454h252l301 -1454h-268zM492 535h370l-74 370q-24 129 -24 213h-8q-20 -65 -88 -211z" glyph-name="Aring" horiz-adv-x="1347" unicode="Å"/><glyph d="M2058 1245h-678l-57 -397h641l-49 -205h-621l-61 -434h698l-49 -209h-944l43 307h-575l-164 -307h-271l805 1454h1331zM1010 506l104 739h-209l-393 -739h498z" glyph-name="AE" horiz-adv-x="2093" unicode="Æ"/><glyph d="M915 1257q-122 0 -222 -50t-165 -134.5t-100 -194t-35 -231.5q0 -197 98.5 -323.5t276.5 -126.5q89 0 206.5 27.5t233.5 74.5l-8 -211q-227 -91 -438 -104l-10 -62h10q50 0 80 -37t30 -98q0 -99 -69 -161t-176 -62q-82 0 -138 35l23 120q64 -28 102 -28q31 0 51.5 20.5 t20.5 55.5q0 28 -20 44.5t-52 16.5h-30l-11 12l21 146q-224 29 -350.5 197t-126.5 427q0 186 58 346.5t160 274.5t246 179t310 65q248 0 487 -109l-49 -213q-213 104 -414 104z" glyph-name="Ccedilla" horiz-adv-x="1357" unicode="Ç"/><glyph d="M907 1565h-174l-170 333h250zM1212 1245h-663l-57 -397h624l-47 -205h-606l-62 -434h684l-49 -209h-930l205 1454h951z" glyph-name="Egrave" horiz-adv-x="1247" unicode="È"/><glyph d="M1153 1901l-272 -334h-174l190 334h256zM1212 1245h-663l-57 -397h624l-47 -205h-606l-62 -434h684l-49 -209h-930l205 1454h951z" glyph-name="Eacute" horiz-adv-x="1247" unicode="É"/><glyph d="M838 1745l-154 -180h-225l334 333h129l245 -333h-227zM1212 1245h-663l-57 -397h624l-47 -205h-606l-62 -434h684l-49 -209h-930l205 1454h951z" glyph-name="Ecircumflex" horiz-adv-x="1247" unicode="Ê"/><glyph d="M653 1573q-44 0 -73 32.5t-29 80.5q0 61 42.5 104t98.5 43q44 0 71.5 -32.5t27.5 -80.5q0 -61 -41.5 -104t-96.5 -43zM981 1573q-45 0 -73.5 32.5t-28.5 80.5q0 61 42 104t97 43q45 0 72.5 -32.5t27.5 -80.5q0 -61 -41 -104t-96 -43zM1212 1245h-663l-57 -397h624 l-47 -205h-606l-62 -434h684l-49 -209h-930l205 1454h951z" glyph-name="Edieresis" horiz-adv-x="1247" unicode="Ë"/><glyph d="M379 1565l-170 333h250l94 -333h-174zM106 0l205 1454h254l-205 -1454h-254z" glyph-name="Igrave" horiz-adv-x="610" unicode="Ì"/><glyph d="M352 1567l191 334h256l-273 -334h-174zM106 0l205 1454h254l-205 -1454h-254z" glyph-name="Iacute" horiz-adv-x="610" unicode="Í"/><glyph d="M813 1565h-227l-103 180l-153 -180h-226l334 333h129zM106 0l205 1454h254l-205 -1454h-254z" glyph-name="Icircumflex" horiz-adv-x="610" unicode="Î"/><glyph d="M299 1573q-44 0 -73 32.5t-29 80.5q0 61 42.5 104t98.5 43q43 0 70.5 -32.5t27.5 -80.5q0 -61 -41 -104t-96 -43zM627 1573q-45 0 -74 32.5t-29 80.5q0 60 42.5 103.5t97.5 43.5q45 0 72.5 -32.5t27.5 -80.5q0 -61 -41 -104t-96 -43zM106 0l205 1454h254l-205 -1454h-254 z" glyph-name="Idieresis" horiz-adv-x="610" unicode="Ï"/><glyph d="M795 1454q287 0 446.5 -161t159.5 -441q0 -258 -100 -451.5t-283.5 -297t-427.5 -103.5h-490l88 627h-170l29 204h170l88 623h490zM598 209q242 0 389.5 164.5t147.5 451.5q0 200 -105 310t-289 110h-200l-60 -414h348l-28 -204h-348l-60 -418h205z" glyph-name="Eth" horiz-adv-x="1521" unicode="Ð"/><glyph d="M651 1581l8 193q35 35 81 57t83 22q54 0 137.5 -36.5t116.5 -36.5q73 0 160 84l-8 -193q-35 -35 -80 -57.5t-82 -22.5q-54 0 -134.5 37t-121.5 37q-73 0 -160 -84zM106 0l205 1454h254l426 -858q42 -74 53 -121h9q0 36 10 121l121 858h262l-205 -1454h-250l-430 858 q-43 88 -51 121h-8q0 -19 -13 -121l-118 -858h-265z" glyph-name="Ntilde" horiz-adv-x="1490" unicode="Ñ"/><glyph d="M850 1565l-170 333h250l94 -333h-174zM705 -20q-268 0 -428 176t-160 462q0 183 62 343.5t168.5 272.5t253.5 176.5t312 64.5q268 0 428 -173.5t160 -457.5q0 -184 -61.5 -345t-167 -274.5t-253 -179t-314.5 -65.5zM735 197q140 0 253.5 84.5t176 227.5t62.5 314 q0 195 -91 314.5t-253 119.5q-142 0 -255 -82t-175 -223t-62 -313q0 -197 91.5 -319.5t252.5 -122.5z" glyph-name="Ograve" horiz-adv-x="1552" unicode="Ò"/><glyph d="M823 1567l191 334h256l-273 -334h-174zM705 -20q-268 0 -428 176t-160 462q0 183 62 343.5t168.5 272.5t253.5 176.5t312 64.5q268 0 428 -173.5t160 -457.5q0 -184 -61.5 -345t-167 -274.5t-253 -179t-314.5 -65.5zM735 197q140 0 253.5 84.5t176 227.5t62.5 314 q0 195 -91 314.5t-253 119.5q-142 0 -255 -82t-175 -223t-62 -313q0 -197 91.5 -319.5t252.5 -122.5z" glyph-name="Oacute" horiz-adv-x="1552" unicode="Ó"/><glyph d="M1284 1565h-227l-103 180l-153 -180h-226l334 333h129zM705 -20q-268 0 -428 176t-160 462q0 183 62 343.5t168.5 272.5t253.5 176.5t312 64.5q268 0 428 -173.5t160 -457.5q0 -184 -61.5 -345t-167 -274.5t-253 -179t-314.5 -65.5zM735 197q140 0 253.5 84.5t176 227.5 t62.5 314q0 195 -91 314.5t-253 119.5q-142 0 -255 -82t-175 -223t-62 -313q0 -197 91.5 -319.5t252.5 -122.5z" glyph-name="Ocircumflex" horiz-adv-x="1552" unicode="Ô"/><glyph d="M674 1581l8 193q35 35 81 57t83 22q55 0 137.5 -36.5t116.5 -36.5q73 0 160 84l-9 -193q-35 -35 -80 -57.5t-81 -22.5q-54 0 -134.5 37t-121.5 37q-73 0 -160 -84zM705 -20q-268 0 -428 176t-160 462q0 183 62 343.5t168.5 272.5t253.5 176.5t312 64.5q268 0 428 -173.5 t160 -457.5q0 -184 -61.5 -345t-167 -274.5t-253 -179t-314.5 -65.5zM735 197q140 0 253.5 84.5t176 227.5t62.5 314q0 195 -91 314.5t-253 119.5q-142 0 -255 -82t-175 -223t-62 -313q0 -197 91.5 -319.5t252.5 -122.5z" glyph-name="Otilde" horiz-adv-x="1552" unicode="Õ"/><glyph d="M770 1573q-44 0 -73 32.5t-29 80.5q0 61 42.5 104t98.5 43q43 0 70.5 -32.5t27.5 -80.5q0 -61 -41 -104t-96 -43zM1098 1573q-45 0 -74 32.5t-29 80.5q0 60 42.5 103.5t97.5 43.5q45 0 72.5 -32.5t27.5 -80.5q0 -61 -41 -104t-96 -43zM705 -20q-268 0 -428 176t-160 462 q0 183 62 343.5t168.5 272.5t253.5 176.5t312 64.5q268 0 428 -173.5t160 -457.5q0 -184 -61.5 -345t-167 -274.5t-253 -179t-314.5 -65.5zM735 197q140 0 253.5 84.5t176 227.5t62.5 314q0 195 -91 314.5t-253 119.5q-142 0 -255 -82t-175 -223t-62 -313 q0 -197 91.5 -319.5t252.5 -122.5z" glyph-name="Odieresis" horiz-adv-x="1552" unicode="Ö"/><glyph d="M899 842l-260 -252l188 -254l-182 -168l-190 254l-262 -254l-138 168l262 254l-190 252l184 168l191 -252l262 252z" glyph-name="multiply" horiz-adv-x="931" unicode="×"/><glyph d="M1612 1348l-187 -168q76 -146 76 -338q0 -183 -62 -343.5t-168 -274t-254 -179t-315 -65.5q-267 0 -426 170l-159 -144l-113 133l174 156q-67 140 -67 326q0 183 61.5 342.5t168 271.5t254 176t314.5 64q252 0 412 -154l178 160zM385 639q0 -82 14 -145l727 653 q-90 110 -247 110q-142 0 -255.5 -82t-176 -223t-62.5 -313zM1227 823q0 88 -21 162l-733 -659q93 -129 260 -129q141 0 255 84.5t176.5 227.5t62.5 314z" glyph-name="Oslash" horiz-adv-x="1548" unicode="Ø"/><glyph d="M797 1565l-170 333h250l94 -333h-174zM651 -20q-262 0 -391.5 162.5t-91.5 439.5l123 872h264l-129 -907q-23 -166 45.5 -262.5t210.5 -96.5q144 0 239.5 96t118.5 263l129 907h263l-123 -872q-40 -278 -216 -440t-442 -162z" glyph-name="Ugrave" horiz-adv-x="1454" unicode="Ù"/><glyph d="M770 1567l191 334h256l-273 -334h-174zM651 -20q-262 0 -391.5 162.5t-91.5 439.5l123 872h264l-129 -907q-23 -166 45.5 -262.5t210.5 -96.5q144 0 239.5 96t118.5 263l129 907h263l-123 -872q-40 -278 -216 -440t-442 -162z" glyph-name="Uacute" horiz-adv-x="1454" unicode="Ú"/><glyph d="M1231 1565h-227l-103 180l-153 -180h-226l334 333h129zM651 -20q-262 0 -391.5 162.5t-91.5 439.5l123 872h264l-129 -907q-23 -166 45.5 -262.5t210.5 -96.5q144 0 239.5 96t118.5 263l129 907h263l-123 -872q-40 -278 -216 -440t-442 -162z" glyph-name="Ucircumflex" horiz-adv-x="1454" unicode="Û"/><glyph d="M717 1573q-44 0 -73.5 32.5t-29.5 80.5q0 61 43 104t99 43q43 0 70.5 -32.5t27.5 -80.5q0 -61 -41 -104t-96 -43zM1044 1573q-45 0 -73.5 32.5t-28.5 80.5q0 61 42 104t97 43q45 0 73 -32.5t28 -80.5q0 -61 -41.5 -104t-96.5 -43zM651 -20q-262 0 -391.5 162.5 t-91.5 439.5l123 872h264l-129 -907q-23 -166 45.5 -262.5t210.5 -96.5q144 0 239.5 96t118.5 263l129 907h263l-123 -872q-40 -278 -216 -440t-442 -162z" glyph-name="Udieresis" horiz-adv-x="1454" unicode="Ü"/><glyph d="M698 1567l191 334h256l-273 -334h-174zM446 0l72 502l-356 952h272l189 -498q51 -133 63 -186h6q18 35 113 186l319 498h273l-617 -952l-69 -502h-265z" glyph-name="Yacute" horiz-adv-x="1290" unicode="Ý"/><glyph d="M817 1200q201 0 317.5 -109t116.5 -298q0 -243 -158.5 -390t-410.5 -147h-279l-36 -256h-265l205 1454h264l-34 -254h280zM657 494q144 0 229 68t85 204q0 98 -66 148.5t-180 50.5h-223l-66 -471h221z" glyph-name="Thorn" horiz-adv-x="1277" unicode="Þ"/><glyph d="M84 -176l147 1057q21 149 87 266t163.5 190.5t216 111.5t250.5 38q98 0 190 -19t146 -57l-31 -209l-321 -375l-2 -10q123 -41 194.5 -140.5t71.5 -221.5q0 -210 -163.5 -342.5t-452.5 -132.5l47 198q82 0 142 22.5t94 63.5t49.5 90.5t15.5 110.5q0 91 -62.5 140.5 t-183.5 49.5l29 203l350 412q-58 28 -146 28q-69 0 -135 -24t-125.5 -72t-102.5 -131t-58 -190l-146 -1026z" glyph-name="germandbls" horiz-adv-x="1298" unicode="ß"/><glyph d="M539 1110l-170 334h249l95 -334h-174zM403 -20q-160 0 -250 110.5t-90 300.5q0 150 45 272.5t120 199t167 117t191 40.5q166 0 258 -125h6l59 104h215l-141 -999h-217l-4 199h-6q-92 -127 -176.5 -173t-176.5 -46zM502 184q81 0 158 72t137 221l32 252q-84 88 -192 88 q-124 0 -210.5 -103t-86.5 -286q0 -113 40.5 -178.5t121.5 -65.5z" glyph-name="agrave" horiz-adv-x="1210" unicode="à"/><glyph d="M512 1112l190 334h256l-272 -334h-174zM403 -20q-160 0 -250 110.5t-90 300.5q0 150 45 272.5t120 199t167 117t191 40.5q166 0 258 -125h6l59 104h215l-141 -999h-217l-4 199h-6q-92 -127 -176.5 -173t-176.5 -46zM502 184q81 0 158 72t137 221l32 252q-84 88 -192 88 q-124 0 -210.5 -103t-86.5 -286q0 -113 40.5 -178.5t121.5 -65.5z" glyph-name="aacute" horiz-adv-x="1210" unicode="á"/><glyph d="M973 1110h-228l-102 180l-154 -180h-225l334 334h129zM403 -20q-160 0 -250 110.5t-90 300.5q0 150 45 272.5t120 199t167 117t191 40.5q166 0 258 -125h6l59 104h215l-141 -999h-217l-4 199h-6q-92 -127 -176.5 -173t-176.5 -46zM502 184q81 0 158 72t137 221l32 252 q-84 88 -192 88q-124 0 -210.5 -103t-86.5 -286q0 -113 40.5 -178.5t121.5 -65.5z" glyph-name="acircumflex" horiz-adv-x="1210" unicode="â"/><glyph d="M362 1126l9 193q35 35 81 57.5t83 22.5q55 0 137 -37t116 -37q73 0 160 84l-8 -192q-35 -35 -80 -57.5t-82 -22.5q-54 0 -134.5 36.5t-121.5 36.5q-73 0 -160 -84zM403 -20q-160 0 -250 110.5t-90 300.5q0 150 45 272.5t120 199t167 117t191 40.5q166 0 258 -125h6 l59 104h215l-141 -999h-217l-4 199h-6q-92 -127 -176.5 -173t-176.5 -46zM502 184q81 0 158 72t137 221l32 252q-84 88 -192 88q-124 0 -210.5 -103t-86.5 -286q0 -113 40.5 -178.5t121.5 -65.5z" glyph-name="atilde" horiz-adv-x="1210" unicode="ã"/><glyph d="M459 1118q-44 0 -73.5 32.5t-29.5 80.5q0 61 43 104t99 43q44 0 71 -32t27 -80q0 -61 -41 -104.5t-96 -43.5zM786 1118q-45 0 -73.5 32.5t-28.5 80.5q0 61 42 104t97 43q45 0 73 -32t28 -80q0 -61 -41.5 -104.5t-96.5 -43.5zM403 -20q-160 0 -250 110.5t-90 300.5 q0 150 45 272.5t120 199t167 117t191 40.5q166 0 258 -125h6l59 104h215l-141 -999h-217l-4 199h-6q-92 -127 -176.5 -173t-176.5 -46zM502 184q81 0 158 72t137 221l32 252q-84 88 -192 88q-124 0 -210.5 -103t-86.5 -286q0 -113 40.5 -178.5t121.5 -65.5z" glyph-name="adieresis" horiz-adv-x="1210" unicode="ä"/><glyph d="M616 1116q-92 0 -145 55t-53 148q0 120 75 196t191 76q90 0 143.5 -54.5t53.5 -145.5q0 -120 -75.5 -197.5t-189.5 -77.5zM633 1239q43 0 70.5 39t27.5 100q0 42 -17 66t-48 24q-42 0 -69.5 -38t-27.5 -99q0 -41 17.5 -66.5t46.5 -25.5zM403 -20q-160 0 -250 110.5 t-90 300.5q0 150 45 272.5t120 199t167 117t191 40.5q166 0 258 -125h6l59 104h215l-141 -999h-217l-4 199h-6q-92 -127 -176.5 -173t-176.5 -46zM502 184q81 0 158 72t137 221l32 252q-84 88 -192 88q-124 0 -210.5 -103t-86.5 -286q0 -113 40.5 -178.5t121.5 -65.5z" glyph-name="aring" horiz-adv-x="1210" unicode="å"/><glyph d="M412 -20q-164 0 -256.5 111t-92.5 302q0 150 46 272.5t122 198t169.5 116t193.5 40.5q179 0 258 -125h8l62 104h217l-19 -125q118 146 330 146q162 0 263.5 -74t101.5 -207q0 -76 -30 -136t-86 -99t-123.5 -65.5t-156.5 -40.5t-169 -20t-177 -7q9 -199 250 -199 q74 0 177 23t190 63l-9 -188q-193 -90 -374 -90q-90 0 -169 33t-126 87l-15 -100h-217l-10 199h-8q-92 -127 -175.5 -173t-174.5 -46zM1085 526q78 1 137.5 4t128 14.5t113.5 30t77 51.5t36 79q6 68 -36.5 103.5t-131.5 35.5q-123 -1 -211 -90.5t-113 -227.5zM512 184 q173 0 295 293l33 252q-84 88 -191 88q-127 0 -217 -102.5t-90 -286.5q0 -112 43.5 -178t126.5 -66z" glyph-name="ae" horiz-adv-x="1863" unicode="æ"/><glyph d="M647 821q-97 0 -170 -55t-108 -137t-35 -176q0 -118 56.5 -196.5t168.5 -78.5q118 0 301 64l-10 -193q-167 -56 -285 -67l-10 -60h10q51 0 81 -37.5t30 -97.5q0 -99 -69.5 -161t-176.5 -62q-81 0 -137 35l22 120q64 -28 103 -28q31 0 51 20.5t20 55.5q0 28 -19.5 44.5 t-51.5 16.5h-31l-10 12l20 150q-152 30 -236.5 146t-84.5 288q0 261 158.5 428.5t410.5 167.5q153 0 332 -70l-45 -192q-157 63 -285 63z" glyph-name="ccedilla" horiz-adv-x="974" unicode="ç"/><glyph d="M545 1110l-170 334h250l94 -334h-174zM547 172q75 0 175.5 23t186.5 63l-10 -188q-193 -90 -379 -90q-215 0 -330.5 116.5t-115.5 317.5q0 132 44.5 246t121 192.5t181 123t220.5 44.5q173 0 281 -74.5t108 -208.5q0 -65 -22.5 -118.5t-60 -90.5t-93 -65t-114.5 -45 t-132.5 -27.5t-138.5 -14.5t-141 -5q4 -104 57 -151.5t162 -47.5zM633 844q-114 0 -192.5 -86t-98.5 -232q437 4 457 179q5 63 -37.5 101t-128.5 38z" glyph-name="egrave" horiz-adv-x="1079" unicode="è"/><glyph d="M518 1112l191 334h256l-273 -334h-174zM547 172q75 0 175.5 23t186.5 63l-10 -188q-193 -90 -379 -90q-215 0 -330.5 116.5t-115.5 317.5q0 132 44.5 246t121 192.5t181 123t220.5 44.5q173 0 281 -74.5t108 -208.5q0 -65 -22.5 -118.5t-60 -90.5t-93 -65t-114.5 -45 t-132.5 -27.5t-138.5 -14.5t-141 -5q4 -104 57 -151.5t162 -47.5zM633 844q-114 0 -192.5 -86t-98.5 -232q437 4 457 179q5 63 -37.5 101t-128.5 38z" glyph-name="eacute" horiz-adv-x="1079" unicode="é"/><glyph d="M979 1110h-227l-103 180l-153 -180h-226l334 334h129zM547 172q75 0 175.5 23t186.5 63l-10 -188q-193 -90 -379 -90q-215 0 -330.5 116.5t-115.5 317.5q0 132 44.5 246t121 192.5t181 123t220.5 44.5q173 0 281 -74.5t108 -208.5q0 -65 -22.5 -118.5t-60 -90.5t-93 -65 t-114.5 -45t-132.5 -27.5t-138.5 -14.5t-141 -5q4 -104 57 -151.5t162 -47.5zM633 844q-114 0 -192.5 -86t-98.5 -232q437 4 457 179q5 63 -37.5 101t-128.5 38z" glyph-name="ecircumflex" horiz-adv-x="1079" unicode="ê"/><glyph d="M465 1118q-44 0 -73.5 32.5t-29.5 80.5q0 61 43 104t99 43q44 0 71 -32t27 -80q0 -61 -41 -104.5t-96 -43.5zM793 1118q-45 0 -74 32.5t-29 80.5q0 61 42 104t97 43q45 0 73 -32t28 -80q0 -61 -41 -104.5t-96 -43.5zM547 172q75 0 175.5 23t186.5 63l-10 -188 q-193 -90 -379 -90q-215 0 -330.5 116.5t-115.5 317.5q0 132 44.5 246t121 192.5t181 123t220.5 44.5q173 0 281 -74.5t108 -208.5q0 -65 -22.5 -118.5t-60 -90.5t-93 -65t-114.5 -45t-132.5 -27.5t-138.5 -14.5t-141 -5q4 -104 57 -151.5t162 -47.5zM633 844 q-114 0 -192.5 -86t-98.5 -232q437 4 457 179q5 63 -37.5 101t-128.5 38z" glyph-name="edieresis" horiz-adv-x="1079" unicode="ë"/><glyph d="M262 1110l-170 334h250l94 -334h-174zM61 0l142 999h241l-141 -999h-242z" glyph-name="igrave" horiz-adv-x="505" unicode="ì"/><glyph d="M236 1112l190 334h256l-272 -334h-174zM61 0l142 999h241l-141 -999h-242z" glyph-name="iacute" horiz-adv-x="505" unicode="í"/><glyph d="M696 1110h-227l-102 180l-154 -180h-225l334 334h129zM61 0l142 999h241l-141 -999h-242z" glyph-name="icircumflex" horiz-adv-x="505" unicode="î"/><glyph d="M182 1118q-44 0 -73 32.5t-29 80.5q0 61 42.5 104t98.5 43q44 0 71 -32t27 -80q0 -61 -41 -104.5t-96 -43.5zM510 1118q-45 0 -73.5 32.5t-28.5 80.5q0 61 42 104t97 43q45 0 72.5 -32t27.5 -80q0 -61 -41 -104.5t-96 -43.5zM61 0l142 999h241l-141 -999h-242z" glyph-name="idieresis" horiz-adv-x="505" unicode="ï"/><glyph d="M504 -20q-198 0 -317 124t-119 326q0 167 72 302.5t197.5 211.5t278.5 76q138 0 220 -72h8q-14 56 -46.5 116t-66.5 101l-143 -78l-49 111l100 55q-78 70 -115 95l189 143q73 -51 147 -117l125 72l51 -111l-90 -53q72 -93 114 -256.5t42 -325.5q0 -168 -46 -305.5 t-126.5 -227.5t-189.5 -138.5t-236 -48.5zM530 168q90 0 159 55.5t104.5 145t35.5 196.5q0 118 -54 192t-152 74q-134 0 -216.5 -113.5t-82.5 -275.5q0 -124 53 -199t153 -75z" glyph-name="eth" horiz-adv-x="1155" unicode="ð"/><glyph d="M408 1126l8 193q35 35 81 57.5t83 22.5q54 0 137 -37t117 -37q72 0 159 84l-8 -192q-35 -35 -80 -57.5t-82 -22.5q-54 0 -134.5 36.5t-121.5 36.5q-72 0 -159 -84zM88 0l141 999h215l7 -198h8q47 68 94.5 113.5t92.5 67t82 30t79 8.5q151 0 210 -80.5t32 -273.5l-95 -666 h-254l93 664q5 39 5 73t-22.5 57t-68.5 23q-83 0 -158 -72t-131 -221l-76 -524h-254z" glyph-name="ntilde" horiz-adv-x="1144" unicode="ñ"/><glyph d="M571 1110l-170 334h250l94 -334h-174zM492 -20q-196 0 -306 121t-110 319q0 170 69 306.5t197 215t293 78.5q197 0 307.5 -120t110.5 -318q0 -171 -70 -308t-198.5 -215.5t-292.5 -78.5zM518 168q88 0 152.5 59.5t94.5 148.5t30 193q0 117 -46.5 189.5t-138.5 72.5 q-87 0 -152.5 -58t-96.5 -147t-31 -192q0 -118 47 -192t141 -74z" glyph-name="ograve" horiz-adv-x="1128" unicode="ò"/><glyph d="M545 1112l190 334h256l-272 -334h-174zM492 -20q-196 0 -306 121t-110 319q0 170 69 306.5t197 215t293 78.5q197 0 307.5 -120t110.5 -318q0 -171 -70 -308t-198.5 -215.5t-292.5 -78.5zM518 168q88 0 152.5 59.5t94.5 148.5t30 193q0 117 -46.5 189.5t-138.5 72.5 q-87 0 -152.5 -58t-96.5 -147t-31 -192q0 -118 47 -192t141 -74z" glyph-name="oacute" horiz-adv-x="1128" unicode="ó"/><glyph d="M1006 1110h-228l-102 180l-154 -180h-225l334 334h129zM492 -20q-196 0 -306 121t-110 319q0 170 69 306.5t197 215t293 78.5q197 0 307.5 -120t110.5 -318q0 -171 -70 -308t-198.5 -215.5t-292.5 -78.5zM518 168q88 0 152.5 59.5t94.5 148.5t30 193q0 117 -46.5 189.5 t-138.5 72.5q-87 0 -152.5 -58t-96.5 -147t-31 -192q0 -118 47 -192t141 -74z" glyph-name="ocircumflex" horiz-adv-x="1128" unicode="ô"/><glyph d="M395 1126l8 193q35 35 81 57.5t83 22.5q54 0 137 -37t117 -37q73 0 160 84l-8 -192q-35 -35 -80 -57.5t-82 -22.5q-54 0 -134.5 36.5t-121.5 36.5q-73 0 -160 -84zM492 -20q-196 0 -306 121t-110 319q0 170 69 306.5t197 215t293 78.5q197 0 307.5 -120t110.5 -318 q0 -171 -70 -308t-198.5 -215.5t-292.5 -78.5zM518 168q88 0 152.5 59.5t94.5 148.5t30 193q0 117 -46.5 189.5t-138.5 72.5q-87 0 -152.5 -58t-96.5 -147t-31 -192q0 -118 47 -192t141 -74z" glyph-name="otilde" horiz-adv-x="1128" unicode="õ"/><glyph d="M492 1118q-44 0 -73.5 32.5t-29.5 80.5q0 61 42.5 104t98.5 43q44 0 71.5 -32t27.5 -80q0 -61 -41 -104.5t-96 -43.5zM819 1118q-45 0 -73.5 32.5t-28.5 80.5q0 61 42 104t97 43q45 0 72.5 -32t27.5 -80q0 -61 -41 -104.5t-96 -43.5zM492 -20q-196 0 -306 121t-110 319 q0 170 69 306.5t197 215t293 78.5q197 0 307.5 -120t110.5 -318q0 -171 -70 -308t-198.5 -215.5t-292.5 -78.5zM518 168q88 0 152.5 59.5t94.5 148.5t30 193q0 117 -46.5 189.5t-138.5 72.5q-87 0 -152.5 -58t-96.5 -147t-31 -192q0 -118 47 -192t141 -74z" glyph-name="odieresis" horiz-adv-x="1128" unicode="ö"/><glyph d="M596 866q-51 0 -83 35t-32 88q0 66 46 113t108 47q53 0 86 -35t33 -90q0 -65 -47 -111.5t-111 -46.5zM106 487l31 205h871l-31 -205h-871zM479 29q-52 0 -84.5 35.5t-32.5 89.5q0 65 46 111t110 46q52 0 85.5 -35t33.5 -88q0 -65 -47 -112t-111 -47z" glyph-name="divide" horiz-adv-x="1089" unicode="÷"/><glyph d="M1188 934l-170 -154q35 -90 35 -198q0 -171 -70 -308t-198.5 -215.5t-292.5 -78.5q-161 0 -267 83l-139 -126l-106 129l143 129q-47 100 -47 225q0 170 69 306.5t197 215t293 78.5q175 0 289 -100l157 143zM330 434q0 -33 2 -49l416 375q-49 71 -138 71q-87 0 -152.5 -58 t-96.5 -147t-31 -192zM795 569v9l-398 -361q46 -49 121 -49q88 0 152.5 59.5t94.5 148.5t30 193z" glyph-name="oslash" horiz-adv-x="1128" unicode="ø"/><glyph d="M578 1110l-170 334h249l95 -334h-174zM1067 999l-141 -999h-215l-6 199h-9q-47 -68 -94.5 -113.5t-92.5 -67t-82 -30t-79 -8.5q-148 0 -205.5 99t-27.5 312l84 608h256l-88 -628q-27 -187 82 -187q172 0 290 293l72 522h256z" glyph-name="ugrave" horiz-adv-x="1134" unicode="ù"/><glyph d="M551 1112l190 334h256l-272 -334h-174zM1067 999l-141 -999h-215l-6 199h-9q-47 -68 -94.5 -113.5t-92.5 -67t-82 -30t-79 -8.5q-148 0 -205.5 99t-27.5 312l84 608h256l-88 -628q-27 -187 82 -187q172 0 290 293l72 522h256z" glyph-name="uacute" horiz-adv-x="1134" unicode="ú"/><glyph d="M1012 1110h-228l-102 180l-154 -180h-225l334 334h129zM1067 999l-141 -999h-215l-6 199h-9q-47 -68 -94.5 -113.5t-92.5 -67t-82 -30t-79 -8.5q-148 0 -205.5 99t-27.5 312l84 608h256l-88 -628q-27 -187 82 -187q172 0 290 293l72 522h256z" glyph-name="ucircumflex" horiz-adv-x="1134" unicode="û"/><glyph d="M498 1118q-44 0 -73.5 32.5t-29.5 80.5q0 61 43 104t99 43q44 0 71 -32t27 -80q0 -61 -41 -104.5t-96 -43.5zM825 1118q-45 0 -73.5 32.5t-28.5 80.5q0 61 42 104t97 43q45 0 73 -32t28 -80q0 -61 -41.5 -104.5t-96.5 -43.5zM1067 999l-141 -999h-215l-6 199h-9 q-47 -68 -94.5 -113.5t-92.5 -67t-82 -30t-79 -8.5q-148 0 -205.5 99t-27.5 312l84 608h256l-88 -628q-27 -187 82 -187q172 0 290 293l72 522h256z" glyph-name="udieresis" horiz-adv-x="1134" unicode="ü"/><glyph d="M520 1112l191 334h256l-273 -334h-174zM838 999h266l-510 -999l-37 -72q-40 -83 -74 -138t-81.5 -104.5t-107.5 -73.5t-136 -24q-59 0 -127 11l28 200q35 -12 88 -12q24 0 45.5 12t40.5 36t31.5 44.5t28.5 52.5l35 68l-230 999h267l110 -532q15 -75 23 -178h8 q18 52 74 178z" glyph-name="yacute" horiz-adv-x="1060" unicode="ý"/><glyph d="M31 -399l264 1812l256 41l-100 -653h6q90 127 175 173t177 46q159 0 247.5 -109.5t88.5 -308.5q0 -143 -43.5 -263t-116 -197t-166 -119.5t-194.5 -42.5q-143 0 -279 51l-55 -389zM584 184q125 0 206.5 106t81.5 283q0 114 -40 179t-121 65t-158 -72.5t-139 -220.5 l-33 -252q88 -88 203 -88z" glyph-name="thorn" horiz-adv-x="1220" unicode="þ"/><glyph d="M467 1118q-44 0 -73 32.5t-29 80.5q0 61 42.5 104t98.5 43q44 0 71 -32t27 -80q0 -61 -41 -104.5t-96 -43.5zM795 1118q-45 0 -74 32.5t-29 80.5q0 61 42 104t97 43q45 0 73 -32t28 -80q0 -61 -41 -104.5t-96 -43.5zM838 999h266l-510 -999l-37 -72q-40 -83 -74 -138 t-81.5 -104.5t-107.5 -73.5t-136 -24q-59 0 -127 11l28 200q35 -12 88 -12q24 0 45.5 12t40.5 36t31.5 44.5t28.5 52.5l35 68l-230 999h267l110 -532q15 -75 23 -178h8q18 52 74 178z" glyph-name="ydieresis" horiz-adv-x="1060" unicode="ÿ"/><glyph d="M1153 1862l-27 -193h-579l24 193h582zM967 0l-66 336h-504l-157 -336h-269l711 1454h252l301 -1454h-268zM492 535h370l-74 370q-24 129 -24 213h-8q-20 -65 -88 -211z" glyph-name="Amacron" horiz-adv-x="1347" unicode="Ā"/><glyph d="M346 1214l25 193h581l-26 -193h-580zM403 -20q-160 0 -250 110.5t-90 300.5q0 150 45 272.5t120 199t167 117t191 40.5q166 0 258 -125h6l59 104h215l-141 -999h-217l-4 199h-6q-92 -127 -176.5 -173t-176.5 -46zM502 184q81 0 158 72t137 221l32 252q-84 88 -192 88 q-124 0 -210.5 -103t-86.5 -286q0 -113 40.5 -178.5t121.5 -65.5z" glyph-name="amacron" horiz-adv-x="1210" unicode="ā"/><glyph d="M815 1552q-143 0 -218.5 94.5t-55.5 249.5h190q-15 -95 14.5 -147.5t90.5 -52.5q62 0 105 52t58 148h191q-22 -155 -124.5 -249.5t-250.5 -94.5zM967 0l-66 336h-504l-157 -336h-269l711 1454h252l301 -1454h-268zM492 535h370l-74 370q-24 129 -24 213h-8 q-20 -65 -88 -211z" glyph-name="Abreve" horiz-adv-x="1347" unicode="Ă"/><glyph d="M614 1098q-143 0 -218.5 94.5t-55.5 249.5h190q-15 -95 14.5 -148t90.5 -53q62 0 105.5 52.5t58.5 148.5h190q-22 -155 -124.5 -249.5t-250.5 -94.5zM403 -20q-160 0 -250 110.5t-90 300.5q0 150 45 272.5t120 199t167 117t191 40.5q166 0 258 -125h6l59 104h215 l-141 -999h-217l-4 199h-6q-92 -127 -176.5 -173t-176.5 -46zM502 184q81 0 158 72t137 221l32 252q-84 88 -192 88q-124 0 -210.5 -103t-86.5 -286q0 -113 40.5 -178.5t121.5 -65.5z" glyph-name="abreve" horiz-adv-x="1210" unicode="ă"/><glyph d="M1006 -117q0 -35 19.5 -56.5t57.5 -21.5q30 0 45 5l-32 -172q-24 -9 -64 -9q-75 0 -127.5 49.5t-52.5 137.5q0 137 111 209l-62 311h-504l-157 -336h-269l711 1454h252l301 -1454h-162q-67 -31 -67 -117zM492 535h370l-74 370q-24 129 -24 213h-8q-20 -65 -88 -211z" glyph-name="Aogonek" horiz-adv-x="1347" unicode="Ą"/><glyph d="M926 0q-68 -32 -68 -117q0 -35 20 -56.5t58 -21.5q30 0 45 5l-33 -172q-24 -9 -63 -9q-75 0 -127.5 49.5t-52.5 137.5q0 114 77 184h-16l-4 199h-6q-92 -127 -176.5 -173t-176.5 -46q-160 0 -250 110.5t-90 300.5q0 150 45 272.5t120 199t167 117t191 40.5 q166 0 258 -125h6l59 104h215l-141 -999h-57zM502 184q81 0 158 72t137 221l32 252q-84 88 -192 88q-124 0 -210.5 -103t-86.5 -286q0 -113 40.5 -178.5t121.5 -65.5z" glyph-name="aogonek" horiz-adv-x="1210" unicode="ą"/><glyph d="M797 1567l190 334h256l-272 -334h-174zM682 -20q-262 0 -413.5 172.5t-151.5 457.5q0 186 58 346.5t160 274.5t246 179t310 65q248 0 487 -109l-49 -213q-213 104 -414 104q-122 0 -222 -50t-165 -134.5t-100 -194t-35 -231.5q0 -197 98.5 -323.5t276.5 -126.5 q89 0 206.5 27.5t233.5 74.5l-8 -211q-266 -108 -518 -108z" glyph-name="Cacute" horiz-adv-x="1357" unicode="Ć"/><glyph d="M539 1112l190 334h256l-272 -334h-174zM500 -20q-198 0 -311 122t-113 322q0 261 158.5 428.5t410.5 167.5q153 0 332 -70l-45 -192q-157 63 -285 63q-97 0 -170 -55t-108 -137t-35 -176q0 -118 56.5 -196.5t168.5 -78.5q118 0 301 64l-10 -193q-204 -69 -350 -69z" glyph-name="cacute" horiz-adv-x="974" unicode="ć"/><glyph d="M901 1575q-49 0 -81 37t-32 94q0 73 48 125.5t110 52.5q52 0 82.5 -36.5t30.5 -94.5q0 -73 -47 -125.5t-111 -52.5zM682 -20q-262 0 -413.5 172.5t-151.5 457.5q0 186 58 346.5t160 274.5t246 179t310 65q248 0 487 -109l-49 -213q-213 104 -414 104q-122 0 -222 -50 t-165 -134.5t-100 -194t-35 -231.5q0 -197 98.5 -323.5t276.5 -126.5q89 0 206.5 27.5t233.5 74.5l-8 -211q-266 -108 -518 -108z" glyph-name="Cdotaccent" horiz-adv-x="1357" unicode="Ċ"/><glyph d="M643 1120q-49 0 -81 37t-32 94q0 73 48 126t110 53q52 0 82.5 -37t30.5 -95q0 -73 -47 -125.5t-111 -52.5zM500 -20q-198 0 -311 122t-113 322q0 261 158.5 428.5t410.5 167.5q153 0 332 -70l-45 -192q-157 63 -285 63q-97 0 -170 -55t-108 -137t-35 -176 q0 -118 56.5 -196.5t168.5 -78.5q118 0 301 64l-10 -193q-204 -69 -350 -69z" glyph-name="cdotaccent" horiz-adv-x="974" unicode="ċ"/><glyph d="M1298 1901l-335 -334h-132l-241 334h227l103 -183l151 183h227zM682 -20q-262 0 -413.5 172.5t-151.5 457.5q0 186 58 346.5t160 274.5t246 179t310 65q248 0 487 -109l-49 -213q-213 104 -414 104q-122 0 -222 -50t-165 -134.5t-100 -194t-35 -231.5q0 -197 98.5 -323.5 t276.5 -126.5q89 0 206.5 27.5t233.5 74.5l-8 -211q-266 -108 -518 -108z" glyph-name="Ccaron" horiz-adv-x="1357" unicode="Č"/><glyph d="M1040 1446l-335 -334h-132l-241 334h227l103 -182l151 182h227zM500 -20q-198 0 -311 122t-113 322q0 261 158.5 428.5t410.5 167.5q153 0 332 -70l-45 -192q-157 63 -285 63q-97 0 -170 -55t-108 -137t-35 -176q0 -118 56.5 -196.5t168.5 -78.5q118 0 301 64l-10 -193 q-204 -69 -350 -69z" glyph-name="ccaron" horiz-adv-x="974" unicode="č"/><glyph d="M877 1567h-132l-241 334h227l103 -183l151 183h227zM799 1454q286 0 445 -160.5t159 -441.5q0 -391 -219.5 -621.5t-589.5 -230.5h-488l205 1454h488zM602 209q241 0 387 164.5t146 453.5q0 199 -102.5 308.5t-284.5 109.5h-201l-148 -1036h203z" glyph-name="Dcaron" horiz-adv-x="1454" unicode="Ď"/><glyph d="M414 -20q-160 0 -250 110.5t-90 300.5q0 121 29.5 224.5t80.5 177t118 125.5t141.5 77t152.5 25q168 0 260 -125h6l76 518l260 41l-205 -1454h-213l-8 199h-6q-91 -127 -174.5 -173t-177.5 -46zM1282 854l178 600h269l-252 -600h-195zM512 184q82 0 158.5 72t138.5 221 l33 252q-84 88 -195 88q-125 0 -211 -102.5t-86 -286.5q0 -113 40.5 -178.5t121.5 -65.5z" glyph-name="dcaron" horiz-adv-x="1595" unicode="ď"/><glyph d="M795 1454q287 0 446.5 -161t159.5 -441q0 -258 -100 -451.5t-283.5 -297t-427.5 -103.5h-490l88 627h-170l29 204h170l88 623h490zM598 209q242 0 389.5 164.5t147.5 451.5q0 200 -105 310t-289 110h-200l-60 -414h348l-28 -204h-348l-60 -418h205z" glyph-name="Dcroat" horiz-adv-x="1521" unicode="Đ"/><glyph d="M1323 1303l-25 -164h-145l-160 -1139h-213l-8 199h-6q-91 -127 -174.5 -173t-177.5 -46q-160 0 -250 110.5t-90 300.5q0 121 29.5 224.5t80.5 177t118 125.5t141.5 77t152.5 25q168 0 260 -125h6l35 244h-295l25 164h295l16 110l260 41l-20 -151h145zM809 477l33 252 q-84 88 -195 88q-125 0 -211 -102.5t-86 -286.5q0 -113 40.5 -178.5t121.5 -65.5q82 0 158.5 72t138.5 221z" glyph-name="dcroat" horiz-adv-x="1208" unicode="đ"/><glyph d="M1147 1862l-27 -193h-579l24 193h582zM1212 1245h-663l-57 -397h624l-47 -205h-606l-62 -434h684l-49 -209h-930l205 1454h951z" glyph-name="Emacron" horiz-adv-x="1247" unicode="Ē"/><glyph d="M352 1214l25 193h581l-26 -193h-580zM547 172q75 0 175.5 23t186.5 63l-10 -188q-193 -90 -379 -90q-215 0 -330.5 116.5t-115.5 317.5q0 132 44.5 246t121 192.5t181 123t220.5 44.5q173 0 281 -74.5t108 -208.5q0 -65 -22.5 -118.5t-60 -90.5t-93 -65t-114.5 -45 t-132.5 -27.5t-138.5 -14.5t-141 -5q4 -104 57 -151.5t162 -47.5zM633 844q-114 0 -192.5 -86t-98.5 -232q437 4 457 179q5 63 -37.5 101t-128.5 38z" glyph-name="emacron" horiz-adv-x="1079" unicode="ē"/><glyph d="M811 1575q-49 0 -81 37t-32 94q0 73 48 125.5t110 52.5q52 0 82.5 -36.5t30.5 -94.5q0 -73 -47 -125.5t-111 -52.5zM1212 1245h-663l-57 -397h624l-47 -205h-606l-62 -434h684l-49 -209h-930l205 1454h951z" glyph-name="Edotaccent" horiz-adv-x="1247" unicode="Ė"/><glyph d="M623 1120q-49 0 -81 37t-32 94q0 73 48 126t110 53q52 0 82 -37t30 -95q0 -73 -47 -125.5t-110 -52.5zM547 172q75 0 175.5 23t186.5 63l-10 -188q-193 -90 -379 -90q-215 0 -330.5 116.5t-115.5 317.5q0 132 44.5 246t121 192.5t181 123t220.5 44.5q173 0 281 -74.5 t108 -208.5q0 -65 -22.5 -118.5t-60 -90.5t-93 -65t-114.5 -45t-132.5 -27.5t-138.5 -14.5t-141 -5q4 -104 57 -151.5t162 -47.5zM633 844q-114 0 -192.5 -86t-98.5 -232q437 4 457 179q5 63 -37.5 101t-128.5 38z" glyph-name="edotaccent" horiz-adv-x="1079" unicode="ė"/><glyph d="M1212 1245h-663l-57 -397h624l-47 -205h-606l-62 -434h684l-49 -209h-356q-68 -32 -68 -117q0 -35 20 -56.5t58 -21.5q30 0 45 5l-33 -172q-24 -9 -63 -9q-75 0 -127.5 49.5t-52.5 137.5q0 113 78 184h-431l205 1454h951z" glyph-name="Eogonek" horiz-adv-x="1247" unicode="Ę"/><glyph d="M1030 737q0 -65 -22.5 -118.5t-60 -90.5t-93 -65t-114.5 -45t-132.5 -27.5t-138.5 -14.5t-141 -5q4 -104 57 -151.5t162 -47.5q75 0 175.5 23t186.5 63l-10 -188q-193 -90 -379 -90h-4q-37 -34 -37 -97q0 -35 20 -56.5t58 -21.5q30 0 45 5l-33 -172q-24 -9 -63 -9 q-75 0 -127.5 49.5t-52.5 137.5q0 107 69 176q-156 32 -238.5 143t-82.5 279q0 132 44.5 246t121 192.5t181 123t220.5 44.5q173 0 281 -74.5t108 -208.5zM799 705q5 63 -37.5 101t-128.5 38q-114 0 -192.5 -86t-98.5 -232q437 4 457 179z" glyph-name="eogonek" horiz-adv-x="1079" unicode="ę"/><glyph d="M872 1567h-131l-241 334h227l102 -183l152 183h227zM1212 1245h-663l-57 -397h624l-47 -205h-606l-62 -434h684l-49 -209h-930l205 1454h951z" glyph-name="Ecaron" horiz-adv-x="1247" unicode="Ě"/><glyph d="M1020 1446l-336 -334h-131l-242 334h228l102 -182l152 182h227zM547 172q75 0 175.5 23t186.5 63l-10 -188q-193 -90 -379 -90q-215 0 -330.5 116.5t-115.5 317.5q0 132 44.5 246t121 192.5t181 123t220.5 44.5q173 0 281 -74.5t108 -208.5q0 -65 -22.5 -118.5t-60 -90.5 t-93 -65t-114.5 -45t-132.5 -27.5t-138.5 -14.5t-141 -5q4 -104 57 -151.5t162 -47.5zM633 844q-114 0 -192.5 -86t-98.5 -232q437 4 457 179q5 63 -37.5 101t-128.5 38z" glyph-name="ecaron" horiz-adv-x="1079" unicode="ě"/><glyph d="M897 1552q-143 0 -218.5 94.5t-55.5 249.5h190q-15 -95 14.5 -147.5t90.5 -52.5q62 0 105 52t58 148h191q-22 -155 -124.5 -249.5t-250.5 -94.5zM653 -20q-249 0 -393.5 170.5t-144.5 455.5q0 189 59.5 350.5t163.5 275.5t252 178.5t319 64.5q253 0 492 -109l-51 -213 q-103 50 -220 77t-217 27q-104 0 -190.5 -33t-147 -91t-102.5 -137.5t-62 -172t-20 -194.5q0 -196 87.5 -314t256.5 -118q75 0 162.5 30.5t155.5 87.5l39 273h-371l10 205h639l-110 -793h-201l-29 111h-8q-98 -63 -185.5 -97t-183.5 -34z" glyph-name="Gbreve" horiz-adv-x="1429" unicode="Ğ"/><glyph d="M655 1098q-143 0 -218.5 94.5t-55.5 249.5h190q-15 -95 14.5 -148t90.5 -53q62 0 105.5 52.5t58.5 148.5h190q-22 -155 -124.5 -249.5t-250.5 -94.5zM424 -471q-110 0 -222 26t-196 64l45 199q220 -90 383 -90q133 0 205.5 62t95.5 194l35 215h-8q-90 -125 -173 -172 t-175 -47q-160 0 -250 111t-90 302q0 120 29.5 223.5t80.5 176.5t118 125t141.5 77t152.5 25q166 0 258 -125h8l58 104h215l-140 -993q-33 -231 -187.5 -354t-383.5 -123zM512 184q82 0 158 72t137 221l35 252q-84 88 -195 88q-125 0 -211 -102.5t-86 -286.5 q0 -113 40.5 -178.5t121.5 -65.5z" glyph-name="gbreve" horiz-adv-x="1202" unicode="ğ"/><glyph d="M899 1575q-49 0 -81 37t-32 94q0 73 48 125.5t110 52.5q52 0 82.5 -36.5t30.5 -94.5q0 -73 -47 -125.5t-111 -52.5zM653 -20q-249 0 -393.5 170.5t-144.5 455.5q0 189 59.5 350.5t163.5 275.5t252 178.5t319 64.5q253 0 492 -109l-51 -213q-103 50 -220 77t-217 27 q-104 0 -190.5 -33t-147 -91t-102.5 -137.5t-62 -172t-20 -194.5q0 -196 87.5 -314t256.5 -118q75 0 162.5 30.5t155.5 87.5l39 273h-371l10 205h639l-110 -793h-201l-29 111h-8q-98 -63 -185.5 -97t-183.5 -34z" glyph-name="Gdotaccent" horiz-adv-x="1429" unicode="Ġ"/><glyph d="M657 1120q-49 0 -80.5 37t-31.5 94q0 73 47.5 126t109.5 53q52 0 82.5 -37t30.5 -95q0 -73 -47 -125.5t-111 -52.5zM424 -471q-110 0 -222 26t-196 64l45 199q220 -90 383 -90q133 0 205.5 62t95.5 194l35 215h-8q-90 -125 -173 -172t-175 -47q-160 0 -250 111t-90 302 q0 120 29.5 223.5t80.5 176.5t118 125t141.5 77t152.5 25q166 0 258 -125h8l58 104h215l-140 -993q-33 -231 -187.5 -354t-383.5 -123zM512 184q82 0 158 72t137 221l35 252q-84 88 -195 88q-125 0 -211 -102.5t-86 -286.5q0 -113 40.5 -178.5t121.5 -65.5z" glyph-name="gdotaccent" horiz-adv-x="1202" unicode="ġ"/><glyph d="M653 -20q-249 0 -393.5 170.5t-144.5 455.5q0 189 59.5 350.5t163.5 275.5t252 178.5t319 64.5q253 0 492 -109l-51 -213q-103 50 -220 77t-217 27q-104 0 -190.5 -33t-147 -91t-102.5 -137.5t-62 -172t-20 -194.5q0 -196 87.5 -314t256.5 -118q75 0 162.5 30.5 t155.5 87.5l39 273h-371l10 205h639l-110 -793h-201l-29 111h-8q-98 -63 -185.5 -97t-183.5 -34zM406 -592l149 449h246l-219 -449h-176z" glyph-name="Gcommaaccent" horiz-adv-x="1429" unicode="Ģ"/><glyph d="M424 -471q-110 0 -222 26t-196 64l45 199q220 -90 383 -90q133 0 205.5 62t95.5 194l35 215h-8q-90 -125 -173 -172t-175 -47q-160 0 -250 111t-90 302q0 120 29.5 223.5t80.5 176.5t118 125t141.5 77t152.5 25q166 0 258 -125h8l58 104h215l-140 -993 q-33 -231 -187.5 -354t-383.5 -123zM512 184q82 0 158 72t137 221l35 252q-84 88 -195 88q-125 0 -211 -102.5t-86 -286.5q0 -113 40.5 -178.5t121.5 -65.5zM154 -1028l149 448h246l-219 -448h-176z" glyph-name="gcommaaccent" horiz-adv-x="1202" unicode="ģ"/><glyph d="M1524 1280l-31 -205h-129l-152 -1075h-264l92 647h-575l-92 -647h-267l152 1075h-137l31 205h135l24 174h267l-25 -174h575l25 174h264l-24 -174h131zM1067 850l33 225h-576l-32 -225h575z" glyph-name="Hbar" horiz-adv-x="1460" unicode="Ħ"/><glyph d="M797 1020q152 0 211 -80.5t32 -273.5l-94 -666h-254l92 664q4 39 3 73t-23 57t-66 23q-152 0 -290 -293l-74 -524h-256l160 1139h-148l25 164h145l16 110l263 41l-23 -151h285l-23 -164h-286l-52 -338h9q91 128 175.5 173.5t172.5 45.5z" glyph-name="hbar" horiz-adv-x="1136" unicode="ħ"/><glyph d="M186 1669l25 193h582l-27 -193h-580zM106 0l205 1454h254l-205 -1454h-254z" glyph-name="Imacron" horiz-adv-x="610" unicode="Ī"/><glyph d="M70 1214l24 193h582l-27 -193h-579zM61 0l142 999h241l-141 -999h-242z" glyph-name="imacron" horiz-adv-x="505" unicode="ī"/><glyph d="M254 0q-68 -32 -68 -117q0 -35 20 -56.5t58 -21.5q30 0 45 5l-33 -172q-24 -9 -63 -9q-75 0 -127.5 49.5t-52.5 137.5q0 113 78 184h-5l205 1454h254l-205 -1454h-106z" glyph-name="Iogonek" horiz-adv-x="610" unicode="Į"/><glyph d="M340 1120q-49 0 -81 37t-32 94q0 73 48 126t110 53q52 0 82.5 -37t30.5 -95q0 -73 -47 -125.5t-111 -52.5zM254 0q-68 -32 -68 -117q0 -35 20 -56.5t58 -21.5q30 0 45 5l-33 -172q-24 -9 -63 -9q-75 0 -127.5 49.5t-52.5 137.5q0 113 78 184h-50l142 999h241l-141 -999 h-49z" glyph-name="iogonek" horiz-adv-x="505" unicode="į"/><glyph d="M457 1575q-49 0 -81 37t-32 94q0 73 48 125.5t110 52.5q52 0 82 -36.5t30 -94.5q0 -73 -47 -125.5t-110 -52.5zM106 0l205 1454h254l-205 -1454h-254z" glyph-name="Idotaccent" horiz-adv-x="610" unicode="İ"/><glyph d="M61 0l142 999h241l-141 -999h-242z" glyph-name="dotlessi" horiz-adv-x="505" unicode="ı"/><glyph d="M106 0l205 1454h264l-83 -596l538 596h297l-547 -598l373 -856h-283l-290 668l-138 -154l-71 -514h-265zM317 -592l150 449h246l-219 -449h-177z" glyph-name="Kcommaaccent" horiz-adv-x="1255" unicode="Ķ"/><glyph d="M717 0l-168 444l-170 -168l-37 -276h-256l199 1413l262 41l-123 -868l397 413h293l-383 -378l266 -621h-280zM211 -592l149 449h246l-219 -449h-176z" glyph-name="kcommaaccent" horiz-adv-x="1095" unicode="ķ"/><glyph d="M799 1901l-273 -334h-174l191 334h256zM397 209h570l-49 -209h-812l205 1454h262z" glyph-name="Lacute" horiz-adv-x="1060" unicode="Ĺ"/><glyph d="M326 1567l190 334h256l-272 -334h-174zM346 -20q-260 0 -213 344l152 1089l250 41l-164 -1163q-9 -65 13.5 -92t55.5 -27q42 0 80 12l-26 -190q-57 -14 -148 -14z" glyph-name="lacute" horiz-adv-x="645" unicode="ĺ"/><glyph d="M397 209h570l-49 -209h-812l205 1454h262zM283 -592l149 449h246l-219 -449h-176z" glyph-name="Lcommaaccent" horiz-adv-x="1060" unicode="Ļ"/><glyph d="M346 -20q-260 0 -213 344l152 1089l250 41l-164 -1163q-9 -65 13.5 -92t55.5 -27q42 0 80 12l-26 -190q-57 -14 -148 -14zM41 -592l149 449h246l-219 -449h-176z" glyph-name="lcommaaccent" horiz-adv-x="645" unicode="ļ"/><glyph d="M573 1454l-176 -1245h570l-49 -209h-812l205 1454h262zM977 1454h250l-244 -600h-168z" glyph-name="Lcaron" horiz-adv-x="1060" unicode="Ľ"/><glyph d="M358 -20q-275 0 -225 344l152 1089l256 41l-164 -1163q-8 -66 15.5 -92.5t58.5 -26.5q43 0 84 12l-27 -190q-60 -14 -150 -14zM600 854l176 600h262l-227 -600h-211z" glyph-name="lcaron" horiz-adv-x="905" unicode="ľ"/><glyph d="M389 209h574l-50 -209h-815l86 606l-176 -51l27 195l176 51l92 653h262l-82 -575l260 75l-28 -194l-258 -74z" glyph-name="Lslash" horiz-adv-x="1083" unicode="Ł"/><glyph d="M428 721l-61 -430q-8 -66 15 -92.5t58 -26.5q42 0 82 12l-26 -190q-60 -14 -148 -14q-273 0 -223 344l43 303l-148 -54l29 195l146 53l84 592l251 41l-75 -539l155 58l-28 -195z" glyph-name="lslash" horiz-adv-x="651" unicode="ł"/><glyph d="M801 1567l190 334h256l-272 -334h-174zM106 0l205 1454h254l426 -858q42 -74 53 -121h9q0 36 10 121l121 858h262l-205 -1454h-250l-430 858q-43 88 -51 121h-8q0 -19 -13 -121l-118 -858h-265z" glyph-name="Nacute" horiz-adv-x="1490" unicode="Ń"/><glyph d="M557 1112l191 334h256l-273 -334h-174zM88 0l141 999h215l7 -198h8q47 68 94.5 113.5t92.5 67t82 30t79 8.5q151 0 210 -80.5t32 -273.5l-95 -666h-254l93 664q5 39 5 73t-22.5 57t-68.5 23q-83 0 -158 -72t-131 -221l-76 -524h-254z" glyph-name="nacute" horiz-adv-x="1144" unicode="ń"/><glyph d="M106 0l205 1454h254l426 -858q42 -74 53 -121h9q0 36 10 121l121 858h262l-205 -1454h-250l-430 858q-43 88 -51 121h-8q0 -19 -13 -121l-118 -858h-265zM362 -592l150 449h246l-219 -449h-177z" glyph-name="Ncommaaccent" horiz-adv-x="1490" unicode="Ņ"/><glyph d="M88 0l141 999h215l7 -198h8q47 68 94.5 113.5t92.5 67t82 30t79 8.5q151 0 210 -80.5t32 -273.5l-95 -666h-254l93 664q5 39 5 73t-22.5 57t-68.5 23q-83 0 -158 -72t-131 -221l-76 -524h-254zM242 -592l149 449h246l-219 -449h-176z" glyph-name="ncommaaccent" horiz-adv-x="1144" unicode="ņ"/><glyph d="M1303 1901l-336 -334h-131l-242 334h227l103 -183l151 183h228zM106 0l205 1454h254l426 -858q42 -74 53 -121h9q0 36 10 121l121 858h262l-205 -1454h-250l-430 858q-43 88 -51 121h-8q0 -19 -13 -121l-118 -858h-265z" glyph-name="Ncaron" horiz-adv-x="1490" unicode="Ň"/><glyph d="M1059 1446l-336 -334h-131l-242 334h228l102 -182l151 182h228zM88 0l141 999h215l7 -198h8q47 68 94.5 113.5t92.5 67t82 30t79 8.5q151 0 210 -80.5t32 -273.5l-95 -666h-254l93 664q5 39 5 73t-22.5 57t-68.5 23q-83 0 -158 -72t-131 -221l-76 -524h-254z" glyph-name="ncaron" horiz-adv-x="1144" unicode="ň"/><glyph d="M918 -414q-69 0 -136 13l25 180q36 -10 76 -10q39 0 61 25.5t29 82.5l18 123l-430 858q-43 88 -51 121h-8q0 -19 -13 -121l-118 -858h-265l205 1454h254l426 -858q42 -74 53 -121h9q0 36 10 121l121 858h262l-217 -1546q-24 -168 -95 -245t-216 -77z" glyph-name="Eng" horiz-adv-x="1488" unicode="Ŋ"/><glyph d="M807 1020q151 0 210 -80.5t32 -273.5l-97 -686q-22 -163 -109 -248.5t-233 -85.5q-76 0 -133 14l27 188q40 -12 84 -12q91 0 104 113l101 715q5 39 5 73t-22.5 57t-68.5 23q-83 0 -158 -72t-131 -221l-76 -524h-254l141 999h215l7 -198h8q47 68 94.5 113.5t92.5 67t82 30 t79 8.5z" glyph-name="eng" horiz-adv-x="1144" unicode="ŋ"/><glyph d="M657 1669l25 193h582l-27 -193h-580zM705 -20q-268 0 -428 176t-160 462q0 183 62 343.5t168.5 272.5t253.5 176.5t312 64.5q268 0 428 -173.5t160 -457.5q0 -184 -61.5 -345t-167 -274.5t-253 -179t-314.5 -65.5zM735 197q140 0 253.5 84.5t176 227.5t62.5 314 q0 195 -91 314.5t-253 119.5q-142 0 -255 -82t-175 -223t-62 -313q0 -197 91.5 -319.5t252.5 -122.5z" glyph-name="Omacron" horiz-adv-x="1552" unicode="Ō"/><glyph d="M379 1214l24 193h582l-27 -193h-579zM492 -20q-196 0 -306 121t-110 319q0 170 69 306.5t197 215t293 78.5q197 0 307.5 -120t110.5 -318q0 -171 -70 -308t-198.5 -215.5t-292.5 -78.5zM518 168q88 0 152.5 59.5t94.5 148.5t30 193q0 117 -46.5 189.5t-138.5 72.5 q-87 0 -152.5 -58t-96.5 -147t-31 -192q0 -118 47 -192t141 -74z" glyph-name="omacron" horiz-adv-x="1128" unicode="ō"/><glyph d="M752 1565l194 333h389l-276 -333h-307zM913 1475q268 0 428 -173.5t160 -457.5q0 -184 -61.5 -345t-167 -274.5t-253 -179t-314.5 -65.5q-268 0 -428 176t-160 462q0 183 62 343.5t168.5 272.5t253.5 176.5t312 64.5zM735 197q140 0 253.5 84.5t176 227.5t62.5 314 q0 195 -91 314.5t-253 119.5q-142 0 -255 -82t-175 -223t-62 -313q0 -197 91.5 -319.5t252.5 -122.5z" glyph-name="Ohungarumlaut" horiz-adv-x="1552" unicode="Ő"/><glyph d="M473 1110l195 334h389l-277 -334h-307zM635 1020q197 0 307.5 -120t110.5 -318q0 -171 -70 -308t-198.5 -215.5t-292.5 -78.5q-196 0 -306 121t-110 319q0 170 69 306.5t197 215t293 78.5zM518 168q88 0 152.5 59.5t94.5 148.5t30 193q0 117 -46.5 189.5t-138.5 72.5 q-87 0 -152.5 -58t-96.5 -147t-31 -192q0 -118 47 -192t141 -74z" glyph-name="ohungarumlaut" horiz-adv-x="1128" unicode="ő"/><glyph d="M713 -20q-273 0 -434.5 177t-161.5 464q0 183 62.5 343t170 271.5t256 175.5t316.5 64q262 0 401 -175h8l21 154h964l-47 -209h-680l-57 -397h641l-47 -205h-621l-61 -434h698l-49 -209h-946l22 156h-8q-187 -176 -448 -176zM743 197q142 0 257 84t178 227t63 315 q0 194 -92.5 314t-257.5 120q-144 0 -258 -81.5t-177 -222.5t-63 -314q0 -196 93.5 -319t256.5 -123z" glyph-name="OE" horiz-adv-x="2301" unicode="Œ"/><glyph d="M502 -20q-200 0 -313 122t-113 320q0 170 70 306t200.5 214t298.5 78q120 0 201 -48t127 -157h8q82 110 185.5 157.5t236.5 47.5q172 0 279.5 -75t107.5 -210q0 -65 -23 -118t-61.5 -89.5t-96 -64.5t-117.5 -45t-135.5 -27.5t-141.5 -14.5t-142 -5q5 -104 58 -151.5 t165 -47.5q77 0 179 23t190 63l-8 -188q-196 -90 -385 -90q-283 0 -385 202h-8q-147 -202 -377 -202zM1094 526q440 4 460 179q6 63 -37 101t-131 38q-115 0 -193.5 -85.5t-98.5 -232.5zM526 168q90 0 156.5 59t97.5 148.5t31 193.5q0 116 -47.5 189t-142.5 73 q-90 0 -157.5 -58t-99.5 -147t-32 -192q0 -116 49 -191t145 -75z" glyph-name="oe" horiz-adv-x="1839" unicode="œ"/><glyph d="M1090 1901l-273 -334h-174l191 334h256zM979 586q26 -21 43.5 -46t29.5 -65t17.5 -66t15.5 -85l48 -324h-283l-33 287q-22 141 -46 188t-89 47h-238l-73 -522h-265l205 1454h500q202 0 319 -110t117 -297q0 -155 -73.5 -275.5t-192.5 -177.5zM674 731q134 0 217.5 82.5 t83.5 212.5q0 105 -61 162t-171 57h-196l-74 -514h201z" glyph-name="Racute" horiz-adv-x="1294" unicode="Ŕ"/><glyph d="M350 1112l191 334h256l-273 -334h-174zM88 0l141 999h215l-2 -211h7q50 74 90.5 120.5t77.5 70t67 31.5t70 8q22 0 32 -2l-30 -215q-36 14 -64 14q-76 0 -150 -73.5t-132 -229.5l-70 -512h-252z" glyph-name="racute" horiz-adv-x="765" unicode="ŕ"/><glyph d="M979 586q26 -21 43.5 -46t29.5 -65t17.5 -66t15.5 -85l48 -324h-283l-33 287q-22 141 -46 188t-89 47h-238l-73 -522h-265l205 1454h500q202 0 319 -110t117 -297q0 -155 -73.5 -275.5t-192.5 -177.5zM674 731q134 0 217.5 82.5t83.5 212.5q0 105 -61 162t-171 57h-196 l-74 -514h201zM303 -592l150 449h245l-219 -449h-176z" glyph-name="Rcommaaccent" horiz-adv-x="1294" unicode="Ŗ"/><glyph d="M88 0l141 999h215l-2 -211h7q50 74 90.5 120.5t77.5 70t67 31.5t70 8q22 0 32 -2l-30 -215q-36 14 -64 14q-76 0 -150 -73.5t-132 -229.5l-70 -512h-252zM-76 -592l150 449h245l-219 -449h-176z" glyph-name="rcommaaccent" horiz-adv-x="765" unicode="ŗ"/><glyph d="M809 1567h-131l-242 334h228l102 -183l152 183h227zM979 586q26 -21 43.5 -46t29.5 -65t17.5 -66t15.5 -85l48 -324h-283l-33 287q-22 141 -46 188t-89 47h-238l-73 -522h-265l205 1454h500q202 0 319 -110t117 -297q0 -155 -73.5 -275.5t-192.5 -177.5zM674 731 q134 0 217.5 82.5t83.5 212.5q0 105 -61 162t-171 57h-196l-74 -514h201z" glyph-name="Rcaron" horiz-adv-x="1294" unicode="Ř"/><glyph d="M852 1446l-336 -334h-131l-242 334h228l102 -182l152 182h227zM88 0l141 999h215l-2 -211h7q50 74 90.5 120.5t77.5 70t67 31.5t70 8q22 0 32 -2l-30 -215q-36 14 -64 14q-76 0 -150 -73.5t-132 -229.5l-70 -512h-252z" glyph-name="rcaron" horiz-adv-x="765" unicode="ř"/><glyph d="M653 1567l191 334h256l-273 -334h-174zM535 -20q-218 0 -490 114l49 203q117 -48 239 -77.5t214 -29.5q139 0 220 60.5t81 163.5q0 35 -12 63t-29.5 47t-49.5 36.5t-59 28t-71 25.5q-161 51 -203 69q-176 72 -229 194q-27 61 -27 139q0 91 30.5 167.5t84 129.5t126 90 t155.5 54.5t173 17.5q101 0 193.5 -23t222.5 -74l-49 -202q-125 45 -214.5 66.5t-174.5 21.5q-137 0 -207 -52t-70 -143q0 -42 16.5 -74.5t52 -56.5t72.5 -40.5t95 -35.5q175 -56 248 -97q175 -96 192 -268q2 -19 2 -40q0 -117 -49 -210t-131.5 -150t-185 -87t-215.5 -30z" glyph-name="Sacute" horiz-adv-x="1228" unicode="Ś"/><glyph d="M444 1112l191 334h256l-273 -334h-174zM383 -20q-76 0 -181 19t-175 50l43 178q190 -71 329 -71q98 0 146.5 34t48.5 93q0 49 -36.5 72.5t-111.5 41.5q-130 30 -177 48q-163 71 -165 227q0 154 122 251t311 97q75 0 168.5 -19.5t158.5 -50.5l-43 -170q-171 64 -293 64 q-86 0 -130 -33t-44 -84q0 -47 34 -73t101 -42q127 -29 166 -43q155 -57 177 -190q4 -24 4 -51q0 -154 -126.5 -251t-326.5 -97z" glyph-name="sacute" horiz-adv-x="942" unicode="ś"/><glyph d="M674 862q175 -56 248 -97q175 -96 192 -268q2 -19 2 -40q0 -90 -29.5 -166t-80 -130.5t-119.5 -94.5t-147.5 -61t-164.5 -25l-18 -58h10q51 0 81 -37.5t30 -97.5q0 -99 -69.5 -161t-176.5 -62q-81 0 -137 35l22 120q64 -28 103 -28q29 0 50.5 21.5t21.5 58.5 q0 26 -15.5 41.5t-46.5 15.5h-24l-9 12l47 144q-177 18 -399 110l49 203q117 -48 239 -77.5t214 -29.5q139 0 220 60.5t81 163.5q0 35 -12 63t-29.5 47t-49.5 36.5t-59 28t-71 25.5q-161 51 -203 69q-176 72 -229 194q-27 61 -27 139q0 91 30.5 167.5t84 129.5t126 90 t155.5 54.5t173 17.5q101 0 193.5 -23t222.5 -74l-49 -202q-125 45 -214.5 66.5t-174.5 21.5q-137 0 -207 -52t-70 -143q0 -42 16.5 -74.5t52 -56.5t72.5 -40.5t95 -35.5z" glyph-name="Scedilla" horiz-adv-x="1228" unicode="Ş"/><glyph d="M489 612q127 -29 166 -43q155 -57 177 -190q4 -24 4 -51q0 -142 -111.5 -238t-290.5 -108l-18 -60h10q51 0 81 -37.5t30 -97.5q0 -99 -69.5 -161t-176.5 -62q-81 0 -137 35l22 120q64 -28 103 -28q29 0 50 21.5t21 58.5q0 57 -61 57h-25l-8 12l47 144q-173 19 -276 65 l43 178q190 -71 329 -71q98 0 146.5 34t48.5 93q0 49 -36.5 72.5t-111.5 41.5q-130 30 -177 48q-163 71 -165 227q0 154 122 251t311 97q75 0 168.5 -19.5t158.5 -50.5l-43 -170q-171 64 -293 64q-86 0 -130 -33t-44 -84q0 -47 34 -73t101 -42z" glyph-name="scedilla" horiz-adv-x="942" unicode="ş"/><glyph d="M1155 1901l-336 -334h-131l-242 334h228l102 -183l152 183h227zM535 -20q-218 0 -490 114l49 203q117 -48 239 -77.5t214 -29.5q139 0 220 60.5t81 163.5q0 35 -12 63t-29.5 47t-49.5 36.5t-59 28t-71 25.5q-161 51 -203 69q-176 72 -229 194q-27 61 -27 139 q0 91 30.5 167.5t84 129.5t126 90t155.5 54.5t173 17.5q101 0 193.5 -23t222.5 -74l-49 -202q-125 45 -214.5 66.5t-174.5 21.5q-137 0 -207 -52t-70 -143q0 -42 16.5 -74.5t52 -56.5t72.5 -40.5t95 -35.5q175 -56 248 -97q175 -96 192 -268q2 -19 2 -40q0 -117 -49 -210 t-131.5 -150t-185 -87t-215.5 -30z" glyph-name="Scaron" horiz-adv-x="1228" unicode="Š"/><glyph d="M946 1446l-336 -334h-131l-241 334h227l102 -182l152 182h227zM383 -20q-76 0 -181 19t-175 50l43 178q190 -71 329 -71q98 0 146.5 34t48.5 93q0 49 -36.5 72.5t-111.5 41.5q-130 30 -177 48q-163 71 -165 227q0 154 122 251t311 97q75 0 168.5 -19.5t158.5 -50.5 l-43 -170q-171 64 -293 64q-86 0 -130 -33t-44 -84q0 -47 34 -73t101 -42q127 -29 166 -43q155 -57 177 -190q4 -24 4 -51q0 -154 -126.5 -251t-326.5 -97z" glyph-name="scaron" horiz-adv-x="942" unicode="š"/><glyph d="M596 0h-68l-24 -78h10q51 0 81 -37.5t30 -97.5q0 -99 -69.5 -161t-176.5 -62q-81 0 -137 35l22 120q64 -28 103 -28q29 0 50 21.5t21 58.5q0 57 -61 57h-25l-8 12l51 160h-61l176 1245h-371l29 209h1001l-28 -209h-369z" glyph-name="uni0162" horiz-adv-x="1071" unicode="Ţ"/><glyph d="M508 811l-72 -514q-17 -123 109 -123q58 0 108 19l-28 -197q-98 -16 -164 -16h-6l-19 -58h10q51 0 81 -37.5t30 -97.5q0 -99 -69.5 -161t-176.5 -62q-81 0 -137 35l23 120q64 -28 102 -28q29 0 50.5 21.5t21.5 58.5q0 26 -15.5 41.5t-46.5 15.5h-24l-9 12l52 160 q-179 60 -144 305l72 506h-170l45 188h154l100 357h201l-51 -357h227l-27 -188h-227z" glyph-name="uni0163" horiz-adv-x="759" unicode="ţ"/><glyph d="M745 1567h-131l-241 334h227l102 -183l152 183h227zM1169 1454l-28 -209h-369l-176 -1245h-262l176 1245h-371l29 209h1001z" glyph-name="Tcaron" horiz-adv-x="1071" unicode="Ť"/><glyph d="M784 1454h265l-195 -369h-211zM590 1356l-51 -357h233l-27 -188h-233l-72 -514q-9 -62 22 -92.5t93 -30.5q58 0 111 19l-29 -197q-101 -16 -168 -16q-160 0 -232 83t-49 242l70 506h-172l45 188h156l102 357h201z" glyph-name="tcaron" horiz-adv-x="780" unicode="ť"/><glyph d="M1143 1245h-369l-67 -477h313l-31 -205h-311l-80 -563h-262l80 563h-316l29 205h315l68 477h-373l29 209h1003z" glyph-name="Tbar" horiz-adv-x="1073" unicode="Ŧ"/><glyph d="M739 811h-229l-18 -137h231l-31 -203h-229l-25 -174q-17 -123 111 -123q55 0 108 19l-26 -197q-101 -16 -166 -16q-158 0 -229.5 82.5t-49.5 242.5l23 166h-170l29 203h170l18 137h-170l45 188h154l102 357h201l-51 -357h229z" glyph-name="tbar" horiz-adv-x="763" unicode="ŧ"/><glyph d="M604 1669l25 193h581l-26 -193h-580zM651 -20q-262 0 -391.5 162.5t-91.5 439.5l123 872h264l-129 -907q-23 -166 45.5 -262.5t210.5 -96.5q144 0 239.5 96t118.5 263l129 907h263l-123 -872q-40 -278 -216 -440t-442 -162z" glyph-name="Umacron" horiz-adv-x="1454" unicode="Ū"/><glyph d="M385 1214l25 193h581l-26 -193h-580zM1067 999l-141 -999h-215l-6 199h-9q-47 -68 -94.5 -113.5t-92.5 -67t-82 -30t-79 -8.5q-148 0 -205.5 99t-27.5 312l84 608h256l-88 -628q-27 -187 82 -187q172 0 290 293l72 522h256z" glyph-name="umacron" horiz-adv-x="1134" unicode="ū"/><glyph d="M874 1571q-92 0 -145 55t-53 148q0 120 75 196t191 76q90 0 143.5 -55t53.5 -146q0 -120 -75.5 -197t-189.5 -77zM891 1694q43 0 70.5 39t27.5 100q0 42 -17 66t-48 24q-42 0 -69.5 -38t-27.5 -99q0 -41 17.5 -66.5t46.5 -25.5zM651 -20q-262 0 -391.5 162.5t-91.5 439.5 l123 872h264l-129 -907q-23 -166 45.5 -262.5t210.5 -96.5q144 0 239.5 96t118.5 263l129 907h263l-123 -872q-40 -278 -216 -440t-442 -162z" glyph-name="Uring" horiz-adv-x="1454" unicode="Ů"/><glyph d="M655 1116q-92 0 -145 55t-53 148q0 120 75 196t191 76q90 0 143.5 -54.5t53.5 -145.5q0 -120 -75.5 -197.5t-189.5 -77.5zM672 1239q43 0 70.5 39t27.5 100q0 42 -17 66t-48 24q-42 0 -69.5 -38t-27.5 -99q0 -41 17.5 -66.5t46.5 -25.5zM1067 999l-141 -999h-215l-6 199 h-9q-47 -68 -94.5 -113.5t-92.5 -67t-82 -30t-79 -8.5q-148 0 -205.5 99t-27.5 312l84 608h256l-88 -628q-27 -187 82 -187q172 0 290 293l72 522h256z" glyph-name="uring" horiz-adv-x="1134" unicode="ů"/><glyph d="M698 1565l195 333h389l-276 -333h-308zM1169 1454h263l-123 -872q-40 -278 -216 -440t-442 -162q-262 0 -391.5 162.5t-91.5 439.5l123 872h264l-129 -907q-23 -166 45.5 -262.5t210.5 -96.5q144 0 239.5 96t118.5 263z" glyph-name="Uhungarumlaut" horiz-adv-x="1454" unicode="Ű"/><glyph d="M479 1110l195 334h389l-277 -334h-307zM811 999h256l-141 -999h-215l-6 199h-9q-47 -68 -94.5 -113.5t-92.5 -67t-82 -30t-79 -8.5q-148 0 -205.5 99t-27.5 312l84 608h256l-88 -628q-27 -187 82 -187q172 0 290 293z" glyph-name="uhungarumlaut" horiz-adv-x="1134" unicode="ű"/><glyph d="M1169 1454h263l-123 -872q-38 -265 -200 -425t-409 -175q-38 -35 -38 -99q0 -35 19.5 -56.5t57.5 -21.5q30 0 45 5l-32 -172q-24 -9 -64 -9q-75 0 -127.5 49.5t-52.5 137.5q0 100 61 168q-223 26 -329.5 184.5t-71.5 413.5l123 872h264l-129 -907q-23 -166 45.5 -262.5 t210.5 -96.5q144 0 239.5 96t118.5 263z" glyph-name="Uogonek" horiz-adv-x="1454" unicode="Ų"/><glyph d="M852 0q-68 -32 -68 -117q0 -35 20 -56.5t58 -21.5q30 0 45 5l-33 -172q-24 -9 -63 -9q-75 0 -127.5 49.5t-52.5 137.5q0 113 80 186l-6 197h-9q-47 -68 -94.5 -113.5t-92.5 -67t-82 -30t-79 -8.5q-148 0 -205.5 99t-27.5 312l84 608h256l-88 -628q-27 -187 82 -187 q172 0 290 293l72 522h256l-141 -999h-74z" glyph-name="uogonek" horiz-adv-x="1134" unicode="ų"/><glyph d="M1448 1565h-227l-103 180l-153 -180h-226l334 333h129zM1720 1454h271l-586 -1454h-277l-104 909q-7 69 -4 103h-8q-8 -35 -35 -103l-361 -909h-276l-174 1454h268l101 -819q16 -146 14 -195h8q11 42 72 195l323 819h252l94 -819q17 -152 15 -195h8q10 35 72 195z" glyph-name="Wcircumflex" horiz-adv-x="1886" unicode="Ŵ"/><glyph d="M1217 1110h-228l-102 180l-154 -180h-225l334 334h129zM1235 999h266l-405 -999h-265l-55 549q-10 85 -10 121h-8q-4 -14 -10 -32t-16 -44t-17 -45l-209 -549h-266l-125 999h270l39 -622q0 -78 -4 -113h8q6 26 39 115l225 620h236l51 -620q4 -43 4 -115h8q15 67 31 113z" glyph-name="wcircumflex" horiz-adv-x="1476" unicode="ŵ"/><glyph d="M1159 1565h-227l-103 180l-153 -180h-225l333 333h129zM446 0l72 502l-356 952h272l189 -498q51 -133 63 -186h6q18 35 113 186l319 498h273l-617 -952l-69 -502h-265z" glyph-name="Ycircumflex" horiz-adv-x="1290" unicode="Ŷ"/><glyph d="M981 1110h-227l-103 180l-153 -180h-226l334 334h129zM838 999h266l-510 -999l-37 -72q-40 -83 -74 -138t-81.5 -104.5t-107.5 -73.5t-136 -24q-59 0 -127 11l28 200q35 -12 88 -12q24 0 45.5 12t40.5 36t31.5 44.5t28.5 52.5l35 68l-230 999h267l110 -532 q15 -75 23 -178h8q18 52 74 178z" glyph-name="ycircumflex" horiz-adv-x="1060" unicode="ŷ"/><glyph d="M645 1573q-44 0 -73 32.5t-29 80.5q0 61 42.5 104t98.5 43q43 0 70.5 -32.5t27.5 -80.5q0 -61 -41 -104t-96 -43zM973 1573q-45 0 -74 32.5t-29 80.5q0 60 42.5 103.5t97.5 43.5q45 0 72.5 -32.5t27.5 -80.5q0 -61 -41 -104t-96 -43zM446 0l72 502l-356 952h272l189 -498 q51 -133 63 -186h6q18 35 113 186l319 498h273l-617 -952l-69 -502h-265z" glyph-name="Ydieresis" horiz-adv-x="1290" unicode="Ÿ"/><glyph d="M635 1567l190 334h256l-272 -334h-174zM20 0l29 203l719 889q5 6 33 38t40.5 45.5t33.5 35t38 34.5v8q-52 -8 -163 -8h-547l49 209h967l-29 -203l-721 -889q-97 -117 -143 -153l-2 -8q44 8 165 8h609l-49 -209h-1029z" glyph-name="Zacute" horiz-adv-x="1218" unicode="Ź"/><glyph d="M449 1112l190 334h256l-272 -334h-174zM8 0l29 193l457 471l141 145l2 8q-66 -10 -166 -10h-332l31 192h756l-29 -192l-451 -469q-34 -31 -87.5 -86.5t-59.5 -61.5l-2 -8q73 11 166 11h368l-26 -193h-797z" glyph-name="zacute" horiz-adv-x="954" unicode="ź"/><glyph d="M739 1575q-49 0 -80.5 37t-31.5 94q0 73 47.5 125.5t109.5 52.5q52 0 82.5 -36.5t30.5 -94.5q0 -73 -47 -125.5t-111 -52.5zM20 0l29 203l719 889q5 6 33 38t40.5 45.5t33.5 35t38 34.5v8q-52 -8 -163 -8h-547l49 209h967l-29 -203l-721 -889q-97 -117 -143 -153l-2 -8 q44 8 165 8h609l-49 -209h-1029z" glyph-name="Zdotaccent" horiz-adv-x="1218" unicode="Ż"/><glyph d="M553 1120q-49 0 -81 37t-32 94q0 73 48 126t110 53q52 0 82.5 -37t30.5 -95q0 -73 -47 -125.5t-111 -52.5zM8 0l29 193l457 471l141 145l2 8q-66 -10 -166 -10h-332l31 192h756l-29 -192l-451 -469q-34 -31 -87.5 -86.5t-59.5 -61.5l-2 -8q73 11 166 11h368l-26 -193 h-797z" glyph-name="zdotaccent" horiz-adv-x="954" unicode="ż"/><glyph d="M1137 1901l-336 -334h-131l-242 334h227l103 -183l151 183h228zM20 0l29 203l719 889q5 6 33 38t40.5 45.5t33.5 35t38 34.5v8q-52 -8 -163 -8h-547l49 209h967l-29 -203l-721 -889q-97 -117 -143 -153l-2 -8q44 8 165 8h609l-49 -209h-1029z" glyph-name="Zcaron" horiz-adv-x="1218" unicode="Ž"/><glyph d="M950 1446l-336 -334h-131l-241 334h227l102 -182l152 182h227zM8 0l29 193l457 471l141 145l2 8q-66 -10 -166 -10h-332l31 192h756l-29 -192l-451 -469q-34 -31 -87.5 -86.5t-59.5 -61.5l-2 -8q73 11 166 11h368l-26 -193h-797z" glyph-name="zcaron" horiz-adv-x="954" unicode="ž"/><glyph d="M694 1286q-48 0 -76.5 -28t-37.5 -95l-23 -164h238l-47 -188h-218l-71 -510q-25 -170 -107.5 -252t-224.5 -82q-88 0 -158 17l33 221q57 -17 102 -17q86 0 101 113h-2l71 510h-172l27 188h170l20 142q25 173 111 253.5t242 80.5q56 0 164 -19l-29 -192q-49 22 -113 22z" glyph-name="florin" horiz-adv-x="765" unicode="ƒ"/><glyph d="M535 -20q-218 0 -490 114l49 203q117 -48 239 -77.5t214 -29.5q139 0 220 60.5t81 163.5q0 35 -12 63t-29.5 47t-49.5 36.5t-59 28t-71 25.5q-161 51 -203 69q-176 72 -229 194q-27 61 -27 139q0 91 30.5 167.5t84 129.5t126 90t155.5 54.5t173 17.5q101 0 193.5 -23 t222.5 -74l-49 -202q-125 45 -214.5 66.5t-174.5 21.5q-137 0 -207 -52t-70 -143q0 -42 16.5 -74.5t52 -56.5t72.5 -40.5t95 -35.5q175 -56 248 -97q175 -96 192 -268q2 -19 2 -40q0 -117 -49 -210t-131.5 -150t-185 -87t-215.5 -30zM244 -592l149 449h246l-219 -449h-176z" glyph-name="Scommaaccent" horiz-adv-x="1228" unicode="Ș"/><glyph d="M383 -20q-76 0 -181 19t-175 50l43 178q190 -71 329 -71q98 0 146.5 34t48.5 93q0 49 -36.5 72.5t-111.5 41.5q-130 30 -177 48q-163 71 -165 227q0 154 122 251t311 97q75 0 168.5 -19.5t158.5 -50.5l-43 -170q-171 64 -293 64q-86 0 -130 -33t-44 -84q0 -47 34 -73 t101 -42q127 -29 166 -43q155 -57 177 -190q4 -24 4 -51q0 -154 -126.5 -251t-326.5 -97zM102 -592l150 449h246l-219 -449h-177z" glyph-name="scommaaccent" horiz-adv-x="942" unicode="ș"/><glyph d="M1169 1454l-28 -209h-369l-176 -1245h-262l176 1245h-371l29 209h1001zM190 -592l150 449h246l-219 -449h-177z" glyph-name="uni021A" horiz-adv-x="1071" unicode="Ț"/><glyph d="M508 811l-72 -514q-17 -123 109 -123q58 0 108 19l-28 -197q-98 -16 -164 -16q-158 0 -228.5 82.5t-48.5 242.5l72 506h-170l45 188h154l100 357h201l-51 -357h227l-27 -188h-227zM123 -592l149 449h246l-219 -449h-176z" glyph-name="uni021B" horiz-adv-x="759" unicode="ț"/><glyph d="M954 1120h-227l-102 180l-154 -180h-225l334 334h129z" glyph-name="circumflex" horiz-adv-x="1024" unicode="ˆ"/><glyph d="M999 1454l-335 -334h-132l-241 334h227l103 -182l151 182h227z" glyph-name="caron" horiz-adv-x="1024" unicode="ˇ"/><glyph d="M565 1106q-143 0 -218.5 94.5t-55.5 249.5h190q-15 -95 14.5 -148t90.5 -53q62 0 105.5 52.5t58.5 148.5h190q-22 -155 -124.5 -249.5t-250.5 -94.5z" glyph-name="breve" horiz-adv-x="964" unicode="˘"/><glyph d="M383 1165q-49 0 -81 37t-32 94q0 73 48 126t110 53q52 0 82.5 -37t30.5 -95q0 -73 -47 -125.5t-111 -52.5z" glyph-name="dotaccent" horiz-adv-x="581" unicode="˙"/><glyph d="M475 1126q-92 0 -145.5 55t-53.5 148q0 120 75.5 196.5t191.5 76.5q90 0 143 -55t53 -146q0 -120 -75 -197.5t-189 -77.5zM492 1249q43 0 70.5 39.5t27.5 100.5q0 41 -17.5 65.5t-48.5 24.5q-42 0 -69 -38.5t-27 -99.5q0 -41 17.5 -66.5t46.5 -25.5z" glyph-name="ring" horiz-adv-x="774" unicode="˚"/><glyph d="M244 -375q-75 0 -128 49.5t-53 137.5q0 70 30.5 123t73 82.5t103.5 52.5l31 -68q-43 -13 -63.5 -47t-20.5 -76q0 -35 20 -56.5t58 -21.5q33 0 45 4l-33 -172q-21 -8 -63 -8z" glyph-name="ogonek" horiz-adv-x="595" unicode="˛"/><glyph d="M264 1126l8 193q35 35 81 57.5t83 22.5q54 0 137 -37t117 -37q73 0 160 84l-8 -192q-35 -35 -80 -57.5t-82 -22.5q-54 0 -134.5 36.5t-121.5 36.5q-73 0 -160 -84z" glyph-name="tilde" horiz-adv-x="899" unicode="˜"/><glyph d="M971 1454l-277 -334h-307l195 334h389z" glyph-name="hungarumlaut" horiz-adv-x="1136" unicode="˝"/><glyph d="M-242 1120l-170 334h250l94 -334h-174z" glyph-name="gravecomb" unicode="̀"/><glyph d="M-469 1120l190 334h256l-272 -334h-174z" glyph-name="acutecomb" unicode="́"/><glyph d="M-70 1120h-227l-102 180l-154 -180h-225l334 334h129z" glyph-name="uni0302" unicode="̂"/><glyph d="M-635 1126l8 193q35 35 81 57.5t83 22.5q55 0 138 -37t116 -37q73 0 160 84l-8 -192q-35 -35 -80 -57.5t-82 -22.5q-54 0 -134.5 36.5t-121.5 36.5q-73 0 -160 -84z" glyph-name="tildecomb" unicode="̃"/><glyph d="M-631 1262l25 192h581l-26 -192h-580z" glyph-name="uni0304" unicode="̄"/><glyph d="M-399 1106q-143 0 -219 94.5t-56 249.5h191q-15 -95 14 -148t90 -53q62 0 105.5 52.5t58.5 148.5h190q-22 -155 -124 -249.5t-250 -94.5z" glyph-name="uni0306" unicode="̆"/><glyph d="M-199 1165q-49 0 -80.5 37t-31.5 94q0 73 47.5 126t109.5 53q52 0 82.5 -37t30.5 -95q0 -73 -47 -125.5t-111 -52.5z" glyph-name="uni0307" unicode="̇"/><glyph d="M-516 1128q-44 0 -73 32.5t-29 80.5q0 61 42.5 104.5t98.5 43.5q43 0 70.5 -32.5t27.5 -80.5q0 -61 -41 -104.5t-96 -43.5zM-188 1128q-45 0 -74 32.5t-29 80.5q0 61 42 104.5t97 43.5q45 0 73 -32.5t28 -80.5q0 -61 -41 -104.5t-96 -43.5z" glyph-name="uni0308" unicode="̈"/><glyph d="M-299 1126q-92 0 -145.5 55t-53.5 148q0 120 75.5 196.5t191.5 76.5q90 0 143 -55t53 -146q0 -120 -75 -197.5t-189 -77.5zM-283 1249q43 0 71 39.5t28 100.5q0 41 -17.5 65.5t-48.5 24.5q-42 0 -69 -38.5t-27 -99.5q0 -42 17 -67t46 -25z" glyph-name="uni030A" unicode="̊"/><glyph d="M-166 1454l-276 -334h-308l195 334h389z" glyph-name="uni030B" unicode="̋"/><glyph d="M-436 854l162 600h249l-243 -600h-168z" glyph-name="uni030C" unicode="̌"/><glyph d="M-645 -592l149 449h246l-219 -449h-176z" glyph-name="uni0326" unicode="̦"/><glyph d="M-506 -436q-81 0 -137 35l22 120q64 -28 103 -28q29 0 50.5 21.5t21.5 58.5q0 26 -15.5 41.5t-46.5 15.5h-24l-9 12l62 189h131l-33 -107h10q51 0 81 -37.5t30 -97.5q0 -99 -69.5 -161t-176.5 -62z" glyph-name="uni0327" unicode="̧"/><glyph d="M-352 -375q-75 0 -127.5 49.5t-52.5 137.5q0 181 206 258l31 -68q-43 -13 -63.5 -47t-20.5 -76q0 -35 20 -56.5t58 -21.5q33 0 45 4l-33 -172q-21 -8 -63 -8z" glyph-name="uni0328" unicode="̨"/><glyph d="M-997 563l30 205h848l-33 -205h-845z" glyph-name="uni0335" unicode="̵"/><glyph d="M-1581 563l31 205h1431l-31 -205h-1431z" glyph-name="uni0336" unicode="̶"/><glyph d="M98 0l13 94l618 1360h256l238 -1360l-13 -94h-1112zM451 262h481l-131 852z" glyph-name="uni0394" horiz-adv-x="1447" unicode="Δ"/><glyph d="M1528 862q0 -191 -83 -356t-224 -285h245l-30 -221h-584l4 31l29 190q57 24 109.5 58t104 87.5t89 119t61 155.5t23.5 193q0 193 -97.5 303t-263.5 110q-104 0 -195 -40.5t-160 -115t-108.5 -189t-39.5 -253.5q0 -87 19.5 -160.5t53.5 -124.5t72.5 -86t83.5 -57l-27 -188 h-2l-4 -33h-584l31 221h271q-158 185 -158 453q0 160 60 309t163 260t249.5 177.5t309.5 66.5q176 0 310 -86t203 -227t69 -312z" glyph-name="uni03A9" horiz-adv-x="1599" unicode="Ω"/><glyph d="M836 999h258l-142 -999h-204l-39 92v6q-75 -65 -139 -91.5t-142 -26.5q-54 0 -104 12l-37 -266h-254l88 622l6 58l86 593h254l-78 -561q-14 -111 16.5 -165t118.5 -54q104 0 215 100z" glyph-name="uni03BC" horiz-adv-x="1159" unicode="μ"/><glyph d="M1081 760l-63 -447q-15 -112 72 -112q35 0 86 14l-33 -221q-60 -14 -137 -14q-290 0 -244 323l63 457h-245l-107 -760h-256l107 760h-199l33 239h1161l-35 -239h-203z" glyph-name="pi" horiz-adv-x="1335" unicode="π"/><glyph d="M653 1573q-44 0 -73 32.5t-29 80.5q0 61 42.5 104t98.5 43q44 0 71.5 -32.5t27.5 -80.5q0 -61 -41.5 -104t-96.5 -43zM981 1573q-45 0 -73.5 32.5t-28.5 80.5q0 61 42 104t97 43q45 0 72.5 -32.5t27.5 -80.5q0 -61 -41 -104t-96 -43zM1212 1245h-663l-57 -397h624 l-47 -205h-606l-62 -434h684l-49 -209h-930l205 1454h951z" glyph-name="uni0401" horiz-adv-x="1247" unicode="Ё"/><glyph d="M967 0l-66 336h-504l-157 -336h-269l711 1454h252l301 -1454h-268zM492 535h370l-74 370q-24 129 -24 213h-8q-20 -65 -88 -211z" glyph-name="uni0410" horiz-adv-x="1347" unicode="А"/><glyph d="M1178 1245h-633l-43 -305h262q190 0 300 -105t110 -290q0 -244 -152.5 -394.5t-390.5 -150.5h-525l205 1454h895zM670 731h-199l-74 -522h199q131 0 218 77t87 230q0 110 -64 162.5t-167 52.5z" glyph-name="uni0411" horiz-adv-x="1263" unicode="Б"/><glyph d="M1061 731q80 -36 126 -115t46 -174q0 -193 -151 -317.5t-386 -124.5h-590l205 1454h539q197 0 312.5 -93.5t115.5 -254.5q0 -126 -59.5 -225.5t-157.5 -141.5v-8zM770 838q107 0 171.5 67.5t64.5 163.5q0 79 -49 127.5t-136 48.5h-274l-58 -407h281zM721 209 q110 0 178 68.5t68 171.5q0 81 -51 132.5t-142 51.5h-313l-62 -424h322z" glyph-name="uni0412" horiz-adv-x="1333" unicode="В"/><glyph d="M1143 1454l-29 -209h-567l-176 -1245h-265l205 1454h832z" glyph-name="uni0413" horiz-adv-x="1044" unicode="Г"/><glyph d="M-12 -203l57 412h117q51 0 86.5 26.5t63.5 96.5t44 188l129 934h969l-174 -1245h186l-57 -414h-221l29 205h-977l-29 -203h-223zM514 209h502l145 1036h-438l-98 -725q-27 -193 -111 -311z" glyph-name="uni0414" horiz-adv-x="1595" unicode="Д"/><glyph d="M1212 1245h-663l-57 -397h624l-47 -205h-606l-62 -434h684l-49 -209h-930l205 1454h951z" glyph-name="uni0415" horiz-adv-x="1247" unicode="Е"/><glyph d="M1479 778l376 -778h-301l-297 659h-124l-93 -659h-264l90 659h-121l-485 -659h-299l594 778l-356 676h301l293 -586h104l84 586h264l-84 -586h107l458 586h299z" glyph-name="uni0416" horiz-adv-x="1957" unicode="Ж"/><glyph d="M492 -20q-206 0 -431 104l48 205q105 -47 215 -74t192 -27q145 0 228 81t83 202q0 90 -57.5 141.5t-171.5 51.5h-125l31 208h114q104 0 170 66t66 172q0 156 -205 156q-160 0 -397 -95l14 205q128 52 221.5 75.5t190.5 23.5q212 0 329 -96.5t117 -254.5 q0 -116 -55.5 -217t-140.5 -139q81 -33 124.5 -111t43.5 -182q0 -140 -76.5 -253t-215 -177.5t-312.5 -64.5z" glyph-name="uni0417" horiz-adv-x="1241" unicode="З"/><glyph d="M1241 0h-262l119 858q9 70 24 121h-8q-20 -36 -88 -121l-668 -858h-252l205 1454h262l-118 -858q-9 -74 -21 -121h8q17 36 86 121l666 858h252z" glyph-name="uni0418" horiz-adv-x="1490" unicode="И"/><glyph d="M901 1552q-155 0 -237 94.5t-62 249.5h199q-10 -76 23.5 -121.5t101.5 -45.5q66 0 113.5 45.5t60.5 121.5h196q-22 -155 -130.5 -249.5t-264.5 -94.5zM106 0l205 1454h262l-118 -858q-9 -74 -21 -121h8q17 36 86 121l666 858h252l-205 -1454h-262l119 858q9 70 24 121h-8 q-20 -36 -88 -121l-668 -858h-252z" glyph-name="uni0419" horiz-adv-x="1490" unicode="Й"/><glyph d="M106 0l205 1454h264l-83 -596l538 596h297l-547 -598l373 -856h-283l-290 668l-138 -154l-71 -514h-265z" glyph-name="uni041A" horiz-adv-x="1255" unicode="К"/><glyph d="M1401 1454l-205 -1454h-262l170 1223h-395l-156 -725q-32 -152 -96 -267t-161 -183t-214 -68q-44 0 -88 6l26 231q27 -6 66 -6q141 0 201 287l207 956h907z" glyph-name="uni041B" horiz-adv-x="1445" unicode="Л"/><glyph d="M94 0l266 1454h244l240 -790q37 -117 43 -154h8q7 16 88 154l459 790h248l-144 -1454h-270l63 635q33 271 41 297h-8q-6 -16 -57 -103l-357 -641h-227l-178 641q-2 12 -13.5 47.5t-13.5 55.5h-8q0 -68 -43 -297l-113 -635h-268z" glyph-name="uni041C" horiz-adv-x="1781" unicode="М"/><glyph d="M1153 1454h264l-205 -1454h-264l92 647h-575l-92 -647h-267l205 1454h267l-86 -604h575z" glyph-name="uni041D" horiz-adv-x="1460" unicode="Н"/><glyph d="M705 -20q-268 0 -428 176t-160 462q0 183 62 343.5t168.5 272.5t253.5 176.5t312 64.5q268 0 428 -173.5t160 -457.5q0 -184 -61.5 -345t-167 -274.5t-253 -179t-314.5 -65.5zM735 197q140 0 253.5 84.5t176 227.5t62.5 314q0 195 -91 314.5t-253 119.5q-142 0 -255 -82 t-175 -223t-62 -313q0 -197 91.5 -319.5t252.5 -122.5z" glyph-name="uni041E" horiz-adv-x="1552" unicode="О"/><glyph d="M1417 1454l-205 -1454h-266l172 1217h-573l-172 -1217h-267l205 1454h1106z" glyph-name="uni041F" horiz-adv-x="1460" unicode="П"/><glyph d="M811 1454q201 0 318.5 -112.5t117.5 -297.5q0 -156 -73 -278.5t-203 -190t-293 -67.5h-236l-71 -508h-265l205 1454h500zM674 717q139 0 220 84.5t81 224.5q0 101 -60.5 160t-169.5 59h-198l-76 -528h203z" glyph-name="uni0420" horiz-adv-x="1251" unicode="Р"/><glyph d="M682 -20q-262 0 -413.5 172.5t-151.5 457.5q0 186 58 346.5t160 274.5t246 179t310 65q248 0 487 -109l-49 -213q-213 104 -414 104q-122 0 -222 -50t-165 -134.5t-100 -194t-35 -231.5q0 -197 98.5 -323.5t276.5 -126.5q89 0 206.5 27.5t233.5 74.5l-8 -211 q-266 -108 -518 -108z" glyph-name="uni0421" horiz-adv-x="1357" unicode="С"/><glyph d="M1169 1454l-28 -209h-369l-176 -1245h-262l176 1245h-371l29 209h1001z" glyph-name="uni0422" horiz-adv-x="1071" unicode="Т"/><glyph d="M301 -20q-84 0 -160 22l35 248q73 -23 148 -23q35 0 60.5 22t51.5 70l39 76l-309 1059h285l194 -756h6l389 756h285l-620 -1143q-27 -49 -42.5 -76.5t-42.5 -68t-47.5 -63t-51.5 -49.5t-62 -41t-71.5 -23.5t-86.5 -9.5z" glyph-name="uni0423" horiz-adv-x="1220" unicode="У"/><glyph d="M1716 809q0 -140 -51.5 -261t-148.5 -215t-247 -154t-337 -75l-58 -411h-202l57 411q-296 26 -453 174t-157 375q0 139 51.5 259t149 212.5t247 151.5t336.5 74l60 411h202l-59 -411q298 -24 454 -170t156 -371zM391 684q0 -90 39 -167.5t124 -134t204 -69.5l116 828 q-116 -12 -210.5 -56.5t-152.5 -108.5t-89 -139t-31 -153zM963 313q149 15 261 86.5t166 169.5t54 205q0 137 -93.5 241.5t-273.5 125.5z" glyph-name="uni0424" horiz-adv-x="1769" unicode="Ф"/><glyph d="M1214 0h-303l-241 580h-8l-402 -580h-303l547 752l-322 702h301l232 -536h8l385 536h301l-530 -702z" glyph-name="uni0425" horiz-adv-x="1312" unicode="Х"/><glyph d="M1217 231h188l-64 -436h-229l29 205h-1035l205 1454h264l-172 -1223h551l172 1223h263z" glyph-name="uni0426" horiz-adv-x="1562" unicode="Ц"/><glyph d="M1030 1454h260l-205 -1454h-260l74 528q-180 -104 -352 -104q-205 0 -303.5 130t-63.5 380l74 520h260l-76 -543q-20 -134 28 -206t161 -72q143 0 301 96z" glyph-name="uni0427" horiz-adv-x="1333" unicode="Ч"/><glyph d="M1706 1454h262l-205 -1454h-1657l205 1454h267l-172 -1223h432l172 1223h264l-170 -1223h430z" glyph-name="uni0428" horiz-adv-x="2013" unicode="Ш"/><glyph d="M1796 231h189l-62 -436h-229l28 205h-1616l205 1454h267l-172 -1223h432l172 1223h264l-172 -1223h432l172 1223h262z" glyph-name="uni0429" horiz-adv-x="2142" unicode="Щ"/><glyph d="M842 946q193 0 308.5 -108.5t115.5 -294.5q0 -160 -74 -285t-200.5 -191.5t-282.5 -66.5h-510l176 1249h-215l28 205h478l-29 -205l-43 -303h248zM674 209q67 0 122.5 17t100 52.5t69.5 96.5t25 143q0 113 -67 166t-179 53h-180l-76 -528h185z" glyph-name="uni042A" horiz-adv-x="1347" unicode="Ъ"/><glyph d="M758 946q194 0 311 -109t117 -294q0 -243 -159.5 -393t-401.5 -150h-519l205 1454h264l-71 -508h254zM1509 1454h263l-205 -1454h-262zM588 209q143 0 232 75t89 234q0 112 -68 165.5t-179 53.5h-187l-76 -528h189z" glyph-name="uni042B" horiz-adv-x="1816" unicode="Ы"/><glyph d="M752 946q192 0 308 -109t116 -294q0 -160 -74 -285t-201 -191.5t-283 -66.5h-512l205 1454h262l-71 -508h250zM582 209q142 0 229.5 75t87.5 234q0 112 -67.5 165.5t-176.5 53.5h-182l-76 -528h185z" glyph-name="uni042C" horiz-adv-x="1259" unicode="Ь"/><glyph d="M743 1475q264 0 426 -175.5t162 -459.5q0 -183 -63.5 -344t-171 -273.5t-253.5 -177.5t-308 -65q-255 0 -492 108l29 207q255 -105 481 -105q168 0 301 124t184 313h-661l29 204h657q-5 189 -103 311t-258 122q-229 0 -509 -107l28 209q269 109 522 109z" glyph-name="uni042D" horiz-adv-x="1384" unicode="Э"/><glyph d="M1425 1475q272 0 432 -173.5t160 -459.5q0 -183 -62 -343.5t-168.5 -274t-254.5 -179t-315 -65.5q-270 0 -431 176.5t-161 464.5v4h-164l-88 -625h-267l205 1454h267l-89 -625h158q62 290 275.5 468t502.5 178zM1247 197q141 0 256 84.5t178.5 227.5t63.5 314 q0 193 -93 313.5t-257 120.5q-107 0 -200 -48t-158.5 -130.5t-102.5 -196.5t-37 -243q0 -196 93.5 -319t256.5 -123z" glyph-name="uni042E" horiz-adv-x="2070" unicode="Ю"/><glyph d="M1245 1454l-205 -1454h-262l72 508h-178l-377 -508h-295l412 543q-115 46 -177.5 142.5t-62.5 229.5q0 154 74 277.5t205.5 192.5t296.5 69h497zM666 739h217l67 484h-217q-134 0 -208 -77.5t-74 -201.5q0 -93 55 -149t160 -56z" glyph-name="uni042F" horiz-adv-x="1290" unicode="Я"/><glyph d="M403 -20q-160 0 -250 110.5t-90 300.5q0 150 45 272.5t120 199t167 117t191 40.5q166 0 258 -125h6l59 104h215l-141 -999h-217l-4 199h-6q-92 -127 -176.5 -173t-176.5 -46zM502 184q81 0 158 72t137 221l32 252q-84 88 -192 88q-124 0 -210.5 -103t-86.5 -286 q0 -113 40.5 -178.5t121.5 -65.5z" glyph-name="uni0430" horiz-adv-x="1210" unicode="а"/><glyph d="M485 -20q-190 0 -296.5 111.5t-106.5 340.5q0 176 46.5 326.5t126 255.5t179 175.5t213.5 102.5q14 4 125 29.5t192 57.5t154 85l-31 -209q-37 -37 -84 -63.5t-83.5 -38.5t-101.5 -30.5t-105 -32.5q-98 -33 -166 -94.5t-127 -174.5h6q57 52 112 77.5t126 25.5 q166 0 276.5 -114t110.5 -298q0 -147 -72 -268.5t-202 -192.5t-292 -71zM524 174q117 0 194 90t77 236q0 106 -52 168.5t-141 62.5q-118 0 -195 -92t-77 -238q0 -105 52 -166t142 -61z" glyph-name="uni0431" horiz-adv-x="1132" unicode="б"/><glyph d="M874 496q66 -20 104 -74.5t38 -126.5q0 -134 -110.5 -214.5t-301.5 -80.5h-516l141 999h480q164 0 252 -62.5t88 -174.5q0 -92 -49 -165t-126 -95v-6zM666 594q63 0 96 33.5t33 95.5q0 84 -101 84h-237l-31 -213h240zM625 193q67 0 106 33.5t39 92.5q0 45 -30 72t-85 27 h-254l-30 -225h254z" glyph-name="uni0432" horiz-adv-x="1126" unicode="в"/><glyph d="M956 999l-30 -202h-451l-113 -797h-253l112 797l29 202h706z" glyph-name="uni0433" horiz-adv-x="927" unicode="г"/><glyph d="M1149 774l-78 -547h109l-60 -432h-223l29 205h-693l-28 -203h-223l59 428h45q75 2 124 71t71 224l34 254h-2l31 225h836zM436 225l379 2l78 547h-322l-34 -254q-23 -164 -101 -295z" glyph-name="uni0434" horiz-adv-x="1298" unicode="д"/><glyph d="M547 172q75 0 175.5 23t186.5 63l-10 -188q-193 -90 -379 -90q-215 0 -330.5 116.5t-115.5 317.5q0 132 44.5 246t121 192.5t181 123t220.5 44.5q173 0 281 -74.5t108 -208.5q0 -65 -22.5 -118.5t-60 -90.5t-93 -65t-114.5 -45t-132.5 -27.5t-138.5 -14.5t-141 -5 q4 -104 57 -151.5t162 -47.5zM633 844q-114 0 -192.5 -86t-98.5 -232q437 4 457 179q5 63 -37.5 101t-128.5 38z" glyph-name="uni0435" horiz-adv-x="1079" unicode="е"/><glyph d="M1673 999l-370 -452l256 -547h-287l-193 422h-131l-59 -422h-258l59 422h-131l-313 -422h-285l408 547l-242 452h299l176 -378h117l53 378h256l-53 -378h119l280 378h299z" glyph-name="uni0436" horiz-adv-x="1660" unicode="ж"/><glyph d="M385 -20q-157 0 -350 55l43 192q174 -49 348 -49q93 0 147 43.5t54 112.5q0 112 -148 112h-176l27 177h137q168 0 168 118q0 80 -146 80q-148 0 -321 -45l16 191q198 53 332 53q168 0 265.5 -69t97.5 -181q0 -83 -45 -150t-105 -90q65 -23 104 -73.5t39 -126.5 q0 -155 -136.5 -252.5t-350.5 -97.5z" glyph-name="uni0437" horiz-adv-x="960" unicode="з"/><glyph d="M1063 0h-258l76 535q10 73 18 94h-8q-16 -24 -74 -92l-469 -537h-260l141 999h256l-71 -516l-17 -92h6q16 23 76 92l463 516h262z" glyph-name="uni0438" horiz-adv-x="1292" unicode="и"/><glyph d="M735 1098q-143 0 -218.5 94.5t-55.5 249.5h190q-15 -95 14.5 -148t90.5 -53q62 0 105.5 52.5t58.5 148.5h190q-22 -155 -124.5 -249.5t-250.5 -94.5zM1063 0h-258l76 535q10 73 18 94h-8q-16 -24 -74 -92l-469 -537h-260l141 999h256l-71 -516l-17 -92h6q16 23 76 92 l463 516h262z" glyph-name="uni0439" horiz-adv-x="1292" unicode="й"/><glyph d="M1114 999l-383 -376l268 -623h-282l-166 444l-170 -168l-39 -276h-254l141 999h254l-57 -405l395 405h293z" glyph-name="uni043A" horiz-adv-x="1097" unicode="к"/><glyph d="M1198 999l-139 -999h-258l108 774h-334l-69 -332q-20 -96 -55 -177t-86.5 -146t-124 -102t-158.5 -37q-44 0 -88 6l26 227q27 -6 66 -6q62 0 104 75t72 216l105 501h831z" glyph-name="uni043B" horiz-adv-x="1286" unicode="л"/><glyph d="M66 0l188 999h252l160 -507q3 -14 11.5 -45.5t14 -55t6.5 -37.5h7q18 48 71 138l299 507h254l-94 -999h-252l43 434q6 64 18 111h-6q-22 -42 -77 -127l-191 -305h-209l-104 305q-35 92 -43 127h-6q0 -18 -13 -111l-76 -434h-253z" glyph-name="uni043C" horiz-adv-x="1441" unicode="м"/><glyph d="M897 999h252l-139 -999h-254l55 387l-414 -2l-55 -385h-254l141 999h254l-53 -383h414z" glyph-name="uni043D" horiz-adv-x="1236" unicode="н"/><glyph d="M492 -20q-196 0 -306 121t-110 319q0 170 69 306.5t197 215t293 78.5q197 0 307.5 -120t110.5 -318q0 -171 -70 -308t-198.5 -215.5t-292.5 -78.5zM518 168q88 0 152.5 59.5t94.5 148.5t30 193q0 117 -46.5 189.5t-138.5 72.5q-87 0 -152.5 -58t-96.5 -147t-31 -192 q0 -118 47 -192t141 -74z" glyph-name="uni043E" horiz-adv-x="1128" unicode="о"/><glyph d="M1069 999h68l-142 -999h-254l109 770h-399l-109 -770h-254l141 999l840 2v-2z" glyph-name="uni043F" horiz-adv-x="1222" unicode="п"/><glyph d="M31 -399l198 1398h213l9 -198h6q90 127 175 173t177 46q159 0 247.5 -109.5t88.5 -308.5q0 -143 -43.5 -263t-116 -197t-166 -119.5t-194.5 -42.5q-151 0 -277 73l-57 -411zM584 184q125 0 206.5 106t81.5 283q0 114 -40 179t-121 65t-158 -72.5t-139 -220.5l-33 -252 q88 -88 203 -88z" glyph-name="uni0440" horiz-adv-x="1220" unicode="р"/><glyph d="M500 -20q-198 0 -311 122t-113 322q0 261 158.5 428.5t410.5 167.5q153 0 332 -70l-45 -192q-157 63 -285 63q-97 0 -170 -55t-108 -137t-35 -176q0 -118 56.5 -196.5t168.5 -78.5q118 0 301 64l-10 -193q-204 -69 -350 -69z" glyph-name="uni0441" horiz-adv-x="974" unicode="с"/><glyph d="M1010 999l-35 -231h-303l-107 -768h-252l107 768h-301l33 231h858z" glyph-name="uni0442" horiz-adv-x="1017" unicode="т"/><glyph d="M838 999h266l-510 -999l-37 -72q-40 -83 -74 -138t-81.5 -104.5t-107.5 -73.5t-136 -24q-59 0 -127 11l28 200q35 -12 88 -12q24 0 45.5 12t40.5 36t31.5 44.5t28.5 52.5l35 68l-230 999h267l110 -532q15 -75 23 -178h8q18 52 74 178z" glyph-name="uni0443" horiz-adv-x="1060" unicode="у"/><glyph d="M1167 578q0 -240 -143 -402t-375 -196l-45 -310h-196l43 310q-177 26 -276 144.5t-99 303.5q0 240 144 400.5t376 191.5l45 309h197l-43 -309q175 -26 273.5 -143.5t98.5 -298.5zM332 444q0 -103 38.5 -173t108.5 -95l90 651q-106 -33 -171.5 -135.5t-65.5 -247.5z M676 176q107 36 172 139t65 246q0 101 -38.5 170t-106.5 94z" glyph-name="uni0444" horiz-adv-x="1243" unicode="ф"/><glyph d="M-43 0l412 508l-260 491h270l158 -344h8l252 344h268l-397 -491l266 -508h-268l-166 352h-6l-267 -352h-270z" glyph-name="uni0445" horiz-adv-x="1032" unicode="х"/><glyph d="M1149 999l-113 -794h109l-58 -410h-196l29 205h-832l141 999h254l-112 -794h409l115 794h254z" glyph-name="uni0446" horiz-adv-x="1267" unicode="ц"/><glyph d="M811 999h254l-141 -999h-254l43 299q-125 -76 -297 -76q-69 0 -124.5 23t-96.5 69t-57 125.5t-1 184.5l53 374h254l-51 -374q-7 -26 -3 -58.5t14 -60.5t40.5 -47t77.5 -19q49 0 108.5 16t110.5 48z" glyph-name="uni0447" horiz-adv-x="1132" unicode="ч"/><glyph d="M1382 999h256l-141 -999h-1409l141 999h256l-112 -796h319l113 796h256l-111 -794h320z" glyph-name="uni0448" horiz-adv-x="1726" unicode="ш"/><glyph d="M1638 999l-112 -794h112l-59 -410h-201l29 205h-1319l141 999h256l-112 -794h319l113 794h256l-111 -794h320l112 794h256z" glyph-name="uni0449" horiz-adv-x="1787" unicode="щ"/><glyph d="M725 707q160 0 257 -82.5t97 -225.5q0 -183 -128.5 -291t-325.5 -108h-480l115 807h-180l24 192h437l-27 -192l-14 -100h225zM643 193q86 0 138.5 46.5t52.5 143.5q0 67 -40 99t-108 32h-213l-45 -321h215z" glyph-name="uni044A" horiz-adv-x="1177" unicode="ъ"/><glyph d="M672 707q163 0 259.5 -81.5t96.5 -226.5q0 -183 -128.5 -291t-328.5 -108h-483l141 999h256l-41 -292h228zM1262 999h256l-142 -999h-256zM590 193q86 0 139 46t53 142q0 68 -40 100.5t-107 32.5h-217l-45 -321h217z" glyph-name="uni044B" horiz-adv-x="1605" unicode="ы"/><glyph d="M666 707q162 0 257 -81.5t95 -226.5q0 -182 -128 -290.5t-325 -108.5h-477l141 999h254l-41 -292h224zM584 193q84 0 136 46.5t52 143.5q0 67 -39 99t-106 32h-211l-45 -321h213z" glyph-name="uni044C" horiz-adv-x="1116" unicode="ь"/><glyph d="M483 1020q206 0 322.5 -119t116.5 -317q0 -172 -73 -309.5t-207 -216t-304 -78.5q-174 0 -342 49l29 198q162 -43 321 -43q108 0 184.5 62.5t112.5 163.5h-461l25 182h457q-10 99 -68.5 162t-161.5 63q-153 0 -334 -45l29 199q175 49 354 49z" glyph-name="uni044D" horiz-adv-x="997" unicode="э"/><glyph d="M1106 1020q197 0 308.5 -120.5t111.5 -317.5q0 -259 -158 -430.5t-407 -171.5q-195 0 -306.5 114.5t-113.5 304.5h-140l-57 -399h-256l141 999h256l-57 -397h141q55 190 198 304t339 114zM987 168q87 0 153 58.5t98 148.5t32 194q0 116 -49 189t-144 73 q-87 0 -152.5 -57.5t-96.5 -146.5t-31 -193q0 -118 47.5 -192t142.5 -74z" glyph-name="uni044E" horiz-adv-x="1601" unicode="ю"/><glyph d="M1059 999l-141 -999h-252l39 283h-181l-233 -283h-283l291 317q-82 38 -127 111.5t-45 169.5q0 182 126.5 291.5t328.5 109.5h477zM553 471h178l47 340h-176q-102 0 -161.5 -50t-59.5 -145q0 -71 46 -108t126 -37z" glyph-name="uni044F" horiz-adv-x="1146" unicode="я"/><glyph d="M465 1118q-44 0 -73.5 32.5t-29.5 80.5q0 61 43 104t99 43q44 0 71 -32t27 -80q0 -61 -41 -104.5t-96 -43.5zM793 1118q-45 0 -74 32.5t-29 80.5q0 61 42 104t97 43q45 0 73 -32t28 -80q0 -61 -41 -104.5t-96 -43.5zM547 172q75 0 175.5 23t186.5 63l-10 -188 q-193 -90 -379 -90q-215 0 -330.5 116.5t-115.5 317.5q0 132 44.5 246t121 192.5t181 123t220.5 44.5q173 0 281 -74.5t108 -208.5q0 -65 -22.5 -118.5t-60 -90.5t-93 -65t-114.5 -45t-132.5 -27.5t-138.5 -14.5t-141 -5q4 -104 57 -151.5t162 -47.5zM633 844 q-114 0 -192.5 -86t-98.5 -232q437 4 457 179q5 63 -37.5 101t-128.5 38z" glyph-name="uni0451" horiz-adv-x="1079" unicode="ё"/><glyph d="M1014 1565l-170 333h250l94 -333h-174zM1720 1454h271l-586 -1454h-277l-104 909q-7 69 -4 103h-8q-8 -35 -35 -103l-361 -909h-276l-174 1454h268l101 -819q16 -146 14 -195h8q11 42 72 195l323 819h252l94 -819q17 -152 15 -195h8q10 35 72 195z" glyph-name="Wgrave" horiz-adv-x="1886" unicode="Ẁ"/><glyph d="M782 1110l-170 334h250l94 -334h-174zM1235 999h266l-405 -999h-265l-55 549q-10 85 -10 121h-8q-4 -14 -10 -32t-16 -44t-17 -45l-209 -549h-266l-125 999h270l39 -622q0 -78 -4 -113h8q6 26 39 115l225 620h236l51 -620q4 -43 4 -115h8q15 67 31 113z" glyph-name="wgrave" horiz-adv-x="1476" unicode="ẁ"/><glyph d="M987 1567l191 334h256l-273 -334h-174zM1720 1454h271l-586 -1454h-277l-104 909q-7 69 -4 103h-8q-8 -35 -35 -103l-361 -909h-276l-174 1454h268l101 -819q16 -146 14 -195h8q11 42 72 195l323 819h252l94 -819q17 -152 15 -195h8q10 35 72 195z" glyph-name="Wacute" horiz-adv-x="1886" unicode="Ẃ"/><glyph d="M756 1112l190 334h256l-272 -334h-174zM1235 999h266l-405 -999h-265l-55 549q-10 85 -10 121h-8q-4 -14 -10 -32t-16 -44t-17 -45l-209 -549h-266l-125 999h270l39 -622q0 -78 -4 -113h8q6 26 39 115l225 620h236l51 -620q4 -43 4 -115h8q15 67 31 113z" glyph-name="wacute" horiz-adv-x="1476" unicode="ẃ"/><glyph d="M934 1573q-44 0 -73.5 32.5t-29.5 80.5q0 61 43 104t99 43q43 0 70.5 -32.5t27.5 -80.5q0 -61 -41 -104t-96 -43zM1262 1573q-45 0 -74 32.5t-29 80.5q0 61 42 104t97 43q45 0 73 -32.5t28 -80.5q0 -61 -41 -104t-96 -43zM1720 1454h271l-586 -1454h-277l-104 909 q-7 69 -4 103h-8q-8 -35 -35 -103l-361 -909h-276l-174 1454h268l101 -819q16 -146 14 -195h8q11 42 72 195l323 819h252l94 -819q17 -152 15 -195h8q10 35 72 195z" glyph-name="Wdieresis" horiz-adv-x="1886" unicode="Ẅ"/><glyph d="M702 1118q-44 0 -73 32.5t-29 80.5q0 61 42.5 104t98.5 43q44 0 71.5 -32t27.5 -80q0 -61 -41.5 -104.5t-96.5 -43.5zM1030 1118q-45 0 -73.5 32.5t-28.5 80.5q0 61 42 104t97 43q45 0 72.5 -32t27.5 -80q0 -61 -41 -104.5t-96 -43.5zM1235 999h266l-405 -999h-265 l-55 549q-10 85 -10 121h-8q-4 -14 -10 -32t-16 -44t-17 -45l-209 -549h-266l-125 999h270l39 -622q0 -78 -4 -113h8q6 26 39 115l225 620h236l51 -620q4 -43 4 -115h8q15 67 31 113z" glyph-name="wdieresis" horiz-adv-x="1476" unicode="ẅ"/><glyph d="M725 1565l-170 333h250l94 -333h-174zM446 0l72 502l-356 952h272l189 -498q51 -133 63 -186h6q18 35 113 186l319 498h273l-617 -952l-69 -502h-265z" glyph-name="Ygrave" horiz-adv-x="1290" unicode="Ỳ"/><glyph d="M547 1110l-170 334h250l94 -334h-174zM838 999h266l-510 -999l-37 -72q-40 -83 -74 -138t-81.5 -104.5t-107.5 -73.5t-136 -24q-59 0 -127 11l28 200q35 -12 88 -12q24 0 45.5 12t40.5 36t31.5 44.5t28.5 52.5l35 68l-230 999h267l110 -532q15 -75 23 -178h8 q18 52 74 178z" glyph-name="ygrave" horiz-adv-x="1060" unicode="ỳ"/><glyph d="M127 483l31 211h1175l-30 -211h-1176z" glyph-name="endash" horiz-adv-x="1435" unicode="–"/><glyph d="M145 483l31 211h1761l-30 -211h-1762z" glyph-name="emdash" horiz-adv-x="2058" unicode="—"/><glyph d="M526 1475l-14 -107q-63 -3 -115 -43.5t-67 -87.5h26q55 0 88 -40t33 -101q0 -84 -53.5 -139.5t-132.5 -55.5q-60 0 -95.5 42.5t-35.5 111.5q0 163 106 288.5t260 131.5z" glyph-name="quoteleft" horiz-adv-x="475" unicode="‘"/><glyph d="M139 901l17 105q63 4 115 45t65 88h-27q-54 0 -86.5 40t-32.5 101q0 84 53 139.5t132 55.5q61 0 96 -42t35 -112q0 -164 -107 -289t-260 -131z" glyph-name="quoteright" horiz-adv-x="473" unicode="’"/><glyph d="M-6 -248l16 105q63 3 115 44t63 87h-24q-54 0 -86.5 40t-32.5 103q0 83 52 139t130 56q61 0 96 -42t35 -112q0 -107 -47 -202t-131.5 -155t-185.5 -63z" glyph-name="quotesinglbase" horiz-adv-x="462" unicode="‚"/><glyph d="M545 1475l-15 -107q-66 -3 -120.5 -43.5t-69.5 -87.5h27q59 0 95 -41t36 -102q0 -84 -56 -138.5t-139 -54.5q-65 0 -103 43.5t-38 114.5q0 106 49.5 200t138 153t195.5 63zM985 1475l-16 -107q-68 -3 -123 -44t-68 -87h25q60 0 95.5 -40.5t35.5 -102.5q0 -84 -55 -138.5 t-136 -54.5q-65 0 -103 43.5t-38 114.5q0 163 110 286.5t273 129.5z" glyph-name="quotedblleft" horiz-adv-x="931" unicode="“"/><glyph d="M141 901l17 105q69 4 123 45t67 88h-24q-61 0 -96 40.5t-35 102.5q0 84 55 138.5t137 54.5q65 0 103 -43.5t38 -114.5q0 -163 -111 -286.5t-274 -129.5zM582 901l14 105q67 4 122 45t68 88h-26q-59 0 -94 40.5t-35 102.5q0 84 54.5 138.5t137.5 54.5q64 0 103 -43.5 t39 -114.5q0 -162 -111.5 -286t-271.5 -130z" glyph-name="quotedblright" horiz-adv-x="933" unicode="”"/><glyph d="M-18 -248l14 107q68 3 122.5 44t67.5 87h-24q-60 0 -95.5 40.5t-35.5 102.5q0 84 55 138.5t137 54.5q65 0 103.5 -43t38.5 -113q0 -164 -110.5 -288t-272.5 -130zM422 -248l14 107q67 3 121.5 44t67.5 87h-25q-59 0 -95 41t-36 102q0 84 54.5 138.5t138.5 54.5 q64 0 102.5 -43t38.5 -113q0 -163 -111 -287.5t-270 -130.5z" glyph-name="quotedblbase" horiz-adv-x="933" unicode="„"/><glyph d="M838 1339l-25 -174h-219l-70 -493h-192l71 493h-219l23 174h221l25 177h190l-25 -177h220z" glyph-name="dagger" horiz-adv-x="811" unicode="†"/><glyph d="M815 1165h-219l-18 -143h219l-25 -174h-219l-25 -176h-192l24 176h-221l25 174h221l21 143h-222l25 174h221l25 177h190l-24 -177h221z" glyph-name="daggerdbl" horiz-adv-x="813" unicode="‡"/><glyph d="M406 190q-118 0 -192.5 82t-74.5 207q0 158 108.5 270.5t256.5 112.5q116 0 190 -82.5t74 -208.5q0 -158 -108 -269.5t-254 -111.5z" glyph-name="bullet" horiz-adv-x="901" unicode="•"/><glyph d="M274 336q56 0 90.5 -42t34.5 -106q0 -83 -52.5 -140.5t-125.5 -57.5h-12h-12q-56 0 -90.5 41t-34.5 106q0 82 53.5 140.5t124.5 58.5h12h12z" glyph-name="ellipsis" horiz-adv-x="667" unicode="…"/><glyph d="M494 770q-137 0 -218 82t-81 219q0 180 112 292t285 112q137 0 218 -81.5t81 -217.5q0 -178 -112.5 -292t-284.5 -114zM266 0l1125 1454h237l-1124 -1454h-238zM514 918q77 0 127.5 69t50.5 178q0 77 -32.5 119.5t-88.5 42.5q-77 0 -126.5 -66t-49.5 -178q0 -77 32 -121 t87 -44zM1303 -20q-137 0 -217 82.5t-80 220.5q0 179 111 290t284 111q138 0 218.5 -81t80.5 -216q0 -178 -112.5 -292.5t-284.5 -114.5zM2079 -20q-137 0 -218 83t-81 220q0 178 112 289.5t285 111.5q137 0 217 -81t80 -216q0 -178 -112 -292.5t-283 -114.5zM1323 129 q78 0 128 68.5t50 179.5q0 76 -32.5 119t-88.5 43q-76 0 -125 -66.5t-49 -177.5q0 -78 31 -122t86 -44zM2099 129q76 0 126 68.5t50 179.5q0 76 -32.5 119t-88.5 43q-75 0 -124.5 -67t-49.5 -177q0 -78 31 -122t88 -44z" glyph-name="perthousand" horiz-adv-x="2584" unicode="‰"/><glyph d="M289 92l-228 406l340 403h254l-362 -403l250 -406h-254z" glyph-name="guilsinglleft" horiz-adv-x="641" unicode="‹"/><glyph d="M-16 92l364 406l-250 403h256l226 -403l-342 -406h-254z" glyph-name="guilsinglright" horiz-adv-x="641" unicode="›"/><glyph d="M-391 0l1089 1454h211l-1089 -1454h-211z" glyph-name="fraction" horiz-adv-x="454" unicode="⁄"/><glyph d="M551 510q-172 0 -272.5 131t-100.5 342q0 143 41 269t112.5 215t170.5 140.5t211 51.5q172 0 272 -128.5t100 -338.5q0 -192 -69 -348t-191.5 -245t-273.5 -89zM575 682q71 0 129 46t92.5 120t53 161t18.5 177q0 86 -17.5 152.5t-59.5 109.5t-105 43q-71 0 -128.5 -46 t-92 -120t-52.5 -161t-18 -177q0 -85 17.5 -151.5t59 -110t103.5 -43.5z" glyph-name="uni2070" horiz-adv-x="1097" unicode="⁰"/><glyph d="M578 535l30 219h-530l20 141l650 739h200l-100 -712h147l-41 -168h-133l-30 -219h-213zM342 922h291l59 430z" glyph-name="uni2074" horiz-adv-x="1007" unicode="⁴"/><glyph d="M426 510q-164 0 -344 74l37 166q81 -32 172.5 -50t150.5 -18q114 0 172 68.5t58 183.5q0 80 -40 123t-110 43q-93 0 -194 -94l-160 10l129 618h639l-37 -168l-459 -2l-55 -274q49 39 96 58.5t111 19.5q137 0 220 -87.5t83 -234.5q0 -194 -129 -315t-340 -121z" glyph-name="uni2075" horiz-adv-x="925" unicode="⁵"/><glyph d="M518 510q-169 0 -262.5 116.5t-93.5 317.5q0 197 62.5 358t185.5 259t286 98q120 0 289 -68l-37 -168q-83 36 -134 52t-103 16q-122 0 -193.5 -83.5t-109.5 -256.5h6q114 123 262 123q134 0 217.5 -88t83.5 -236q0 -195 -130.5 -317.5t-328.5 -122.5zM539 682 q92 0 152.5 71t60.5 177q0 78 -41.5 125t-114.5 47q-91 0 -152 -67.5t-61 -172.5q0 -80 42.5 -130t113.5 -50z" glyph-name="uni2076" horiz-adv-x="1007" unicode="⁶"/><glyph d="M186 535l461 931h-454l36 168h672l-18 -141l-471 -958h-226z" glyph-name="uni2077" horiz-adv-x="815" unicode="⁷"/><glyph d="M485 510q-169 0 -268.5 80.5t-99.5 212.5q0 104 56 187t157 124q-99 72 -99 199q0 157 116.5 251.5t299.5 94.5q151 0 237.5 -71t86.5 -195q0 -185 -162 -279q135 -60 135 -231q0 -165 -129 -269t-330 -104zM578 1184q75 0 121 49t46 129q0 56 -33 90.5t-91 34.5 q-71 0 -117.5 -48t-46.5 -124q0 -59 33 -95t88 -36zM510 682q94 0 153.5 56.5t59.5 148.5q0 69 -43.5 110t-118.5 41q-97 0 -157 -55t-60 -147q0 -69 45 -111.5t121 -42.5z" glyph-name="uni2078" horiz-adv-x="966" unicode="⁸"/><glyph d="M465 510q-152 0 -315 78l40 168q78 -40 140 -56t135 -16q119 0 190.5 80.5t102.5 247.5h-2q-48 -57 -115 -87t-135 -30q-144 0 -227.5 87.5t-83.5 234.5q0 197 128.5 319.5t331.5 122.5q166 0 261.5 -117t95.5 -317q0 -204 -67 -366.5t-192.5 -255.5t-287.5 -93z M571 1065q94 0 154.5 67t60.5 179q0 83 -41 131.5t-112 48.5q-93 0 -154 -69.5t-61 -184.5q0 -78 42 -125t111 -47z" glyph-name="uni2079" horiz-adv-x="1009" unicode="⁹"/><glyph d="M446 -229q-172 0 -272 131t-100 342q0 144 41 270t112 215t170 140t211 51q173 0 273 -127.5t100 -339.5q0 -192 -69.5 -348t-192.5 -245t-273 -89zM471 -57q71 0 129 46t92.5 121t53 162t18.5 177q0 86 -17.5 152t-59.5 108.5t-105 42.5q-71 0 -128.5 -45.5t-92 -119.5 t-52.5 -161.5t-18 -177.5q0 -84 17.5 -150.5t59 -110.5t103.5 -44z" glyph-name="uni2080" horiz-adv-x="1097" unicode="₀"/><glyph d="M123 -205l133 932l-188 -49l20 133l244 84h155l-155 -1100h-209z" glyph-name="uni2081" horiz-adv-x="577" unicode="₁"/><glyph d="M-25 -205l23 154l174 178q76 76 166 161t130 123.5t80 83.5t53 75t13 65q0 117 -155 117q-121 0 -318 -72l6 166q201 74 340 74q176 0 264.5 -75t88.5 -192q0 -44 -13.5 -86t-31 -73.5t-61.5 -80t-75.5 -79.5t-105 -100.5t-119.5 -114.5l-151 -152h483l-27 -172h-764z" glyph-name="uni2082" horiz-adv-x="929" unicode="₂"/><glyph d="M322 -229q-147 0 -326 75l37 166q170 -69 311 -69q105 0 163 57t58 154q0 137 -159 137h-95l25 174h86q71 0 117.5 47t46.5 125q0 115 -144 115q-101 0 -299 -66l13 166q101 37 170.5 52.5t142.5 15.5q162 0 251 -72.5t89 -196.5q0 -90 -41.5 -169t-101.5 -107 q60 -25 92.5 -82.5t32.5 -136.5q0 -169 -131 -277t-338 -108z" glyph-name="uni2083" horiz-adv-x="944" unicode="₃"/><glyph d="M473 -205l31 221h-529l19 140l649 739h201l-101 -713h148l-41 -166h-131l-31 -221h-215zM238 182h290l60 430z" glyph-name="uni2084" horiz-adv-x="1007" unicode="₄"/><glyph d="M322 -229q-170 0 -342 75l34 166q80 -33 172.5 -51t153.5 -18q113 0 171 69.5t58 184.5q0 79 -39.5 121t-109.5 42q-96 0 -197 -94l-160 10l132 619h636l-36 -168l-459 -2l-55 -272q50 38 96.5 56.5t111.5 18.5q136 0 220 -87t84 -232q0 -194 -130 -316t-341 -122z" glyph-name="uni2085" horiz-adv-x="927" unicode="₅"/><glyph d="M416 -229q-170 0 -263.5 116t-93.5 318q0 198 62 358.5t185 258.5t286 98q120 0 289 -68l-37 -166q-151 66 -236 66q-122 0 -194 -83t-111 -255h6q59 64 122 92.5t140 28.5q133 0 217 -88t84 -234q0 -197 -129 -319.5t-327 -122.5zM436 -57q90 0 150.5 71t60.5 176 q0 79 -41 125.5t-112 46.5q-93 0 -154 -66t-61 -171q0 -81 42.5 -131.5t114.5 -50.5z" glyph-name="uni2086" horiz-adv-x="1007" unicode="₆"/><glyph d="M84 -205l461 932h-455l37 168h672l-19 -141l-471 -959h-225z" glyph-name="uni2087" horiz-adv-x="815" unicode="₇"/><glyph d="M383 -229q-169 0 -269 80t-100 212q0 105 55.5 188t157.5 124q-98 75 -98 200q0 156 116.5 250.5t299.5 94.5q151 0 237 -71t86 -196q0 -185 -161 -278q66 -30 100.5 -90.5t34.5 -141.5q0 -165 -129 -268.5t-330 -103.5zM475 444q75 0 121.5 50.5t46.5 128.5 q0 57 -33.5 91t-91.5 34q-71 0 -117.5 -48t-46.5 -125q0 -59 33 -95t88 -36zM408 -57q94 0 153.5 56.5t59.5 147.5q0 69 -43.5 110.5t-118.5 41.5q-97 0 -157 -55.5t-60 -147.5q0 -69 45 -111t121 -42z" glyph-name="uni2088" horiz-adv-x="966" unicode="₈"/><glyph d="M362 -229q-148 0 -315 77l41 168q77 -40 139 -55.5t135 -15.5q118 0 190 81t103 248h-4q-46 -56 -113.5 -87t-134.5 -31q-144 0 -227.5 87.5t-83.5 233.5q0 197 129 320t332 123q167 0 261.5 -116.5t94.5 -318.5q0 -203 -67 -365t-192.5 -255.5t-287.5 -93.5zM469 328 q94 0 154.5 66t60.5 177q0 84 -41.5 132.5t-112.5 48.5q-93 0 -154 -69.5t-61 -184.5q0 -76 42.5 -123t111.5 -47z" glyph-name="uni2089" horiz-adv-x="1009" unicode="₉"/><glyph d="M1038 1257q-144 0 -253.5 -65t-178.5 -180h543l-29 -203h-592q-16 -78 -16 -156h588l-31 -202h-528q41 -119 130 -186.5t220 -67.5q90 0 208 27.5t234 74.5l-8 -211q-266 -108 -520 -108q-224 0 -369 126.5t-184 344.5h-195l29 202h152q3 83 18 156h-147l26 203h182 q93 215 277.5 339t419.5 124q250 0 489 -109l-49 -213q-102 50 -212.5 77t-203.5 27z" glyph-name="Euro" horiz-adv-x="1482" unicode="€"/><glyph d="M815 1296h-215l-100 -714h-213l100 714h-213l21 158h643zM1714 1454h170l-86 -872h-213l39 467l-242 -375h-122l-140 375l-90 -467h-215l158 872h174l205 -555z" glyph-name="trademark" horiz-adv-x="1906" unicode="™"/><glyph d="M55 0l1090 1454h211l-1090 -1454h-211zM182 641l97 668l-146 -35l17 115l190 65h141l-119 -813h-180zM1155 -16q-129 0 -205 58.5t-76 158.5q0 72 37 134t115 95q-65 49 -65 137q0 122 87 192t228 70q110 0 175 -53t65 -147q0 -69 -26.5 -116.5t-84.5 -82.5 q92 -46 92 -166q0 -127 -96.5 -203.5t-245.5 -76.5zM1221 483q42 0 68 34t26 87q0 37 -18 57.5t-50 20.5q-38 0 -63 -31.5t-25 -85.5q0 -37 16.5 -59.5t45.5 -22.5zM1176 129q52 0 88 38t36 97q0 43 -25 70.5t-65 27.5q-58 0 -93.5 -37.5t-35.5 -99.5q0 -42 26 -69t69 -27z" glyph-name="oneeighth" horiz-adv-x="1579" unicode="⅛"/><glyph d="M315 625q-109 0 -237 47l31 143q137 -45 225 -45q137 0 137 143q0 86 -90 86h-72l21 150h61q37 0 62.5 32t25.5 79q0 63 -82 63q-83 0 -211 -39l13 148q133 43 227 43q121 0 188.5 -54.5t67.5 -148.5q0 -67 -30 -126t-68 -73q41 -20 62.5 -63t21.5 -99q0 -127 -99 -206.5 t-254 -79.5zM373 0l1089 1454h211l-1089 -1454h-211zM1583 -16q-129 0 -204.5 58.5t-75.5 158.5q0 73 36.5 134.5t114.5 94.5q-65 49 -65 137q0 122 87 192t228 70q110 0 175 -53t65 -147q0 -69 -26.5 -116.5t-84.5 -82.5q92 -46 92 -166q0 -127 -96.5 -203.5t-245.5 -76.5z M1649 483q42 0 68 34t26 87q0 37 -18 57.5t-50 20.5q-38 0 -63 -31.5t-25 -85.5q0 -37 16.5 -59.5t45.5 -22.5zM1604 129q52 0 88.5 38t36.5 97q0 43 -25.5 70.5t-65.5 27.5q-58 0 -93.5 -37.5t-35.5 -99.5q0 -42 26 -69t69 -27z" glyph-name="threeeighths" horiz-adv-x="2007" unicode="⅜"/><glyph d="M319 627q-118 0 -251 47l32 143q57 -20 128 -32.5t112 -12.5q59 0 91 45.5t32 122.5q0 100 -82 100q-46 0 -115 -49l-133 10l92 453h469l-35 -145l-307 -4l-35 -168q31 28 58.5 40.5t70.5 12.5q98 0 160 -66.5t62 -173.5q0 -146 -98.5 -234.5t-250.5 -88.5zM272 0 l1090 1454h211l-1090 -1454h-211zM1372 -16q-129 0 -204.5 58.5t-75.5 158.5q0 73 36.5 134.5t114.5 94.5q-65 49 -65 137q0 122 87 192t228 70q110 0 175 -53t65 -147q0 -69 -26.5 -116.5t-84.5 -82.5q92 -46 92 -166q0 -127 -96.5 -203.5t-245.5 -76.5zM1438 483 q42 0 68 34t26 87q0 37 -18 57.5t-50 20.5q-38 0 -63 -31.5t-25 -85.5q0 -37 16.5 -59.5t45.5 -22.5zM1393 129q52 0 88.5 38t36.5 97q0 43 -25.5 70.5t-65.5 27.5q-58 0 -93.5 -37.5t-35.5 -99.5q0 -42 26 -69t69 -27z" glyph-name="fiveeighths" horiz-adv-x="1796" unicode="⅝"/><glyph d="M141 643l312 666h-306l33 145h498l-16 -113l-322 -698h-199zM227 0l1090 1454h211l-1090 -1454h-211zM1452 -16q-129 0 -205 58.5t-76 158.5q0 72 37 134t115 95q-66 50 -66 137q0 122 87.5 192t228.5 70q110 0 174.5 -53t64.5 -147q0 -69 -26 -116.5t-84 -82.5 q92 -46 92 -166q0 -127 -96.5 -203.5t-245.5 -76.5zM1518 483q42 0 68 34t26 87q0 37 -18 57.5t-50 20.5q-38 0 -63 -31.5t-25 -85.5q0 -37 16.5 -59.5t45.5 -22.5zM1473 129q52 0 88 38t36 97q0 43 -25 70.5t-65 27.5q-58 0 -93.5 -37.5t-35.5 -99.5q0 -42 26 -69t69 -27z" glyph-name="seveneighths" horiz-adv-x="1875" unicode="⅞"/><glyph d="M1210 688l-30 -235h-713l203 -297h-299l-283 413l397 414h299l-282 -295h708z" glyph-name="arrowleft" horiz-adv-x="1265" unicode="←"/><glyph d="M874 815l-45 -311l-225 270l-110 -774h-226l109 770l-297 -266l45 311l426 385z" glyph-name="arrowup" horiz-adv-x="909" unicode="↑"/><glyph d="M915 983l279 -414l-395 -413h-301l284 297h-708l32 235h709l-201 295h301z" glyph-name="arrowright" horiz-adv-x="1265" unicode="→"/><glyph d="M557 426l299 270l-45 -311l-426 -385l-322 385l46 311l221 -266l108 770h226z" glyph-name="arrowdown" horiz-adv-x="909" unicode="↓"/><glyph d="M469 -20q-179 0 -283 111t-104 296q0 119 39.5 222t107 173.5t159 111t192.5 40.5q64 0 125 -23t86 -75q13 190 -79 321t-218 131q-50 0 -80 -12l26 178q42 10 82 10q157 0 268 -92.5t166.5 -258t55.5 -388.5q0 -180 -42 -323.5t-116 -234.5t-172 -139t-213 -48zM498 180 q104 0 169.5 92t65.5 248q0 103 -42.5 159t-117.5 56q-102 0 -167.5 -89.5t-65.5 -244.5q0 -105 42.5 -163t115.5 -58z" glyph-name="partialdiff" horiz-adv-x="1085" unicode="∂"/><glyph d="M1581 1516l-29 -209h-241l-213 -1512h-228l213 1512h-321l-213 -1512h-230l213 1512h-241l28 209h1262z" glyph-name="product" horiz-adv-x="1617" unicode="∏"/><glyph d="M59 -68l-10 244l473 553l-323 520l82 244h716l-57 -209h-469l336 -555l-498 -588h469l-2 -209h-717z" glyph-name="summation" horiz-adv-x="946" unicode="∑"/><glyph d="M106 487l31 205h832l-31 -205h-832z" glyph-name="minus" horiz-adv-x="1050" unicode="−"/><glyph d="M268 0l-170 700h232l106 -458l600 1212h363l-27 -180h-225l-610 -1274h-269z" glyph-name="radical" horiz-adv-x="1222" unicode="√"/><glyph d="M1196 963q143 0 228 -88.5t85 -229.5q0 -180 -118 -294.5t-297 -114.5q-96 0 -168.5 55t-139.5 160q-104 -109 -189.5 -163.5t-180.5 -54.5q-145 0 -230.5 84.5t-85.5 221.5q0 183 119 302.5t299 119.5q96 0 167.5 -57.5t139.5 -168.5q101 113 187.5 170.5t183.5 57.5z M1120 424q88 0 139.5 52t51.5 140q0 66 -38 105t-106 39q-54 0 -125 -45.5t-137 -122.5q42 -77 100.5 -122.5t114.5 -45.5zM442 422q57 0 128 45t135 123q-45 77 -103 122.5t-113 45.5q-86 0 -138 -53.5t-52 -141.5q0 -66 38 -103.5t105 -37.5z" glyph-name="infinity" horiz-adv-x="1585" unicode="∞"/><glyph d="M700 1475q109 0 207 -58l-73 -168q-64 31 -99 31q-43 0 -73 -30t-37 -83l-58 -411l-94 -674q-22 -155 -111.5 -244.5t-224.5 -89.5q-110 0 -209 57l76 168q58 -30 100 -30t71.5 30t35.5 82l98 701l56 385q23 157 111.5 245.5t223.5 88.5z" glyph-name="integral" horiz-adv-x="804" unicode="∫"/><glyph d="M193 745l-68 132q79 69 151.5 98t127.5 24t106.5 -25t97 -42.5t88.5 -34t91.5 5.5t97.5 70l82 -119q-66 -67 -126.5 -106.5t-108.5 -50.5t-93 -7t-83 20.5t-74 35.5t-70.5 34.5t-68.5 21.5t-72.5 -7.5t-77.5 -49.5zM135 336l-67 131q78 69 150.5 98t127.5 24t106.5 -25 t96.5 -42.5t88.5 -34t92 5.5t97.5 70l82 -119q-83 -85 -158.5 -125.5t-132 -40t-108 18.5t-97 44t-88.5 42.5t-92 7.5t-98 -55z" glyph-name="approxequal" horiz-adv-x="989" unicode="≈"/><glyph d="M1010 709h-303l-103 -238h373l-29 -203h-432l-82 -190h-211l82 190h-209l29 203h268l103 238h-338l30 202h396l86 199h209l-86 -199h245z" glyph-name="notequal" horiz-adv-x="1110" unicode="≠"/><glyph d="M207 750l903 340l-37 -259l-506 -143l467 -143l-37 -258l-809 340zM1022 195l-29 -195h-930l27 195h932z" glyph-name="lessequal" horiz-adv-x="1198" unicode="≤"/><glyph d="M1059 750l-19 -123l-901 -340l37 258l506 143l-467 143l39 259zM90 195h930l-29 -195h-928z" glyph-name="greaterequal" horiz-adv-x="1196" unicode="≥"/><glyph d="M842 1454l307 -723l-508 -731h-231l-306 731l508 723h230zM553 201l371 518l-226 530l-370 -530z" glyph-name="lozenge" horiz-adv-x="1187" unicode="◊"/><glyph d="M1247 1044q0 -181 -96.5 -314t-261.5 -189l256 -541h-293l-234 508h-174l-71 -508h-267l205 1454h500q201 0 318.5 -112.5t117.5 -297.5zM545 1223l-68 -484h213q134 0 209.5 78.5t75.5 202.5q0 91 -56.5 147t-160.5 56h-213z" glyph-name="R.ss04" horiz-adv-x="1286"/><glyph d="M1090 1901l-273 -334h-174l191 334h256zM1247 1044q0 -181 -96.5 -314t-261.5 -189l256 -541h-293l-234 508h-174l-71 -508h-267l205 1454h500q201 0 318.5 -112.5t117.5 -297.5zM545 1223l-68 -484h213q134 0 209.5 78.5t75.5 202.5q0 91 -56.5 147t-160.5 56h-213z" glyph-name="Racute.ss04" horiz-adv-x="1286"/><glyph d="M809 1567h-131l-242 334h228l102 -183l152 183h227zM1247 1044q0 -181 -96.5 -314t-261.5 -189l256 -541h-293l-234 508h-174l-71 -508h-267l205 1454h500q201 0 318.5 -112.5t117.5 -297.5zM545 1223l-68 -484h213q134 0 209.5 78.5t75.5 202.5q0 91 -56.5 147 t-160.5 56h-213z" glyph-name="Rcaron.ss04" horiz-adv-x="1286"/><glyph d="M1247 1044q0 -181 -96.5 -314t-261.5 -189l256 -541h-293l-234 508h-174l-71 -508h-267l205 1454h500q201 0 318.5 -112.5t117.5 -297.5zM545 1223l-68 -484h213q134 0 209.5 78.5t75.5 202.5q0 91 -56.5 147t-160.5 56h-213zM303 -592l150 449h245l-219 -449h-176z" glyph-name="Rcommaaccent.ss04" horiz-adv-x="1286"/><glyph d="M1501 844q0 -246 -105 -444t-286 -308l262 -72l-80 -219l-587 179q-268 0 -428 176t-160 462q0 183 62 343.5t168.5 272.5t253.5 176.5t312 64.5q268 0 428 -173.5t160 -457.5zM391 639q0 -197 91.5 -319.5t252.5 -122.5q140 0 253.5 84.5t176 227.5t62.5 314 q0 195 -91 314.5t-253 119.5q-142 0 -255 -82t-175 -223t-62 -313z" glyph-name="Q.ss05" horiz-adv-x="1552"/><glyph d="M911 1257q-158 0 -278 -85.5t-181 -224t-61 -304.5q0 -128 41.5 -227t131 -159t216.5 -60q89 0 209 30l51 361h-301l13 209h569l-100 -709q-258 -108 -529 -108q-273 0 -425 171.5t-152 456.5q0 249 100.5 447.5t276.5 309t395 110.5q252 0 491 -109l-49 -213 q-213 104 -418 104z" glyph-name="G.ss06" horiz-adv-x="1378"/><glyph d="M909 1552q-143 0 -218.5 94.5t-55.5 249.5h190q-15 -95 14.5 -147.5t90.5 -52.5q62 0 105.5 52t58.5 148h190q-22 -155 -124.5 -249.5t-250.5 -94.5zM911 1257q-158 0 -278 -85.5t-181 -224t-61 -304.5q0 -128 41.5 -227t131 -159t216.5 -60q89 0 209 30l51 361h-301 l13 209h569l-100 -709q-258 -108 -529 -108q-273 0 -425 171.5t-152 456.5q0 249 100.5 447.5t276.5 309t395 110.5q252 0 491 -109l-49 -213q-213 104 -418 104z" glyph-name="Gbreve.ss06" horiz-adv-x="1378"/><glyph d="M911 1257q-158 0 -278 -85.5t-181 -224t-61 -304.5q0 -128 41.5 -227t131 -159t216.5 -60q89 0 209 30l51 361h-301l13 209h569l-100 -709q-258 -108 -529 -108q-273 0 -425 171.5t-152 456.5q0 249 100.5 447.5t276.5 309t395 110.5q252 0 491 -109l-49 -213 q-213 104 -418 104zM430 -592l150 449h245l-219 -449h-176z" glyph-name="Gcommaaccent.ss06" horiz-adv-x="1378"/><glyph d="M911 1575q-49 0 -80.5 37t-31.5 94q0 73 47.5 125.5t109.5 52.5q52 0 82.5 -36.5t30.5 -94.5q0 -73 -47 -125.5t-111 -52.5zM911 1257q-158 0 -278 -85.5t-181 -224t-61 -304.5q0 -128 41.5 -227t131 -159t216.5 -60q89 0 209 30l51 361h-301l13 209h569l-100 -709 q-258 -108 -529 -108q-273 0 -425 171.5t-152 456.5q0 249 100.5 447.5t276.5 309t395 110.5q252 0 491 -109l-49 -213q-213 104 -418 104z" glyph-name="Gdotaccent.ss06" horiz-adv-x="1378"/><glyph d="M1380 1454l-673 -719l505 -735h-309l-444 657l-92 -657h-265l205 1454h264l-88 -625l590 625h307z" glyph-name="K.ss08" horiz-adv-x="1302"/><glyph d="M1380 1454l-673 -719l505 -735h-309l-444 657l-92 -657h-265l205 1454h264l-88 -625l590 625h307zM330 -592l149 449h246l-219 -449h-176z" glyph-name="Kcommaaccent.ss08" horiz-adv-x="1302"/><glyph d="M340 1120q-49 0 -81 37t-32 94q0 73 48 126t110 53q52 0 82.5 -37t30.5 -95q0 -73 -47 -125.5t-111 -52.5zM61 0l142 999h241l-141 -999h-242z" glyph-name="i.loclTRK" horiz-adv-x="505"/><glyph d="M352 -20q-122 0 -202 73t-80 195q0 315 417 346l226 18l6 41q10 94 -26.5 134t-119.5 40q-128 0 -323 -59l12 186q219 66 356 66q187 0 284 -92.5t71 -261.5l-60 -433q-6 -73 45 -73q22 0 52 6l-35 -168q-46 -12 -111 -12q-98 0 -149.5 33t-61.5 104h-8 q-67 -79 -136 -111t-157 -32zM440 160q65 0 125 32t103 89l22 174l-168 -17q-100 -10 -147 -56t-47 -114q0 -48 28.5 -78t83.5 -30z" glyph-name="a.ss01" horiz-adv-x="1118"/><glyph d="M520 1112l191 334h256l-273 -334h-174zM352 -20q-122 0 -202 73t-80 195q0 315 417 346l226 18l6 41q10 94 -26.5 134t-119.5 40q-128 0 -323 -59l12 186q219 66 356 66q187 0 284 -92.5t71 -261.5l-60 -433q-6 -73 45 -73q22 0 52 6l-35 -168q-46 -12 -111 -12 q-98 0 -149.5 33t-61.5 104h-8q-67 -79 -136 -111t-157 -32zM440 160q65 0 125 32t103 89l22 174l-168 -17q-100 -10 -147 -56t-47 -114q0 -48 28.5 -78t83.5 -30z" glyph-name="aacute.ss01" horiz-adv-x="1118"/><glyph d="M623 1098q-143 0 -219 94.5t-56 249.5h191q-15 -95 14 -148t90 -53q62 0 105.5 52.5t58.5 148.5h190q-22 -155 -124 -249.5t-250 -94.5zM352 -20q-122 0 -202 73t-80 195q0 315 417 346l226 18l6 41q10 94 -26.5 134t-119.5 40q-128 0 -323 -59l12 186q219 66 356 66 q187 0 284 -92.5t71 -261.5l-60 -433q-6 -73 45 -73q22 0 52 6l-35 -168q-46 -12 -111 -12q-98 0 -149.5 33t-61.5 104h-8q-67 -79 -136 -111t-157 -32zM440 160q65 0 125 32t103 89l22 174l-168 -17q-100 -10 -147 -56t-47 -114q0 -48 28.5 -78t83.5 -30z" glyph-name="abreve.ss01" horiz-adv-x="1118"/><glyph d="M981 1110h-227l-103 180l-153 -180h-226l334 334h129zM352 -20q-122 0 -202 73t-80 195q0 315 417 346l226 18l6 41q10 94 -26.5 134t-119.5 40q-128 0 -323 -59l12 186q219 66 356 66q187 0 284 -92.5t71 -261.5l-60 -433q-6 -73 45 -73q22 0 52 6l-35 -168 q-46 -12 -111 -12q-98 0 -149.5 33t-61.5 104h-8q-67 -79 -136 -111t-157 -32zM440 160q65 0 125 32t103 89l22 174l-168 -17q-100 -10 -147 -56t-47 -114q0 -48 28.5 -78t83.5 -30z" glyph-name="acircumflex.ss01" horiz-adv-x="1118"/><glyph d="M467 1118q-44 0 -73 32.5t-29 80.5q0 61 42.5 104t98.5 43q44 0 71 -32t27 -80q0 -61 -41 -104.5t-96 -43.5zM795 1118q-45 0 -74 32.5t-29 80.5q0 61 42 104t97 43q45 0 73 -32t28 -80q0 -61 -41 -104.5t-96 -43.5zM352 -20q-122 0 -202 73t-80 195q0 315 417 346 l226 18l6 41q10 94 -26.5 134t-119.5 40q-128 0 -323 -59l12 186q219 66 356 66q187 0 284 -92.5t71 -261.5l-60 -433q-6 -73 45 -73q22 0 52 6l-35 -168q-46 -12 -111 -12q-98 0 -149.5 33t-61.5 104h-8q-67 -79 -136 -111t-157 -32zM440 160q65 0 125 32t103 89l22 174 l-168 -17q-100 -10 -147 -56t-47 -114q0 -48 28.5 -78t83.5 -30z" glyph-name="adieresis.ss01" horiz-adv-x="1118"/><glyph d="M547 1110l-170 334h250l94 -334h-174zM352 -20q-122 0 -202 73t-80 195q0 315 417 346l226 18l6 41q10 94 -26.5 134t-119.5 40q-128 0 -323 -59l12 186q219 66 356 66q187 0 284 -92.5t71 -261.5l-60 -433q-6 -73 45 -73q22 0 52 6l-35 -168q-46 -12 -111 -12 q-98 0 -149.5 33t-61.5 104h-8q-67 -79 -136 -111t-157 -32zM440 160q65 0 125 32t103 89l22 174l-168 -17q-100 -10 -147 -56t-47 -114q0 -48 28.5 -78t83.5 -30z" glyph-name="agrave.ss01" horiz-adv-x="1118"/><glyph d="M354 1214l25 193h582l-27 -193h-580zM352 -20q-122 0 -202 73t-80 195q0 315 417 346l226 18l6 41q10 94 -26.5 134t-119.5 40q-128 0 -323 -59l12 186q219 66 356 66q187 0 284 -92.5t71 -261.5l-60 -433q-6 -73 45 -73q22 0 52 6l-35 -168q-46 -12 -111 -12 q-98 0 -149.5 33t-61.5 104h-8q-67 -79 -136 -111t-157 -32zM440 160q65 0 125 32t103 89l22 174l-168 -17q-100 -10 -147 -56t-47 -114q0 -48 28.5 -78t83.5 -30z" glyph-name="amacron.ss01" horiz-adv-x="1118"/><glyph d="M879 -14q-45 -34 -45 -103q0 -35 19.5 -56.5t57.5 -21.5q30 0 45 5l-32 -172q-24 -9 -64 -9q-75 0 -127.5 49.5t-52.5 137.5q0 113 78 184q-90 27 -105 123h-8q-67 -79 -136 -111t-157 -32q-122 0 -202 73t-80 195q0 315 417 346l226 18l6 41q10 94 -26.5 134t-119.5 40 q-128 0 -323 -59l12 186q219 66 356 66q187 0 284 -92.5t71 -261.5l-60 -433q-6 -73 45 -73q22 0 52 6l-35 -168q-28 -8 -96 -12zM668 281l22 174l-168 -17q-100 -10 -147 -56t-47 -114q0 -48 28.5 -78t83.5 -30q65 0 125 32t103 89z" glyph-name="aogonek.ss01" horiz-adv-x="1118"/><glyph d="M625 1116q-92 0 -145.5 55t-53.5 148q0 120 75 196t191 76q90 0 143.5 -54.5t53.5 -145.5q0 -120 -75 -197.5t-189 -77.5zM641 1239q43 0 70.5 39t27.5 100q0 42 -17 66t-48 24q-42 0 -69 -38t-27 -99q0 -42 17 -67t46 -25zM352 -20q-122 0 -202 73t-80 195 q0 315 417 346l226 18l6 41q10 94 -26.5 134t-119.5 40q-128 0 -323 -59l12 186q219 66 356 66q187 0 284 -92.5t71 -261.5l-60 -433q-6 -73 45 -73q22 0 52 6l-35 -168q-46 -12 -111 -12q-98 0 -149.5 33t-61.5 104h-8q-67 -79 -136 -111t-157 -32zM440 160q65 0 125 32 t103 89l22 174l-168 -17q-100 -10 -147 -56t-47 -114q0 -48 28.5 -78t83.5 -30z" glyph-name="aring.ss01" horiz-adv-x="1118"/><glyph d="M371 1126l8 193q35 35 81 57.5t83 22.5q55 0 138 -37t116 -37q72 0 159 84l-8 -192q-35 -35 -80 -57.5t-82 -22.5q-54 0 -134.5 36.5t-121.5 36.5q-72 0 -159 -84zM352 -20q-122 0 -202 73t-80 195q0 315 417 346l226 18l6 41q10 94 -26.5 134t-119.5 40q-128 0 -323 -59 l12 186q219 66 356 66q187 0 284 -92.5t71 -261.5l-60 -433q-6 -73 45 -73q22 0 52 6l-35 -168q-46 -12 -111 -12q-98 0 -149.5 33t-61.5 104h-8q-67 -79 -136 -111t-157 -32zM440 160q65 0 125 32t103 89l22 174l-168 -17q-100 -10 -147 -56t-47 -114q0 -48 28.5 -78 t83.5 -30z" glyph-name="atilde.ss01" horiz-adv-x="1118"/><glyph d="M139 -367l189 367l-230 999h267l110 -532q21 -124 23 -178h6q37 92 78 178l256 532h266l-701 -1366h-264z" glyph-name="y.ss02" horiz-adv-x="1060"/><glyph d="M520 1112l191 334h256l-273 -334h-174zM139 -367l189 367l-230 999h267l110 -532q21 -124 23 -178h6q37 92 78 178l256 532h266l-701 -1366h-264z" glyph-name="yacute.ss02" horiz-adv-x="1060"/><glyph d="M981 1110h-227l-103 180l-153 -180h-226l334 334h129zM139 -367l189 367l-230 999h267l110 -532q21 -124 23 -178h6q37 92 78 178l256 532h266l-701 -1366h-264z" glyph-name="ycircumflex.ss02" horiz-adv-x="1060"/><glyph d="M467 1118q-44 0 -73 32.5t-29 80.5q0 61 42.5 104t98.5 43q44 0 71 -32t27 -80q0 -61 -41 -104.5t-96 -43.5zM795 1118q-45 0 -74 32.5t-29 80.5q0 61 42 104t97 43q45 0 73 -32t28 -80q0 -61 -41 -104.5t-96 -43.5zM139 -367l189 367l-230 999h267l110 -532 q21 -124 23 -178h6q37 92 78 178l256 532h266l-701 -1366h-264z" glyph-name="ydieresis.ss02" horiz-adv-x="1060"/><glyph d="M547 1110l-170 334h250l94 -334h-174zM139 -367l189 367l-230 999h267l110 -532q21 -124 23 -178h6q37 92 78 178l256 532h266l-701 -1366h-264z" glyph-name="ygrave.ss02" horiz-adv-x="1060"/><glyph d="M106 0l199 1413l252 41l-205 -1454h-246z" glyph-name="l.ss03" horiz-adv-x="600"/><glyph d="M348 1567l191 334h256l-273 -334h-174zM106 0l199 1413l252 41l-205 -1454h-246z" glyph-name="lacute.ss03" horiz-adv-x="600"/><glyph d="M602 854l174 600h262l-227 -600h-209zM82 0l203 1436l256 8l-203 -1444h-256z" glyph-name="lcaron.ss03" horiz-adv-x="905"/><glyph d="M106 0l199 1413l252 41l-205 -1454h-246zM-49 -592l149 449h246l-219 -449h-176z" glyph-name="lcommaaccent.ss03" horiz-adv-x="600"/><glyph d="M600 973l-29 -195l-149 -55l-103 -723h-251l88 627l-146 -54l27 195l145 53l84 592l258 41l-75 -536z" glyph-name="lslash.ss03" horiz-adv-x="532"/><glyph d="M1114 999l-446 -456l329 -543h-292l-295 483l-68 -483h-256l199 1413l262 41l-119 -846l379 391h307z" glyph-name="k.ss07" horiz-adv-x="1095"/><glyph d="M717 0l-168 444l-170 -168l-37 -276h-256l199 1413l262 41l-123 -868l397 413h293l-383 -378l266 -621h-280zM211 -592l149 449h246l-219 -449h-176z" glyph-name="kcommaaccent.ss07" horiz-adv-x="1095"/><glyph d="M123 -205l143 1016h-180l27 188h178l6 43q29 204 164 318.5t338 114.5q138 0 248 -21h225l-96 -672h8q90 139 175 188.5t181 49.5q162 0 253 -110.5t91 -309.5q0 -143 -44 -262.5t-118 -196.5t-168.5 -119t-197.5 -42q-53 0 -109.5 8t-129 27.5t-146.5 63t-133 105.5 l151 1086q-84 16 -174 16q-227 0 -260 -244l-6 -43h280l-45 -188h-262l-143 -1016h-256zM1311 184q126 0 208.5 105.5t82.5 283.5q0 114 -40.5 179t-121.5 65q-83 0 -160.5 -72.5t-138.5 -220.5l-35 -252q88 -88 205 -88z" glyph-name="f_b" horiz-adv-x="1957"/><glyph d="M123 -205l141 1016h-178l27 188h180l6 43q27 204 162.5 318.5t339.5 114.5q128 0 239 -21l-26 -192q-37 11 -99 17.5t-96 6.5q-227 0 -260 -244l-6 -43h477l6 43q27 210 161 321.5t343 111.5q138 0 248 -21h227l-98 -672h8q90 139 176.5 188.5t182.5 49.5 q163 0 254.5 -110.5t91.5 -309.5q0 -143 -44.5 -262.5t-119 -196.5t-169.5 -119t-198 -42q-54 0 -111 8t-130 27.5t-147 63t-134 105.5l154 1086q-91 16 -177 16q-107 0 -175 -54t-87 -190l-4 -43h283l-45 -188h-264l-144 -1016h-258l144 1016h-480l-143 -1016h-258z M2060 193q126 0 208.5 105.5t82.5 283.5q0 114 -41 178.5t-123 64.5q-176 0 -301 -293l-33 -251q91 -88 207 -88z" glyph-name="f_f_b" horiz-adv-x="2703"/><glyph d="M2275 1022q151 0 210 -81.5t32 -274.5l-94 -664h-254l92 662q5 40 4.5 74t-23 56.5t-67.5 22.5q-154 0 -291 -293l-74 -522h-254l177 1266q-81 18 -179 18q-229 0 -262 -244l-6 -43h244l-45 -188h-225l-142 -1016h-258l144 1016h-478l-143 -1016h-260l143 1016h-180 l27 188h180l6 43q29 204 163 318.5t339 114.5q128 0 239 -21l-28 -192q-36 11 -97.5 17.5t-95.5 6.5q-227 0 -260 -244l-6 -43h477l6 43q28 204 161.5 318.5t340.5 114.5q138 0 246 -21l231 2l-96 -653h8q47 68 94.5 113.5t92.5 67t82 30t79 8.5z" glyph-name="f_f_h" horiz-adv-x="2613"/><glyph d="M2603 999l-393 -378l280 -621h-288l-177 444l-170 -168l-40 -276h-259l179 1268q-81 18 -183 18q-227 0 -260 -244l-6 -43h283l-43 -188h-266l-144 -1016h-258l143 1016h-475l-143 -1016h-260l143 1016h-180l27 188h180l6 43q29 204 163 318.5t339 114.5q128 0 239 -21 l-28 -192q-36 11 -97.5 17.5t-95.5 6.5q-227 0 -260 -244l-6 -43h475l6 43q29 205 162.5 319t339.5 114q140 0 250 -21h233l-121 -868l408 413h297z" glyph-name="f_f_k" horiz-adv-x="2588"/><glyph d="M1882 811l-72 -514q-17 -123 119 -123q58 0 111 19l-27 -197q-101 -16 -170 -16q-164 0 -238.5 82.5t-52.5 242.5l72 506h-369l-143 -1016h-256l141 1016h-475l-143 -1016h-256l141 1016h-178l27 188h178l6 43q29 204 163.5 318.5t338.5 114.5q126 0 237 -21l-26 -192 q-37 11 -99 17.5t-96 6.5q-227 0 -260 -244l-6 -43h475l6 43q29 204 163 318.5t339 114.5q92 0 197 -21l-27 -192q-68 24 -154 24q-229 0 -262 -244l-6 -43h373l90 275h205l-39 -275h239l-26 -188h-240z" glyph-name="f_f_t" horiz-adv-x="2146"/><glyph d="M1534 1022q152 0 211.5 -81.5t30.5 -274.5l-93 -664h-256l95 662q4 40 3 74t-23 56.5t-66 22.5q-154 0 -291 -293l-74 -522h-256l178 1266q-81 18 -180 18q-106 0 -172.5 -52t-85.5 -181l-8 -54h246l-45 -188h-228l-143 -1016h-258l143 1016h-176l27 188h176l6 43 q29 204 163.5 318.5t338.5 114.5q137 0 247 -21l232 2l-98 -653h8q47 67 94.5 113t93 67.5t82.5 30t78 8.5z" glyph-name="f_h" horiz-adv-x="1873"/><glyph d="M1858 999l-392 -378l277 -621h-285l-174 444l-172 -168l-39 -276h-258l178 1268q-81 18 -180 18q-224 0 -260 -244l-6 -43h246l-45 -188h-228l-143 -1016h-258l143 1016h-176l27 188h176l6 43q29 204 163.5 318.5t338.5 114.5q137 0 247 -21h234l-123 -868l404 413h299z" glyph-name="f_k" horiz-adv-x="1841"/><glyph d="M1139 811l-72 -514q-9 -62 22.5 -92.5t94.5 -30.5q57 0 110 19l-26 -197q-106 -16 -170 -16q-163 0 -236.5 83t-50.5 242l70 506h-363l-143 -1016h-256l143 1016h-176l27 188h176l6 43q29 204 162 318.5t334 114.5q92 0 184 -21l-29 -186q-66 18 -137 18 q-222 0 -258 -244l-6 -43h364l92 275h203l-39 -275h238l-29 -188h-235z" glyph-name="f_t" horiz-adv-x="1400"/><glyph d="M563 -20q-138 0 -239.5 79t-153 215.5t-51.5 313.5q0 248 85 451t234 319.5t332 116.5q209 0 329 -166.5t120 -438.5q0 -246 -86 -450t-237 -322t-333 -118zM594 188q88 0 159.5 64t113.5 166.5t64.5 221.5t22.5 239q0 111 -20.5 195t-69.5 138t-123 54t-136 -44 t-102 -114.5t-68 -162t-40 -184t-12 -183.5q0 -81 11.5 -149.5t36 -123.5t66 -86t97.5 -31z" glyph-name="zero.tf" horiz-adv-x="1271"/><glyph d="M723 209h391l-33 -209h-1042l29 209h391l143 1038l-297 -61l23 160l381 110h190z" glyph-name="one.tf" horiz-adv-x="1261"/><glyph d="M39 0l24 186l287 277q74 70 162.5 152t134.5 125t100 95.5t79 82t49 65.5t32 65t8 62q0 74 -55.5 115t-163.5 41q-186 0 -444 -103l12 205q138 56 246 81.5t219 25.5q115 0 205 -28t145 -76t83 -109t28 -132q0 -40 -8.5 -77t-19.5 -68t-40 -71t-52 -68.5t-74.5 -80 t-88 -86.5t-112.5 -107t-129 -123l-244 -240h668l-31 -209h-1020z" glyph-name="two.tf" horiz-adv-x="1267"/><glyph d="M502 -20q-205 0 -434 104l47 205q105 -47 217 -74t196 -27q150 0 233 80.5t83 200.5q0 92 -59 143.5t-177 51.5h-125l31 210h117q106 0 173.5 65.5t67.5 172.5q0 75 -54 114.5t-156 39.5q-165 0 -402 -95l10 205q131 52 226.5 75.5t193.5 23.5q213 0 332 -96.5 t119 -252.5q0 -116 -56 -217t-143 -139q82 -35 127 -113t45 -182q0 -214 -172 -354.5t-440 -140.5z" glyph-name="three.tf" horiz-adv-x="1263"/><glyph d="M662 0l40 303h-679l22 170l836 983h247l-133 -950h183l-48 -203h-165l-41 -303h-262zM346 506h387l84 608z" glyph-name="four.tf" horiz-adv-x="1263"/><glyph d="M514 -20q-236 0 -461 104l47 207q105 -49 228 -76t209 -27q162 0 245.5 94.5t83.5 243.5q0 113 -57.5 175.5t-159.5 62.5q-77 0 -151.5 -39.5t-135.5 -106.5l-196 11l170 827h858l-47 -209l-635 2l-80 -387q67 51 137 78t162 27q185 0 296.5 -114.5t111.5 -307.5 q0 -122 -44 -226.5t-124 -179t-197.5 -117t-259.5 -42.5z" glyph-name="five.tf" horiz-adv-x="1267"/><glyph d="M584 -20q-219 0 -337 152.5t-118 410.5q0 155 29 295.5t86.5 256.5t138.5 201t189.5 132t234.5 47q167 0 373 -99l-43 -205q-109 50 -177.5 72.5t-136.5 22.5q-157 0 -254.5 -114.5t-142.5 -346.5h8q72 91 155.5 132.5t186.5 41.5q172 0 280.5 -115t108.5 -311 q0 -253 -164.5 -413t-416.5 -160zM606 188q120 0 203.5 97.5t83.5 238.5q0 110 -55.5 178t-151.5 68q-123 0 -206 -96t-83 -240q0 -107 57 -176.5t152 -69.5z" glyph-name="six.tf" horiz-adv-x="1271"/><glyph d="M242 0l692 1247h-705l52 209h968l-24 -178l-709 -1278h-274z" glyph-name="seven.tf" horiz-adv-x="1261"/><glyph d="M561 -20q-218 0 -347.5 105t-129.5 273q0 139 75.5 250.5t209.5 161.5q-63 41 -99.5 110t-36.5 158q0 192 152 314.5t387 122.5q193 0 307.5 -94t114.5 -248q0 -245 -221 -363q88 -38 136 -120.5t48 -188.5q0 -210 -168.5 -345.5t-427.5 -135.5zM684 858q102 0 170 67 t68 167q0 76 -50 124t-135 48q-101 0 -168 -64t-67 -162q0 -82 49 -131t133 -49zM592 190q128 0 211.5 77.5t83.5 193.5q0 95 -62 152t-168 57q-131 0 -215 -75t-84 -196q0 -91 63 -150t171 -59z" glyph-name="eight.tf" horiz-adv-x="1265"/><glyph d="M516 -20q-193 0 -401 106l47 211q102 -57 185 -80.5t173 -23.5q304 0 385 444h-6q-60 -76 -147 -116t-179 -40q-186 0 -294.5 115.5t-108.5 310.5q0 249 165.5 408.5t424.5 159.5q214 0 331 -151t117 -411q0 -200 -49 -371.5t-137.5 -296t-219 -195t-286.5 -70.5z M647 690q129 0 211 91.5t82 242.5q0 109 -57 175.5t-154 66.5q-124 0 -205.5 -95t-81.5 -243q0 -112 54.5 -175t150.5 -63z" glyph-name="nine.tf" horiz-adv-x="1271"/><glyph d="M322 -16q-127 0 -202 96t-75 252q0 215 115 356t282 141q128 0 204.5 -96t76.5 -254q0 -211 -116.5 -353t-284.5 -142zM342 129q59 0 103 51.5t64.5 130.5t20.5 172q0 86 -26 142.5t-84 56.5q-85 0 -132.5 -103.5t-47.5 -254.5q0 -83 24.5 -139t77.5 -56z" glyph-name="zero.dnom" horiz-adv-x="794"/><glyph d="M92 0l94 666l-145 -35l18 112l189 68h141l-117 -811h-180z" glyph-name="one.dnom" horiz-adv-x="446"/><glyph d="M-16 0l20 135l76 80q67 68 147 141t117.5 107t64.5 71.5t27 69.5q0 42 -26 60t-82 18q-87 0 -224 -45l13 145q162 47 233 47q146 0 216.5 -59t70.5 -147q0 -45 -15.5 -85t-49.5 -79.5t-68 -71t-91 -83.5t-98 -95l-59 -64h330l-21 -145h-581z" glyph-name="two.dnom" horiz-adv-x="690"/><glyph d="M227 -16q-114 0 -237 45l28 141q134 -41 228 -41q135 0 135 143q0 84 -90 84h-72l21 152h61q37 0 63.5 30.5t26.5 75.5q0 68 -82 68q-90 0 -211 -41l11 145q133 43 227 43q121 0 189.5 -53.5t68.5 -144.5q0 -66 -30.5 -125.5t-67.5 -75.5q39 -20 60.5 -63t21.5 -99 q0 -127 -98 -205.5t-253 -78.5z" glyph-name="three.dnom" horiz-adv-x="677"/><glyph d="M334 0l20 147h-379l19 127l473 537h176l-72 -514h113l-35 -150h-100l-21 -147h-194zM199 297h178l35 262z" glyph-name="four.dnom" horiz-adv-x="757"/><glyph d="M231 -16q-114 0 -251 45l30 143q57 -19 129 -31t111 -12q61 0 92 44.5t31 123.5q0 100 -82 100q-48 0 -113 -51l-135 12l92 453h469l-33 -145l-309 -4l-35 -170q32 29 60 42t71 13q98 0 160 -66.5t62 -173.5q0 -147 -98.5 -235t-250.5 -88z" glyph-name="five.dnom" horiz-adv-x="663"/><glyph d="M309 -16q-122 0 -198 85.5t-76 239.5q0 97 27 188.5t76.5 166.5t128.5 120t175 45q81 0 205 -43l-35 -145q-109 41 -157 41q-83 0 -125 -50.5t-74 -162.5h4q44 43 83 59.5t93 16.5q94 0 152.5 -66t58.5 -170q0 -145 -99 -235t-239 -90zM322 129q51 0 87.5 46.5 t36.5 115.5q0 49 -24.5 79.5t-61.5 30.5q-56 0 -92.5 -43.5t-36.5 -113.5q0 -50 25 -82.5t66 -32.5z" glyph-name="six.dnom" horiz-adv-x="733"/><glyph d="M49 0l313 666h-305l33 145h498l-17 -113l-321 -698h-201z" glyph-name="seven.dnom" horiz-adv-x="587"/><glyph d="M285 -16q-129 0 -205 58.5t-76 158.5q0 72 37 134t115 95q-66 50 -66 137q0 122 87.5 192t228.5 70q110 0 174.5 -53t64.5 -147q0 -69 -26 -116.5t-84 -82.5q92 -46 92 -166q0 -127 -96.5 -203.5t-245.5 -76.5zM350 483q42 0 68 34t26 87q0 37 -17.5 57.5t-49.5 20.5 q-38 0 -63 -31.5t-25 -85.5q0 -37 16 -59.5t45 -22.5zM305 129q52 0 88.5 38t36.5 97q0 43 -25 70.5t-65 27.5q-58 0 -93.5 -37.5t-35.5 -99.5q0 -42 25.5 -69t68.5 -27z" glyph-name="eight.dnom" horiz-adv-x="708"/><glyph d="M256 -16q-104 0 -233 53l36 141q57 -29 98.5 -40t96.5 -11q81 0 125 49.5t76 165.5h-4q-32 -37 -78 -57.5t-88 -20.5q-104 0 -165 65t-61 173q0 143 100 235t251 92q119 0 191.5 -88.5t72.5 -236.5q0 -145 -52.5 -264t-148.5 -187.5t-217 -68.5zM350 412q53 0 89 43 t36 116q0 52 -24 81.5t-64 29.5q-55 0 -91 -42.5t-36 -119.5q0 -50 25 -79t65 -29z" glyph-name="nine.dnom" horiz-adv-x="735"/><glyph d="M412 629q-126 0 -200.5 95.5t-74.5 252.5q0 214 114 356t281 142q128 0 204.5 -97t76.5 -254q0 -212 -116 -353.5t-285 -141.5zM432 772q55 0 95 40.5t59.5 102t28 115.5t8.5 98q0 84 -27.5 140.5t-87.5 56.5q-56 0 -97.5 -50.5t-61 -130.5t-19.5 -177q0 -52 9 -94 t33 -71.5t60 -29.5z" glyph-name="zero.numr" horiz-adv-x="794"/><glyph d="M182 641l97 668l-146 -35l17 115l190 65h141l-119 -813h-180z" glyph-name="one.numr" horiz-adv-x="446"/><glyph d="M74 641l20 139l78 78q57 57 122.5 117t101.5 92.5t69.5 67t47 60.5t13.5 52q0 42 -25.5 59t-82.5 17q-83 0 -223 -43l12 147q166 48 233 48q146 0 216.5 -60t70.5 -149q0 -46 -15 -86t-49 -80.5t-66 -71t-91.5 -83.5t-99.5 -93l-66 -66h336l-21 -145h-581z" glyph-name="two.numr" horiz-adv-x="690"/><glyph d="M315 625q-109 0 -237 47l31 143q137 -45 225 -45q137 0 137 143q0 86 -90 86h-72l21 150h61q37 0 62.5 32t25.5 79q0 63 -82 63q-83 0 -211 -39l13 148q133 43 227 43q121 0 188.5 -54.5t67.5 -148.5q0 -67 -30 -126t-68 -73q41 -20 62.5 -63t21.5 -99q0 -127 -99 -206.5 t-254 -79.5z" glyph-name="three.numr" horiz-adv-x="675"/><glyph d="M424 643l20 148h-378l18 127l473 536h176l-71 -514h112l-33 -149h-102l-21 -148h-194zM289 940h178l37 262z" glyph-name="four.numr" horiz-adv-x="755"/><glyph d="M319 627q-118 0 -251 47l32 143q57 -20 128 -32.5t112 -12.5q59 0 91 45.5t32 122.5q0 100 -82 100q-46 0 -115 -49l-133 10l92 453h469l-35 -145l-307 -4l-35 -168q31 28 58.5 40.5t70.5 12.5q98 0 160 -66.5t62 -173.5q0 -146 -98.5 -234.5t-250.5 -88.5z" glyph-name="five.numr" horiz-adv-x="663"/><glyph d="M399 625q-122 0 -198 86.5t-76 240.5q0 96 27 188t77 167.5t129 121.5t174 46q81 0 205 -43l-35 -148q-104 39 -157 39q-83 0 -125 -50.5t-72 -160.5h2q43 42 82.5 59t93.5 17q94 0 152.5 -66t58.5 -170q0 -145 -99 -236t-239 -91zM412 770q51 0 88 47t37 117 q0 49 -24.5 78.5t-61.5 29.5q-56 0 -92.5 -42.5t-36.5 -112.5q0 -53 24.5 -85t65.5 -32z" glyph-name="six.numr" horiz-adv-x="733"/><glyph d="M141 643l312 666h-306l33 145h498l-16 -113l-322 -698h-199z" glyph-name="seven.numr" horiz-adv-x="587"/><glyph d="M375 625q-127 0 -203 60t-76 159q0 71 36.5 133.5t113.5 95.5q-64 51 -64 137q0 123 87 194t227 71q113 0 177 -53.5t64 -149.5q0 -133 -110 -199q92 -47 92 -168q0 -126 -97.5 -203t-246.5 -77zM442 1128q43 0 68 32t25 85q0 37 -17 57.5t-49 20.5q-37 0 -63.5 -31.5 t-26.5 -83.5q0 -36 17.5 -58t45.5 -22zM397 772q53 0 88 37t35 98q0 44 -25 71.5t-65 27.5q-58 0 -92.5 -38t-34.5 -100q0 -45 24.5 -70.5t69.5 -25.5z" glyph-name="eight.numr" horiz-adv-x="710"/><glyph d="M346 625q-104 0 -233 53l37 141q62 -29 101.5 -40t92.5 -11q81 0 125 50t76 167h-4q-32 -37 -78 -57.5t-88 -20.5q-103 0 -164 64.5t-61 171.5q0 145 100.5 238.5t249.5 93.5q119 0 192.5 -90.5t73.5 -237.5q0 -145 -53 -264.5t-149.5 -188.5t-217.5 -69zM440 1055 q53 0 89 43.5t36 115.5q0 52 -24 80.5t-64 28.5q-55 0 -91 -42t-36 -118q0 -49 25 -78.5t65 -29.5z" glyph-name="nine.numr" horiz-adv-x="735"/><glyph d="M293 539q-58 0 -92.5 41.5t-34.5 105.5q0 82 53.5 140.5t124.5 58.5q57 0 92 -42t35 -106q0 -83 -52.5 -140.5t-125.5 -57.5z" glyph-name="periodcentered.case" horiz-adv-x="577"/><glyph d="M434 395q-119 0 -192.5 81.5t-73.5 207.5q0 158 108 270.5t256 112.5q116 0 190.5 -83t74.5 -208q0 -158 -107.5 -269.5t-255.5 -111.5z" glyph-name="bullet.case" horiz-adv-x="901"/><glyph d="M422 1128q-59 0 -96 42.5t-37 107.5q0 81 56 139t130 58q59 0 96 -42.5t37 -107.5q0 -81 -55 -139t-131 -58zM123 -51l180 1057h209l-113 -1057h-276z" glyph-name="exclamdown.case" horiz-adv-x="671"/><glyph d="M651 1128q-62 0 -101.5 43t-39.5 107q0 82 56.5 139.5t133.5 57.5q63 0 102.5 -42.5t39.5 -107.5q0 -82 -57 -139.5t-134 -57.5zM461 -72q-195 0 -305.5 101t-110.5 256q0 75 23.5 139.5t62 111t85 87.5t95 79t90.5 76t73 87t40 104l6 37h215l-6 -39 q-10 -63 -38.5 -119.5t-66 -99.5t-80.5 -83t-84 -79t-74.5 -79t-54 -90.5t-20.5 -107.5q0 -75 48.5 -119.5t142.5 -44.5q140 0 327 74l-14 -213q-193 -78 -354 -78z" glyph-name="questiondown.case" horiz-adv-x="956"/><glyph d="M545 -172q-172 0 -268 83.5t-76 217.5l43 320q12 87 -24.5 134.5t-110.5 47.5l24 174q74 0 125.5 48.5t63.5 135.5l45 318q20 135 138.5 218t289.5 83l-27 -187q-70 0 -122.5 -42.5t-61.5 -110.5l-47 -346q-20 -133 -142 -203q104 -71 84 -203l-47 -346q-9 -68 30 -111 t109 -43z" glyph-name="braceleft.case" horiz-adv-x="677"/><glyph d="M-57 -172l28 188q70 0 122 43t61 111l49 346q17 133 141 203q-104 69 -84 203l45 346q10 68 -28.5 110.5t-108.5 42.5l27 187q171 0 267 -83.5t77 -217.5l-45 -318q-12 -88 25 -136t110 -48l-25 -174q-74 0 -125 -48t-63 -134l-43 -320q-20 -135 -139.5 -218t-290.5 -83z" glyph-name="braceright.case" horiz-adv-x="675"/><glyph d="M795 1432h-260l-189 -1342h264l-28 -186h-488l242 1714h487z" glyph-name="bracketleft.case" horiz-adv-x="704"/><glyph d="M682 1618l-242 -1714h-485l27 186h262l188 1342h-264l29 186h485z" glyph-name="bracketright.case" horiz-adv-x="704"/><glyph d="M344 -168q-100 133 -155.5 314.5t-55.5 398.5q0 674 463 1073l125 -105q-117 -132 -193 -263t-123 -307.5t-47 -383.5q0 -333 140 -620z" glyph-name="parenleft.case" horiz-adv-x="614"/><glyph d="M84 -168l-125 107q88 116 149.5 217t113 222t77 258t25.5 292q0 341 -146 585l158 105q100 -117 156.5 -289.5t56.5 -390.5q0 -352 -121.5 -620.5t-343.5 -485.5z" glyph-name="parenright.case" horiz-adv-x="614"/><glyph d="M156 688l30 211h1760l-31 -211h-1759z" glyph-name="emdash.case" horiz-adv-x="2019"/><glyph d="M135 688l31 211h1177l-32 -211h-1176z" glyph-name="endash.case" horiz-adv-x="1396"/><glyph d="M117 688l30 211h592l-30 -211h-592z" glyph-name="hyphen.case" horiz-adv-x="774"/><glyph d="M-399 1106q-143 0 -219 94.5t-56 249.5h191q-15 -95 14 -148t90 -53q62 0 105.5 52.5t58.5 148.5h190q-22 -155 -124 -249.5t-250 -94.5z" glyph-name="brevecombcy"/></font>
</defs>
</svg>
