<svg xmlns="http://www.w3.org/2000/svg" xmlns:xlink="http://www.w3.org/1999/xlink" viewBox="0 0 1564.84 1025.08"><defs><style>.cls-1,.cls-25{fill:none;}.cls-2{fill:url(#Áåçûìÿííûé_ãðàäèåíò_126);}.cls-3{fill:#fff;}.cls-4{isolation:isolate;}.cls-5{fill:url(#linear-gradient);}.cls-6{opacity:0.83;fill:url(#linear-gradient-2);}.cls-7{fill:url(#linear-gradient-3);}.cls-8{opacity:0.5;fill:url(#Áåçûìÿííûé_ãðàäèåíò_7);}.cls-13,.cls-31,.cls-33,.cls-8{mix-blend-mode:multiply;}.cls-9{fill:url(#Áåçûìÿííûé_ãðàäèåíò_39);}.cls-10{fill:url(#linear-gradient-4);}.cls-11{fill:#11385a;}.cls-12{clip-path:url(#clip-path);}.cls-13{fill:#5c3e90;opacity:0.67;}.cls-14{fill:url(#Áåçûìÿííûé_ãðàäèåíò_25);}.cls-15{fill:#fcc076;}.cls-16{fill:url(#Áåçûìÿííûé_ãðàäèåíò_39-2);}.cls-17,.cls-18,.cls-19,.cls-20,.cls-21{opacity:0.49;}.cls-17{fill:url(#Áåçûìÿííûé_ãðàäèåíò_39-3);}.cls-18{fill:url(#Áåçûìÿííûé_ãðàäèåíò_39-4);}.cls-19{fill:url(#Áåçûìÿííûé_ãðàäèåíò_39-5);}.cls-20{fill:url(#Áåçûìÿííûé_ãðàäèåíò_39-6);}.cls-21{fill:url(#Áåçûìÿííûé_ãðàäèåíò_39-7);}.cls-22{fill:#c3c3e3;}.cls-23{opacity:0.82;}.cls-23,.cls-28{mix-blend-mode:color-dodge;}.cls-24{clip-path:url(#clip-path-2);}.cls-25{stroke:#724f9a;stroke-miterlimit:10;stroke-width:2px;}.cls-26{fill:#8b6fae;}.cls-27{fill:#724f9a;}.cls-28{opacity:0.57;}.cls-29{clip-path:url(#clip-path-3);}.cls-30{fill:#714d99;}.cls-31,.cls-34{fill:#9998cb;}.cls-32{fill:url(#linear-gradient-5);}.cls-35{fill:#ea8124;}.cls-36{fill:#f1c4d2;}.cls-37,.cls-39{fill:#f1acba;}.cls-38{fill:#1b0c07;}.cls-39{opacity:0.74;}.cls-40{fill:#186780;}.cls-41{fill:url(#Áåçûìÿííûé_ãðàäèåíò_39-8);}.cls-42{fill:#7c6cae;}.cls-42,.cls-43,.cls-44,.cls-46{fill-rule:evenodd;}.cls-43{fill:#241f48;}.cls-44{fill:#be8762;}.cls-45{fill:#a36f50;}.cls-46{fill:#d29d80;}.cls-47{fill:#c61617;}.cls-48{fill:#321a0f;}.cls-49{fill:#ea727c;opacity:0.1;}</style><linearGradient id="Áåçûìÿííûé_ãðàäèåíò_126" x1="1070.04" y1="456.04" x2="1296.58" y2="456.04" gradientUnits="userSpaceOnUse"><stop offset="0"/><stop offset="1" stop-color="#7192cb"/></linearGradient><linearGradient id="linear-gradient" x1="782.42" y1="-21.27" x2="782.42" y2="1061.61" gradientUnits="userSpaceOnUse"><stop offset="0.1" stop-color="#fff"/><stop offset="0.12" stop-color="#f9f8fb"/><stop offset="0.23" stop-color="#e4dfef"/><stop offset="0.34" stop-color="#d5cde6"/><stop offset="0.46" stop-color="#ccc2e1"/><stop offset="0.6" stop-color="#c9bfdf"/><stop offset="0.8" stop-color="#cec6e3"/><stop offset="1" stop-color="#fff"/></linearGradient><linearGradient id="linear-gradient-2" x1="832.2" y1="167.01" x2="712.66" y2="1271.65" gradientUnits="userSpaceOnUse"><stop offset="0.14" stop-color="#fff"/><stop offset="0.4" stop-color="#cec6e3"/><stop offset="0.51" stop-color="#c9bfdf"/><stop offset="0.65" stop-color="#fff"/></linearGradient><linearGradient id="linear-gradient-3" x1="476.58" y1="472.18" x2="11.18" y2="1152.91" gradientUnits="userSpaceOnUse"><stop offset="0.1" stop-color="#fff"/><stop offset="0.6" stop-color="#c9bfdf"/><stop offset="0.8" stop-color="#cec6e3"/><stop offset="1" stop-color="#fff"/></linearGradient><linearGradient id="Áåçûìÿííûé_ãðàäèåíò_7" x1="325.49" y1="551.76" x2="1220.45" y2="551.76" gradientUnits="userSpaceOnUse"><stop offset="0" stop-color="#6e5ba3"/><stop offset="1" stop-color="#cce9fb"/></linearGradient><linearGradient id="Áåçûìÿííûé_ãðàäèåíò_39" x1="1279.85" y1="536.37" x2="1200.29" y2="770.32" gradientUnits="userSpaceOnUse"><stop offset="0" stop-color="#94cdb8"/><stop offset="1" stop-color="#70c8f1"/></linearGradient><linearGradient id="linear-gradient-4" x1="1220.23" y1="925.65" x2="1349.45" y2="741.89" gradientUnits="userSpaceOnUse"><stop offset="0.19" stop-color="#19529e"/><stop offset="0.93" stop-color="#257bbe"/></linearGradient><clipPath id="clip-path"><rect class="cls-1" x="941.2" y="730.68" width="237.51" height="193.48" rx="21.58"/></clipPath><linearGradient id="Áåçûìÿííûé_ãðàäèåíò_25" x1="925.84" y1="870.45" x2="1182.31" y2="870.45" gradientUnits="userSpaceOnUse"><stop offset="0" stop-color="#804593"/><stop offset="1" stop-color="#5a55a0"/></linearGradient><linearGradient id="Áåçûìÿííûé_ãðàäèåíò_39-2" x1="325.49" y1="249.3" x2="1220.45" y2="249.3" xlink:href="#Áåçûìÿííûé_ãðàäèåíò_39"/><linearGradient id="Áåçûìÿííûé_ãðàäèåíò_39-3" x1="396.63" y1="382.46" x2="1152.4" y2="382.46" xlink:href="#Áåçûìÿííûé_ãðàäèåíò_39"/><linearGradient id="Áåçûìÿííûé_ãðàäèåíò_39-4" x1="407.95" y1="470.77" x2="856.48" y2="470.77" xlink:href="#Áåçûìÿííûé_ãðàäèåíò_39"/><linearGradient id="Áåçûìÿííûé_ãðàäèåíò_39-5" x1="407.95" y1="511.22" x2="856.48" y2="511.22" xlink:href="#Áåçûìÿííûé_ãðàäèåíò_39"/><linearGradient id="Áåçûìÿííûé_ãðàäèåíò_39-6" x1="407.95" y1="551.68" x2="856.48" y2="551.68" xlink:href="#Áåçûìÿííûé_ãðàäèåíò_39"/><linearGradient id="Áåçûìÿííûé_ãðàäèåíò_39-7" x1="407.95" y1="592.13" x2="856.48" y2="592.13" xlink:href="#Áåçûìÿííûé_ãðàäèåíò_39"/><clipPath id="clip-path-2"><rect class="cls-2" x="1070.04" y="363.77" width="226.54" height="184.54" rx="20.58"/></clipPath><clipPath id="clip-path-3"><rect class="cls-3" x="1070.04" y="363.77" width="226.54" height="184.54" rx="20.58"/></clipPath><linearGradient id="linear-gradient-5" x1="437.04" y1="680.31" x2="434.09" y2="995.56" gradientUnits="userSpaceOnUse"><stop offset="0" stop-color="#f5814c"/><stop offset="0.82" stop-color="#fac073"/></linearGradient><linearGradient id="Áåçûìÿííûé_ãðàäèåíò_39-8" x1="460.32" y1="875.91" x2="856.48" y2="875.91" xlink:href="#Áåçûìÿííûé_ãðàäèåíò_39"/></defs><g class="cls-4"><g id="Layer_2" data-name="Layer 2"><g id="Layer_1-2" data-name="Layer 1"><path class="cls-5" d="M1564.72,715.89c-3.51,87.9-89.59,179.2-139.55,225-20.63,18.92-35.09,30.08-35.09,30.08h-1216C-93,898.37,17.7,745.22,52.22,705.42c5.36-6.17,8.88-9.62,8.88-9.62S-14.14,563.63,12.23,397.14q.88-5.62,1.93-11.3,1.9-10.27,4.34-20.69a447.92,447.92,0,0,1,33.89-94.93c.6-1.24,1.21-2.46,1.83-3.69a504.67,504.67,0,0,1,62.85-95.95c210-254.58,412.28-67,479.74,0,103.75-64.32,178.88-34.85,227.89-2.68,150.15-152.75,288.07-241.18,480-88.43,118.1,94,103.23,278.75,74.33,406.92-17.91,79.43-41.2,137.14-41.58,138.08,1.36-1,143.9-107.56,214.07,29.67a119.9,119.9,0,0,1,10.24,28.1A127,127,0,0,1,1564.72,715.89Z"/><path class="cls-6" d="M1564.72,715.89c-3.51,87.9-89.59,179.2-139.55,225-20.63,18.92-35.09,30.08-35.09,30.08H1267.54a141.29,141.29,0,0,0-33.47-39.84c-27-21.78-62.11-31.94-97-35.6-114.24-12-224.17,40-337.27,59.74a608.88,608.88,0,0,1-222.08-2.48c-64.31-12.72-127.47-36.55-177.9-77.45C291.76,787.71,260.25,639,257.77,502c-1.08-59.45-3.64-130-55-162.09-33.31-20.84-77-17.3-114.79-5.77a310.44,310.44,0,0,0-69.46,31,447.92,447.92,0,0,1,33.89-94.93c60.32-58.43,138.75-99.36,222.77-112.9,67.53-10.88,143.27-2.66,193.09,43,58.16,53.36,65,140.3,104.15,208.12,32.12,55.6,87.52,98,150.6,115.26,74.55,20.41,154.36,6.21,228.77-14.66s147.71-48.5,224.84-55.23c68.85-6,139.06,5.66,202.39,32.55-17.91,79.43-41.2,137.14-41.58,138.08,1.36-1,143.9-107.56,214.07,29.67a119.9,119.9,0,0,1,10.24,28.1A261.62,261.62,0,0,1,1564.72,715.89Z"/><path class="cls-7" d="M681.4,957.54H192C-67.34,887,40.14,738.39,73.66,699.76c5.2-6,8.61-9.34,8.61-9.34s-73-128.29-47.43-289.89q.85-5.46,1.87-11,1.84-10,4.21-20.09a434.75,434.75,0,0,1,32.9-92.14c.58-1.2,1.17-2.39,1.77-3.58,108,11.74,211.19,78.94,252.55,177.62,55.62,132.77,12.48,305.43,115.2,408.26C504.39,920.76,595.37,933.84,681.4,957.54Z"/><rect class="cls-8" x="325.49" y="229.41" width="894.97" height="644.71" rx="29.69"/><path class="cls-9" d="M1166.86,901.17c-.32-1-.63-2-.94-2.93-96.69-304,158.73-372.5,158.73-372.5-17.45,256.78-112.44,344-157,374.84Z"/><path class="cls-3" d="M1166.86,901.17c-.32-1-.63-2-.94-2.93-1.86-84.84,23.08-162.51,44.46-213,21.6-51,44-85.07,47.55-90.39a.86.86,0,0,1,1.2-.23.85.85,0,0,1,.35.49.88.88,0,0,1-.12.7c-3.52,5.23-25.85,39.25-47.41,90.14s-46.61,129.16-44.25,214.6Z"/><path class="cls-3" d="M1204.66,700.8l.29-79.41a.85.85,0,0,1,.87-.85h0a.85.85,0,0,1,.85.86l-.28,76.54,59.82-31.6a.86.86,0,0,1,1.17.36h0a.86.86,0,0,1-.36,1.16Z"/><path class="cls-3" d="M1174.35,804.51l-8.42-85.94a.87.87,0,0,1,.78-.94h0a.86.86,0,0,1,.94.77l8.13,83.07,49.77-33.58,1,1.43Z"/><path class="cls-10" d="M1170.32,900.29l-4.39.88.37-1c5.53-15.16,73.73-190,273.28-172.44C1410.09,770.22,1375.35,858.92,1170.32,900.29Z"/><path class="cls-11" d="M1398.78,759.82c-113,89.94-208.07,132-228.46,140.47l-4.39.88.37-1c9.5-3.78,110.13-45.07,231.41-141.62a.8.8,0,0,1,1.12.19h0A.8.8,0,0,1,1398.78,759.82Z"/><path class="cls-11" d="M1323.28,814.58l11.37-56.17a.69.69,0,0,1,.93-.52h0a.92.92,0,0,1,.62,1l-10.82,53.49,47.76-11a.89.89,0,0,1,1,.61h0a.71.71,0,0,1-.48,1Z"/><path class="cls-11" d="M1247.58,861.37l16.93-67.91,1.54.57-16.29,65.33,55.31-9a.9.9,0,0,1,1,.67h0a.7.7,0,0,1-.54.92Z"/><g class="cls-12"><rect class="cls-3" x="941.2" y="730.68" width="237.51" height="193.48" rx="21.58"/><path class="cls-13" d="M1006.69,900.82,1121.14,841a19.78,19.78,0,0,1,19.9.92l106.42,68.7v19.64H1005.88Z"/><path class="cls-14" d="M930.44,880.5l76.38-61.67a19.78,19.78,0,0,1,23.95-.7l151.54,108.34H925.84Z"/><circle class="cls-15" cx="1088.98" cy="781.15" r="22.28" transform="translate(-246.85 888.93) rotate(-40.27)"/></g><path class="cls-16" d="M1220.45,259.1v10.09h-895V259.1a29.69,29.69,0,0,1,29.69-29.69h835.58A29.69,29.69,0,0,1,1220.45,259.1Z"/><rect class="cls-17" x="396.63" y="325.63" width="755.78" height="113.65"/><rect class="cls-18" x="407.95" y="462.04" width="448.53" height="17.47"/><rect class="cls-19" x="407.95" y="502.49" width="448.53" height="17.47"/><rect class="cls-20" x="407.95" y="542.94" width="448.53" height="17.47"/><rect class="cls-21" x="407.95" y="583.39" width="448.53" height="17.47"/><rect class="cls-22" x="407.95" y="638.55" width="448.53" height="131.47"/><rect class="cls-22" x="908.92" y="460.51" width="243.48" height="181.85"/><g class="cls-23"><rect class="cls-2" x="1070.04" y="363.77" width="226.54" height="184.54" rx="20.58"/><g class="cls-24"><rect class="cls-2" x="1070.04" y="363.77" width="226.54" height="184.54" rx="20.58"/></g></g><line class="cls-25" x1="1118.83" y1="249.3" x2="1136.23" y2="249.3"/><rect class="cls-26" x="1147.92" y="238.57" width="19.1" height="19.1"/><rect class="cls-27" x="1145.39" y="240.94" width="19.1" height="19.1"/><line class="cls-25" x1="1181.34" y1="240.94" x2="1196.26" y2="255.3"/><line class="cls-25" x1="1196.26" y1="240.94" x2="1181.34" y2="255.3"/><rect class="cls-3" x="425.09" y="246.61" width="675.48" height="20.84" rx="5.21"/><g class="cls-28"><rect class="cls-3" x="1070.04" y="363.77" width="226.54" height="184.54" rx="20.58"/><g class="cls-29"><rect class="cls-3" x="1070.04" y="363.77" width="226.54" height="184.54" rx="20.58"/></g></g><path class="cls-30" d="M439.76,259.87l4.73,4.88a.88.88,0,0,0,1.24,0,.87.87,0,0,0,0-1.24L441,258.65a6,6,0,1,0-1.26,1.22ZM433.25,258a4.23,4.23,0,1,1,6,.09A4.24,4.24,0,0,1,433.25,258Z"/><ellipse class="cls-31" cx="1144.07" cy="434.95" rx="29.42" ry="36"/><path class="cls-31" d="M1195.94,548.31H1092.19c3.6-22.08,11.56-40.86,22.12-53.23,8.53-10,18.77-15.81,29.77-15.81s21.2,5.81,29.74,15.81C1184.38,507.45,1192.34,526.23,1195.94,548.31Z"/><path class="cls-32" d="M624.54,828.74l3.23.59c-20.12,4-41.9,6.92-62.39,6-5.31,57.14-6.74,97-8.88,154.37a91.61,91.61,0,0,1-28.69,8.49,182.53,182.53,0,0,1-28.1,1.38c-3.8-.07-7.59-.2-11.35-.37q-9.23-.4-18.59-.39c-51.63-.06-105.52,7.3-155.08-4.85-2.15-.53-4.46-1.16-5.87-2.87-2-2.38-1.48-5.86-.9-8.89,8.41-44.2,13-90.91,15.59-136.17q.39-6.54.71-13c-5.48,18.35-11.87,36.53-22.45,52.48-28.93.36-56.7-8.79-84.32-17.37,13.52-30.73,21.18-63.66,32.25-95.36S276,709.64,301.09,687.4c27.92-24.71,65.19-35.66,101.51-44,12.3,6.88,23.72,7.84,37.65,9.9,9.11,1.34,18.41,2,27.46.43s18.63-8.1,24.56-15.13c20.06,8.61,49.2,2.33,70,9.07,17.25,5.6,30.79,19.41,40.27,34.88,26.82,43.77,25.15,100.31,51,144.66C644.09,829.73,634.25,829.54,624.54,828.74Z"/><rect class="cls-31" x="1194.32" y="398.95" width="91.87" height="6" rx="2.91"/><g class="cls-33"><rect class="cls-34" x="1194.32" y="420.02" width="91.87" height="6" rx="2.91"/></g><g class="cls-33"><rect class="cls-34" x="1194.32" y="441.1" width="91.87" height="6" rx="2.91"/></g><path class="cls-35" d="M427.75,986.4c13.56,5.52,27.56,10.33,42,12.38-51.63-.06-105.52,7.3-155.08-4.85-2.15-.53-4.46-1.16-5.87-2.87-2-2.38-1.48-5.86-.9-8.89,8.41-44.2,13-90.91,15.59-136.17,5.24-27.75,8.58-55.88,12.24-81.63,4.74,27.37,1.45,55.38.55,83.14s1,56.78,14.74,80.89C367.24,956.77,397.49,974.1,427.75,986.4Z"/><path class="cls-35" d="M653,853.2c-25.71-7-47.51-24.62-64.14-45.43s-28.67-44.85-40.59-68.68q8.6,52.32,19.84,104.16c24.09,15.28,51.76,16.62,80.29,16.82a3.12,3.12,0,0,0,2.58-.78C651.53,858.55,653.78,852.74,653,853.2Z"/><path class="cls-36" d="M499.49,648.68c0,10.65-1.3,21.84-7.48,30.5-10.21,14.32-31.15,17.35-47.81,11.71s-29-19.44-41.73-31.62c1.31-.71,1.68-2.39,1.91-3.86,3.9-25.43,4.59-50.34-1.5-75.3,0-.17-.08-.35-.13-.52,16.77-3.73,32.64-.38,49.08,4.57,13.3,4,27.22,8.36,36.85,18.37,1.3,1.35,2.39,3.85.77,4.81.66,9.69-1.7,21.46,2.37,30.28a32.44,32.44,0,0,0,1.84,3.43A47.38,47.38,0,0,0,499.49,648.68Z"/><g class="cls-33"><rect class="cls-34" x="1194.32" y="462.17" width="91.87" height="6" rx="2.91"/></g><path class="cls-37" d="M493.66,641.05c-13.6-3.45-26.88-7.88-38.78-15.18-8.42-5.18-15.94-11.69-23.41-18.16-9-7.78-18-15.59-25.88-24.52-1-1.08-1.89-2.08-2.71-3.08,0-.17-.08-.35-.13-.52,16.77-3.73,32.64-.38,49.08,4.57,13.3,4,27.22,8.36,36.85,18.37,1.3,1.35,2.39,3.85.77,4.81.66,9.69-1.7,21.46,2.37,30.28A32.44,32.44,0,0,0,493.66,641.05Z"/><g class="cls-33"><rect class="cls-34" x="1194.32" y="483.24" width="91.87" height="6" rx="2.91"/></g><path class="cls-36" d="M522.43,535.06c0,21.91-3.7,44.08-13.59,63.59-1.63,3.2-3.52,6.44-6.52,8.42-3.84,2.53-8.75,2.55-13.35,2.43-15.51-.42-31.12-1.5-46.11-5.5s-29.44-11.07-40.31-22.15c-5.88-6-12.94-13.51-15.34-21.56-10.1-33.85-1.09-72.72,22.86-98.68,8.08-8.75,17.87-16.17,29.11-20.17,10.23-3.64,21.35-4.33,32.15-3.23,9.08.92,18.17,3.13,26,7.78s14.67,7.76,16.31,16.74c2.38,12.95,4.77,25.95,6.44,39a270,270,0,0,1,2.31,29.64C522.42,532.62,522.43,533.84,522.43,535.06Z"/><path class="cls-36" d="M486.13,912.44s-.56,19-8.07,36.22c-3,6.89-7.11,13.49-12.73,18.49C408.45,980.82,268.94,983,248.7,983c-14.06,0-25.22-1-33.28-8.66-6.28-5.92-9.35-34.91-8.1-43.45a272.86,272.86,0,0,1,16.82-60.75l12,3.29,28.5,7.82a20.93,20.93,0,0,0,3,.59l30.86,3.59s-2.8,11.68-7.17,29.74c21.34-2.19,82.06-7.12,128.56-6.56S486.13,912.44,486.13,912.44Z"/><path class="cls-38" d="M545.53,432.49c-.88,21.62-17.51,41.63-38.59,46.46-10,2.29-20.49,1.43-30.67,0-15.19-2.15-32.81-6.31-45.38-15.09a86.36,86.36,0,0,1,2.61,53.73c-1.93,7-4.87,13.86-9.88,19.09s-12.38,8.57-19.52,7.37c4.25,10.27,3.62,18.12,5.83,29,.27,1.31.45,2.88-.52,3.81a4,4,0,0,1-2.87.75c-18.07-.18-35.2-8.84-48-21.78a81.16,81.16,0,0,1-10.48-13c-8.57-13.21-13.61-29.18-11.55-44.78s13.82-29.52,28.51-35.2c-2.17-10.77,2.48-21.92,9.24-30.57,12.1-15.45,31-24.88,50.54-27.12s39.43,2.31,57,11.07c9,4.51,18.58,10.25,28.23,11.2a24.72,24.72,0,0,0,9.64-.85c4.18-1.25,7.93-3.71,12.13-4.93s9.41-.76,12,2.77C545.45,426.68,545.64,429.69,545.53,432.49Z"/><path class="cls-39" d="M478.06,948.66c-3,6.89-7.11,13.49-12.73,18.49C408.45,980.82,268.94,983,248.7,983c-14.06,0-25.22-1-33.28-8.66-6.28-5.92-9.35-34.91-8.1-43.45a272.86,272.86,0,0,1,16.82-60.75l12,3.29c-3.75,6.61-7,13.57-8.43,22.08-2.25,13.16.12,27.83,9.39,37.46s23.1,12.47,36.18,14.52a621.32,621.32,0,0,0,111.26,7.22C415.74,953.94,446.9,950.8,478.06,948.66Z"/><path class="cls-40" d="M855.38,788.15,780.65,976.42H456.25L531,788.15c3.68-9.29,15.56-16.81,26.53-16.81h284.7c5.29,0,9.4,1.75,11.82,4.61C856.63,779,857.29,783.34,855.38,788.15Z"/><path class="cls-41" d="M855.37,788.15l-75.6,188.27H460.32l74-184.22c3.73-9.28,15.74-16.8,26.84-16.8h288A20.71,20.71,0,0,1,854,776C856.63,779,857.3,783.34,855.37,788.15Z"/><path class="cls-42" d="M1437.15,752.39a1.74,1.74,0,1,1,3.47,0v7.83a1.74,1.74,0,0,1-3.47,0v-7.83Zm-11.86,6.35a1.74,1.74,0,0,1,2.46-2.46l5.53,5.54a1.74,1.74,0,0,1-2.46,2.46l-5.53-5.54Zm-3.9,12.88a1.74,1.74,0,1,1,0-3.48h7.83a1.74,1.74,0,1,1,0,3.48Zm6.36,11.86a1.74,1.74,0,0,1-2.46-2.46l5.53-5.53a1.74,1.74,0,0,1,2.46,2.46l-5.53,5.53Zm12.87,3.9a1.74,1.74,0,1,1-3.47,0v-7.83a1.74,1.74,0,1,1,3.47,0v7.83Zm11.87-6.36a1.74,1.74,0,0,1-2.46,2.46l-5.54-5.53a1.74,1.74,0,0,1,2.46-2.46l5.54,5.53Zm3.89-12.88a1.74,1.74,0,0,1,0,3.48h-7.83a1.74,1.74,0,1,1,0-3.48ZM1450,756.28a1.74,1.74,0,0,1,2.46,2.46l-5.54,5.54a1.74,1.74,0,0,1-2.46-2.46Z"/><path class="cls-42" d="M1031.84,295.47a1.69,1.69,0,0,1,3.38,0v7.6a1.69,1.69,0,0,1-3.38,0v-7.6Zm-11.51,6.17a1.69,1.69,0,0,1,2.39-2.39l5.37,5.37a1.69,1.69,0,1,1-2.39,2.39l-5.37-5.37Zm-3.78,12.5a1.69,1.69,0,1,1,0-3.38h7.6a1.69,1.69,0,0,1,0,3.38Zm6.17,11.51a1.69,1.69,0,0,1-2.39-2.39l5.37-5.37a1.69,1.69,0,1,1,2.39,2.39l-5.37,5.37Zm12.5,3.78a1.69,1.69,0,0,1-3.38,0v-7.6a1.69,1.69,0,0,1,3.38,0v7.6Zm11.51-6.17a1.69,1.69,0,0,1-2.39,2.39l-5.37-5.37a1.69,1.69,0,0,1,2.39-2.39l5.37,5.37Zm3.78-12.5a1.69,1.69,0,1,1,0,3.38h-7.6a1.69,1.69,0,0,1,0-3.38Zm-6.17-11.51a1.69,1.69,0,0,1,2.39,2.39l-5.37,5.37a1.69,1.69,0,0,1-2.39-2.39Z"/><path class="cls-42" d="M562.53,366.63a1.69,1.69,0,1,1,3.38,0v7.6a1.69,1.69,0,1,1-3.38,0v-7.6ZM551,372.8a1.69,1.69,0,1,1,2.39-2.39l5.37,5.37a1.69,1.69,0,1,1-2.39,2.39L551,372.8Zm-3.78,12.5a1.69,1.69,0,0,1,0-3.38h7.6a1.69,1.69,0,0,1,0,3.38Zm6.17,11.52a1.71,1.71,0,0,1-2.39,0,1.69,1.69,0,0,1,0-2.39l5.37-5.38a1.69,1.69,0,1,1,2.39,2.39l-5.37,5.38Zm12.5,3.77a1.69,1.69,0,1,1-3.38,0V393a1.69,1.69,0,1,1,3.38,0v7.59Zm11.51-6.16a1.69,1.69,0,0,1,0,2.39,1.71,1.71,0,0,1-2.39,0l-5.37-5.38a1.69,1.69,0,0,1,2.39-2.39l5.37,5.38Zm3.78-12.51a1.69,1.69,0,0,1,0,3.38h-7.6a1.69,1.69,0,0,1,0-3.38ZM575,370.41a1.69,1.69,0,0,1,2.39,2.39l-5.37,5.37a1.69,1.69,0,0,1-2.39-2.39Z"/><path class="cls-43" d="M154.67,994.63H1374.25c11.85,0,21.54,6.85,21.54,15.22h0c0,8.37-9.69,15.22-21.54,15.22H154.67c-11.84,0-21.54-6.85-21.54-15.22h0C133.13,1001.48,142.83,994.63,154.67,994.63Z"/><path class="cls-44" d="M108.83,971H1420.1c15.11,0,27.47,8.74,27.47,19.42h0c0,10.69-12.36,19.42-27.47,19.42H108.83c-15.11,0-27.47-8.73-27.47-19.42h0C81.36,979.75,93.72,971,108.83,971Z"/><rect class="cls-45" x="1012.55" y="971.01" width="57.16" height="38.85"/><rect class="cls-45" x="1099.4" y="971.01" width="29.7" height="38.85"/><rect class="cls-45" x="1160.28" y="971.01" width="14.85" height="38.85"/><rect class="cls-45" x="1225.97" y="971.01" width="63.95" height="38.85"/><rect class="cls-45" x="1338.13" y="971.01" width="31.96" height="38.85"/><path class="cls-46" d="M111,977.32H890.49c9,0,16.32,5.19,16.32,11.54h0c0,6.35-7.34,11.55-16.32,11.55H111c-9,0-16.33-5.2-16.33-11.55h0C94.71,982.51,102.06,977.32,111,977.32Z"/><path class="cls-47" d="M509.24,567.17a10.54,10.54,0,0,1-3.38,3.59,20.3,20.3,0,0,1-2.15,1.28c-.37.19-.74.39-1.12.56l-1.16.47a37,37,0,0,1-9.67,2.18c-.82.1-1.64.09-2.46.14s-1.65.11-2.47.08l-2.46-.08c-.82,0-1.64,0-2.45-.14-1.63-.18-3.26-.32-4.87-.6s-3.21-.6-4.79-1c1.64,0,3.26,0,4.88,0s3.23,0,4.84,0,3.21-.08,4.81-.11,3.2-.17,4.78-.32,3.17-.32,4.73-.63l1.18-.18,1.15-.27c.77-.18,1.55-.34,2.3-.58C503.92,570.68,507,569.53,509.24,567.17Z"/><path class="cls-36" d="M413,580.74a36.21,36.21,0,0,1-18.91-6c-5.15-3.44-9.47-8.48-10.65-14.48a17.51,17.51,0,0,1,1.84-11.76,12.33,12.33,0,0,1,4.52-4.82c4.53-2.57,10.23-1,15.2.59,3.5,10.27,6.66,19.91,11.18,29.8.77,1.67,1.56,3.58.87,5.29S413.62,582.48,413,580.74Z"/><path class="cls-35" d="M527.81,998.16a182.53,182.53,0,0,1-28.1,1.38C509.08,999,518.44,998.23,527.81,998.16Z"/><path class="cls-48" d="M510,427.42c-4.9,12.79-13.61,24.2-26.46,28-22.65,6.69-46.25-13-69.42-8.39-5.27,1.06-10.51,3.57-13.54,8s-3.41,10.13-4,15.49c-1.68,15.39-17.73,73.79-38.07,85.31a81.16,81.16,0,0,1-10.48-13c-8.57-13.21-13.61-29.18-11.55-44.78s13.82-29.52,28.51-35.2c-2.17-10.77,2.48-21.92,9.24-30.57,12.1-15.45,31-24.88,50.54-27.12s39.43,2.31,57,11.07C490.83,420.73,500.39,426.47,510,427.42Z"/><circle class="cls-49" cx="442.29" cy="537.6" r="22.81"/><path class="cls-49" d="M522.43,535.06a17.19,17.19,0,0,1-2.33-33.31,270,270,0,0,1,2.31,29.64C522.42,532.62,522.43,533.84,522.43,535.06Z"/></g></g></g></svg>