<svg xmlns="http://www.w3.org/2000/svg" xmlns:xlink="http://www.w3.org/1999/xlink" viewBox="0 0 989.99 270"><defs><style>.cls-1{fill:#292b2c}.cls-2{fill:#fff}.cls-3{fill:#3e396b}.cls-4{fill:#d21f79}.cls-5{fill:url(#linear-gradient)}</style><linearGradient id="linear-gradient" x1="374.76" x2="977.99" y1="137.42" y2="137.42" gradientTransform="translate(12)" gradientUnits="userSpaceOnUse"><stop offset="0" stop-color="#d21f79"/><stop offset=".08" stop-color="#c52178"/><stop offset=".52" stop-color="#7c2e71"/><stop offset=".84" stop-color="#4f366d"/><stop offset=".99" stop-color="#3e396b"/></linearGradient></defs><g id="Layer_2" data-name="Layer 2"><g id="Layer_1-2" data-name="Layer 1"><rect width="359" height="71" x=".5" y=".5" class="cls-1"/><path d="M359,1V71H1V1H359m1-1H0V72H360V0Z" class="cls-2"/><rect width="359" height="71" x=".5" y="198.5" class="cls-1"/><path d="M359,199v70H1V199H359m1-1H0v72H360V198Z" class="cls-2"/><rect width="161" height="71" x="9.5" y="99.5" class="cls-3"/><path d="M170,100v70H10V100H170m1-1H9v72H171V99Z" class="cls-2"/><rect width="161" height="71" x="189.5" y="99.5" class="cls-4"/><path d="M350,100v70H190V100H350m1-1H189v72H351V99Z" class="cls-2"/><path d="M387,171.46l1.32-15.21c9.6,6.05,20.28,9.51,27.36,9.51,10.44,0,17.88-6.4,17.88-18.67,0-10.88-4.92-15.55-11.28-18.66l-10.56-5c-11.16-5.36-25-11.92-25-35.25,0-21.26,12.48-32.84,28.92-32.84,8.16,0,15,2.6,25.2,8.47L439.56,79c-9.6-5.36-16.32-8-23.28-8-10.32,0-16,5.7-16,15.38,0,10.54,5.4,15.21,11.52,18l10.32,4.84c11,5.18,25.08,12.79,25.08,36.63,0,23.16-14.52,35.6-30.84,35.6C406.2,181.48,397.32,177.68,387,171.46Z"/><path d="M458.76,138.11c0-25.92,10.92-43.55,27.12-43.55s26.88,17.63,26.88,42.51a53.18,53.18,0,0,1-.36,7.09H471.48c.84,12.09,5.88,23,17,23,5.88,0,14.88-2.94,21.12-7.26l1,14c-7.8,5.36-15.24,7.6-22.08,7.6C470,181.48,458.76,164.72,458.76,138.11Zm41-6.05c0-17.45-6.48-24.37-13.44-24.37-7.8,0-14.28,8.64-14.52,24.37Z"/><path d="M527.64,155V60.52l12.84-3.46V157.29c0,7.78,2.64,9.85,5.52,9.85a13.14,13.14,0,0,0,5-.87v14.35a27.64,27.64,0,0,1-7.32.86C532.8,181.48,527.64,173.19,527.64,155Z"/><path d="M560,138.11c0-25.92,10.92-43.55,27.12-43.55S614,112.19,614,137.07a53.18,53.18,0,0,1-.36,7.09H572.76c.84,12.09,5.88,23,17,23,5.88,0,14.88-2.94,21.12-7.26l1,14c-7.8,5.36-15.24,7.6-22.08,7.6C571.32,181.48,560,164.72,560,138.11Zm41-6.05c0-17.45-6.48-24.37-13.44-24.37-7.8,0-14.28,8.64-14.52,24.37Z"/><path d="M624.36,137.24c0-25.23,11.52-42.68,29.28-42.68,5.88,0,11.76,1.56,19,5.88l-.84,14c-5.52-3.11-11.28-5.35-17.28-5.35-10.92,0-17.16,13.13-17.16,28.34,0,15.72,6.24,29.55,17.16,29.55,6,0,11.64-2.42,17.28-5.53l.84,14.17c-7.44,4.32-13.2,5.87-19,5.87C635.88,181.48,624.36,163.34,624.36,137.24Z"/><path d="M717.35,165.76v14.51a34.18,34.18,0,0,1-8.87,1.21c-11.4,0-18.24-8.12-18.24-25.23V109.94H679.68l1.08-13.65h9.48l2.88-29H703.2v29h14v13.65h-14V156.6c0,8,3.36,10.54,7.68,10.54A15.41,15.41,0,0,0,717.35,165.76Z"/><path d="M728.16,70.54c0-6.74,3.72-12.1,8.16-12.1s8.16,5.36,8.16,12.1c0,6.91-3.6,12.27-8.16,12.27S728.16,77.45,728.16,70.54Zm1.68,25.75h13v83.46h-13Z"/><path d="M757.44,165.41l23.87-41.82c1.68-2.94,5-8.81,7.8-13.13v-.69a60.83,60.83,0,0,1-11.16.86H758.52V96.29h43.55v14.34l-23.76,41.65c-2.16,3.8-5,9-7.8,13.3v.69a60,60,0,0,1,11.16-.86h21.6v14.34H757.44Z"/><path d="M813.59,138.11c0-25.92,10.92-43.55,27.12-43.55s26.88,17.63,26.88,42.51a53.18,53.18,0,0,1-.36,7.09H826.31c.84,12.09,5.88,23,17,23,5.88,0,14.88-2.94,21.12-7.26l1,14c-7.8,5.36-15.24,7.6-22.08,7.6C824.87,181.48,813.59,164.72,813.59,138.11Zm41-6.05c0-17.45-6.48-24.37-13.44-24.37-7.8,0-14.28,8.64-14.52,24.37Z"/><path d="M881.27,167.66c0-7.43,3.84-13.14,8.88-13.14s8.76,5.71,8.76,13.14c0,7.26-3.72,13-8.76,13S881.27,174.92,881.27,167.66Z"/><path d="M905.63,218.64V205a13.13,13.13,0,0,0,4.92.87c3,0,6.24-2.25,6.24-11.58v-98h13v96.25c0,17.63-6.24,27-17.28,27A24.83,24.83,0,0,1,905.63,218.64Zm9.48-148.1c0-6.74,3.6-12.1,8.16-12.1s8.16,5.36,8.16,12.1c0,6.91-3.72,12.27-8.16,12.27S915.11,77.45,915.11,70.54Z"/><path d="M945.23,175.61l1-13.31c7,3.46,14.52,5.88,20,5.88,8,0,11.28-4.32,11.28-10.2,0-6.57-2.88-9-7.2-10.71l-7.44-2.94c-8.52-3.46-18.24-8.47-18.24-25.06,0-14.69,9.12-24.71,22.2-24.71a39.07,39.07,0,0,1,19.44,5.88l-1,13c-6-3.29-12.48-5.71-17.64-5.71-7.92,0-10.56,4.84-10.56,9.68,0,5.88,3.12,9,7.56,10.89l7.68,2.94C979.91,134.31,990,139,990,157.12c0,13.82-8.88,24.36-22.68,24.36C961.43,181.48,952,179.06,945.23,175.61Z"/><path d="M387,171.46l1.32-15.21c9.6,6.05,20.28,9.51,27.36,9.51,10.44,0,17.88-6.4,17.88-18.67,0-10.88-4.92-15.55-11.28-18.66l-10.56-5c-11.16-5.36-25-11.92-25-35.25,0-21.26,12.48-32.84,28.92-32.84,8.16,0,15,2.6,25.2,8.47L439.56,79c-9.6-5.36-16.32-8-23.28-8-10.32,0-16,5.7-16,15.38,0,10.54,5.4,15.21,11.52,18l10.32,4.84c11,5.18,25.08,12.79,25.08,36.63,0,23.16-14.52,35.6-30.84,35.6C406.2,181.48,397.32,177.68,387,171.46Z" class="cls-5"/><path d="M458.76,138.11c0-25.92,10.92-43.55,27.12-43.55s26.88,17.63,26.88,42.51a53.18,53.18,0,0,1-.36,7.09H471.48c.84,12.09,5.88,23,17,23,5.88,0,14.88-2.94,21.12-7.26l1,14c-7.8,5.36-15.24,7.6-22.08,7.6C470,181.48,458.76,164.72,458.76,138.11Zm41-6.05c0-17.45-6.48-24.37-13.44-24.37-7.8,0-14.28,8.64-14.52,24.37Z" class="cls-5"/><path d="M527.64,155V60.52l12.84-3.46V157.29c0,7.78,2.64,9.85,5.52,9.85a13.14,13.14,0,0,0,5-.87v14.35a27.64,27.64,0,0,1-7.32.86C532.8,181.48,527.64,173.19,527.64,155Z" class="cls-5"/><path d="M560,138.11c0-25.92,10.92-43.55,27.12-43.55S614,112.19,614,137.07a53.18,53.18,0,0,1-.36,7.09H572.76c.84,12.09,5.88,23,17,23,5.88,0,14.88-2.94,21.12-7.26l1,14c-7.8,5.36-15.24,7.6-22.08,7.6C571.32,181.48,560,164.72,560,138.11Zm41-6.05c0-17.45-6.48-24.37-13.44-24.37-7.8,0-14.28,8.64-14.52,24.37Z" class="cls-5"/><path d="M624.36,137.24c0-25.23,11.52-42.68,29.28-42.68,5.88,0,11.76,1.56,19,5.88l-.84,14c-5.52-3.11-11.28-5.35-17.28-5.35-10.92,0-17.16,13.13-17.16,28.34,0,15.72,6.24,29.55,17.16,29.55,6,0,11.64-2.42,17.28-5.53l.84,14.17c-7.44,4.32-13.2,5.87-19,5.87C635.88,181.48,624.36,163.34,624.36,137.24Z" class="cls-5"/><path d="M717.35,165.76v14.51a34.18,34.18,0,0,1-8.87,1.21c-11.4,0-18.24-8.12-18.24-25.23V109.94H679.68l1.08-13.65h9.48l2.88-29H703.2v29h14v13.65h-14V156.6c0,8,3.36,10.54,7.68,10.54A15.41,15.41,0,0,0,717.35,165.76Z" class="cls-5"/><path d="M728.16,70.54c0-6.74,3.72-12.1,8.16-12.1s8.16,5.36,8.16,12.1c0,6.91-3.6,12.27-8.16,12.27S728.16,77.45,728.16,70.54Zm1.68,25.75h13v83.46h-13Z" class="cls-5"/><path d="M757.44,165.41l23.87-41.82c1.68-2.94,5-8.81,7.8-13.13v-.69a60.83,60.83,0,0,1-11.16.86H758.52V96.29h43.55v14.34l-23.76,41.65c-2.16,3.8-5,9-7.8,13.3v.69a60,60,0,0,1,11.16-.86h21.6v14.34H757.44Z" class="cls-5"/><path d="M813.59,138.11c0-25.92,10.92-43.55,27.12-43.55s26.88,17.63,26.88,42.51a53.18,53.18,0,0,1-.36,7.09H826.31c.84,12.09,5.88,23,17,23,5.88,0,14.88-2.94,21.12-7.26l1,14c-7.8,5.36-15.24,7.6-22.08,7.6C824.87,181.48,813.59,164.72,813.59,138.11Zm41-6.05c0-17.45-6.48-24.37-13.44-24.37-7.8,0-14.28,8.64-14.52,24.37Z" class="cls-5"/><path d="M881.27,167.66c0-7.43,3.84-13.14,8.88-13.14s8.76,5.71,8.76,13.14c0,7.26-3.72,13-8.76,13S881.27,174.92,881.27,167.66Z" class="cls-5"/><path d="M905.63,218.64V205a13.13,13.13,0,0,0,4.92.87c3,0,6.24-2.25,6.24-11.58v-98h13v96.25c0,17.63-6.24,27-17.28,27A24.83,24.83,0,0,1,905.63,218.64Zm9.48-148.1c0-6.74,3.6-12.1,8.16-12.1s8.16,5.36,8.16,12.1c0,6.91-3.72,12.27-8.16,12.27S915.11,77.45,915.11,70.54Z" class="cls-5"/><path d="M945.23,175.61l1-13.31c7,3.46,14.52,5.88,20,5.88,8,0,11.28-4.32,11.28-10.2,0-6.57-2.88-9-7.2-10.71l-7.44-2.94c-8.52-3.46-18.24-8.47-18.24-25.06,0-14.69,9.12-24.71,22.2-24.71a39.07,39.07,0,0,1,19.44,5.88l-1,13c-6-3.29-12.48-5.71-17.64-5.71-7.92,0-10.56,4.84-10.56,9.68,0,5.88,3.12,9,7.56,10.89l7.68,2.94C979.91,134.31,990,139,990,157.12c0,13.82-8.88,24.36-22.68,24.36C961.43,181.48,952,179.06,945.23,175.61Z" class="cls-5"/></g></g></svg>