<svg xmlns="http://www.w3.org/2000/svg" xmlns:xlink="http://www.w3.org/1999/xlink" viewBox="0 0 603.23 164.17"><defs><style>.cls-1{fill:url(#linear-gradient)}</style><linearGradient id="linear-gradient" x2="603.23" y1="82.08" y2="82.08" gradientUnits="userSpaceOnUse"><stop offset="0" stop-color="#d21f79"/><stop offset=".08" stop-color="#c52178"/><stop offset=".52" stop-color="#7c2e71"/><stop offset=".84" stop-color="#4f366d"/><stop offset=".99" stop-color="#3e396b"/></linearGradient></defs><g id="Layer_2" data-name="Layer 2"><g id="Layer_1-2" data-name="Layer 1"><path d="M.24,116.12l1.32-15.2c9.6,6,20.28,9.5,27.36,9.5,10.44,0,17.88-6.39,17.88-18.66,0-10.89-4.92-15.55-11.28-18.66L25,68.09C13.8,62.73,0,56.16,0,32.83,0,11.58,12.48,0,28.92,0c8.16,0,15,2.59,25.2,8.47L52.8,23.67c-9.6-5.35-16.32-7.94-23.28-7.94-10.32,0-16,5.7-16,15.37,0,10.55,5.4,15.21,11.52,18L35.4,53.92c11,5.18,25.08,12.78,25.08,36.63,0,23.16-14.52,35.6-30.84,35.6C19.44,126.15,10.56,122.35.24,116.12Z"/><path d="M72,82.77c0-25.92,10.92-43.54,27.12-43.54S126,56.85,126,81.74a53,53,0,0,1-.36,7.08H84.72c.84,12.1,5.88,23,17,23,5.88,0,14.88-2.94,21.12-7.26l1,14c-7.8,5.36-15.24,7.61-22.08,7.61C83.28,126.15,72,109.39,72,82.77Zm41-6c0-17.46-6.48-24.37-13.44-24.37-7.8,0-14.28,8.64-14.52,24.37Z"/><path d="M140.88,99.71V5.18l12.84-3.45V102c0,7.77,2.64,9.85,5.52,9.85a13.33,13.33,0,0,0,5-.87v14.34a27.26,27.26,0,0,1-7.32.87C146,126.15,140.88,117.85,140.88,99.71Z"/><path d="M173.28,82.77c0-25.92,10.92-43.54,27.12-43.54s26.88,17.62,26.88,42.51a53,53,0,0,1-.36,7.08H186c.84,12.1,5.88,23,17,23,5.88,0,14.88-2.94,21.12-7.26l1,14c-7.8,5.36-15.24,7.61-22.08,7.61C184.56,126.15,173.28,109.39,173.28,82.77Zm41-6c0-17.46-6.48-24.37-13.44-24.37-7.8,0-14.28,8.64-14.52,24.37Z"/><path d="M237.6,81.91c0-25.23,11.52-42.68,29.28-42.68,5.88,0,11.76,1.55,19,5.87l-.84,14c-5.52-3.11-11.28-5.36-17.28-5.36-10.92,0-17.16,13.14-17.16,28.34,0,15.73,6.24,29.55,17.16,29.55,6,0,11.64-2.42,17.28-5.53l.84,14.17c-7.44,4.32-13.2,5.88-19,5.88C249.12,126.15,237.6,108,237.6,81.91Z"/><path d="M330.6,110.42v14.52a34.74,34.74,0,0,1-8.88,1.21c-11.4,0-18.24-8.12-18.24-25.23V54.61H292.92L294,41h9.48l2.88-29h10.08V41h14V54.61h-14v46.65c0,7.95,3.36,10.55,7.68,10.55A15.49,15.49,0,0,0,330.6,110.42Z"/><path d="M341.4,15.21c0-6.74,3.72-12.1,8.16-12.1s8.16,5.36,8.16,12.1c0,6.91-3.6,12.27-8.16,12.27S341.4,22.12,341.4,15.21ZM343.08,41h13v83.47h-13Z"/><path d="M370.68,110.08l23.87-41.82c1.68-2.94,5-8.82,7.8-13.14v-.69a60.84,60.84,0,0,1-11.16.87H371.76V41h43.55V55.3L391.55,96.94c-2.16,3.81-5,9-7.8,13.31v.69a60,60,0,0,1,11.16-.86h21.6v14.34H370.68Z"/><path d="M426.83,82.77c0-25.92,10.92-43.54,27.12-43.54s26.88,17.62,26.88,42.51a53,53,0,0,1-.36,7.08H439.55c.84,12.1,5.88,23,17,23,5.88,0,14.88-2.94,21.12-7.26l1,14c-7.8,5.36-15.24,7.61-22.08,7.61C438.11,126.15,426.83,109.39,426.83,82.77Zm41-6c0-17.46-6.48-24.37-13.44-24.37-7.8,0-14.28,8.64-14.52,24.37Z"/><path d="M494.51,112.32c0-7.43,3.84-13.13,8.88-13.13s8.76,5.7,8.76,13.13c0,7.26-3.72,13-8.76,13S494.51,119.58,494.51,112.32Z"/><path d="M518.87,163.3V149.65a13.11,13.11,0,0,0,4.92.86c3,0,6.24-2.24,6.24-11.57V41h13v96.26c0,17.62-6.24,27-17.28,27A24.86,24.86,0,0,1,518.87,163.3Zm9.48-148.09c0-6.74,3.6-12.1,8.16-12.1s8.16,5.36,8.16,12.1c0,6.91-3.72,12.27-8.16,12.27S528.35,22.12,528.35,15.21Z"/><path d="M558.47,120.27l1-13.3c7,3.45,14.52,5.87,20,5.87,8,0,11.28-4.32,11.28-10.19,0-6.57-2.88-9-7.2-10.72L576.11,89c-8.52-3.45-18.24-8.46-18.24-25,0-14.69,9.12-24.71,22.2-24.71a39.05,39.05,0,0,1,19.44,5.87l-1,13c-6-3.28-12.48-5.7-17.64-5.7-7.92,0-10.56,4.84-10.56,9.68,0,5.87,3.12,9,7.56,10.88l7.68,2.94c7.56,3.11,17.64,7.78,17.64,25.92,0,13.83-8.88,24.37-22.68,24.37C574.67,126.15,565.19,123.73,558.47,120.27Z"/><path d="M.24,116.12l1.32-15.2c9.6,6,20.28,9.5,27.36,9.5,10.44,0,17.88-6.39,17.88-18.66,0-10.89-4.92-15.55-11.28-18.66L25,68.09C13.8,62.73,0,56.16,0,32.83,0,11.58,12.48,0,28.92,0c8.16,0,15,2.59,25.2,8.47L52.8,23.67c-9.6-5.35-16.32-7.94-23.28-7.94-10.32,0-16,5.7-16,15.37,0,10.55,5.4,15.21,11.52,18L35.4,53.92c11,5.18,25.08,12.78,25.08,36.63,0,23.16-14.52,35.6-30.84,35.6C19.44,126.15,10.56,122.35.24,116.12Z" class="cls-1"/><path d="M72,82.77c0-25.92,10.92-43.54,27.12-43.54S126,56.85,126,81.74a53,53,0,0,1-.36,7.08H84.72c.84,12.1,5.88,23,17,23,5.88,0,14.88-2.94,21.12-7.26l1,14c-7.8,5.36-15.24,7.61-22.08,7.61C83.28,126.15,72,109.39,72,82.77Zm41-6c0-17.46-6.48-24.37-13.44-24.37-7.8,0-14.28,8.64-14.52,24.37Z" class="cls-1"/><path d="M140.88,99.71V5.18l12.84-3.45V102c0,7.77,2.64,9.85,5.52,9.85a13.33,13.33,0,0,0,5-.87v14.34a27.26,27.26,0,0,1-7.32.87C146,126.15,140.88,117.85,140.88,99.71Z" class="cls-1"/><path d="M173.28,82.77c0-25.92,10.92-43.54,27.12-43.54s26.88,17.62,26.88,42.51a53,53,0,0,1-.36,7.08H186c.84,12.1,5.88,23,17,23,5.88,0,14.88-2.94,21.12-7.26l1,14c-7.8,5.36-15.24,7.61-22.08,7.61C184.56,126.15,173.28,109.39,173.28,82.77Zm41-6c0-17.46-6.48-24.37-13.44-24.37-7.8,0-14.28,8.64-14.52,24.37Z" class="cls-1"/><path d="M237.6,81.91c0-25.23,11.52-42.68,29.28-42.68,5.88,0,11.76,1.55,19,5.87l-.84,14c-5.52-3.11-11.28-5.36-17.28-5.36-10.92,0-17.16,13.14-17.16,28.34,0,15.73,6.24,29.55,17.16,29.55,6,0,11.64-2.42,17.28-5.53l.84,14.17c-7.44,4.32-13.2,5.88-19,5.88C249.12,126.15,237.6,108,237.6,81.91Z" class="cls-1"/><path d="M330.6,110.42v14.52a34.74,34.74,0,0,1-8.88,1.21c-11.4,0-18.24-8.12-18.24-25.23V54.61H292.92L294,41h9.48l2.88-29h10.08V41h14V54.61h-14v46.65c0,7.95,3.36,10.55,7.68,10.55A15.49,15.49,0,0,0,330.6,110.42Z" class="cls-1"/><path d="M341.4,15.21c0-6.74,3.72-12.1,8.16-12.1s8.16,5.36,8.16,12.1c0,6.91-3.6,12.27-8.16,12.27S341.4,22.12,341.4,15.21ZM343.08,41h13v83.47h-13Z" class="cls-1"/><path d="M370.68,110.08l23.87-41.82c1.68-2.94,5-8.82,7.8-13.14v-.69a60.84,60.84,0,0,1-11.16.87H371.76V41h43.55V55.3L391.55,96.94c-2.16,3.81-5,9-7.8,13.31v.69a60,60,0,0,1,11.16-.86h21.6v14.34H370.68Z" class="cls-1"/><path d="M426.83,82.77c0-25.92,10.92-43.54,27.12-43.54s26.88,17.62,26.88,42.51a53,53,0,0,1-.36,7.08H439.55c.84,12.1,5.88,23,17,23,5.88,0,14.88-2.94,21.12-7.26l1,14c-7.8,5.36-15.24,7.61-22.08,7.61C438.11,126.15,426.83,109.39,426.83,82.77Zm41-6c0-17.46-6.48-24.37-13.44-24.37-7.8,0-14.28,8.64-14.52,24.37Z" class="cls-1"/><path d="M494.51,112.32c0-7.43,3.84-13.13,8.88-13.13s8.76,5.7,8.76,13.13c0,7.26-3.72,13-8.76,13S494.51,119.58,494.51,112.32Z" class="cls-1"/><path d="M518.87,163.3V149.65a13.11,13.11,0,0,0,4.92.86c3,0,6.24-2.24,6.24-11.57V41h13v96.26c0,17.62-6.24,27-17.28,27A24.86,24.86,0,0,1,518.87,163.3Zm9.48-148.09c0-6.74,3.6-12.1,8.16-12.1s8.16,5.36,8.16,12.1c0,6.91-3.72,12.27-8.16,12.27S528.35,22.12,528.35,15.21Z" class="cls-1"/><path d="M558.47,120.27l1-13.3c7,3.45,14.52,5.87,20,5.87,8,0,11.28-4.32,11.28-10.19,0-6.57-2.88-9-7.2-10.72L576.11,89c-8.52-3.45-18.24-8.46-18.24-25,0-14.69,9.12-24.71,22.2-24.71a39.05,39.05,0,0,1,19.44,5.87l-1,13c-6-3.28-12.48-5.7-17.64-5.7-7.92,0-10.56,4.84-10.56,9.68,0,5.87,3.12,9,7.56,10.88l7.68,2.94c7.56,3.11,17.64,7.78,17.64,25.92,0,13.83-8.88,24.37-22.68,24.37C574.67,126.15,565.19,123.73,558.47,120.27Z" class="cls-1"/></g></g></svg>